<?xml version="1.0" standalone="no"?>
<!DOCTYPE svg PUBLIC "-//W3C//DTD SVG 20010904//EN"
 "http://www.w3.org/TR/2001/REC-SVG-20010904/DTD/svg10.dtd">
<svg version="1.0" xmlns="http://www.w3.org/2000/svg"
 width="15834.000000pt" height="15834.000000pt" viewBox="0 0 15834.000000 15834.000000"
 preserveAspectRatio="xMidYMid meet">
<metadata>
Created by potrace 1.16, written by Peter Selinger 2001-2019
</metadata>
<g transform="translate(0.000000,15834.000000) scale(0.100000,-0.100000)"
fill="#FFFFFF" stroke="none">
<path d="M87440 148943 c-10542 -186 -20736 -3018 -29830 -8286 -5610 -3250
-10702 -7384 -15066 -12232 -4227 -4697 -7731 -10043 -10344 -15785 -4003
-8797 -5869 -18399 -5465 -28125 459 -11033 3822 -21616 9819 -30900 1106
-1713 2396 -3504 3659 -5079 l96 -120 -32 -37 c-18 -20 -7063 -7855 -15656
-17411 -8593 -9555 -15665 -17425 -15716 -17488 -352 -438 -644 -968 -820
-1490 -127 -374 -214 -803 -246 -1203 -15 -195 -6 -736 15 -917 129 -1089 568
-2033 1314 -2830 106 -113 2470 -2252 2722 -2462 298 -249 619 -458 975 -633
1239 -610 2679 -666 3980 -154 318 126 737 353 1013 552 265 189 544 433 738
643 75 81 30784 34232 30800 34253 2 2 86 -63 186 -144 1913 -1551 3808 -2915
5843 -4210 5860 -3727 12282 -6431 19015 -8005 6281 -1469 12817 -1943 19300
-1400 8287 695 16293 3043 23650 6938 4653 2463 9024 5552 12925 9133 1291
1186 2588 2483 3774 3774 3110 3388 5845 7124 8126 11100 1175 2047 2233 4164
3165 6330 3397 7894 5099 16452 4990 25085 -23 1750 -99 3248 -251 4915 -586
6438 -2175 12726 -4709 18635 -2988 6968 -7229 13322 -12536 18785 -595 612
-1435 1438 -2044 2010 -6776 6360 -14885 11122 -23675 13900 -5414 1712
-10957 2652 -16710 2835 -785 25 -2260 36 -3005 23z m2350 -8123 c2214 -56
4250 -224 6390 -530 10260 -1466 19896 -5911 27745 -12800 2010 -1764 3899
-3688 5636 -5740 3250 -3840 5970 -8160 8024 -12745 1036 -2312 1914 -4719
2609 -7150 109 -381 245 -879 241 -883 -4 -5 -195 45 -430 113 -1887 545
-3850 1734 -5765 3490 -457 419 -975 936 -1460 1455 -1244 1333 -2223 2317
-3160 3176 -3894 3569 -7121 5026 -12030 5433 -1610 134 -3509 161 -5925 86
-2034 -64 -4279 -186 -9010 -491 -3868 -249 -5016 -320 -7370 -455 -460 -27
-1244 -15 -1735 27 -1607 135 -2983 621 -4066 1435 -644 484 -1184 1066 -1668
1798 -1755 2654 -2509 6862 -2251 12556 140 3078 600 6708 1325 10460 45 231
95 492 112 580 17 88 34 164 39 169 5 5 131 12 281 16 441 11 2039 11 2468 0z
m-8353 -482 c-22 -93 -209 -1151 -311 -1763 -973 -5837 -1246 -10876 -816
-15065 372 -3621 1260 -6596 2672 -8955 435 -727 950 -1428 1498 -2040 182
-204 730 -751 925 -924 1360 -1207 2886 -2061 4640 -2596 1163 -354 2320 -550
3715 -627 309 -17 1433 -17 1750 0 1104 59 4595 274 7595 467 5146 330 6847
422 9200 496 536 17 2380 23 2870 10 3848 -104 6138 -705 8405 -2206 1417
-938 2892 -2285 5110 -4665 1168 -1254 2160 -2188 3260 -3066 2434 -1946 4935
-3203 7495 -3768 655 -144 1289 -238 1970 -292 116 -9 211 -17 212 -18 4 -4
110 -736 158 -1096 225 -1687 369 -3379 435 -5095 49 -1303 48 -2860 -5 -4185
-282 -7037 -1921 -13877 -4850 -20232 -66 -143 -72 -153 -194 -290 -964 -1097
-2076 -2230 -3116 -3178 -2846 -2593 -5840 -4496 -8936 -5681 -2369 -906
-4739 -1387 -7289 -1480 -358 -13 -1489 -7 -1800 10 -1129 62 -2003 157 -3025
331 -5005 849 -10249 3248 -15415 7053 -669 493 -1882 1437 -1871 1456 2 3 40
16 85 29 232 65 596 172 796 234 3480 1077 6951 2915 10390 5502 3163 2379
6343 5438 9420 9061 661 778 1207 1542 1682 2355 2046 3500 2632 7598 1647
11524 -798 3180 -2581 6064 -5033 8140 -2095 1773 -4584 2930 -7316 3400 -688
119 -1386 190 -2130 216 -219 8 -4843 10 -16330 8 -17241 -4 -16070 -1 -16635
-48 -1498 -125 -2874 -432 -4245 -945 -776 -290 -1656 -712 -2375 -1138 -2820
-1669 -5009 -4178 -6327 -7252 -666 -1552 -1079 -3198 -1217 -4855 -41 -488
-46 -623 -46 -1285 0 -662 5 -797 46 -1285 253 -3024 1414 -5929 3337 -8344
426 -537 1432 -1691 2262 -2596 684 -746 1153 -1234 1974 -2056 697 -697 948
-940 1466 -1425 4274 -3993 8597 -6811 12955 -8444 746 -279 1519 -533 2225
-730 113 -32 209 -61 213 -65 12 -10 -674 -554 -1268 -1006 -3129 -2377 -6347
-4266 -9510 -5584 -3152 -1313 -6264 -2064 -9265 -2235 -853 -48 -1799 -48
-2635 0 -3839 223 -7523 1429 -11040 3614 -3613 2244 -7033 5514 -10270 9821
-195 259 -164 195 -400 825 -2239 5983 -3375 12288 -3375 18730 0 5002 686
9932 2045 14700 815 2861 1845 5586 3146 8330 178 376 748 1514 955 1905 3101
5884 7237 11119 12244 15501 3995 3496 8469 6375 13295 8557 4378 1979 9021
3359 13775 4096 284 44 649 98 1085 159 17 2 45 5 64 6 30 1 33 -1 28 -21z
m23938 -45071 c479 -49 826 -107 1209 -203 2284 -571 4087 -2191 4983 -4474
493 -1256 641 -2598 427 -3875 -196 -1167 -669 -2256 -1409 -3244 -146 -195
-290 -368 -650 -786 -3756 -4350 -7602 -7664 -11336 -9768 -2896 -1632 -5704
-2536 -8454 -2722 -3384 -229 -6927 707 -10595 2798 -3568 2034 -7250 5187
-10846 9287 -547 624 -846 980 -1029 1225 -1546 2077 -1901 4632 -978 7039
319 832 773 1598 1341 2264 157 184 573 601 752 754 1204 1029 2674 1615 4305
1717 72 4 7326 8 16120 7 15087 -2 16000 -3 16160 -19z m-16510 -33223 c209
-3 575 -1 814 5 l433 11 58 -53 c32 -28 203 -185 381 -348 2089 -1913 4413
-3728 6734 -5261 3332 -2201 6691 -3868 10040 -4983 3933 -1310 7839 -1841
11610 -1579 3549 246 6941 1175 10220 2799 323 161 774 393 905 468 l55 31
-70 -84 c-1201 -1454 -2299 -2664 -3570 -3935 -3478 -3476 -7389 -6444 -11660
-8852 -2053 -1157 -4215 -2194 -6390 -3063 -7085 -2832 -14653 -4108 -22335
-3765 -8320 372 -16407 2671 -23670 6728 -5982 3341 -11282 7802 -15616 13142
-284 350 -480 598 -936 1187 -25 32 4 16 189 -104 5198 -3370 10826 -4906
16753 -4573 4891 275 9924 1831 14970 4628 3368 1867 6732 4296 9800 7077 162
147 360 329 440 404 l145 136 160 -5 c88 -3 331 -8 540 -11z"/>
<path d="M127905 86429 c-1245 -53 -2523 -233 -3675 -519 -370 -92 -910 -248
-933 -270 -5 -4 62 -203 148 -441 87 -239 162 -447 167 -462 13 -35 -10 -39
273 48 1173 357 2648 593 4094 656 348 15 1324 6 1641 -15 1641 -110 3042
-415 4425 -963 1307 -518 2573 -1282 3614 -2182 74 -64 143 -122 152 -128 15
-11 55 30 343 357 179 203 326 373 326 377 -2 23 -566 484 -885 723 -2225
1666 -4868 2609 -7850 2800 -465 30 -1372 39 -1840 19z"/>
<path d="M47110 86109 c-3141 -138 -5898 -1084 -8215 -2819 -318 -238 -883
-700 -885 -723 0 -4 147 -174 326 -377 282 -319 329 -368 343 -358 8 7 79 68
157 135 2060 1767 4631 2828 7504 3098 577 54 979 69 1683 62 566 -5 688 -10
1117 -42 1192 -90 2481 -321 3465 -620 283 -87 260 -83 273 -48 5 15 80 223
166 462 86 239 153 438 149 442 -20 20 -543 171 -892 258 -1196 299 -2448 476
-3751 531 -268 11 -1178 11 -1440 -1z"/>
<path d="M124190 81970 c-811 -36 -1588 -116 -2278 -235 -196 -34 -540 -103
-554 -111 -4 -3 228 -948 237 -962 1 -1 43 6 93 18 576 128 1413 233 2317 291
268 17 1311 23 1632 10 3231 -135 6032 -1102 8298 -2866 427 -332 747 -616
1190 -1057 192 -192 352 -347 356 -346 10 5 714 659 717 668 4 12 -337 364
-556 574 -1930 1849 -4261 3064 -7002 3651 -857 183 -1676 290 -2735 356 -215
13 -1468 20 -1715 9z"/>
<path d="M50900 81653 c-3142 -116 -5916 -972 -8230 -2541 -643 -436 -1239
-919 -1822 -1478 -219 -210 -560 -562 -556 -574 3 -9 707 -663 717 -668 4 -1
164 154 356 346 443 441 763 725 1190 1057 2268 1766 5065 2730 8309 2866 362
15 1350 6 1691 -15 825 -52 1627 -153 2198 -277 77 -17 140 -29 141 -27 10 14
242 959 236 963 -15 9 -468 97 -672 130 -706 114 -1407 183 -2188 215 -214 9
-1161 11 -1370 3z"/>
</g>
</svg>
