<svg id="svg" version="1.1" xmlns="http://www.w3.org/2000/svg" xmlns:xlink="http://www.w3.org/1999/xlink" width="400" height="400" viewBox="0, 0, 400,400"><g id="svgg"><path id="path0" d="M127.600 188.876 C 118.575 192.681,114.368 200.875,117.182 209.167 C 122.990 226.279,148.378 222.211,148.398 204.166 C 148.402 199.924,144.227 191.600,142.094 191.600 C 141.905 191.600,141.389 191.263,140.948 190.852 C 138.762 188.815,130.607 187.608,127.600 188.876 M191.809 189.345 C 183.552 192.298,179.286 202.779,183.066 210.831 C 190.343 226.334,213.332 221.392,213.352 204.320 C 213.354 202.186,213.164 200.026,212.929 199.520 C 211.140 195.671,210.446 194.602,208.643 192.915 C 203.911 188.489,197.818 187.196,191.809 189.345 M258.200 188.902 C 251.104 191.368,247.131 196.844,247.102 204.200 C 247.030 222.220,272.000 226.407,277.952 209.373 C 278.898 206.667,279.099 201.982,278.350 200.119 C 278.103 199.503,277.743 198.595,277.550 198.100 C 277.358 197.605,277.012 196.793,276.783 196.295 C 276.295 195.235,273.033 191.600,272.569 191.600 C 272.394 191.600,271.880 191.261,271.426 190.848 C 269.182 188.803,261.667 187.697,258.200 188.902 "   fill-rule="evenodd"></path><path id="path1" d="M193.591 59.181 C 193.256 59.378,190.196 59.580,186.791 59.631 C 183.386 59.683,180.420 59.861,180.200 60.028 C 179.980 60.194,178.450 60.433,176.800 60.557 C 170.255 61.052,168.400 61.282,168.400 61.597 C 168.400 61.778,167.455 62.028,166.300 62.154 C 161.001 62.729,160.000 62.901,160.000 63.239 C 160.000 63.437,159.280 63.600,158.400 63.600 C 157.520 63.600,156.800 63.780,156.800 64.000 C 156.800 64.220,156.080 64.400,155.200 64.400 C 154.320 64.400,153.600 64.580,153.600 64.800 C 153.600 65.020,152.880 65.200,152.000 65.200 C 151.120 65.200,150.400 65.380,150.400 65.600 C 150.400 65.820,149.680 66.000,148.800 66.000 C 147.920 66.000,147.200 66.180,147.200 66.400 C 147.200 66.620,146.660 66.800,146.000 66.800 C 145.340 66.800,144.800 66.980,144.800 67.200 C 144.800 67.420,144.350 67.600,143.800 67.600 C 143.250 67.600,142.800 67.780,142.800 68.000 C 142.800 68.220,142.260 68.400,141.600 68.400 C 140.940 68.400,140.400 68.580,140.400 68.800 C 140.400 69.020,139.860 69.200,139.200 69.200 C 138.540 69.200,138.000 69.380,138.000 69.600 C 138.000 69.820,137.460 70.000,136.800 70.000 C 136.140 70.000,135.600 70.180,135.600 70.400 C 135.600 70.620,135.240 70.800,134.800 70.800 C 134.360 70.800,134.000 70.980,134.000 71.200 C 134.000 71.420,133.460 71.600,132.800 71.600 C 132.140 71.600,131.600 71.780,131.600 72.000 C 131.600 72.220,131.240 72.400,130.800 72.400 C 130.360 72.400,130.000 72.580,130.000 72.800 C 130.000 73.020,129.449 73.200,128.776 73.200 C 128.063 73.200,127.656 73.367,127.800 73.600 C 127.940 73.827,127.604 74.000,127.024 74.000 C 126.461 74.000,126.000 74.159,126.000 74.353 C 126.000 74.646,125.423 74.907,124.194 75.170 C 124.090 75.192,123.369 75.568,122.591 76.005 C 121.812 76.442,120.921 76.800,120.611 76.800 C 119.965 76.800,117.068 78.415,116.867 78.887 C 116.793 79.059,116.388 79.200,115.967 79.200 C 115.545 79.200,115.200 79.380,115.200 79.600 C 115.200 79.820,114.855 80.000,114.433 80.000 C 114.012 80.000,113.607 80.135,113.533 80.300 C 113.460 80.465,112.545 81.033,111.500 81.563 C 110.455 82.092,109.600 82.677,109.600 82.863 C 109.600 83.048,109.330 83.200,109.000 83.200 C 108.670 83.200,108.400 83.380,108.400 83.600 C 108.400 83.820,108.080 84.000,107.688 84.000 C 107.297 84.000,106.717 84.360,106.400 84.800 C 106.083 85.240,105.503 85.600,105.112 85.600 C 104.720 85.600,104.400 85.780,104.400 86.000 C 104.400 86.220,104.080 86.400,103.688 86.400 C 103.297 86.400,102.717 86.760,102.400 87.200 C 102.083 87.640,101.575 88.000,101.272 88.000 C 100.969 88.000,100.217 88.540,99.600 89.200 C 98.983 89.860,98.191 90.400,97.840 90.400 C 97.488 90.400,97.200 90.559,97.200 90.754 C 97.200 90.949,96.606 91.391,95.879 91.736 C 95.152 92.081,94.224 92.731,93.817 93.181 C 93.409 93.632,92.919 94.000,92.727 94.000 C 92.536 94.000,91.569 94.810,90.579 95.800 C 89.589 96.790,88.607 97.600,88.396 97.600 C 88.185 97.600,86.663 98.950,85.013 100.600 C 83.363 102.250,81.922 103.600,81.811 103.600 C 81.538 103.600,80.352 104.622,77.981 106.900 C 76.893 107.945,76.090 108.800,76.198 108.800 C 76.305 108.800,75.854 109.314,75.196 109.943 C 74.538 110.572,74.000 111.211,74.000 111.363 C 74.000 111.514,72.740 112.881,71.200 114.400 C 69.660 115.919,68.400 117.364,68.400 117.612 C 68.400 117.860,67.680 118.754,66.800 119.600 C 65.920 120.446,65.200 121.355,65.200 121.622 C 65.200 121.888,64.885 122.397,64.500 122.753 C 63.456 123.719,61.200 126.700,61.200 127.115 C 61.200 127.313,60.856 127.787,60.436 128.167 C 60.016 128.548,59.562 129.296,59.428 129.829 C 59.294 130.363,59.008 130.800,58.792 130.800 C 58.577 130.800,58.400 131.120,58.400 131.512 C 58.400 131.903,58.040 132.483,57.600 132.800 C 57.160 133.117,56.800 133.697,56.800 134.088 C 56.800 134.480,56.620 134.800,56.400 134.800 C 56.180 134.800,56.000 135.120,56.000 135.512 C 56.000 135.903,55.640 136.483,55.200 136.800 C 54.760 137.117,54.400 137.697,54.400 138.088 C 54.400 138.480,54.220 138.800,54.000 138.800 C 53.780 138.800,53.600 139.160,53.600 139.600 C 53.600 140.040,53.420 140.400,53.200 140.400 C 52.980 140.400,52.800 140.760,52.800 141.200 C 52.800 141.640,52.654 142.000,52.475 142.000 C 52.296 142.000,51.902 142.630,51.600 143.400 C 51.298 144.170,50.904 144.800,50.725 144.800 C 50.546 144.800,50.400 145.160,50.400 145.600 C 50.400 146.040,50.220 146.400,50.000 146.400 C 49.780 146.400,49.600 146.760,49.600 147.200 C 49.600 147.640,49.420 148.000,49.200 148.000 C 48.980 148.000,48.800 148.360,48.800 148.800 C 48.800 149.240,48.620 149.600,48.400 149.600 C 48.180 149.600,48.000 149.960,48.000 150.400 C 48.000 150.840,47.820 151.200,47.600 151.200 C 47.380 151.200,47.200 151.740,47.200 152.400 C 47.200 153.060,47.020 153.600,46.800 153.600 C 46.580 153.600,46.400 153.960,46.400 154.400 C 46.400 154.840,46.220 155.200,46.000 155.200 C 45.780 155.200,45.600 155.740,45.600 156.400 C 45.600 157.060,45.420 157.600,45.200 157.600 C 44.980 157.600,44.800 158.039,44.800 158.576 C 44.800 159.113,44.645 159.649,44.455 159.766 C 44.265 159.883,43.891 160.839,43.625 161.890 C 43.358 162.940,42.988 164.089,42.803 164.441 C 42.618 164.794,42.341 165.921,42.187 166.946 C 42.033 167.971,41.748 168.908,41.554 169.029 C 41.359 169.149,41.200 169.957,41.200 170.824 C 41.200 171.691,41.020 172.400,40.800 172.400 C 40.580 172.400,40.400 173.199,40.400 174.176 C 40.400 175.153,40.220 176.064,40.000 176.200 C 39.780 176.336,39.600 177.247,39.600 178.224 C 39.600 179.201,39.420 180.000,39.200 180.000 C 38.978 180.000,38.800 181.067,38.800 182.400 C 38.800 183.733,38.622 184.800,38.400 184.800 C 38.167 184.800,38.000 186.133,38.000 188.000 C 38.000 189.867,37.833 191.200,37.600 191.200 C 37.342 191.200,37.200 195.733,37.200 204.000 C 37.200 212.267,37.342 216.800,37.600 216.800 C 37.835 216.800,38.000 218.200,38.000 220.200 C 38.000 222.200,38.165 223.600,38.400 223.600 C 38.622 223.600,38.800 224.667,38.800 226.000 C 38.800 227.333,38.978 228.400,39.200 228.400 C 39.420 228.400,39.600 229.300,39.600 230.400 C 39.600 231.500,39.780 232.400,40.000 232.400 C 40.220 232.400,40.400 233.019,40.400 233.776 C 40.400 234.533,40.580 235.264,40.800 235.400 C 41.020 235.536,41.200 236.321,41.200 237.144 C 41.200 237.967,41.346 238.811,41.524 239.020 C 41.703 239.229,42.184 240.840,42.594 242.600 C 43.004 244.360,43.462 245.980,43.611 246.200 C 43.761 246.420,44.129 247.455,44.429 248.500 C 44.729 249.545,45.083 250.400,45.215 250.400 C 45.347 250.400,45.700 251.300,46.000 252.400 C 46.300 253.500,46.692 254.400,46.872 254.400 C 47.053 254.400,47.200 254.743,47.200 255.162 C 47.200 255.978,48.801 259.312,49.300 259.533 C 49.465 259.607,49.600 260.012,49.600 260.433 C 49.600 260.855,49.780 261.200,50.000 261.200 C 50.220 261.200,50.400 261.560,50.400 262.000 C 50.400 262.440,50.580 262.800,50.800 262.800 C 51.020 262.800,51.200 263.160,51.200 263.600 C 51.200 264.040,51.380 264.400,51.600 264.400 C 51.820 264.400,52.000 264.760,52.000 265.200 C 52.000 265.640,52.180 266.000,52.400 266.000 C 52.620 266.000,52.800 266.360,52.800 266.800 C 52.800 267.240,52.980 267.600,53.200 267.600 C 53.420 267.600,53.600 267.960,53.600 268.400 C 53.600 268.840,53.780 269.200,54.000 269.200 C 54.220 269.200,54.400 269.520,54.400 269.912 C 54.400 270.303,54.760 270.883,55.200 271.200 C 56.059 271.819,56.403 275.600,55.600 275.600 C 55.380 275.600,55.200 276.039,55.200 276.576 C 55.200 277.113,55.020 277.664,54.800 277.800 C 54.580 277.936,54.400 278.487,54.400 279.024 C 54.400 279.561,54.220 280.000,54.000 280.000 C 53.780 280.000,53.600 280.540,53.600 281.200 C 53.600 281.860,53.420 282.400,53.200 282.400 C 52.980 282.400,52.800 282.940,52.800 283.600 C 52.800 284.260,52.620 284.800,52.400 284.800 C 52.180 284.800,52.000 285.340,52.000 286.000 C 52.000 286.660,51.820 287.200,51.600 287.200 C 51.380 287.200,51.200 287.740,51.200 288.400 C 51.200 289.060,51.020 289.600,50.800 289.600 C 50.580 289.600,50.400 290.140,50.400 290.800 C 50.400 291.460,50.220 292.000,50.000 292.000 C 49.780 292.000,49.600 292.439,49.600 292.976 C 49.600 293.513,49.420 294.064,49.200 294.200 C 48.980 294.336,48.800 294.887,48.800 295.424 C 48.800 295.961,48.620 296.400,48.400 296.400 C 48.180 296.400,48.000 296.929,48.000 297.576 C 48.000 298.223,47.820 298.864,47.600 299.000 C 47.380 299.136,47.200 299.687,47.200 300.224 C 47.200 300.761,47.020 301.200,46.800 301.200 C 46.580 301.200,46.400 301.729,46.400 302.376 C 46.400 303.023,46.220 303.664,46.000 303.800 C 45.780 303.936,45.600 304.476,45.600 305.000 C 45.600 305.524,45.420 306.064,45.200 306.200 C 44.980 306.336,44.800 306.887,44.800 307.424 C 44.800 307.961,44.620 308.400,44.400 308.400 C 44.180 308.400,43.997 308.715,43.994 309.100 C 43.988 309.799,43.209 312.243,42.752 313.000 C 42.618 313.220,42.545 313.805,42.588 314.300 C 42.631 314.795,42.516 315.200,42.333 315.200 C 42.150 315.200,42.000 315.639,42.000 316.176 C 42.000 316.713,41.820 317.264,41.600 317.400 C 41.380 317.536,41.200 318.177,41.200 318.824 C 41.200 319.471,41.020 320.000,40.800 320.000 C 40.580 320.000,40.400 320.540,40.400 321.200 C 40.400 321.860,40.220 322.400,40.000 322.400 C 39.780 322.400,39.600 322.940,39.600 323.600 C 39.600 324.260,39.420 324.800,39.200 324.800 C 38.980 324.800,38.800 325.250,38.800 325.800 C 38.800 326.350,38.620 326.800,38.400 326.800 C 38.180 326.800,38.000 327.340,38.000 328.000 C 38.000 328.660,37.820 329.200,37.600 329.200 C 37.380 329.200,37.200 330.100,37.200 331.200 C 37.200 332.300,37.020 333.200,36.800 333.200 C 36.580 333.200,36.400 333.920,36.400 334.800 C 36.400 335.680,36.580 336.400,36.800 336.400 C 37.020 336.400,37.200 337.084,37.200 337.920 C 37.200 339.463,37.952 341.591,38.500 341.597 C 38.665 341.599,38.800 341.875,38.800 342.211 C 38.800 343.049,41.956 346.137,43.521 346.829 C 44.224 347.141,44.800 347.531,44.800 347.698 C 44.800 347.864,45.340 348.000,46.000 348.000 C 46.660 348.000,47.200 348.180,47.200 348.400 C 47.200 348.637,48.667 348.800,50.800 348.800 C 52.933 348.800,54.400 348.637,54.400 348.400 C 54.400 348.180,55.210 348.000,56.200 348.000 C 57.190 348.000,58.000 347.820,58.000 347.600 C 58.000 347.380,58.900 347.200,60.000 347.200 C 61.100 347.200,62.000 347.020,62.000 346.800 C 62.000 346.580,62.720 346.400,63.600 346.400 C 64.480 346.400,65.200 346.220,65.200 346.000 C 65.200 345.780,66.100 345.600,67.200 345.600 C 68.300 345.600,69.200 345.420,69.200 345.200 C 69.200 344.980,69.999 344.800,70.976 344.800 C 71.953 344.800,72.864 344.620,73.000 344.400 C 73.136 344.180,74.047 344.000,75.024 344.000 C 76.001 344.000,76.800 343.820,76.800 343.600 C 76.800 343.380,77.520 343.200,78.400 343.200 C 79.280 343.200,80.000 343.020,80.000 342.800 C 80.000 342.580,80.900 342.400,82.000 342.400 C 83.100 342.400,84.000 342.246,84.000 342.058 C 84.000 341.869,85.475 341.592,87.278 341.442 C 89.081 341.291,90.753 341.005,90.994 340.805 C 91.234 340.606,92.189 340.398,93.115 340.343 C 94.042 340.288,94.800 340.117,94.800 339.962 C 94.800 339.697,95.445 339.576,100.100 338.968 C 101.145 338.831,102.000 338.558,102.000 338.360 C 102.000 338.162,102.799 338.000,103.776 338.000 C 104.753 338.000,105.664 337.820,105.800 337.600 C 105.936 337.380,106.847 337.200,107.824 337.200 C 108.801 337.200,109.600 337.020,109.600 336.800 C 109.600 336.580,110.500 336.400,111.600 336.400 C 112.700 336.400,113.600 336.220,113.600 336.000 C 113.600 335.780,114.320 335.600,115.200 335.600 C 116.080 335.600,116.800 335.420,116.800 335.200 C 116.800 334.980,117.599 334.800,118.576 334.800 C 119.553 334.800,120.464 334.620,120.600 334.400 C 120.736 334.180,121.647 334.000,122.624 334.000 C 123.601 334.000,124.400 333.820,124.400 333.600 C 124.400 332.969,125.452 333.130,127.000 334.000 C 127.783 334.440,128.779 334.800,129.212 334.800 C 129.645 334.800,130.000 334.980,130.000 335.200 C 130.000 335.420,130.360 335.600,130.800 335.600 C 131.240 335.600,131.600 335.780,131.600 336.000 C 131.600 336.220,132.140 336.400,132.800 336.400 C 133.460 336.400,134.000 336.580,134.000 336.800 C 134.000 337.020,134.360 337.200,134.800 337.200 C 135.240 337.200,135.600 337.380,135.600 337.600 C 135.600 337.820,136.140 338.000,136.800 338.000 C 137.460 338.000,138.000 338.180,138.000 338.400 C 138.000 338.620,138.452 338.800,139.005 338.800 C 139.558 338.800,140.368 338.980,140.805 339.200 C 141.242 339.420,141.958 339.780,142.395 340.000 C 142.832 340.220,143.516 340.400,143.915 340.400 C 144.314 340.400,144.819 340.579,145.038 340.798 C 145.256 341.016,146.552 341.312,147.918 341.454 C 149.283 341.597,150.400 341.868,150.400 342.057 C 150.400 342.246,151.120 342.400,152.000 342.400 C 152.880 342.400,153.600 342.580,153.600 342.800 C 153.600 343.020,154.320 343.200,155.200 343.200 C 156.080 343.200,156.800 343.380,156.800 343.600 C 156.800 343.820,157.419 344.000,158.176 344.000 C 158.933 344.000,159.664 344.180,159.800 344.400 C 159.936 344.620,160.836 344.800,161.800 344.800 C 162.764 344.800,163.664 344.980,163.800 345.200 C 163.936 345.420,165.027 345.600,166.224 345.600 C 167.421 345.600,168.400 345.780,168.400 346.000 C 168.400 346.222,169.467 346.400,170.800 346.400 C 172.133 346.400,173.200 346.578,173.200 346.800 C 173.200 347.035,174.600 347.200,176.600 347.200 C 178.600 347.200,180.000 347.365,180.000 347.600 C 180.000 347.851,182.600 348.000,187.000 348.000 C 191.400 348.000,194.000 348.149,194.000 348.400 C 194.000 348.640,195.608 348.800,198.024 348.800 C 200.604 348.800,201.959 348.657,201.800 348.400 C 201.639 348.139,203.929 348.000,208.376 348.000 C 212.659 348.000,215.200 347.851,215.200 347.600 C 215.200 347.365,216.600 347.200,218.600 347.200 C 220.600 347.200,222.000 347.035,222.000 346.800 C 222.000 346.571,223.200 346.400,224.800 346.400 C 226.400 346.400,227.600 346.229,227.600 346.000 C 227.600 345.780,228.500 345.600,229.600 345.600 C 230.700 345.600,231.600 345.420,231.600 345.200 C 231.600 344.980,232.500 344.800,233.600 344.800 C 234.700 344.800,235.600 344.620,235.600 344.400 C 235.600 344.180,236.399 344.000,237.376 344.000 C 238.353 344.000,239.264 343.820,239.400 343.600 C 239.536 343.380,240.267 343.200,241.024 343.200 C 241.781 343.200,242.400 343.020,242.400 342.800 C 242.400 342.580,242.940 342.400,243.600 342.400 C 244.260 342.400,244.800 342.243,244.800 342.052 C 244.800 341.860,246.060 341.579,247.600 341.427 C 249.140 341.276,250.400 340.982,250.400 340.776 C 250.400 340.569,250.839 340.400,251.376 340.400 C 251.913 340.400,252.464 340.220,252.600 340.000 C 252.736 339.780,253.377 339.600,254.024 339.600 C 254.671 339.600,255.200 339.420,255.200 339.200 C 255.200 338.980,255.639 338.800,256.176 338.800 C 256.713 338.800,257.264 338.620,257.400 338.400 C 257.536 338.180,258.087 338.000,258.624 338.000 C 259.161 338.000,259.600 337.820,259.600 337.600 C 259.600 337.380,260.151 337.200,260.824 337.200 C 261.537 337.200,261.944 337.033,261.800 336.800 C 261.660 336.573,261.996 336.400,262.576 336.400 C 263.139 336.400,263.600 336.220,263.600 336.000 C 263.600 335.780,264.140 335.600,264.800 335.600 C 265.460 335.600,266.000 335.420,266.000 335.200 C 266.000 334.980,266.360 334.800,266.800 334.800 C 267.240 334.800,267.600 334.620,267.600 334.400 C 267.600 334.180,267.960 334.000,268.400 334.000 C 268.840 334.000,269.200 333.820,269.200 333.600 C 269.200 333.380,269.650 333.200,270.200 333.200 C 270.750 333.200,271.200 333.020,271.200 332.800 C 271.200 332.580,271.434 332.400,271.720 332.400 C 272.456 332.400,274.393 331.459,274.397 331.100 C 274.399 330.935,274.760 330.800,275.200 330.800 C 275.640 330.800,276.000 330.620,276.000 330.400 C 276.000 330.180,276.360 330.000,276.800 330.000 C 277.240 330.000,277.600 329.820,277.600 329.600 C 277.600 329.380,277.960 329.200,278.400 329.200 C 278.840 329.200,279.200 329.020,279.200 328.800 C 279.200 328.580,279.520 328.400,279.912 328.400 C 280.303 328.400,280.883 328.040,281.200 327.600 C 281.517 327.160,282.097 326.800,282.488 326.800 C 282.880 326.800,283.200 326.620,283.200 326.400 C 283.200 326.180,283.560 326.000,284.000 326.000 C 284.440 326.000,284.800 325.820,284.800 325.600 C 284.800 325.380,285.147 325.200,285.571 325.200 C 285.996 325.200,286.613 324.930,286.943 324.600 C 287.273 324.270,287.658 324.000,287.799 324.000 C 287.940 324.000,288.841 323.460,289.800 322.800 C 290.759 322.140,291.697 321.600,291.884 321.600 C 292.071 321.600,292.483 321.240,292.800 320.800 C 293.117 320.360,293.657 320.000,294.000 320.000 C 294.343 320.000,294.883 319.640,295.200 319.200 C 295.517 318.760,296.057 318.400,296.400 318.400 C 296.743 318.400,297.283 318.040,297.600 317.600 C 297.917 317.160,298.425 316.800,298.728 316.800 C 299.031 316.800,299.783 316.260,300.400 315.600 C 301.017 314.940,301.733 314.400,301.992 314.400 C 302.251 314.400,303.154 313.680,304.000 312.800 C 304.846 311.920,305.712 311.200,305.925 311.200 C 306.138 311.200,307.318 310.210,308.547 309.000 C 309.777 307.790,310.960 306.800,311.176 306.800 C 311.657 306.800,323.600 294.941,323.600 294.464 C 323.600 294.167,324.319 293.179,325.539 291.800 C 325.733 291.580,326.277 291.135,326.746 290.812 C 327.216 290.488,327.600 289.979,327.600 289.680 C 327.600 289.382,328.320 288.446,329.200 287.600 C 330.080 286.754,330.800 285.851,330.800 285.592 C 330.800 285.333,331.340 284.617,332.000 284.000 C 332.660 283.383,333.200 282.631,333.200 282.328 C 333.200 282.025,333.560 281.517,334.000 281.200 C 334.440 280.883,334.800 280.343,334.800 280.000 C 334.800 279.657,335.160 279.117,335.600 278.800 C 336.040 278.483,336.400 277.969,336.400 277.659 C 336.400 277.348,336.716 276.803,337.103 276.447 C 337.489 276.091,338.074 275.260,338.403 274.600 C 338.731 273.940,339.315 273.051,339.700 272.625 C 340.085 272.198,340.400 271.613,340.400 271.325 C 340.400 271.036,340.580 270.800,340.800 270.800 C 341.020 270.800,341.200 270.453,341.200 270.029 C 341.200 269.604,341.470 268.987,341.800 268.657 C 342.130 268.327,342.400 267.774,342.400 267.429 C 342.400 267.083,342.580 266.800,342.800 266.800 C 343.020 266.800,343.200 266.440,343.200 266.000 C 343.200 265.560,343.380 265.200,343.600 265.200 C 343.820 265.200,344.000 264.840,344.000 264.400 C 344.000 263.960,344.180 263.600,344.400 263.600 C 344.620 263.600,344.800 263.240,344.800 262.800 C 344.800 262.360,344.980 262.000,345.200 262.000 C 345.420 262.000,345.600 261.640,345.600 261.200 C 345.600 260.760,345.780 260.400,346.000 260.400 C 346.220 260.400,346.400 260.040,346.400 259.600 C 346.400 259.160,346.580 258.800,346.800 258.800 C 347.020 258.800,347.200 258.350,347.200 257.800 C 347.200 257.250,347.380 256.800,347.600 256.800 C 347.820 256.800,348.000 256.440,348.000 256.000 C 348.000 255.560,348.180 255.200,348.400 255.200 C 348.620 255.200,348.800 254.660,348.800 254.000 C 348.800 253.340,348.980 252.800,349.200 252.800 C 349.420 252.800,349.600 252.440,349.600 252.000 C 349.600 251.560,349.780 251.200,350.000 251.200 C 350.220 251.200,350.400 250.660,350.400 250.000 C 350.400 249.340,350.580 248.800,350.800 248.800 C 351.020 248.800,351.200 248.260,351.200 247.600 C 351.200 246.940,351.380 246.400,351.600 246.400 C 351.820 246.400,352.000 245.860,352.000 245.200 C 352.000 244.540,352.180 244.000,352.400 244.000 C 352.620 244.000,352.800 243.460,352.800 242.800 C 352.800 242.140,352.980 241.600,353.200 241.600 C 353.420 241.600,353.600 241.161,353.600 240.624 C 353.600 240.087,353.780 239.536,354.000 239.400 C 354.220 239.264,354.400 238.544,354.400 237.800 C 354.400 237.056,354.561 236.348,354.758 236.226 C 355.094 236.018,355.306 234.989,355.853 230.900 C 355.978 229.965,356.212 229.200,356.372 229.200 C 356.532 229.200,356.704 228.165,356.755 226.900 C 356.805 225.635,357.016 224.429,357.223 224.220 C 357.430 224.011,357.600 222.807,357.600 221.544 C 357.600 220.281,357.752 219.153,357.938 219.038 C 359.147 218.291,358.421 184.716,357.168 183.420 C 356.965 183.211,356.800 182.097,356.800 180.944 C 356.800 179.791,356.620 178.736,356.400 178.600 C 356.180 178.464,356.000 177.553,356.000 176.576 C 356.000 175.599,355.820 174.800,355.600 174.800 C 355.380 174.800,355.200 174.080,355.200 173.200 C 355.200 172.320,355.020 171.600,354.800 171.600 C 354.580 171.600,354.400 170.880,354.400 170.000 C 354.400 169.120,354.220 168.400,354.000 168.400 C 353.780 168.400,353.600 167.860,353.600 167.200 C 353.600 166.540,353.420 166.000,353.200 166.000 C 352.980 166.000,352.800 165.381,352.800 164.624 C 352.800 163.867,352.620 163.136,352.400 163.000 C 352.180 162.864,352.000 162.439,352.000 162.056 C 352.000 161.181,351.101 159.207,350.700 159.203 C 350.535 159.201,350.400 158.660,350.400 158.000 C 350.400 157.340,350.220 156.800,350.000 156.800 C 349.780 156.800,349.600 156.260,349.600 155.600 C 349.600 154.940,349.420 154.400,349.200 154.400 C 348.980 154.400,348.800 154.040,348.800 153.600 C 348.800 153.160,348.620 152.800,348.400 152.800 C 348.180 152.800,348.000 152.440,348.000 152.000 C 348.000 151.560,347.820 151.200,347.600 151.200 C 347.380 151.200,347.200 150.675,347.200 150.033 C 347.200 149.392,347.063 148.807,346.896 148.733 C 346.729 148.660,345.786 146.980,344.800 145.000 C 343.814 143.020,342.871 141.340,342.704 141.267 C 342.537 141.193,342.400 140.788,342.400 140.367 C 342.400 139.945,342.223 139.600,342.008 139.600 C 341.792 139.600,341.494 139.105,341.346 138.500 C 341.198 137.895,340.967 137.310,340.833 137.200 C 340.699 137.090,340.158 136.145,339.632 135.100 C 339.105 134.055,338.523 133.200,338.337 133.200 C 338.152 133.200,338.000 132.880,338.000 132.488 C 338.000 132.097,337.640 131.517,337.200 131.200 C 336.760 130.883,336.400 130.343,336.400 130.000 C 336.400 129.657,336.040 129.117,335.600 128.800 C 335.160 128.483,334.800 127.993,334.800 127.712 C 334.800 127.430,334.620 127.200,334.400 127.200 C 334.180 127.200,334.000 126.930,334.000 126.600 C 334.000 126.270,333.820 126.000,333.600 126.000 C 333.380 126.000,333.200 125.802,333.200 125.560 C 333.200 125.319,332.660 124.617,332.000 124.000 C 331.340 123.383,330.800 122.667,330.800 122.408 C 330.800 122.149,330.080 121.246,329.200 120.400 C 328.320 119.554,327.600 118.672,327.600 118.438 C 327.600 118.205,326.790 117.169,325.800 116.135 C 324.810 115.102,324.000 114.079,324.000 113.861 C 324.000 113.327,311.692 101.200,311.150 101.200 C 310.914 101.200,309.724 100.120,308.504 98.800 C 307.284 97.480,306.078 96.400,305.824 96.400 C 305.570 96.400,304.659 95.680,303.800 94.800 C 302.941 93.920,302.004 93.200,301.719 93.200 C 301.433 93.200,301.200 93.038,301.200 92.839 C 301.200 92.641,300.687 92.299,300.060 92.081 C 299.433 91.862,298.451 91.215,297.878 90.642 C 297.305 90.069,296.598 89.600,296.306 89.600 C 296.015 89.600,295.517 89.240,295.200 88.800 C 294.883 88.360,294.343 88.000,294.000 88.000 C 293.657 88.000,293.117 87.640,292.800 87.200 C 292.483 86.760,292.021 86.400,291.774 86.400 C 291.526 86.400,290.998 86.040,290.600 85.600 C 290.202 85.160,289.634 84.800,289.338 84.800 C 289.042 84.800,288.800 84.620,288.800 84.400 C 288.800 84.180,288.480 84.000,288.088 84.000 C 287.697 84.000,287.117 83.640,286.800 83.200 C 286.483 82.760,285.903 82.400,285.512 82.400 C 285.120 82.400,284.800 82.220,284.800 82.000 C 284.800 81.780,284.440 81.600,284.000 81.600 C 283.560 81.600,283.200 81.420,283.200 81.200 C 283.200 80.980,282.880 80.800,282.488 80.800 C 282.097 80.800,281.517 80.440,281.200 80.000 C 280.883 79.560,280.410 79.200,280.149 79.200 C 279.665 79.200,276.361 77.584,276.000 77.171 C 275.833 76.980,274.788 76.472,274.000 76.200 C 273.890 76.162,273.499 75.998,273.131 75.835 C 272.763 75.672,272.184 75.497,271.843 75.447 C 271.502 75.397,271.098 75.231,270.945 75.078 C 270.792 74.925,270.337 74.800,269.933 74.800 C 269.530 74.800,269.200 74.620,269.200 74.400 C 269.200 74.180,268.840 74.000,268.400 74.000 C 267.960 74.000,267.600 73.820,267.600 73.600 C 267.600 73.380,267.240 73.200,266.800 73.200 C 266.360 73.200,266.000 73.020,266.000 72.800 C 266.000 72.580,265.460 72.400,264.800 72.400 C 264.140 72.400,263.600 72.220,263.600 72.000 C 263.600 71.780,263.240 71.600,262.800 71.600 C 262.360 71.600,262.000 71.420,262.000 71.200 C 262.000 70.980,261.460 70.800,260.800 70.800 C 260.140 70.800,259.600 70.620,259.600 70.400 C 259.600 70.180,259.150 70.000,258.600 70.000 C 258.050 70.000,257.600 69.820,257.600 69.600 C 257.600 69.380,257.060 69.200,256.400 69.200 C 255.740 69.200,255.200 69.020,255.200 68.800 C 255.200 68.580,254.660 68.400,254.000 68.400 C 253.340 68.400,252.800 68.220,252.800 68.000 C 252.800 67.780,252.260 67.600,251.600 67.600 C 250.940 67.600,250.400 67.420,250.400 67.200 C 250.400 66.980,249.860 66.800,249.200 66.800 C 248.540 66.800,248.000 66.620,248.000 66.400 C 248.000 66.180,247.280 66.000,246.400 66.000 C 245.520 66.000,244.800 65.820,244.800 65.600 C 244.800 65.380,244.260 65.200,243.600 65.200 C 242.940 65.200,242.400 65.020,242.400 64.800 C 242.400 64.580,241.590 64.400,240.600 64.400 C 239.610 64.400,238.800 64.220,238.800 64.000 C 238.800 63.780,238.080 63.600,237.200 63.600 C 236.320 63.600,235.600 63.420,235.600 63.200 C 235.600 62.980,234.700 62.800,233.600 62.800 C 232.500 62.800,231.600 62.620,231.600 62.400 C 231.600 62.180,230.700 62.000,229.600 62.000 C 228.500 62.000,227.600 61.820,227.600 61.600 C 227.600 61.376,226.493 61.200,225.080 61.200 C 223.694 61.200,222.389 61.033,222.180 60.828 C 221.749 60.406,217.404 60.075,208.454 59.781 C 205.074 59.670,201.981 59.404,201.580 59.190 C 200.673 58.704,194.417 58.697,193.591 59.181 M137.471 188.352 C 137.872 188.570,138.785 188.983,139.500 189.271 C 140.215 189.560,140.800 189.931,140.800 190.098 C 140.800 190.264,141.039 190.400,141.332 190.400 C 142.349 190.400,145.862 194.365,147.227 197.052 C 153.194 208.801,142.832 222.778,129.784 220.579 C 113.744 217.876,110.493 196.480,125.042 189.362 C 128.566 187.638,135.164 187.102,137.471 188.352 M204.092 188.976 C 217.974 195.378,217.434 214.196,203.200 220.026 C 201.480 220.731,193.766 220.812,192.361 220.141 C 191.832 219.888,190.736 219.390,189.924 219.034 C 181.558 215.360,178.351 202.395,183.937 194.829 C 188.728 188.339,197.308 185.847,204.092 188.976 M269.809 189.204 C 273.972 191.191,276.969 194.621,278.811 199.508 C 279.848 202.259,279.426 207.979,277.961 211.044 C 271.930 223.657,254.415 224.082,248.037 211.771 C 245.433 206.743,245.451 202.250,248.100 196.518 C 251.479 189.205,262.225 185.585,269.809 189.204 "  fill-rule="evenodd"></path><path id="path2" d="M131.100 188.289 C 131.815 188.378,132.985 188.378,133.700 188.289 C 134.415 188.201,133.830 188.128,132.400 188.128 C 130.970 188.128,130.385 188.201,131.100 188.289 M196.300 188.289 C 197.015 188.378,198.185 188.378,198.900 188.289 C 199.615 188.201,199.030 188.128,197.600 188.128 C 196.170 188.128,195.585 188.201,196.300 188.289 M261.907 188.290 C 262.626 188.379,263.706 188.377,264.307 188.286 C 264.908 188.195,264.320 188.122,263.000 188.124 C 261.680 188.126,261.188 188.201,261.907 188.290 M266.800 188.800 C 267.130 189.013,267.670 189.188,268.000 189.188 C 268.533 189.188,268.533 189.145,268.000 188.800 C 267.670 188.587,267.130 188.412,266.800 188.412 C 266.267 188.412,266.267 188.455,266.800 188.800 M204.710 190.001 C 206.408 191.037,206.964 191.036,205.400 190.000 C 204.740 189.563,204.020 189.205,203.800 189.204 C 203.580 189.204,203.989 189.562,204.710 190.001 M186.185 192.900 L 184.200 195.000 186.300 193.015 C 187.455 191.923,188.400 190.978,188.400 190.915 C 188.400 190.617,188.029 190.949,186.185 192.900 M251.210 192.990 C 250.020 194.195,249.126 195.236,249.223 195.305 C 249.321 195.373,250.374 194.388,251.563 193.115 C 254.306 190.181,254.067 190.097,251.210 192.990 M206.841 191.300 C 206.937 191.355,207.912 192.210,209.007 193.200 L 211.000 195.000 209.217 193.100 C 208.236 192.055,207.261 191.200,207.050 191.200 C 206.839 191.200,206.745 191.245,206.841 191.300 M117.781 196.837 C 117.429 197.518,117.212 198.145,117.299 198.232 C 117.386 198.319,117.756 197.762,118.122 196.995 C 118.944 195.270,118.659 195.138,117.781 196.837 M147.656 199.600 C 147.656 199.930,147.811 200.560,148.000 201.000 C 148.217 201.504,148.344 201.578,148.344 201.200 C 148.344 200.870,148.189 200.240,148.000 199.800 C 147.783 199.296,147.656 199.222,147.656 199.600 M213.379 204.123 C 213.390 206.061,213.517 207.231,213.660 206.723 C 214.003 205.507,213.992 202.854,213.639 201.600 C 213.479 201.032,213.367 202.121,213.379 204.123 M181.331 204.200 C 181.333 205.740,181.405 206.321,181.492 205.491 C 181.579 204.661,181.577 203.401,181.489 202.691 C 181.400 201.981,181.329 202.660,181.331 204.200 M116.114 204.200 C 116.117 205.300,116.195 205.703,116.287 205.095 C 116.379 204.486,116.377 203.586,116.282 203.095 C 116.187 202.603,116.111 203.100,116.114 204.200 M278.909 204.400 C 278.909 205.390,278.987 205.795,279.082 205.300 C 279.178 204.805,279.178 203.995,279.082 203.500 C 278.987 203.005,278.909 203.410,278.909 204.400 M246.806 207.033 C 246.809 207.675,246.984 208.470,247.195 208.800 C 247.455 209.209,247.499 208.890,247.332 207.800 C 247.029 205.823,246.798 205.486,246.806 207.033 M116.406 207.833 C 116.409 208.255,116.595 208.870,116.818 209.200 C 117.115 209.638,117.152 209.476,116.956 208.600 C 116.627 207.129,116.398 206.810,116.406 207.833 M247.616 210.019 C 247.607 210.359,248.225 211.619,248.990 212.819 C 249.754 214.018,250.384 214.848,250.390 214.662 C 250.395 214.476,250.036 213.813,249.592 213.189 C 249.148 212.565,248.525 211.457,248.208 210.727 C 247.891 209.997,247.624 209.678,247.616 210.019 M182.816 210.920 C 182.786 211.520,183.946 213.457,184.674 214.022 C 185.360 214.555,185.364 214.542,184.750 213.793 C 184.393 213.357,183.815 212.460,183.466 211.800 C 183.117 211.140,182.825 210.744,182.816 210.920 M118.473 213.000 C 118.723 213.550,119.084 214.000,119.273 214.000 C 119.463 214.000,119.324 213.550,118.963 213.000 C 118.603 212.450,118.243 212.000,118.163 212.000 C 118.083 212.000,118.222 212.450,118.473 213.000 M275.112 214.444 C 274.610 215.128,273.226 216.388,272.035 217.244 C 270.844 218.100,270.010 218.800,270.181 218.800 C 270.821 218.800,274.341 215.953,275.372 214.602 C 275.960 213.831,276.347 213.200,276.232 213.200 C 276.118 213.200,275.614 213.760,275.112 214.444 M120.400 215.350 C 120.950 215.971,121.940 216.850,122.600 217.304 C 124.026 218.285,123.643 217.864,121.200 215.768 C 120.004 214.741,119.736 214.601,120.400 215.350 M186.000 215.800 C 186.517 216.350,187.096 216.800,187.288 216.800 C 187.480 216.800,187.186 216.350,186.636 215.800 C 186.086 215.250,185.507 214.800,185.348 214.800 C 185.190 214.800,185.483 215.250,186.000 215.800 M251.600 216.146 C 251.600 216.256,252.140 216.730,252.800 217.200 C 253.460 217.670,254.000 217.964,254.000 217.854 C 254.000 217.744,253.460 217.270,252.800 216.800 C 252.140 216.330,251.600 216.036,251.600 216.146 M141.041 217.627 C 140.183 218.272,139.650 218.800,139.856 218.800 C 140.062 218.800,140.853 218.267,141.615 217.616 C 143.387 216.102,143.061 216.108,141.041 217.627 M206.241 217.627 C 205.383 218.272,204.850 218.800,205.056 218.800 C 205.262 218.800,206.053 218.267,206.815 217.616 C 208.587 216.102,208.261 216.108,206.241 217.627 M134.600 220.000 L 133.000 220.286 134.400 220.315 C 135.170 220.331,136.160 220.189,136.600 220.000 C 137.543 219.595,136.862 219.595,134.600 220.000 M265.200 220.000 L 263.400 220.280 265.000 220.334 C 265.880 220.363,266.870 220.213,267.200 220.000 C 267.530 219.787,267.620 219.637,267.400 219.666 C 267.180 219.696,266.190 219.846,265.200 220.000 M129.505 220.283 C 130.002 220.379,130.722 220.375,131.105 220.275 C 131.487 220.175,131.080 220.096,130.200 220.101 C 129.320 220.105,129.007 220.187,129.505 220.283 M194.700 220.282 C 195.195 220.378,196.005 220.378,196.500 220.282 C 196.995 220.187,196.590 220.109,195.600 220.109 C 194.610 220.109,194.205 220.187,194.700 220.282 M199.300 220.276 C 199.685 220.376,200.315 220.376,200.700 220.276 C 201.085 220.175,200.770 220.093,200.000 220.093 C 199.230 220.093,198.915 220.175,199.300 220.276 M259.900 220.282 C 260.395 220.378,261.205 220.378,261.700 220.282 C 262.195 220.187,261.790 220.109,260.800 220.109 C 259.810 220.109,259.405 220.187,259.900 220.282 "  fill-rule="evenodd"></path><path id="path3" d=""   fill-rule="evenodd"></path><path id="path4" d="M131.100 187.889 C 131.815 187.978,132.985 187.978,133.700 187.889 C 134.415 187.801,133.830 187.728,132.400 187.728 C 130.970 187.728,130.385 187.801,131.100 187.889 M196.307 187.890 C 197.026 187.979,198.106 187.977,198.707 187.886 C 199.308 187.795,198.720 187.722,197.400 187.724 C 196.080 187.726,195.588 187.801,196.307 187.890 M261.907 187.890 C 262.626 187.979,263.706 187.977,264.307 187.886 C 264.908 187.795,264.320 187.722,263.000 187.724 C 261.680 187.726,261.188 187.801,261.907 187.890 M125.700 189.000 C 124.545 189.525,123.600 190.045,123.600 190.155 C 123.600 190.265,124.455 189.975,125.500 189.510 C 126.545 189.046,127.940 188.534,128.600 188.374 C 129.679 188.111,129.699 188.080,128.800 188.064 C 128.250 188.054,126.855 188.476,125.700 189.000 M135.200 188.155 C 135.200 188.240,135.730 188.387,136.379 188.482 C 137.027 188.577,137.467 188.508,137.355 188.328 C 137.157 188.007,135.200 187.850,135.200 188.155 M191.700 188.634 C 189.904 189.419,190.061 189.723,191.900 189.021 C 192.725 188.706,193.760 188.368,194.200 188.270 C 194.824 188.132,194.780 188.090,194.000 188.079 C 193.450 188.071,192.415 188.321,191.700 188.634 M201.200 188.264 C 201.530 188.374,202.475 188.719,203.300 189.029 C 204.125 189.340,204.800 189.507,204.800 189.402 C 204.800 189.093,201.962 187.997,201.251 188.032 C 200.712 188.058,200.703 188.098,201.200 188.264 M266.033 188.144 C 266.125 188.223,266.740 188.408,267.400 188.556 C 268.276 188.752,268.438 188.715,268.000 188.418 C 267.460 188.053,265.632 187.798,266.033 188.144 M270.972 190.200 C 272.251 190.970,273.410 191.595,273.548 191.590 C 273.955 191.573,269.476 188.800,269.042 188.800 C 268.825 188.800,269.693 189.430,270.972 190.200 M188.200 190.635 L 187.000 191.666 188.400 190.763 C 190.196 189.604,190.201 189.600,189.767 189.602 C 189.565 189.603,188.860 190.068,188.200 190.635 M252.505 191.500 C 251.432 192.545,251.195 192.842,251.977 192.160 C 252.760 191.478,253.845 190.623,254.389 190.260 C 254.933 189.897,255.171 189.600,254.917 189.600 C 254.663 189.600,253.578 190.455,252.505 191.500 M209.081 192.587 C 209.477 193.131,209.966 193.581,210.170 193.587 C 210.373 193.594,210.117 193.150,209.600 192.600 C 208.401 191.323,208.157 191.318,209.081 192.587 M144.414 193.022 C 144.430 193.424,146.395 195.955,146.398 195.578 C 146.399 195.455,145.950 194.745,145.400 194.000 C 144.850 193.255,144.406 192.815,144.414 193.022 M212.420 197.200 C 212.416 197.310,212.671 198.120,212.988 199.000 C 213.305 199.880,213.566 200.240,213.568 199.800 C 213.571 199.135,212.445 196.585,212.420 197.200 M115.850 201.650 C 115.531 203.244,115.575 206.396,115.928 207.283 C 116.078 207.658,116.200 206.263,116.200 204.183 C 116.200 199.940,116.197 199.916,115.850 201.650 M148.509 202.000 C 148.509 202.990,148.587 203.395,148.682 202.900 C 148.778 202.405,148.778 201.595,148.682 201.100 C 148.587 200.605,148.509 201.010,148.509 202.000 M246.250 202.050 C 245.935 203.625,245.973 205.991,246.328 206.885 C 246.478 207.262,246.600 206.047,246.600 204.185 C 246.600 200.365,246.594 200.329,246.250 202.050 M214.069 203.800 C 214.025 204.900,213.896 206.250,213.783 206.800 L 213.577 207.800 214.007 206.816 C 214.243 206.276,214.371 204.926,214.292 203.816 L 214.148 201.800 214.069 203.800 M148.501 206.600 C 148.505 207.480,148.587 207.793,148.683 207.295 C 148.779 206.798,148.775 206.078,148.675 205.695 C 148.575 205.313,148.496 205.720,148.501 206.600 M278.854 207.467 C 278.825 207.944,278.696 208.664,278.570 209.067 C 278.352 209.761,278.364 209.762,278.796 209.088 C 279.047 208.697,279.175 207.977,279.081 207.488 C 278.909 206.601,278.909 206.601,278.854 207.467 M181.256 207.600 C 181.256 207.930,181.411 208.560,181.600 209.000 C 181.817 209.504,181.944 209.578,181.944 209.200 C 181.944 208.870,181.789 208.240,181.600 207.800 C 181.383 207.296,181.256 207.222,181.256 207.600 M147.231 210.921 C 146.932 211.625,146.229 212.830,145.669 213.600 C 144.888 214.675,144.842 214.835,145.468 214.290 C 146.344 213.528,148.244 210.110,147.952 209.819 C 147.855 209.722,147.531 210.218,147.231 210.921 M183.953 213.863 C 184.448 214.844,188.763 218.800,189.337 218.800 C 189.545 218.800,188.896 218.175,187.895 217.411 C 186.895 216.646,185.500 215.341,184.796 214.511 C 184.093 213.680,183.713 213.388,183.953 213.863 M119.800 215.147 C 120.460 215.877,121.720 217.028,122.600 217.706 C 124.474 219.148,123.871 218.500,120.800 215.773 C 119.523 214.639,119.103 214.376,119.800 215.147 M274.378 215.900 L 273.000 217.400 274.500 216.022 C 275.896 214.738,276.184 214.400,275.878 214.400 C 275.812 214.400,275.137 215.075,274.378 215.900 M208.975 216.100 L 207.800 217.400 209.100 216.225 C 209.815 215.579,210.400 214.994,210.400 214.925 C 210.400 214.616,210.070 214.888,208.975 216.100 M251.088 216.023 C 251.796 216.788,252.966 217.733,253.688 218.124 C 254.954 218.810,254.965 218.809,254.004 218.117 C 253.456 217.723,252.286 216.778,251.404 216.017 L 249.800 214.634 251.088 216.023 M202.000 220.000 C 201.467 220.345,201.467 220.388,202.000 220.388 C 202.330 220.388,202.870 220.213,203.200 220.000 C 203.733 219.655,203.733 219.612,203.200 219.612 C 202.870 219.612,202.330 219.787,202.000 220.000 M130.100 220.676 C 130.485 220.776,131.115 220.776,131.500 220.676 C 131.885 220.575,131.570 220.493,130.800 220.493 C 130.030 220.493,129.715 220.575,130.100 220.676 M132.652 220.716 C 132.544 220.890,133.073 220.961,133.828 220.873 C 134.583 220.785,135.200 220.642,135.200 220.556 C 135.200 220.255,132.845 220.403,132.652 220.716 M196.100 220.691 C 196.925 220.778,198.275 220.778,199.100 220.691 C 199.925 220.605,199.250 220.534,197.600 220.534 C 195.950 220.534,195.275 220.605,196.100 220.691 M261.300 220.691 C 262.125 220.778,263.475 220.778,264.300 220.691 C 265.125 220.605,264.450 220.534,262.800 220.534 C 261.150 220.534,260.475 220.605,261.300 220.691 "   fill-rule="evenodd"></path></g></svg>