<?xml version="1.0" standalone="no"?>
<!DOCTYPE svg PUBLIC "-//W3C//DTD SVG 20010904//EN"
 "http://www.w3.org/TR/2001/REC-SVG-20010904/DTD/svg10.dtd">
<svg version="1.0" xmlns="http://www.w3.org/2000/svg"
 width="512.000000pt" height="512.000000pt" viewBox="0 0 512.000000 512.000000"
 preserveAspectRatio="xMidYMid meet">

<g transform="translate(0.000000,512.000000) scale(0.100000,-0.100000)"
fill="#000000" stroke="none">
<path d="M3489 4526 c-81 -31 -114 -59 -346 -289 l-242 -240 561 -569 c308
-312 568 -568 577 -568 25 0 495 477 521 528 46 92 45 209 -3 299 -33 65 -758
787 -822 820 -61 32 -187 41 -246 19z"/>
<path d="M1886 2980 c-472 -474 -854 -865 -850 -869 5 -5 127 -21 270 -36
l261 -28 18 -236 c10 -130 21 -240 26 -245 4 -5 112 -16 239 -26 127 -10 234
-20 237 -24 5 -5 62 -467 63 -513 0 -13 6 -23 13 -23 6 0 401 389 876 864
l864 864 -568 563 c-312 310 -572 565 -579 567 -7 1 -398 -385 -870 -858z"/>
<path d="M895 1907 c-22 -59 -370 -1414 -365 -1420 5 -5 1428 367 1437 376 2
3 -49 461 -52 465 -1 1 -111 11 -244 21 -133 10 -244 20 -246 22 -2 2 -11 113
-21 246 l-18 243 -31 5 c-16 2 -113 14 -215 25 -102 11 -198 22 -213 25 -17 3
-30 0 -32 -8z"/>
</g>
</svg>
