<?xml version="1.0" standalone="no"?>
<!DOCTYPE svg PUBLIC "-//W3C//DTD SVG 20010904//EN"
 "http://www.w3.org/TR/2001/REC-SVG-20010904/DTD/svg10.dtd">
<svg version="1.0" xmlns="http://www.w3.org/2000/svg"
 width="225.000000pt" height="225.000000pt" viewBox="0 0 225.000000 225.000000"
 preserveAspectRatio="xMidYMid meet">
<metadata>
Created by potrace 1.16, written by Peter Selinger 2001-2019
</metadata>
<g transform="translate(0.000000,225.000000) scale(0.100000,-0.100000)"
fill="#000000" stroke="none">
<path d="M104 2231 c-48 -22 -80 -59 -95 -111 l-12 -38 391 -434 391 -433 1
-430 c0 -429 0 -430 24 -480 42 -92 98 -130 318 -218 198 -79 252 -91 296 -68
52 28 52 27 52 633 l1 563 390 432 390 433 -11 42 c-15 52 -64 103 -115 117
-28 8 -336 11 -1010 11 -923 0 -972 -1 -1011 -19z m1904 -160 c-1 -5 -133
-155 -293 -332 -159 -177 -297 -330 -306 -340 -15 -18 -35 -19 -285 -18 l-269
1 -59 66 c-33 37 -78 87 -100 112 -143 156 -452 504 -454 511 -2 5 370 9 883
9 540 0 885 -4 883 -9z m-708 -1366 l0 -505 -47 19 c-27 10 -91 36 -143 56
-64 25 -106 48 -127 71 l-33 34 0 415 0 415 175 0 175 0 0 -505z"/>
</g>
</svg>
