<?xml version="1.0" standalone="no"?>
<!DOCTYPE svg PUBLIC "-//W3C//DTD SVG 20010904//EN"
 "http://www.w3.org/TR/2001/REC-SVG-20010904/DTD/svg10.dtd">
<svg version="1.0" xmlns="http://www.w3.org/2000/svg"
 width="512.000000pt" height="551.000000pt" viewBox="0 0 512.000000 551.000000"
 preserveAspectRatio="xMidYMid meet">

<g transform="translate(0.000000,551.000000) scale(0.100000,-0.100000)"
fill="#00000" stroke="none">
<path d="M647 5494 c-298 -54 -535 -273 -619 -571 -17 -61 -22 -104 -22 -198
0 -141 18 -222 74 -340 79 -166 196 -283 365 -365 178 -87 7 -80 2110 -80
2040 0 1938 -3 2079 57 307 129 508 453 482 774 -28 340 -246 609 -576 711
l-75 23 -1870 2 c-1583 1 -1882 -1 -1948 -13z"/>
<path d="M645 3525 c-148 -27 -281 -95 -391 -198 -111 -103 -183 -223 -225
-373 -29 -103 -32 -284 -5 -389 68 -269 272 -480 546 -567 l75 -23 1915 0
1915 0 75 23 c310 97 519 344 562 662 9 70 9 110 -1 182 -25 192 -94 332 -225
464 -122 122 -268 197 -433 223 -111 17 -3714 14 -3808 -4z"/>
<path d="M645 1555 c-175 -32 -308 -106 -432 -239 -198 -211 -262 -520 -165
-794 42 -118 86 -186 187 -288 100 -101 187 -156 320 -202 l80 -27 1915 0
c2159 0 1958 -8 2137 80 169 83 316 249 382 430 166 458 -115 949 -596 1041
-106 20 -3719 19 -3828 -1z"/>
</g>
</svg>
