<svg id="svg" version="1.1" xmlns="http://www.w3.org/2000/svg" xmlns:xlink="http://www.w3.org/1999/xlink" width="400" height="385.6873822975518" viewBox="0, 0, 400,385.6873822975518"><g id="svgg"><path id="path0" d="M193.250 12.006 C 193.250 12.192,192.729 12.343,192.093 12.343 C 191.456 12.343,190.935 12.517,190.935 12.729 C 190.935 12.941,190.608 13.115,190.208 13.115 C 189.389 13.115,187.383 14.063,187.646 14.326 C 187.740 14.419,187.436 14.525,186.971 14.560 C 186.506 14.595,186.065 14.805,185.991 15.026 C 185.917 15.248,185.597 15.429,185.280 15.429 C 184.963 15.429,184.036 16.123,183.221 16.972 C 182.405 17.821,181.421 18.518,181.033 18.521 C 180.437 18.526,180.417 18.584,180.906 18.901 C 181.374 19.203,181.319 19.276,180.617 19.280 C 179.978 19.285,179.748 19.515,179.743 20.154 C 179.739 20.856,179.666 20.911,179.364 20.444 C 179.066 19.982,178.982 20.061,178.953 20.829 C 178.933 21.360,178.831 21.582,178.726 21.323 C 178.576 20.952,178.427 20.952,178.026 21.323 C 177.745 21.582,177.595 21.924,177.691 22.083 C 177.787 22.242,177.552 22.375,177.168 22.378 C 176.577 22.383,176.559 22.441,177.049 22.758 C 177.539 23.075,177.520 23.133,176.926 23.138 C 176.139 23.144,167.675 31.385,168.060 31.769 C 168.195 31.905,168.017 32.015,167.663 32.015 C 167.255 32.015,167.018 32.333,167.014 32.883 C 167.010 33.585,166.937 33.640,166.635 33.173 C 166.338 32.714,166.258 32.793,166.249 33.558 C 166.242 34.114,166.117 34.336,165.954 34.083 C 165.747 33.762,165.543 33.781,165.199 34.151 C 164.829 34.551,164.829 34.699,165.199 34.850 C 165.458 34.954,165.236 35.057,164.706 35.077 C 163.937 35.106,163.859 35.189,164.320 35.487 C 164.788 35.789,164.733 35.862,164.031 35.867 C 163.392 35.871,163.161 36.101,163.157 36.741 C 163.154 37.238,163.030 37.428,162.868 37.185 C 162.680 36.905,162.296 37.058,161.730 37.640 C 161.148 38.238,161.025 38.578,161.344 38.708 C 161.602 38.812,161.422 38.911,160.945 38.928 C 160.404 38.947,160.077 39.201,160.077 39.601 C 160.077 39.955,159.965 40.132,159.827 39.994 C 159.436 39.603,155.386 43.945,155.687 44.433 C 155.848 44.694,155.779 44.756,155.511 44.590 C 154.939 44.237,151.207 47.944,151.199 48.873 C 151.194 49.461,151.137 49.479,150.820 48.987 C 150.523 48.528,150.443 48.608,150.434 49.373 C 150.427 49.929,150.302 50.151,150.139 49.898 C 149.932 49.577,149.728 49.595,149.384 49.966 C 149.014 50.366,149.014 50.514,149.384 50.664 C 149.643 50.769,149.421 50.872,148.891 50.892 C 148.123 50.921,148.044 51.004,148.505 51.302 C 148.973 51.604,148.918 51.677,148.216 51.682 C 147.577 51.686,147.347 51.916,147.342 52.555 C 147.337 53.257,147.265 53.313,146.962 52.845 C 146.666 52.386,146.586 52.465,146.577 53.230 C 146.570 53.786,146.445 54.008,146.281 53.755 C 146.074 53.434,145.871 53.453,145.527 53.823 C 145.157 54.223,145.157 54.372,145.527 54.522 C 145.786 54.627,145.564 54.729,145.034 54.749 C 144.265 54.778,144.187 54.861,144.648 55.159 C 145.144 55.479,145.131 55.534,144.558 55.539 C 143.718 55.546,140.382 58.705,140.248 59.620 C 140.193 59.995,139.841 60.347,139.466 60.402 C 138.682 60.517,135.348 63.859,135.682 64.194 C 135.805 64.317,135.616 64.417,135.262 64.417 C 134.854 64.417,134.617 64.734,134.613 65.284 C 134.610 65.797,134.491 65.973,134.324 65.713 C 134.119 65.395,133.903 65.421,133.543 65.809 C 133.256 66.118,133.216 66.345,133.447 66.345 C 133.667 66.345,133.848 66.503,133.848 66.695 C 133.848 66.887,133.457 66.959,132.980 66.854 C 132.282 66.701,132.226 66.745,132.690 67.077 C 133.171 67.420,133.122 67.492,132.401 67.497 C 131.762 67.501,131.532 67.731,131.527 68.370 C 131.523 69.072,131.450 69.127,131.148 68.660 C 130.851 68.201,130.771 68.280,130.762 69.045 C 130.755 69.601,130.630 69.823,130.467 69.570 C 130.260 69.249,130.056 69.267,129.712 69.638 C 129.342 70.038,129.342 70.186,129.712 70.337 C 129.971 70.441,129.749 70.544,129.219 70.564 C 128.450 70.593,128.372 70.676,128.833 70.974 C 129.323 71.291,129.304 71.349,128.710 71.354 C 127.648 71.363,119.504 79.620,120.035 80.150 C 120.342 80.458,120.232 80.515,119.631 80.358 C 118.959 80.182,118.803 80.312,118.798 81.054 C 118.794 81.785,118.718 81.852,118.419 81.389 C 118.101 80.898,118.044 80.916,118.039 81.508 C 118.035 81.892,117.903 82.127,117.743 82.030 C 117.584 81.934,117.242 82.085,116.983 82.365 C 116.613 82.766,116.613 82.915,116.983 83.066 C 117.242 83.171,117.138 83.270,116.752 83.287 C 115.851 83.326,114.956 84.221,114.917 85.122 C 114.900 85.508,114.800 85.613,114.695 85.354 C 114.545 84.983,114.396 84.983,113.995 85.354 C 113.714 85.613,113.564 85.955,113.660 86.114 C 113.756 86.273,113.521 86.406,113.138 86.409 C 112.546 86.414,112.528 86.472,113.018 86.789 C 113.482 87.088,113.415 87.164,112.684 87.169 C 111.942 87.173,111.812 87.329,111.987 88.002 C 112.138 88.579,112.081 88.706,111.799 88.424 C 111.295 87.920,108.011 90.904,107.848 92.015 C 107.787 92.427,107.458 92.765,107.116 92.766 C 106.325 92.768,103.853 95.359,104.057 95.972 C 104.152 96.256,103.977 96.343,103.600 96.198 C 103.194 96.042,102.989 96.179,102.989 96.606 C 102.989 96.960,102.816 97.142,102.604 97.011 C 102.392 96.879,102.218 97.095,102.218 97.489 C 102.218 98.429,101.488 99.131,100.501 99.138 C 99.850 99.143,99.812 99.210,100.289 99.518 C 100.757 99.820,100.702 99.893,100.000 99.898 C 99.424 99.902,99.132 100.137,99.132 100.598 C 99.132 101.517,98.394 102.217,97.416 102.224 C 96.764 102.229,96.727 102.295,97.203 102.604 C 97.671 102.906,97.616 102.979,96.914 102.983 C 96.364 102.987,96.046 103.224,96.046 103.632 C 96.046 103.986,95.938 104.166,95.805 104.034 C 95.426 103.655,91.371 108.002,91.663 108.474 C 91.825 108.737,91.742 108.783,91.440 108.596 C 90.929 108.280,87.056 112.000,87.468 112.411 C 87.589 112.533,87.400 112.633,87.046 112.633 C 86.638 112.633,86.401 112.950,86.397 113.500 C 86.394 114.013,86.275 114.189,86.108 113.929 C 85.901 113.608,85.698 113.626,85.354 113.997 C 84.983 114.396,84.983 114.545,85.354 114.695 C 85.613 114.800,85.391 114.902,84.860 114.922 C 84.092 114.951,84.013 115.035,84.474 115.333 C 84.942 115.635,84.887 115.708,84.185 115.713 C 83.546 115.717,83.316 115.947,83.311 116.586 C 83.306 117.307,83.235 117.356,82.892 116.876 C 82.560 116.411,82.516 116.468,82.669 117.165 C 82.774 117.642,82.702 118.033,82.510 118.033 C 82.317 118.033,82.160 117.852,82.160 117.632 C 82.160 117.401,81.933 117.442,81.624 117.728 C 81.236 118.089,81.209 118.304,81.528 118.509 C 81.810 118.691,81.729 118.795,81.305 118.798 C 80.336 118.807,75.835 123.258,76.199 123.847 C 76.382 124.143,76.335 124.225,76.073 124.064 C 75.601 123.772,71.254 127.828,71.632 128.206 C 71.765 128.339,71.585 128.447,71.231 128.447 C 70.878 128.447,70.588 128.718,70.588 129.049 C 70.588 129.380,70.415 129.543,70.203 129.412 C 69.990 129.281,69.817 129.454,69.817 129.797 C 69.817 130.141,69.632 130.307,69.405 130.167 C 69.159 130.015,69.043 130.194,69.116 130.613 C 69.193 131.054,68.963 131.369,68.494 131.464 C 67.464 131.675,66.625 132.592,66.963 133.139 C 67.156 133.451,67.030 133.511,66.558 133.330 C 66.057 133.138,65.932 133.218,66.090 133.631 C 66.242 134.028,66.122 134.124,65.684 133.955 C 65.269 133.796,65.155 133.867,65.340 134.168 C 65.509 134.441,65.373 134.619,64.995 134.619 C 64.652 134.619,64.478 134.793,64.609 135.005 C 64.741 135.217,64.559 135.391,64.205 135.391 C 63.777 135.391,63.641 135.595,63.797 136.001 C 63.942 136.378,63.855 136.553,63.570 136.459 C 62.965 136.257,60.006 139.051,60.308 139.539 C 60.595 140.004,59.252 141.284,58.874 140.906 C 58.499 140.531,55.650 143.614,55.841 144.188 C 55.936 144.472,55.761 144.559,55.384 144.414 C 54.978 144.258,54.773 144.395,54.773 144.822 C 54.773 145.176,54.600 145.358,54.388 145.227 C 54.176 145.095,54.002 145.269,54.002 145.612 C 54.002 145.991,53.824 146.127,53.551 145.958 C 53.250 145.772,53.179 145.886,53.338 146.301 C 53.506 146.739,53.411 146.859,53.014 146.707 C 52.601 146.549,52.521 146.674,52.713 147.176 C 52.894 147.647,52.834 147.773,52.522 147.580 C 52.272 147.425,51.808 147.558,51.492 147.875 C 50.810 148.556,50.728 149.053,51.361 148.661 C 51.646 148.485,51.702 148.556,51.515 148.858 C 51.355 149.117,50.962 149.229,50.641 149.106 C 50.243 148.953,50.127 149.060,50.275 149.446 C 50.427 149.843,50.307 149.938,49.869 149.770 C 49.454 149.611,49.340 149.682,49.526 149.983 C 49.695 150.256,49.559 150.434,49.180 150.434 C 48.837 150.434,48.663 150.608,48.795 150.820 C 48.926 151.032,48.762 151.205,48.432 151.205 C 48.101 151.205,47.830 151.495,47.830 151.848 C 47.830 152.202,47.730 152.391,47.608 152.269 C 47.486 152.146,46.618 152.782,45.679 153.681 C 44.039 155.253,43.447 156.183,44.455 155.602 C 44.735 155.441,44.803 155.472,44.616 155.676 C 44.439 155.869,44.092 156.035,43.844 156.045 C 43.597 156.054,43.442 156.284,43.500 156.555 C 43.561 156.838,43.419 156.933,43.168 156.778 C 42.634 156.448,39.808 159.348,40.027 160.002 C 40.126 160.301,39.943 160.372,39.506 160.205 C 39.046 160.028,38.921 160.090,39.111 160.397 C 39.278 160.668,39.149 160.849,38.788 160.849 C 38.458 160.849,38.187 161.119,38.187 161.450 C 38.187 161.781,38.032 161.955,37.842 161.838 C 37.653 161.721,37.391 162.052,37.260 162.573 C 37.088 163.257,36.844 163.453,36.384 163.277 C 35.956 163.112,35.838 163.180,36.025 163.483 C 36.192 163.754,36.064 163.934,35.703 163.934 C 35.372 163.934,35.101 164.205,35.101 164.536 C 35.101 164.867,34.947 165.042,34.759 164.926 C 34.571 164.810,34.327 165.060,34.217 165.482 C 34.107 165.904,33.729 166.249,33.379 166.249 C 33.028 166.249,32.849 166.422,32.980 166.635 C 33.111 166.847,32.948 167.020,32.617 167.020 C 32.286 167.020,32.015 167.310,32.015 167.663 C 32.015 168.017,31.916 168.206,31.794 168.085 C 31.453 167.744,27.650 171.525,27.911 171.946 C 28.037 172.150,27.756 172.644,27.288 173.044 C 26.579 173.648,26.523 173.657,26.958 173.095 C 27.246 172.724,27.337 172.420,27.161 172.420 C 26.673 172.420,23.183 176.189,23.437 176.442 C 23.558 176.564,23.369 176.663,23.015 176.663 C 22.662 176.663,22.372 176.934,22.372 177.265 C 22.372 177.596,22.199 177.759,21.986 177.628 C 21.774 177.497,21.601 177.670,21.601 178.014 C 21.601 178.357,21.471 178.559,21.311 178.462 C 20.934 178.234,20.033 179.210,20.338 179.515 C 20.467 179.644,20.357 179.749,20.095 179.749 C 19.508 179.749,18.751 180.486,18.409 181.389 C 18.268 181.760,17.877 182.064,17.540 182.064 C 17.203 182.064,17.034 182.237,17.165 182.449 C 17.296 182.662,17.207 182.835,16.967 182.835 C 16.272 182.835,15.354 183.944,15.651 184.425 C 15.815 184.690,15.716 184.795,15.401 184.690 C 14.767 184.479,12.151 187.013,12.150 187.838 C 12.150 188.163,11.889 188.436,11.571 188.446 C 11.253 188.455,11.041 188.685,11.099 188.957 C 11.158 189.228,11.021 189.336,10.796 189.197 C 10.256 188.863,7.423 191.796,7.644 192.458 C 7.746 192.766,7.639 192.863,7.376 192.700 C 6.791 192.339,5.786 193.385,5.786 194.353 C 5.786 194.788,5.448 195.234,5.014 195.371 C 4.590 195.506,4.243 195.952,4.243 196.362 C 4.243 196.772,4.069 197.107,3.857 197.107 C 3.645 197.107,3.472 197.454,3.472 197.878 C 3.472 198.303,3.298 198.650,3.086 198.650 C 2.849 198.650,2.700 200.514,2.700 203.472 C 2.700 206.429,2.849 208.293,3.086 208.293 C 3.298 208.293,3.472 208.640,3.472 209.065 C 3.472 209.489,3.645 209.836,3.857 209.836 C 4.069 209.836,4.243 210.100,4.243 210.423 C 4.243 211.187,8.292 215.236,9.056 215.236 C 9.379 215.236,9.643 215.386,9.643 215.569 C 9.643 216.419,13.953 217.254,17.289 217.050 C 20.217 216.871,23.077 216.070,22.576 215.568 C 22.482 215.475,22.730 215.373,23.126 215.344 C 23.892 215.286,42.430 197.054,42.430 196.359 C 42.430 196.134,42.602 195.950,42.813 195.950 C 43.313 195.950,67.117 172.146,67.117 171.646 C 67.117 171.435,67.308 171.263,67.541 171.263 C 68.060 171.263,82.932 156.341,82.932 155.820 C 82.932 155.616,83.119 155.448,83.349 155.448 C 83.893 155.448,90.646 148.695,90.646 148.151 C 90.646 147.921,90.821 147.734,91.034 147.734 C 91.540 147.734,146.962 92.310,146.962 91.803 C 146.962 91.591,147.139 91.418,147.356 91.418 C 147.572 91.418,159.375 79.788,173.583 65.574 C 187.792 51.360,199.586 39.730,199.792 39.730 C 199.997 39.730,200.562 40.167,201.047 40.700 C 204.184 44.152,232.672 72.517,233.003 72.517 C 233.227 72.517,233.304 72.690,233.173 72.903 C 233.041 73.115,233.205 73.288,233.536 73.288 C 233.866 73.288,234.137 73.455,234.137 73.659 C 234.137 73.863,241.074 80.936,249.554 89.377 C 258.033 97.819,265.143 104.899,265.355 105.111 C 265.567 105.323,272.864 112.657,281.570 121.408 C 290.276 130.159,297.572 137.319,297.784 137.319 C 297.995 137.319,298.168 137.490,298.168 137.700 C 298.168 137.971,323.964 163.945,329.395 169.142 C 329.617 169.354,331.169 170.948,332.844 172.685 C 334.519 174.422,335.995 175.738,336.123 175.610 C 336.250 175.482,336.355 175.578,336.355 175.822 C 336.355 176.490,375.223 215.236,375.892 215.236 C 376.210 215.236,376.471 215.424,376.471 215.654 C 376.471 215.884,376.688 215.999,376.953 215.910 C 377.218 215.820,377.638 216.023,377.886 216.360 C 378.472 217.156,387.322 217.268,388.100 216.490 C 388.365 216.225,388.895 216.008,389.277 216.008 C 389.659 216.008,389.971 215.834,389.971 215.622 C 389.971 215.410,390.171 215.236,390.415 215.236 C 391.055 215.236,394.986 211.082,394.986 210.406 C 394.986 210.092,395.159 209.836,395.371 209.836 C 395.583 209.836,395.757 209.489,395.757 209.065 C 395.757 208.640,395.931 208.293,396.143 208.293 C 396.379 208.293,396.528 206.429,396.528 203.472 C 396.528 200.514,396.379 198.650,396.143 198.650 C 395.931 198.650,395.757 198.303,395.757 197.878 C 395.757 197.454,395.583 197.107,395.371 197.107 C 395.159 197.107,394.986 196.841,394.986 196.517 C 394.986 195.861,391.120 191.886,390.617 192.024 C 390.443 192.072,390.409 191.934,390.544 191.716 C 390.678 191.499,390.604 191.321,390.380 191.321 C 390.155 191.321,389.971 191.140,389.971 190.918 C 389.971 190.355,388.176 188.616,387.890 188.902 C 387.762 189.030,387.657 188.827,387.657 188.451 C 387.657 188.012,387.456 187.844,387.098 187.982 C 386.724 188.125,386.610 188.011,386.753 187.637 C 386.882 187.302,386.736 187.078,386.389 187.078 C 386.071 187.078,385.711 186.818,385.589 186.500 C 385.466 186.181,385.101 185.921,384.776 185.921 C 384.451 185.921,384.185 185.738,384.185 185.515 C 384.185 185.023,375.433 176.278,374.941 176.278 C 374.750 176.278,374.476 175.905,374.331 175.449 C 373.961 174.285,371.725 172.138,371.099 172.347 C 370.784 172.452,370.685 172.347,370.848 172.082 C 371.186 171.536,370.269 170.566,369.620 170.782 C 369.357 170.870,369.142 170.657,369.142 170.308 C 369.142 169.923,368.965 169.784,368.690 169.954 C 368.376 170.148,368.324 170.012,368.518 169.506 C 368.671 169.106,368.685 168.891,368.549 169.027 C 368.413 169.163,366.522 167.509,364.347 165.351 C 362.172 163.193,360.017 161.172,359.560 160.860 C 359.102 160.548,358.727 160.060,358.727 159.776 C 358.727 159.491,358.532 159.381,358.291 159.529 C 358.030 159.691,357.925 159.591,358.029 159.277 C 358.243 158.637,355.775 156.092,355.254 156.414 C 355.034 156.550,354.984 156.370,355.134 155.980 C 355.327 155.476,355.238 155.373,354.764 155.555 C 354.301 155.732,354.200 155.632,354.378 155.169 C 354.558 154.700,354.456 154.605,353.972 154.791 C 353.542 154.956,353.327 154.842,353.327 154.449 C 353.327 154.098,353.145 153.972,352.876 154.139 C 352.572 154.326,352.505 154.207,352.671 153.776 C 352.806 153.423,352.759 153.134,352.565 153.134 C 352.372 153.134,350.449 151.398,348.293 149.277 C 346.138 147.155,344.218 145.419,344.029 145.419 C 343.839 145.419,343.727 145.203,343.780 144.937 C 343.833 144.672,343.660 144.499,343.394 144.552 C 343.129 144.605,342.912 144.377,342.912 144.047 C 342.912 143.716,342.741 143.551,342.531 143.681 C 342.304 143.821,342.253 143.648,342.404 143.255 C 342.576 142.806,342.513 142.683,342.206 142.872 C 341.958 143.025,341.755 142.959,341.755 142.725 C 341.755 142.067,340.055 140.522,339.526 140.698 C 339.216 140.801,339.143 140.623,339.315 140.177 C 339.513 139.661,339.426 139.557,338.949 139.740 C 338.486 139.917,338.385 139.817,338.563 139.354 C 338.747 138.874,338.642 138.790,338.115 138.992 C 337.602 139.189,337.483 139.108,337.650 138.674 C 337.773 138.353,337.688 138.091,337.460 138.091 C 337.233 138.091,335.676 136.705,334.001 135.012 L 330.955 131.933 330.955 86.603 C 330.955 56.640,330.824 41.273,330.569 41.273 C 330.357 41.273,330.183 40.926,330.183 40.501 C 330.183 40.077,330.010 39.730,329.797 39.730 C 329.585 39.730,329.412 39.462,329.412 39.134 C 329.412 38.806,328.978 38.104,328.447 37.573 C 327.917 37.043,327.483 36.443,327.483 36.241 C 327.483 36.038,327.194 35.873,326.840 35.873 C 326.487 35.873,326.305 35.765,326.436 35.634 C 326.779 35.292,325.722 34.330,325.003 34.330 C 324.670 34.330,324.397 34.156,324.397 33.944 C 324.397 33.732,323.953 33.558,323.410 33.558 C 322.850 33.558,322.526 33.391,322.662 33.173 C 322.805 32.940,322.280 32.787,321.334 32.787 C 320.473 32.787,319.769 32.613,319.769 32.401 C 319.769 32.150,314.368 32.015,304.339 32.015 C 294.311 32.015,288.910 32.150,288.910 32.401 C 288.910 32.613,288.216 32.787,287.367 32.787 C 286.519 32.787,285.824 32.960,285.824 33.173 C 285.824 33.385,285.477 33.558,285.053 33.558 C 284.629 33.558,284.282 33.732,284.282 33.944 C 284.282 34.156,284.021 34.330,283.703 34.330 C 283.385 34.330,283.124 34.503,283.124 34.716 C 283.124 34.928,282.902 35.101,282.631 35.101 C 282.360 35.101,281.882 35.470,281.570 35.920 C 281.258 36.370,280.786 36.965,280.521 37.242 C 280.256 37.520,280.039 38.019,280.039 38.352 C 280.039 38.686,279.865 38.959,279.653 38.959 C 279.441 38.959,279.267 39.306,279.267 39.730 C 279.267 40.154,279.094 40.501,278.881 40.501 C 278.669 40.501,278.496 41.032,278.496 41.681 C 278.496 42.370,278.335 42.762,278.110 42.623 C 277.855 42.465,277.724 48.405,277.724 60.151 C 277.724 69.922,277.620 77.917,277.493 77.917 C 277.366 77.917,276.782 77.402,276.194 76.773 C 275.606 76.144,275.016 75.739,274.882 75.873 C 274.748 76.007,274.638 75.902,274.638 75.639 C 274.638 75.113,274.042 74.489,272.886 73.806 C 272.471 73.561,272.189 73.127,272.260 72.842 C 272.330 72.557,272.267 72.445,272.119 72.593 C 271.971 72.742,271.022 72.013,270.010 70.974 C 268.998 69.935,268.063 69.192,267.933 69.322 C 267.802 69.453,267.695 69.353,267.695 69.101 C 267.695 68.849,266.784 67.727,265.670 66.608 C 264.556 65.489,263.217 64.031,262.694 63.367 C 262.171 62.703,261.606 62.244,261.440 62.347 C 261.274 62.449,261.138 62.342,261.138 62.107 C 261.138 61.529,259.350 59.776,259.057 60.068 C 258.929 60.197,258.824 60.013,258.824 59.659 C 258.824 59.306,258.553 59.016,258.222 59.016 C 257.891 59.016,257.728 58.843,257.859 58.631 C 257.990 58.419,257.901 58.245,257.662 58.245 C 257.073 58.245,256.100 57.240,256.399 56.941 C 256.530 56.809,256.441 56.702,256.202 56.702 C 255.962 56.702,253.496 54.446,250.723 51.688 C 247.950 48.930,245.778 46.673,245.897 46.673 C 246.015 46.673,245.371 45.915,244.464 44.988 C 243.558 44.061,242.729 43.323,242.623 43.349 C 242.517 43.374,242.393 43.258,242.347 43.091 C 242.241 42.701,241.201 41.659,240.919 41.659 C 240.521 41.659,231.823 32.817,231.823 32.413 C 231.823 32.195,231.562 32.015,231.244 32.015 C 230.926 32.015,230.665 31.850,230.665 31.649 C 230.665 31.137,225.606 26.057,224.782 25.741 C 224.411 25.599,224.108 25.206,224.108 24.869 C 224.108 24.531,223.966 24.343,223.793 24.450 C 223.619 24.558,223.240 24.317,222.951 23.915 C 222.661 23.514,222.283 23.273,222.109 23.380 C 221.936 23.487,221.794 23.383,221.794 23.149 C 221.794 22.570,220.005 20.818,219.713 21.110 C 219.584 21.238,219.479 21.157,219.479 20.928 C 219.479 20.476,215.498 16.201,215.077 16.201 C 214.935 16.201,214.452 15.859,214.005 15.442 C 213.557 15.025,213.042 14.776,212.861 14.888 C 212.679 15.001,212.427 14.821,212.299 14.489 C 212.172 14.158,211.739 13.886,211.338 13.886 C 210.936 13.886,210.608 13.693,210.608 13.457 C 210.608 13.199,210.145 13.095,209.450 13.197 C 208.672 13.311,208.293 13.203,208.293 12.867 C 208.293 12.540,207.812 12.385,206.909 12.419 C 206.147 12.447,205.410 12.302,205.270 12.095 C 204.951 11.624,193.250 11.538,193.250 12.006 M198.782 66.518 C 198.933 66.912,198.811 67.006,198.370 66.837 C 197.908 66.660,197.807 66.760,197.985 67.223 C 198.162 67.685,198.062 67.786,197.603 67.610 C 197.188 67.451,197.074 67.522,197.259 67.823 C 197.413 68.071,197.342 68.274,197.102 68.274 C 196.539 68.274,195.564 69.249,195.564 69.812 C 195.564 70.052,195.361 70.123,195.113 69.969 C 194.807 69.780,194.743 69.903,194.916 70.352 C 195.069 70.753,195.016 70.919,194.780 70.773 C 194.272 70.459,181.934 82.796,182.249 83.305 C 182.394 83.540,182.228 83.594,181.828 83.440 C 181.378 83.268,181.255 83.331,181.445 83.637 C 181.598 83.886,181.527 84.089,181.287 84.089 C 180.724 84.089,179.749 85.064,179.749 85.627 C 179.749 85.867,179.546 85.937,179.298 85.784 C 178.992 85.595,178.928 85.718,179.101 86.167 C 179.254 86.565,179.201 86.734,178.968 86.590 C 178.523 86.315,165.395 99.307,165.755 99.666 C 165.885 99.797,165.777 99.904,165.514 99.904 C 164.917 99.904,163.934 100.860,163.934 101.442 C 163.934 101.682,163.761 101.770,163.549 101.639 C 163.337 101.508,163.163 101.682,163.163 102.025 C 163.163 102.368,163.033 102.575,162.874 102.484 C 162.493 102.267,160.830 104.000,161.131 104.300 C 161.258 104.428,161.149 104.532,160.887 104.532 C 160.292 104.532,151.977 112.809,151.977 113.401 C 151.977 113.640,151.847 113.761,151.688 113.671 C 151.307 113.454,149.644 115.186,149.945 115.486 C 150.072 115.614,149.877 115.718,149.511 115.718 C 149.145 115.718,148.953 115.892,149.084 116.104 C 149.215 116.316,149.126 116.490,148.886 116.490 C 148.305 116.490,147.348 117.472,147.348 118.070 C 147.348 118.332,147.245 118.444,147.118 118.317 C 146.815 118.014,136.162 128.580,136.162 129.184 C 136.162 129.440,136.032 129.578,135.873 129.489 C 135.491 129.276,133.062 131.776,133.360 132.074 C 133.487 132.201,133.376 132.305,133.113 132.305 C 132.497 132.305,131.533 133.268,131.533 133.884 C 131.533 134.147,131.426 134.255,131.296 134.124 C 130.991 133.820,117.305 147.444,117.527 147.830 C 117.618 147.989,117.501 148.120,117.267 148.120 C 117.032 148.120,116.414 148.546,115.894 149.066 C 115.373 149.587,114.947 150.205,114.947 150.439 C 114.947 150.673,114.817 150.791,114.658 150.700 C 114.277 150.483,112.614 152.216,112.915 152.516 C 113.042 152.644,112.932 152.748,112.670 152.748 C 112.038 152.748,103.761 161.011,103.761 161.642 C 103.761 161.913,103.653 162.027,103.522 161.896 C 103.166 161.540,102.130 162.709,102.406 163.156 C 102.548 163.385,102.378 163.438,101.982 163.286 C 101.533 163.114,101.410 163.177,101.599 163.483 C 101.752 163.731,101.686 163.934,101.452 163.934 C 100.899 163.934,99.132 165.701,99.132 166.254 C 99.132 166.488,98.929 166.555,98.681 166.401 C 98.375 166.212,98.311 166.335,98.484 166.784 C 98.635 167.180,98.583 167.351,98.353 167.209 C 97.907 166.933,96.737 167.969,97.093 168.324 C 97.225 168.456,97.118 168.563,96.856 168.563 C 96.118 168.563,87.950 176.909,87.916 177.698 C 87.898 178.098,87.802 178.193,87.692 177.921 C 87.545 177.557,87.360 177.580,86.926 178.014 C 86.611 178.329,86.461 178.759,86.591 178.970 C 86.733 179.200,86.563 179.253,86.167 179.101 C 85.718 178.928,85.595 178.992,85.784 179.298 C 85.937 179.546,85.867 179.749,85.627 179.749 C 85.064 179.749,84.089 180.724,84.089 181.287 C 84.089 181.527,83.915 181.616,83.703 181.485 C 83.491 181.354,83.317 181.528,83.317 181.871 C 83.317 182.249,83.140 182.385,82.866 182.216 C 82.560 182.027,82.496 182.150,82.669 182.599 C 82.819 182.991,82.768 183.165,82.543 183.026 C 82.026 182.707,72.139 192.639,72.101 193.516 C 72.084 193.901,71.985 194.003,71.879 193.743 C 71.751 193.427,71.373 193.587,70.732 194.228 C 70.205 194.755,69.898 195.383,70.048 195.627 C 70.216 195.898,70.151 195.964,69.883 195.798 C 69.299 195.437,66.607 198.138,66.968 198.722 C 67.141 199.001,67.040 199.092,66.698 198.966 C 66.005 198.710,64.238 200.440,64.912 200.713 C 65.170 200.818,65.070 200.917,64.689 200.934 C 63.774 200.974,55.554 209.179,55.514 210.091 C 55.497 210.490,55.399 210.591,55.291 210.322 C 55.144 209.958,54.959 209.981,54.525 210.415 C 54.210 210.730,54.060 211.160,54.190 211.372 C 54.333 211.602,54.161 211.654,53.762 211.500 C 53.258 211.307,53.155 211.397,53.337 211.871 C 53.514 212.333,53.414 212.434,52.955 212.258 C 52.540 212.099,52.426 212.170,52.611 212.471 C 52.782 212.746,52.640 212.922,52.248 212.922 C 51.845 212.922,51.685 213.131,51.820 213.481 C 51.970 213.874,51.849 213.969,51.408 213.800 C 50.928 213.615,50.844 213.720,51.046 214.248 C 51.249 214.776,51.164 214.880,50.685 214.696 C 50.229 214.521,50.122 214.620,50.290 215.059 C 50.424 215.408,50.360 215.562,50.137 215.425 C 49.926 215.294,49.496 215.445,49.181 215.759 C 48.747 216.194,48.724 216.378,49.087 216.525 C 49.366 216.637,49.280 216.731,48.882 216.749 C 48.506 216.765,46.724 218.226,44.923 219.995 L 41.648 223.212 41.808 282.194 C 41.960 338.690,42.069 345.227,42.853 345.227 C 43.045 345.227,43.202 345.747,43.202 346.384 C 43.202 347.020,43.375 347.541,43.587 347.541 C 43.799 347.541,43.973 348.062,43.973 348.698 C 43.973 349.435,44.170 349.855,44.515 349.855 C 44.868 349.855,44.987 350.125,44.856 350.627 C 44.743 351.058,44.844 351.398,45.085 351.398 C 45.322 351.398,45.516 351.745,45.516 352.170 C 45.516 352.594,45.689 352.941,45.902 352.941 C 46.114 352.941,46.287 353.274,46.287 353.680 C 46.287 354.087,46.448 354.478,46.644 354.548 C 46.840 354.619,47.057 354.937,47.126 355.256 C 47.195 355.574,47.555 356.115,47.927 356.458 C 48.298 356.801,48.602 357.253,48.602 357.462 C 48.602 357.670,49.122 358.386,49.759 359.052 C 50.395 359.718,50.916 360.355,50.916 360.468 C 50.916 360.733,55.302 365.122,55.440 364.995 C 55.783 364.680,56.298 365.004,56.509 365.670 C 56.644 366.095,56.959 366.442,57.210 366.442 C 57.461 366.442,58.187 366.893,58.824 367.444 C 59.460 367.995,60.632 368.708,61.427 369.028 C 62.223 369.349,62.874 369.766,62.874 369.955 C 62.874 370.144,63.275 370.299,63.765 370.299 C 64.256 370.299,65.029 370.646,65.485 371.070 C 65.940 371.495,66.570 371.842,66.885 371.842 C 67.200 371.842,67.564 372.015,67.695 372.228 C 67.826 372.440,68.521 372.613,69.238 372.613 C 69.956 372.613,70.650 372.787,70.781 372.999 C 70.912 373.211,71.520 373.385,72.131 373.385 C 72.743 373.385,73.350 373.558,73.481 373.770 C 73.612 373.983,74.838 374.156,76.204 374.156 C 77.603 374.156,78.689 374.325,78.689 374.542 C 78.689 375.111,320.427 375.074,320.617 374.504 C 320.701 374.252,321.885 374.071,323.542 374.056 C 325.073 374.043,326.326 373.886,326.326 373.708 C 326.326 373.530,327.020 373.385,327.869 373.385 C 328.990 373.385,329.412 373.225,329.412 372.801 C 329.412 372.360,329.704 372.268,330.598 372.426 C 331.359 372.560,331.697 372.492,331.540 372.238 C 331.397 372.006,331.704 371.842,332.282 371.842 C 332.825 371.842,333.269 371.668,333.269 371.456 C 333.269 371.244,333.616 371.070,334.041 371.070 C 334.465 371.070,334.812 370.897,334.812 370.685 C 334.812 370.473,335.159 370.299,335.583 370.299 C 336.008 370.299,336.355 370.125,336.355 369.913 C 336.355 369.701,336.702 369.527,337.126 369.527 C 337.551 369.527,337.898 369.345,337.898 369.122 C 337.898 368.899,338.419 368.534,339.055 368.312 C 339.691 368.091,340.212 367.753,340.212 367.561 C 340.212 367.370,340.490 367.213,340.829 367.213 C 341.466 367.213,343.684 365.084,343.684 364.472 C 343.684 364.283,343.950 364.127,344.275 364.127 C 344.841 364.127,347.541 361.715,347.541 361.209 C 347.541 361.075,348.062 360.479,348.698 359.884 C 349.335 359.290,349.855 358.613,349.855 358.379 C 349.855 358.146,350.029 357.956,350.241 357.956 C 350.453 357.956,350.627 357.695,350.627 357.377 C 350.627 357.059,350.800 356.798,351.013 356.798 C 351.225 356.798,351.398 356.490,351.398 356.112 C 351.398 355.735,351.745 355.176,352.170 354.870 C 352.594 354.564,352.941 354.005,352.941 353.627 C 352.941 353.250,353.115 352.941,353.327 352.941 C 353.539 352.941,353.713 352.594,353.713 352.170 C 353.713 351.745,353.886 351.398,354.098 351.398 C 354.311 351.398,354.484 350.878,354.484 350.241 C 354.484 349.605,354.658 349.084,354.870 349.084 C 355.082 349.084,355.256 348.737,355.256 348.312 C 355.256 347.888,355.429 347.541,355.641 347.541 C 355.853 347.541,356.027 346.944,356.027 346.214 C 356.027 345.484,356.201 344.779,356.413 344.648 C 356.625 344.517,356.798 343.841,356.798 343.147 C 356.798 342.452,356.897 341.785,357.018 341.664 C 357.573 341.109,357.387 223.431,356.832 223.644 C 356.483 223.778,356.387 223.690,356.567 223.399 C 356.872 222.906,355.966 221.794,355.260 221.794 C 355.021 221.794,354.932 221.620,355.063 221.408 C 355.194 221.196,355.030 221.022,354.700 221.022 C 354.369 221.022,354.098 220.856,354.098 220.654 C 354.098 220.451,353.657 219.844,353.117 219.304 C 352.576 218.764,351.969 218.322,351.766 218.322 C 351.564 218.322,351.398 218.062,351.398 217.743 C 351.398 217.425,351.250 217.208,351.069 217.261 C 350.888 217.314,350.049 216.663,349.205 215.815 C 348.362 214.966,347.252 213.915,346.738 213.479 C 346.225 213.043,345.468 212.229,345.056 211.670 C 344.644 211.111,344.140 210.757,343.936 210.883 C 343.731 211.009,343.689 210.911,343.842 210.664 C 344.148 210.169,343.474 209.354,342.430 208.959 C 342.059 208.818,341.755 208.516,341.755 208.288 C 341.755 207.743,339.983 205.979,339.435 205.979 C 339.201 205.979,339.117 205.805,339.248 205.593 C 339.379 205.381,339.216 205.207,338.885 205.207 C 338.554 205.207,338.284 205.048,338.284 204.853 C 338.284 204.438,335.383 201.350,334.993 201.350 C 334.848 201.350,333.102 199.726,331.114 197.741 C 329.126 195.757,327.400 194.233,327.278 194.355 C 327.156 194.477,327.183 194.248,327.337 193.846 C 327.561 193.262,327.484 193.167,326.951 193.371 C 326.553 193.524,326.381 193.473,326.523 193.242 C 326.799 192.796,325.763 191.626,325.408 191.982 C 325.276 192.114,325.169 192.022,325.169 191.778 C 325.169 191.535,324.041 190.207,322.662 188.828 C 321.283 187.449,320.154 186.442,320.154 186.589 C 320.154 186.736,319.390 186.082,318.455 185.135 C 317.521 184.188,316.522 183.226,316.237 182.996 C 315.952 182.767,314.826 181.605,313.734 180.416 C 312.643 179.226,311.636 178.367,311.496 178.507 C 311.356 178.647,311.368 178.433,311.522 178.031 C 311.746 177.447,311.669 177.352,311.137 177.556 C 310.738 177.709,310.566 177.658,310.709 177.428 C 310.984 176.981,309.949 175.812,309.593 176.168 C 309.461 176.299,309.354 176.117,309.354 175.763 C 309.354 175.410,309.224 175.164,309.065 175.217 C 308.905 175.270,308.738 175.177,308.693 175.010 C 308.551 174.490,307.501 173.578,307.044 173.578 C 306.805 173.578,306.716 173.404,306.847 173.192 C 306.978 172.980,306.814 172.806,306.484 172.806 C 306.153 172.806,305.882 172.659,305.882 172.479 C 305.882 172.037,304.695 170.786,303.755 170.238 C 303.334 169.993,303.037 169.590,303.095 169.342 C 303.154 169.094,303.035 168.994,302.832 169.120 C 302.630 169.245,302.235 169.032,301.955 168.647 C 301.675 168.261,301.017 167.651,300.493 167.290 C 299.968 166.930,299.657 166.635,299.801 166.635 C 299.945 166.635,299.209 165.835,298.164 164.858 C 297.120 163.881,296.157 162.741,296.025 162.323 C 295.887 161.890,295.559 161.651,295.260 161.765 C 294.902 161.903,294.812 161.767,294.976 161.341 C 295.153 160.878,295.053 160.777,294.590 160.955 C 294.128 161.132,294.027 161.032,294.203 160.573 C 294.362 160.158,294.291 160.044,293.990 160.229 C 293.742 160.383,293.539 160.317,293.539 160.082 C 293.539 159.508,291.763 157.763,291.178 157.763 C 290.921 157.763,290.808 157.665,290.927 157.547 C 291.255 157.219,289.299 155.401,288.890 155.654 C 288.694 155.775,288.637 155.605,288.763 155.276 C 288.914 154.882,288.773 154.677,288.350 154.677 C 287.997 154.677,287.815 154.503,287.946 154.291 C 288.077 154.079,287.904 153.905,287.560 153.905 C 287.217 153.905,287.043 153.732,287.175 153.520 C 287.306 153.308,287.204 153.134,286.948 153.134 C 286.339 153.134,280.039 146.803,280.039 146.192 C 280.039 145.926,279.779 145.822,279.440 145.952 C 279.099 146.083,278.942 146.019,279.075 145.804 C 279.345 145.367,277.537 143.421,277.187 143.771 C 277.058 143.900,276.953 143.706,276.953 143.339 C 276.953 142.973,276.779 142.781,276.567 142.912 C 276.355 143.043,276.181 142.880,276.181 142.549 C 276.181 142.219,275.911 141.948,275.580 141.948 C 275.249 141.948,275.086 141.774,275.217 141.562 C 275.348 141.350,275.185 141.176,274.854 141.176 C 274.523 141.176,274.253 140.993,274.253 140.768 C 274.253 140.543,274.081 140.466,273.871 140.595 C 273.644 140.735,273.593 140.561,273.745 140.165 C 273.939 139.661,273.849 139.558,273.375 139.740 C 272.912 139.917,272.812 139.817,272.989 139.354 C 273.167 138.891,273.066 138.791,272.603 138.968 C 272.136 139.148,272.037 139.043,272.212 138.553 C 272.341 138.193,272.315 138.017,272.153 138.162 C 271.879 138.409,264.817 131.522,262.681 128.923 C 262.150 128.278,261.586 127.831,261.427 127.929 C 261.268 128.027,261.138 127.911,261.138 127.671 C 261.138 127.108,260.163 126.133,259.600 126.133 C 259.360 126.133,259.271 125.959,259.402 125.747 C 259.533 125.535,259.341 125.362,258.975 125.362 C 258.609 125.362,258.417 125.254,258.548 125.123 C 258.904 124.767,257.734 123.731,257.288 124.007 C 257.058 124.149,257.006 123.978,257.159 123.579 C 257.353 123.075,257.263 122.972,256.789 123.154 C 256.377 123.311,256.227 123.226,256.351 122.903 C 256.454 122.634,256.089 122.208,255.538 121.957 C 254.908 121.670,254.639 121.323,254.813 121.021 C 254.966 120.756,254.948 120.669,254.774 120.826 C 254.601 120.983,253.628 120.246,252.613 119.187 C 251.597 118.128,250.573 117.261,250.336 117.261 C 250.100 117.261,249.977 117.131,250.064 116.972 C 250.271 116.591,247.737 114.205,247.440 114.502 C 247.314 114.628,247.337 114.402,247.491 114.000 C 247.715 113.416,247.638 113.321,247.106 113.526 C 246.713 113.676,246.536 113.626,246.674 113.403 C 246.947 112.961,245.192 111.090,244.505 111.090 C 244.248 111.090,244.140 110.987,244.266 110.861 C 244.551 110.576,239.704 105.689,239.136 105.689 C 238.907 105.689,238.827 105.516,238.959 105.304 C 239.090 105.092,239.006 104.918,238.772 104.918 C 238.206 104.918,231.823 98.518,231.823 97.950 C 231.823 97.706,231.571 97.603,231.264 97.721 C 230.870 97.872,230.776 97.750,230.945 97.310 C 231.127 96.836,231.023 96.746,230.519 96.939 C 230.121 97.092,229.949 97.041,230.091 96.810 C 230.346 96.399,229.352 95.203,228.847 95.314 C 228.680 95.350,228.373 95.009,228.163 94.556 C 227.954 94.103,227.534 93.732,227.231 93.732 C 226.928 93.732,226.785 93.627,226.913 93.498 C 227.296 93.115,225.297 91.352,224.817 91.649 C 224.543 91.818,224.480 91.752,224.652 91.474 C 224.804 91.228,224.657 90.754,224.325 90.423 C 223.994 90.091,223.722 89.917,223.722 90.037 C 223.722 90.157,221.986 88.530,219.865 86.422 C 217.743 84.314,216.008 82.387,216.008 82.140 C 216.008 81.894,215.756 81.788,215.449 81.906 C 215.055 82.057,214.961 81.935,215.130 81.495 C 215.308 81.032,215.207 80.932,214.744 81.109 C 214.283 81.286,214.181 81.186,214.357 80.727 C 214.516 80.313,214.445 80.198,214.145 80.384 C 213.871 80.553,213.693 80.417,213.693 80.039 C 213.693 79.695,213.520 79.522,213.308 79.653 C 213.095 79.784,212.922 79.695,212.922 79.455 C 212.922 78.874,211.940 77.917,211.342 77.917 C 211.080 77.917,210.970 77.812,211.098 77.683 C 211.481 77.300,209.482 75.537,209.002 75.834 C 208.728 76.004,208.665 75.937,208.837 75.659 C 209.143 75.164,208.469 74.349,207.425 73.954 C 207.054 73.813,206.750 73.422,206.750 73.085 C 206.750 72.747,206.582 72.575,206.377 72.702 C 206.172 72.829,205.783 72.579,205.513 72.146 C 205.243 71.714,204.774 71.360,204.472 71.360 C 204.169 71.360,204.029 71.252,204.161 71.120 C 204.442 70.840,199.513 65.959,198.950 65.959 C 198.739 65.959,198.664 66.211,198.782 66.518 M173.578 191.321 C 173.578 191.535,174.606 191.707,175.892 191.707 C 177.178 191.707,178.206 191.878,178.206 192.093 C 178.206 192.305,178.901 192.478,179.749 192.478 C 180.598 192.478,181.292 192.652,181.292 192.864 C 181.292 193.076,181.813 193.250,182.449 193.250 C 183.086 193.250,183.607 193.423,183.607 193.635 C 183.607 193.848,183.956 194.021,184.383 194.021 C 185.173 194.021,186.699 194.733,187.113 195.295 C 187.239 195.466,187.499 195.575,187.692 195.539 C 188.490 195.388,189.037 195.589,188.814 195.950 C 188.683 196.162,188.933 196.336,189.370 196.336 C 189.807 196.336,190.164 196.509,190.164 196.721 C 190.164 196.933,190.435 197.107,190.765 197.107 C 191.096 197.107,191.259 197.281,191.128 197.493 C 190.997 197.705,191.247 197.878,191.684 197.878 C 192.121 197.878,192.478 198.023,192.478 198.199 C 192.478 198.375,192.955 198.766,193.538 199.067 C 194.621 199.627,195.343 200.210,197.679 202.411 C 199.405 204.037,199.871 203.994,201.916 202.025 C 204.202 199.825,204.713 199.421,205.214 199.421 C 205.447 199.421,205.515 199.221,205.363 198.976 C 205.199 198.710,205.257 198.635,205.509 198.791 C 205.740 198.933,206.339 198.657,206.839 198.175 C 207.340 197.694,208.002 197.243,208.311 197.175 C 208.619 197.106,208.930 196.889,209.000 196.692 C 209.071 196.496,209.456 196.336,209.856 196.336 C 210.314 196.336,210.508 196.140,210.380 195.806 C 210.231 195.417,210.438 195.327,211.164 195.465 C 211.746 195.577,212.150 195.477,212.150 195.223 C 212.150 194.986,212.498 194.793,212.922 194.793 C 213.346 194.793,213.693 194.556,213.693 194.268 C 213.693 193.922,214.008 193.803,214.612 193.918 C 215.118 194.015,215.649 193.904,215.792 193.672 C 215.936 193.440,216.477 193.250,216.995 193.250 C 217.513 193.250,217.936 193.076,217.936 192.864 C 217.936 192.652,218.529 192.478,219.254 192.478 C 219.979 192.478,220.639 192.278,220.721 192.033 C 220.815 191.748,221.736 191.613,223.260 191.659 C 224.690 191.701,225.651 191.571,225.651 191.333 C 225.651 191.080,227.542 190.935,230.858 190.935 C 234.073 190.935,236.066 191.083,236.066 191.321 C 236.066 191.535,237.094 191.707,238.380 191.707 C 239.666 191.707,240.694 191.878,240.694 192.093 C 240.694 192.305,241.378 192.478,242.214 192.478 C 243.051 192.478,243.842 192.652,243.973 192.864 C 244.104 193.076,244.635 193.250,245.153 193.250 C 245.671 193.250,246.095 193.423,246.095 193.635 C 246.095 193.848,246.615 194.021,247.252 194.021 C 247.888 194.021,248.409 194.195,248.409 194.407 C 248.409 194.619,248.756 194.793,249.180 194.793 C 249.605 194.793,249.952 194.934,249.952 195.106 C 249.952 195.279,250.559 195.659,251.302 195.950 C 252.044 196.241,252.652 196.621,252.652 196.793 C 252.652 196.966,252.999 197.107,253.423 197.107 C 253.848 197.107,254.195 197.281,254.195 197.493 C 254.195 197.705,254.542 197.878,254.966 197.878 C 255.391 197.878,255.738 198.072,255.738 198.309 C 255.738 198.550,256.078 198.651,256.509 198.538 C 256.933 198.427,257.281 198.509,257.281 198.721 C 257.281 199.229,258.881 200.549,259.517 200.566 C 260.146 200.582,269.238 209.896,269.239 210.526 C 269.239 210.677,269.669 211.300,270.195 211.911 C 270.720 212.523,271.057 213.173,270.943 213.358 C 270.829 213.542,270.919 213.693,271.144 213.693 C 271.369 213.693,271.553 213.927,271.553 214.212 C 271.553 214.498,271.900 215.045,272.324 215.429 C 272.748 215.813,273.095 216.534,273.095 217.032 C 273.095 217.529,273.269 217.936,273.481 217.936 C 273.693 217.936,273.867 218.209,273.867 218.542 C 273.867 218.876,274.129 219.411,274.449 219.731 C 274.769 220.051,274.933 220.473,274.812 220.668 C 274.691 220.863,274.777 221.022,275.001 221.022 C 275.226 221.022,275.410 221.702,275.410 222.533 C 275.410 223.364,275.605 224.109,275.844 224.188 C 276.082 224.268,276.278 224.803,276.278 225.378 C 276.278 225.952,276.430 226.422,276.615 226.422 C 276.801 226.422,276.953 227.540,276.953 228.907 C 276.953 230.273,277.126 231.499,277.338 231.630 C 277.562 231.768,277.724 233.884,277.724 236.667 C 277.724 239.609,277.575 241.466,277.338 241.466 C 277.124 241.466,276.953 242.494,276.953 243.780 C 276.953 245.066,276.781 246.095,276.567 246.095 C 276.355 246.095,276.181 246.962,276.181 248.023 C 276.181 249.084,276.008 249.952,275.796 249.952 C 275.583 249.952,275.410 250.375,275.410 250.893 C 275.410 251.411,275.236 251.942,275.024 252.073 C 274.812 252.204,274.638 252.735,274.638 253.253 C 274.638 253.771,274.465 254.195,274.253 254.195 C 274.041 254.195,273.867 254.716,273.867 255.352 C 273.867 255.988,273.693 256.509,273.481 256.509 C 273.269 256.509,273.095 257.030,273.095 257.666 C 273.095 258.303,272.922 258.824,272.710 258.824 C 272.498 258.824,272.324 259.160,272.324 259.572 C 272.324 259.984,272.148 260.430,271.932 260.563 C 271.716 260.696,271.641 260.968,271.764 261.167 C 271.887 261.366,271.716 261.633,271.384 261.760 C 271.052 261.888,270.781 262.320,270.781 262.722 C 270.781 263.124,270.608 263.452,270.395 263.452 C 270.183 263.452,270.010 263.785,270.010 264.192 C 270.010 264.598,269.873 264.989,269.706 265.059 C 269.351 265.210,267.310 269.327,267.310 269.892 C 267.310 270.103,266.962 270.590,266.538 270.974 C 266.114 271.358,265.767 271.867,265.767 272.105 C 265.767 272.343,265.419 272.836,264.995 273.199 C 264.571 273.562,264.224 274.170,264.224 274.549 C 264.224 274.929,263.877 275.490,263.452 275.796 C 263.028 276.101,262.681 276.622,262.681 276.953 C 262.681 277.283,262.334 277.804,261.909 278.110 C 261.485 278.416,261.138 278.905,261.138 279.198 C 261.138 279.490,260.617 280.215,259.981 280.810 C 259.344 281.405,258.824 282.082,258.824 282.315 C 258.824 282.548,258.662 282.739,258.464 282.739 C 258.266 282.739,257.994 283.086,257.859 283.510 C 257.725 283.934,257.380 284.282,257.094 284.282 C 256.808 284.282,256.343 284.802,256.062 285.439 C 255.780 286.075,255.418 286.596,255.258 286.596 C 255.097 286.596,254.966 286.862,254.966 287.187 C 254.966 287.512,254.662 287.891,254.291 288.031 C 253.920 288.170,253.128 288.816,252.531 289.465 C 251.935 290.115,251.011 291.121,250.480 291.700 C 249.948 292.280,249.622 292.931,249.755 293.147 C 249.888 293.363,249.698 293.539,249.332 293.539 C 248.966 293.539,248.773 293.646,248.903 293.776 C 249.140 294.013,247.150 296.036,243.446 299.325 C 242.371 300.280,241.485 301.282,241.478 301.553 C 241.471 301.823,240.948 302.148,240.315 302.275 C 239.682 302.401,239.258 302.657,239.373 302.843 C 239.488 303.030,239.414 303.182,239.208 303.182 C 239.002 303.182,237.517 304.508,235.907 306.128 C 234.297 307.749,232.980 308.951,232.980 308.801 C 232.980 308.371,232.000 309.473,231.717 310.222 C 231.576 310.593,231.234 310.897,230.956 310.897 C 230.677 310.897,230.200 311.244,229.894 311.668 C 229.588 312.093,229.102 312.440,228.814 312.440 C 228.526 312.440,227.586 313.130,226.726 313.973 C 225.865 314.817,225.053 315.440,224.920 315.358 C 224.787 315.275,224.343 315.453,223.934 315.753 C 223.524 316.052,223.322 316.297,223.485 316.297 C 223.648 316.297,223.266 316.731,222.635 317.261 C 222.005 317.792,221.341 318.226,221.159 318.227 C 220.978 318.228,220.275 318.749,219.597 319.385 C 218.919 320.020,218.222 320.540,218.049 320.540 C 217.876 320.540,217.404 320.979,217.001 321.516 C 216.598 322.053,215.689 322.767,214.981 323.103 C 214.273 323.439,213.693 323.868,213.693 324.056 C 213.693 324.243,213.303 324.400,212.825 324.403 C 212.124 324.408,212.068 324.481,212.536 324.783 C 213.014 325.092,212.979 325.158,212.332 325.163 C 211.902 325.166,211.299 325.516,210.993 325.940 C 210.687 326.365,210.167 326.712,209.836 326.712 C 209.505 326.712,208.985 327.059,208.679 327.483 C 208.373 327.907,207.873 328.255,207.567 328.255 C 207.262 328.255,206.493 328.819,205.860 329.508 C 205.226 330.198,204.830 330.545,204.980 330.280 C 205.130 330.014,205.069 329.797,204.844 329.797 C 204.620 329.797,204.436 329.951,204.436 330.139 C 204.436 330.327,203.872 330.766,203.182 331.114 C 201.478 331.975,200.431 332.629,200.155 333.005 C 200.028 333.177,199.333 332.962,198.612 332.527 C 197.890 332.092,196.926 331.571,196.469 331.369 C 196.013 331.167,195.528 330.823,195.392 330.603 C 195.257 330.384,194.545 329.919,193.812 329.571 C 193.078 329.223,192.478 328.784,192.478 328.596 C 192.478 328.408,192.169 328.255,191.792 328.255 C 191.415 328.255,190.855 327.907,190.550 327.483 C 190.244 327.059,189.723 326.712,189.392 326.712 C 189.062 326.712,188.541 326.365,188.235 325.940 C 187.929 325.516,187.370 325.169,186.993 325.169 C 186.615 325.169,186.307 324.985,186.307 324.760 C 186.307 324.536,186.133 324.459,185.921 324.590 C 185.709 324.721,185.535 324.632,185.535 324.393 C 185.535 323.875,184.578 322.854,184.092 322.854 C 183.904 322.854,183.252 322.334,182.642 321.697 C 182.032 321.061,181.391 320.540,181.217 320.540 C 181.042 320.540,180.355 320.019,179.689 319.383 C 179.023 318.746,178.166 318.226,177.785 318.226 C 177.404 318.226,176.785 317.705,176.409 317.068 C 176.033 316.432,175.416 315.911,175.037 315.911 C 174.659 315.911,174.349 315.709,174.349 315.461 C 174.349 315.214,174.239 315.121,174.105 315.255 C 173.971 315.389,173.381 314.984,172.794 314.355 C 172.206 313.726,171.529 313.211,171.289 313.211 C 171.048 313.211,170.278 312.647,169.576 311.958 C 167.668 310.083,165.863 308.547,165.863 308.800 C 165.863 308.923,165.603 308.763,165.284 308.445 C 164.966 308.126,164.706 307.763,164.706 307.637 C 164.706 307.208,160.481 303.182,160.031 303.182 C 159.784 303.182,159.099 302.677,158.509 302.060 C 157.919 301.442,157.336 301.037,157.214 301.160 C 157.091 301.282,156.991 301.172,156.991 300.915 C 156.991 300.367,155.899 299.249,153.616 297.459 C 152.715 296.753,151.977 295.929,151.977 295.628 C 151.977 295.328,151.706 295.082,151.375 295.082 C 151.045 295.082,150.881 294.908,151.013 294.696 C 151.144 294.484,150.964 294.311,150.613 294.311 C 150.263 294.311,149.885 293.963,149.774 293.539 C 149.663 293.115,149.431 292.768,149.258 292.768 C 149.085 292.768,148.833 292.420,148.698 291.995 C 148.399 291.053,144.868 287.367,144.265 287.367 C 144.026 287.367,143.938 287.194,144.069 286.982 C 144.201 286.770,144.124 286.596,143.899 286.596 C 143.675 286.596,143.491 286.342,143.491 286.032 C 143.491 285.722,142.797 284.781,141.948 283.941 C 141.099 283.101,140.405 282.296,140.405 282.152 C 140.405 282.009,139.884 281.405,139.248 280.810 C 138.611 280.215,138.091 279.515,138.091 279.254 C 138.091 278.993,137.771 278.498,137.381 278.155 C 136.990 277.812,136.553 277.054,136.409 276.471 C 136.265 275.887,135.890 275.410,135.576 275.410 C 135.262 275.410,135.025 275.280,135.050 275.121 C 135.163 274.409,134.957 273.874,134.330 273.247 C 133.959 272.876,133.655 272.435,133.655 272.268 C 133.655 272.100,133.351 271.609,132.980 271.175 C 132.608 270.741,132.305 270.203,132.305 269.978 C 132.305 269.517,131.316 268.427,131.097 268.646 C 131.019 268.724,130.927 268.330,130.894 267.771 C 130.860 267.212,130.643 266.691,130.412 266.614 C 130.180 266.537,129.990 266.141,129.990 265.734 C 129.990 265.328,129.817 264.995,129.605 264.995 C 129.392 264.995,129.219 264.648,129.219 264.224 C 129.219 263.799,129.045 263.452,128.833 263.452 C 128.621 263.452,128.447 263.095,128.447 262.658 C 128.447 262.221,128.274 261.971,128.062 262.102 C 127.687 262.334,127.520 261.829,127.647 260.849 C 127.682 260.583,127.458 260.366,127.150 260.366 C 126.781 260.366,126.660 260.105,126.793 259.595 C 126.906 259.164,126.805 258.824,126.564 258.824 C 126.327 258.824,126.133 258.303,126.133 257.666 C 126.133 257.030,125.959 256.509,125.747 256.509 C 125.535 256.509,125.362 256.162,125.362 255.738 C 125.362 255.313,125.188 254.966,124.976 254.966 C 124.764 254.966,124.590 254.262,124.590 253.401 C 124.590 252.455,124.437 251.929,124.204 252.073 C 123.987 252.208,123.819 251.892,123.819 251.347 C 123.819 250.817,123.645 250.276,123.433 250.145 C 123.221 250.014,123.047 249.212,123.047 248.363 C 123.047 247.433,122.894 246.915,122.662 247.059 C 122.257 247.309,122.163 246.408,122.270 243.298 C 122.307 242.210,122.165 241.466,121.919 241.466 C 121.374 241.466,121.347 231.194,121.890 230.858 C 122.102 230.727,122.276 229.675,122.276 228.521 C 122.276 227.367,122.432 226.422,122.623 226.422 C 122.814 226.422,122.970 225.777,122.970 224.989 C 122.970 224.200,123.161 223.491,123.394 223.414 C 123.628 223.336,123.819 222.669,123.819 221.932 C 123.819 221.136,123.976 220.688,124.204 220.829 C 124.429 220.968,124.590 220.576,124.590 219.888 C 124.590 219.239,124.764 218.708,124.976 218.708 C 125.188 218.708,125.362 218.361,125.362 217.936 C 125.362 217.512,125.493 217.165,125.653 217.165 C 125.814 217.165,126.191 216.601,126.492 215.911 C 126.793 215.222,127.377 214.359,127.789 213.994 C 128.211 213.621,128.440 213.073,128.312 212.741 C 128.188 212.416,128.266 212.150,128.487 212.150 C 129.017 212.150,129.990 211.161,129.990 210.622 C 129.990 210.388,130.598 209.589,131.340 208.846 C 132.575 207.612,132.864 207.078,132.736 206.268 C 132.711 206.109,132.881 205.979,133.114 205.979 C 133.347 205.979,134.025 205.458,134.619 204.822 C 135.214 204.185,135.818 203.664,135.961 203.664 C 136.105 203.664,136.896 202.963,137.719 202.106 C 138.543 201.249,139.310 200.555,139.425 200.563 C 140.185 200.619,140.473 200.476,141.334 199.614 C 141.865 199.084,142.552 198.650,142.863 198.650 C 143.173 198.650,143.484 198.513,143.555 198.346 C 143.626 198.180,144.695 197.553,145.930 196.954 C 147.165 196.355,148.269 195.624,148.382 195.329 C 148.495 195.034,148.753 194.793,148.955 194.793 C 149.157 194.793,149.200 195.010,149.050 195.275 C 148.832 195.661,148.882 195.661,149.297 195.275 C 149.583 195.010,150.055 194.793,150.346 194.793 C 150.637 194.793,151.128 194.540,151.437 194.230 C 151.746 193.921,152.255 193.766,152.567 193.886 C 152.879 194.006,153.134 193.912,153.134 193.677 C 153.134 193.442,153.640 193.250,154.259 193.250 C 154.878 193.250,155.452 193.047,155.534 192.799 C 155.618 192.549,156.321 192.372,157.110 192.401 C 157.893 192.431,158.534 192.287,158.534 192.081 C 158.534 191.875,159.359 191.704,160.366 191.701 C 161.374 191.698,162.459 191.527,162.777 191.321 C 163.558 190.816,173.578 190.816,173.578 191.321 "></path><path id="path1" d="M139.467 59.759 C 138.829 60.464,138.829 60.496,139.472 60.402 C 139.844 60.347,140.190 60.013,140.242 59.659 C 140.362 58.843,140.287 58.853,139.467 59.759 M107.261 91.962 C 106.952 92.334,106.937 92.585,107.214 92.756 C 107.436 92.894,107.631 92.952,107.648 92.887 C 108.022 91.374,107.930 91.155,107.261 91.962 M98.197 101.496 C 97.788 101.893,97.637 102.218,97.860 102.218 C 98.305 102.218,99.334 101.123,99.091 100.908 C 99.007 100.835,98.605 101.099,98.197 101.496 M59.236 139.990 C 58.875 140.388,58.742 140.814,58.940 140.936 C 59.137 141.058,59.594 140.832,59.954 140.434 C 60.315 140.036,60.448 139.610,60.250 139.488 C 60.053 139.366,59.596 139.592,59.236 139.990 M43.177 156.057 C 42.902 156.388,42.906 156.616,43.192 156.793 C 43.420 156.934,43.559 156.827,43.500 156.555 C 43.442 156.284,43.597 156.054,43.844 156.045 C 44.530 156.018,44.828 155.577,44.160 155.577 C 43.838 155.577,43.396 155.793,43.177 156.057 M358.727 159.660 C 358.727 160.207,359.836 161.412,360.098 161.149 C 360.195 161.052,359.927 160.571,359.501 160.080 C 359.075 159.589,358.727 159.400,358.727 159.660 M302.767 169.462 C 303.750 170.544,303.961 170.678,303.942 170.203 C 303.935 170.043,303.458 169.580,302.881 169.173 L 301.832 168.432 302.767 169.462 M27.338 171.842 C 27.312 171.948,27.266 172.165,27.236 172.324 C 27.206 172.483,27.025 172.874,26.832 173.192 C 26.616 173.549,26.799 173.493,27.311 173.044 C 27.767 172.644,28.047 172.167,27.933 171.983 C 27.705 171.613,27.413 171.544,27.338 171.842 M374.402 175.699 C 374.525 176.017,374.879 176.278,375.189 176.278 C 375.679 176.278,375.677 176.201,375.176 175.699 C 374.857 175.381,374.503 175.121,374.389 175.121 C 374.274 175.121,374.280 175.381,374.402 175.699 M11.020 188.206 C 10.579 188.693,10.502 189.015,10.785 189.190 C 11.016 189.333,11.158 189.228,11.099 188.957 C 11.041 188.685,11.196 188.455,11.443 188.446 C 12.092 188.420,12.456 187.965,12.035 187.704 C 11.837 187.582,11.380 187.808,11.020 188.206 M357.372 280.617 C 357.372 311.379,357.418 323.906,357.473 308.456 C 357.529 293.005,357.529 267.836,357.473 252.525 C 357.418 237.214,357.372 249.855,357.372 280.617 " stroke="none" fill="#a09c9c" fill-rule="evenodd"></path><path id="path2" d="M139.467 59.759 C 138.829 60.464,138.829 60.496,139.472 60.402 C 139.844 60.347,140.190 60.013,140.242 59.659 C 140.362 58.843,140.287 58.853,139.467 59.759 M107.261 91.962 C 106.952 92.334,106.937 92.585,107.214 92.756 C 107.436 92.894,107.631 92.952,107.648 92.887 C 108.022 91.374,107.930 91.155,107.261 91.962 M98.197 101.496 C 97.788 101.893,97.637 102.218,97.860 102.218 C 98.305 102.218,99.334 101.123,99.091 100.908 C 99.007 100.835,98.605 101.099,98.197 101.496 M59.236 139.990 C 58.875 140.388,58.742 140.814,58.940 140.936 C 59.137 141.058,59.594 140.832,59.954 140.434 C 60.315 140.036,60.448 139.610,60.250 139.488 C 60.053 139.366,59.596 139.592,59.236 139.990 M43.177 156.057 C 42.902 156.388,42.906 156.616,43.192 156.793 C 43.420 156.934,43.559 156.827,43.500 156.555 C 43.442 156.284,43.597 156.054,43.844 156.045 C 44.530 156.018,44.828 155.577,44.160 155.577 C 43.838 155.577,43.396 155.793,43.177 156.057 M358.727 159.660 C 358.727 160.207,359.836 161.412,360.098 161.149 C 360.195 161.052,359.927 160.571,359.501 160.080 C 359.075 159.589,358.727 159.400,358.727 159.660 M302.767 169.462 C 303.750 170.544,303.961 170.678,303.942 170.203 C 303.935 170.043,303.458 169.580,302.881 169.173 L 301.832 168.432 302.767 169.462 M27.338 171.842 C 27.312 171.948,27.266 172.165,27.236 172.324 C 27.206 172.483,27.025 172.874,26.832 173.192 C 26.616 173.549,26.799 173.493,27.311 173.044 C 27.767 172.644,28.047 172.167,27.933 171.983 C 27.705 171.613,27.413 171.544,27.338 171.842 M374.402 175.699 C 374.525 176.017,374.879 176.278,375.189 176.278 C 375.679 176.278,375.677 176.201,375.176 175.699 C 374.857 175.381,374.503 175.121,374.389 175.121 C 374.274 175.121,374.280 175.381,374.402 175.699 M11.020 188.206 C 10.579 188.693,10.502 189.015,10.785 189.190 C 11.016 189.333,11.158 189.228,11.099 188.957 C 11.041 188.685,11.196 188.455,11.443 188.446 C 12.092 188.420,12.456 187.965,12.035 187.704 C 11.837 187.582,11.380 187.808,11.020 188.206 M357.372 280.617 C 357.372 311.379,357.418 323.906,357.473 308.456 C 357.529 293.005,357.529 267.836,357.473 252.525 C 357.418 237.214,357.372 249.855,357.372 280.617 " stroke="none" fill="#a09c9c" fill-rule="evenodd"></path><path id="path3" d="M139.467 59.759 C 138.829 60.464,138.829 60.496,139.472 60.402 C 139.844 60.347,140.190 60.013,140.242 59.659 C 140.362 58.843,140.287 58.853,139.467 59.759 M107.261 91.962 C 106.952 92.334,106.937 92.585,107.214 92.756 C 107.436 92.894,107.631 92.952,107.648 92.887 C 108.022 91.374,107.930 91.155,107.261 91.962 M98.197 101.496 C 97.788 101.893,97.637 102.218,97.860 102.218 C 98.305 102.218,99.334 101.123,99.091 100.908 C 99.007 100.835,98.605 101.099,98.197 101.496 M59.236 139.990 C 58.875 140.388,58.742 140.814,58.940 140.936 C 59.137 141.058,59.594 140.832,59.954 140.434 C 60.315 140.036,60.448 139.610,60.250 139.488 C 60.053 139.366,59.596 139.592,59.236 139.990 M43.177 156.057 C 42.902 156.388,42.906 156.616,43.192 156.793 C 43.420 156.934,43.559 156.827,43.500 156.555 C 43.442 156.284,43.597 156.054,43.844 156.045 C 44.530 156.018,44.828 155.577,44.160 155.577 C 43.838 155.577,43.396 155.793,43.177 156.057 M358.727 159.660 C 358.727 160.207,359.836 161.412,360.098 161.149 C 360.195 161.052,359.927 160.571,359.501 160.080 C 359.075 159.589,358.727 159.400,358.727 159.660 M302.767 169.462 C 303.750 170.544,303.961 170.678,303.942 170.203 C 303.935 170.043,303.458 169.580,302.881 169.173 L 301.832 168.432 302.767 169.462 M27.338 171.842 C 27.312 171.948,27.266 172.165,27.236 172.324 C 27.206 172.483,27.025 172.874,26.832 173.192 C 26.616 173.549,26.799 173.493,27.311 173.044 C 27.767 172.644,28.047 172.167,27.933 171.983 C 27.705 171.613,27.413 171.544,27.338 171.842 M374.402 175.699 C 374.525 176.017,374.879 176.278,375.189 176.278 C 375.679 176.278,375.677 176.201,375.176 175.699 C 374.857 175.381,374.503 175.121,374.389 175.121 C 374.274 175.121,374.280 175.381,374.402 175.699 M11.020 188.206 C 10.579 188.693,10.502 189.015,10.785 189.190 C 11.016 189.333,11.158 189.228,11.099 188.957 C 11.041 188.685,11.196 188.455,11.443 188.446 C 12.092 188.420,12.456 187.965,12.035 187.704 C 11.837 187.582,11.380 187.808,11.020 188.206 M357.372 280.617 C 357.372 311.379,357.418 323.906,357.473 308.456 C 357.529 293.005,357.529 267.836,357.473 252.525 C 357.418 237.214,357.372 249.855,357.372 280.617 " stroke="none" fill="#a09c9c" fill-rule="evenodd"></path><path id="path4" d="M139.467 59.759 C 138.829 60.464,138.829 60.496,139.472 60.402 C 139.844 60.347,140.190 60.013,140.242 59.659 C 140.362 58.843,140.287 58.853,139.467 59.759 M107.261 91.962 C 106.952 92.334,106.937 92.585,107.214 92.756 C 107.436 92.894,107.631 92.952,107.648 92.887 C 108.022 91.374,107.930 91.155,107.261 91.962 M98.197 101.496 C 97.788 101.893,97.637 102.218,97.860 102.218 C 98.305 102.218,99.334 101.123,99.091 100.908 C 99.007 100.835,98.605 101.099,98.197 101.496 M59.236 139.990 C 58.875 140.388,58.742 140.814,58.940 140.936 C 59.137 141.058,59.594 140.832,59.954 140.434 C 60.315 140.036,60.448 139.610,60.250 139.488 C 60.053 139.366,59.596 139.592,59.236 139.990 M43.177 156.057 C 42.902 156.388,42.906 156.616,43.192 156.793 C 43.420 156.934,43.559 156.827,43.500 156.555 C 43.442 156.284,43.597 156.054,43.844 156.045 C 44.530 156.018,44.828 155.577,44.160 155.577 C 43.838 155.577,43.396 155.793,43.177 156.057 M358.727 159.660 C 358.727 160.207,359.836 161.412,360.098 161.149 C 360.195 161.052,359.927 160.571,359.501 160.080 C 359.075 159.589,358.727 159.400,358.727 159.660 M302.767 169.462 C 303.750 170.544,303.961 170.678,303.942 170.203 C 303.935 170.043,303.458 169.580,302.881 169.173 L 301.832 168.432 302.767 169.462 M27.338 171.842 C 27.312 171.948,27.266 172.165,27.236 172.324 C 27.206 172.483,27.025 172.874,26.832 173.192 C 26.616 173.549,26.799 173.493,27.311 173.044 C 27.767 172.644,28.047 172.167,27.933 171.983 C 27.705 171.613,27.413 171.544,27.338 171.842 M374.402 175.699 C 374.525 176.017,374.879 176.278,375.189 176.278 C 375.679 176.278,375.677 176.201,375.176 175.699 C 374.857 175.381,374.503 175.121,374.389 175.121 C 374.274 175.121,374.280 175.381,374.402 175.699 M11.020 188.206 C 10.579 188.693,10.502 189.015,10.785 189.190 C 11.016 189.333,11.158 189.228,11.099 188.957 C 11.041 188.685,11.196 188.455,11.443 188.446 C 12.092 188.420,12.456 187.965,12.035 187.704 C 11.837 187.582,11.380 187.808,11.020 188.206 M357.372 280.617 C 357.372 311.379,357.418 323.906,357.473 308.456 C 357.529 293.005,357.529 267.836,357.473 252.525 C 357.418 237.214,357.372 249.855,357.372 280.617 " stroke="none" fill="#a09c9c" fill-rule="evenodd"></path></g></svg>