<svg id="svg" version="1.1" xmlns="http://www.w3.org/2000/svg" xmlns:xlink="http://www.w3.org/1999/xlink" width="400" height="568.8888888888889" viewBox="0, 0, 400,568.8888888888889"><g id="svgg"><path id="path0" d="M178.309 10.072 C 178.205 10.384,176.964 10.555,174.659 10.575 C 172.119 10.598,171.072 10.760,170.820 11.168 C 170.585 11.547,169.819 11.706,168.460 11.658 C 167.084 11.610,166.345 11.766,166.124 12.153 C 165.918 12.513,164.928 12.770,163.402 12.859 C 161.845 12.951,160.768 13.235,160.332 13.670 C 159.883 14.118,159.253 14.276,158.430 14.146 C 157.754 14.039,157.200 14.127,157.200 14.341 C 157.200 14.555,156.480 14.851,155.600 15.000 C 154.720 15.149,154.000 15.434,154.000 15.635 C 154.000 15.836,153.280 16.000,152.400 16.000 C 150.959 16.000,150.636 16.234,150.725 17.216 C 150.736 17.335,150.096 17.357,149.305 17.265 C 148.308 17.148,147.724 17.290,147.405 17.725 C 147.021 18.251,145.996 18.592,144.276 18.767 C 144.098 18.785,144.064 18.980,144.200 19.200 C 144.341 19.428,143.996 19.600,143.400 19.600 C 142.669 19.600,142.443 19.751,142.653 20.100 C 142.828 20.391,142.639 20.350,142.200 20.000 C 141.761 19.650,141.572 19.609,141.747 19.900 C 142.015 20.347,141.341 20.606,140.312 20.451 C 140.154 20.427,139.836 20.759,139.606 21.189 C 139.339 21.687,138.952 21.880,138.536 21.720 C 138.149 21.572,137.680 21.749,137.382 22.157 C 137.106 22.535,136.502 22.872,136.040 22.907 C 135.578 22.942,135.200 23.202,135.200 23.485 C 135.200 23.786,134.720 24.000,134.043 24.000 C 133.383 24.000,132.787 24.258,132.655 24.600 C 132.529 24.930,132.070 25.200,131.636 25.200 C 131.202 25.200,130.736 25.380,130.600 25.600 C 130.464 25.820,129.913 26.000,129.376 26.000 C 128.815 26.000,128.400 26.234,128.400 26.550 C 128.400 26.852,127.848 27.210,127.173 27.345 C 126.492 27.482,126.058 27.770,126.197 27.995 C 126.335 28.218,126.156 28.400,125.800 28.400 C 125.444 28.400,125.265 28.582,125.402 28.803 C 125.696 29.279,124.031 29.983,123.284 29.698 C 122.998 29.590,122.819 29.739,122.884 30.033 C 122.948 30.325,122.730 30.576,122.400 30.591 C 122.070 30.607,121.822 30.911,121.848 31.267 C 121.885 31.762,121.627 31.871,120.748 31.733 C 119.897 31.599,119.600 31.714,119.600 32.176 C 119.600 32.519,119.330 32.800,119.000 32.800 C 118.670 32.800,118.400 33.129,118.400 33.531 C 118.400 34.115,118.160 34.226,117.200 34.085 C 116.290 33.952,116.000 34.065,116.000 34.555 C 116.000 34.910,115.820 35.200,115.600 35.200 C 115.380 35.200,115.200 35.445,115.200 35.745 C 115.200 36.092,114.829 36.249,114.175 36.177 C 113.574 36.111,113.060 36.300,112.932 36.632 C 112.812 36.945,112.452 37.200,112.130 37.200 C 111.717 37.200,111.625 37.448,111.816 38.050 C 111.997 38.620,111.941 38.810,111.645 38.628 C 111.402 38.478,110.777 38.815,110.256 39.377 C 109.735 39.940,109.104 40.400,108.854 40.400 C 108.604 40.400,108.400 40.658,108.400 40.973 C 108.400 41.302,107.930 41.601,107.300 41.673 C 106.681 41.745,106.244 42.019,106.300 42.300 C 106.355 42.575,106.130 42.800,105.800 42.800 C 105.470 42.800,105.200 43.070,105.200 43.400 C 105.200 43.730,104.930 44.000,104.600 44.000 C 104.270 44.000,104.000 44.270,104.000 44.600 C 104.000 44.930,103.749 45.200,103.443 45.200 C 103.136 45.200,102.778 45.481,102.646 45.825 C 102.514 46.169,102.234 46.344,102.024 46.215 C 101.814 46.085,101.708 46.323,101.789 46.744 C 101.906 47.349,101.762 47.463,101.101 47.290 C 100.445 47.118,100.320 47.214,100.520 47.736 C 100.680 48.153,100.574 48.400,100.234 48.400 C 99.937 48.400,99.594 48.778,99.474 49.240 C 99.353 49.703,99.062 49.962,98.827 49.817 C 98.592 49.672,98.400 49.828,98.400 50.164 C 98.400 50.543,98.172 50.687,97.800 50.545 C 97.420 50.399,97.200 50.550,97.200 50.957 C 97.200 51.311,96.930 51.600,96.600 51.600 C 96.270 51.600,96.000 51.870,96.000 52.200 C 96.000 52.530,95.820 52.800,95.600 52.800 C 95.380 52.800,95.200 53.070,95.200 53.400 C 95.200 53.730,94.930 54.000,94.600 54.000 C 94.270 54.000,94.000 54.270,94.000 54.600 C 94.000 54.930,93.730 55.200,93.400 55.200 C 93.027 55.200,92.800 55.578,92.800 56.200 C 92.800 56.854,92.576 57.200,92.153 57.200 C 91.712 57.200,91.571 57.444,91.708 57.970 C 91.858 58.542,91.750 58.679,91.289 58.502 C 90.900 58.353,90.770 58.428,90.940 58.703 C 91.092 58.948,90.859 59.254,90.414 59.396 C 89.975 59.535,89.658 59.855,89.708 60.106 C 89.759 60.358,89.530 60.572,89.200 60.582 C 88.870 60.592,88.538 61.050,88.462 61.600 C 88.385 62.150,88.070 62.744,87.762 62.920 C 87.453 63.096,87.200 63.495,87.200 63.807 C 87.200 64.147,86.960 64.283,86.600 64.145 C 86.220 63.999,86.000 64.150,86.000 64.557 C 86.000 64.911,85.820 65.200,85.600 65.200 C 85.380 65.200,85.200 65.622,85.200 66.138 C 85.200 67.106,84.095 68.400,83.269 68.400 C 83.011 68.400,82.800 68.799,82.800 69.287 C 82.800 69.775,82.307 70.598,81.705 71.115 C 81.103 71.633,80.590 72.269,80.566 72.528 C 80.542 72.788,80.494 73.326,80.461 73.724 C 80.427 74.122,80.220 74.336,80.000 74.200 C 79.780 74.064,79.600 74.214,79.600 74.534 C 79.600 74.853,79.330 75.218,79.000 75.345 C 78.670 75.471,78.400 75.941,78.400 76.387 C 78.400 76.834,78.141 77.200,77.825 77.200 C 77.469 77.200,77.203 77.695,77.125 78.500 C 77.050 79.278,76.799 79.760,76.500 79.700 C 76.209 79.642,76.000 80.009,76.000 80.576 C 76.000 81.113,75.820 81.664,75.600 81.800 C 75.380 81.936,75.200 82.487,75.200 83.024 C 75.200 83.625,74.969 84.000,74.600 84.000 C 74.227 84.000,74.000 84.378,74.000 85.000 C 74.000 85.622,73.773 86.000,73.400 86.000 C 73.000 86.000,72.800 86.400,72.800 87.200 C 72.800 88.015,72.602 88.400,72.182 88.400 C 71.843 88.400,71.594 88.625,71.630 88.900 C 71.773 90.000,71.580 90.835,71.233 90.620 C 70.827 90.370,70.366 92.141,70.509 93.400 C 70.564 93.882,70.391 94.157,70.073 94.091 C 69.776 94.030,69.578 94.291,69.619 94.691 C 69.755 96.014,69.601 96.375,69.000 96.145 C 68.520 95.961,68.400 96.284,68.400 97.757 C 68.400 99.129,68.247 99.600,67.800 99.600 C 67.369 99.600,67.200 100.040,67.200 101.157 C 67.200 102.180,66.992 102.794,66.593 102.947 C 66.193 103.101,66.019 103.617,66.083 104.460 C 66.139 105.193,65.971 105.810,65.690 105.903 C 65.402 105.999,65.200 106.794,65.200 107.833 C 65.200 109.175,65.048 109.600,64.570 109.600 C 64.132 109.600,63.962 109.935,64.012 110.700 C 64.205 113.622,63.990 115.200,63.400 115.200 C 63.070 115.200,62.821 115.335,62.847 115.500 C 63.135 117.325,62.723 119.603,62.100 119.628 C 61.501 119.652,61.516 119.706,62.200 120.000 C 62.911 120.305,62.919 120.347,62.279 120.372 C 61.640 120.397,61.567 120.765,61.636 123.641 C 61.694 126.028,61.570 126.972,61.164 127.222 C 60.735 127.488,60.600 129.085,60.553 134.466 C 60.513 139.145,60.350 141.417,60.047 141.518 C 59.441 141.720,59.434 149.078,60.039 149.280 C 60.324 149.375,60.492 151.143,60.515 154.290 C 60.537 157.307,60.698 159.063,60.937 158.915 C 61.169 158.772,61.191 158.891,60.991 159.214 C 60.352 160.249,60.474 162.797,61.165 162.832 C 61.603 162.853,61.640 162.928,61.283 163.070 C 60.884 163.231,60.874 163.407,61.236 163.843 C 61.504 164.166,61.696 165.631,61.683 167.250 C 61.665 169.582,61.781 170.122,62.330 170.265 C 62.892 170.411,62.979 170.886,62.867 173.220 C 62.756 175.544,62.838 176.000,63.367 176.000 C 63.868 176.000,64.000 176.460,64.000 178.200 C 64.000 179.889,64.139 180.400,64.600 180.400 C 65.061 180.400,65.200 180.911,65.200 182.600 C 65.200 183.810,65.380 184.800,65.600 184.800 C 65.820 184.800,66.000 185.351,66.000 186.024 C 66.000 186.896,66.144 187.161,66.500 186.947 C 66.821 186.754,66.798 186.895,66.434 187.343 C 65.935 187.958,65.960 188.064,66.643 188.243 C 67.272 188.408,67.390 188.729,67.272 189.966 C 67.151 191.229,67.266 191.524,67.945 191.702 C 68.639 191.883,68.728 192.135,68.529 193.358 C 68.341 194.520,68.422 194.800,68.948 194.800 C 69.406 194.800,69.600 195.157,69.600 196.000 C 69.600 196.660,69.780 197.200,70.000 197.200 C 70.220 197.200,70.400 197.566,70.400 198.013 C 70.400 198.459,70.670 198.929,71.000 199.055 C 71.367 199.196,71.600 199.802,71.600 200.614 C 71.600 201.345,71.870 202.213,72.200 202.543 C 72.530 202.873,72.800 203.516,72.800 203.971 C 72.800 204.441,73.060 204.800,73.400 204.800 C 73.800 204.800,74.000 205.200,74.000 206.000 C 74.000 206.800,74.200 207.200,74.600 207.200 C 75.118 207.200,75.298 207.665,75.166 208.655 C 75.147 208.796,75.336 209.037,75.586 209.191 C 75.836 209.346,76.069 209.861,76.105 210.336 C 76.164 211.111,76.477 211.363,77.259 211.261 C 77.401 211.243,77.425 211.581,77.312 212.014 C 77.171 212.556,77.307 212.800,77.753 212.800 C 78.176 212.800,78.400 213.146,78.400 213.800 C 78.400 214.422,78.627 214.800,79.000 214.800 C 79.400 214.800,79.600 215.200,79.600 216.000 C 79.600 216.820,79.797 217.200,80.224 217.200 C 80.567 217.200,80.735 217.381,80.598 217.603 C 80.461 217.824,80.631 218.114,80.975 218.246 C 81.319 218.378,81.600 218.916,81.600 219.443 C 81.600 220.027,81.834 220.400,82.200 220.400 C 82.530 220.400,82.800 220.649,82.800 220.953 C 82.800 221.258,83.139 221.595,83.554 221.704 C 84.136 221.856,84.260 222.154,84.096 223.010 C 83.948 223.784,84.023 224.033,84.345 223.834 C 84.600 223.676,84.913 223.828,85.046 224.175 C 85.178 224.519,85.531 224.800,85.830 224.800 C 86.150 224.800,86.280 225.048,86.145 225.400 C 86.010 225.751,86.140 226.003,86.457 226.006 C 86.882 226.011,86.872 226.093,86.411 226.385 C 85.907 226.704,85.921 226.795,86.511 227.021 C 86.890 227.167,87.200 227.536,87.200 227.843 C 87.200 228.149,87.554 228.400,87.987 228.400 C 88.532 228.400,88.702 228.590,88.538 229.016 C 88.388 229.409,88.502 229.590,88.851 229.516 C 89.190 229.444,89.448 229.820,89.527 230.500 C 89.599 231.130,89.898 231.600,90.227 231.600 C 90.542 231.600,90.755 231.764,90.700 231.964 C 90.590 232.362,93.145 234.800,93.672 234.800 C 93.852 234.800,94.000 235.070,94.000 235.400 C 94.000 235.730,94.270 236.000,94.600 236.000 C 94.930 236.000,95.200 236.281,95.200 236.624 C 95.200 236.967,95.380 237.136,95.600 237.000 C 95.820 236.864,96.000 237.123,96.000 237.576 C 96.000 238.113,96.260 238.400,96.745 238.400 C 97.323 238.400,97.446 238.623,97.298 239.400 C 97.158 240.133,97.279 240.400,97.753 240.400 C 98.109 240.400,98.400 240.670,98.400 241.000 C 98.400 241.540,99.175 241.814,100.168 241.625 C 100.370 241.586,100.309 241.828,100.032 242.161 C 99.609 242.671,99.651 242.744,100.298 242.620 C 100.722 242.538,101.323 242.633,101.634 242.830 C 102.082 243.113,102.040 243.189,101.433 243.194 C 100.541 243.201,100.902 243.709,101.904 243.856 C 102.279 243.911,102.649 244.146,102.726 244.378 C 102.803 244.610,103.122 244.800,103.433 244.800 C 103.745 244.800,104.000 245.070,104.000 245.400 C 104.000 245.730,104.270 246.000,104.600 246.000 C 104.930 246.000,105.200 246.270,105.200 246.600 C 105.200 246.930,105.380 247.200,105.600 247.200 C 105.820 247.200,106.000 247.470,106.000 247.800 C 106.000 248.130,106.189 248.400,106.419 248.400 C 106.650 248.400,107.255 248.850,107.765 249.400 C 108.275 249.950,108.896 250.400,109.146 250.400 C 109.396 250.400,109.600 250.670,109.600 251.000 C 109.600 251.373,109.978 251.600,110.600 251.600 C 111.222 251.600,111.600 251.827,111.600 252.200 C 111.600 252.530,111.870 252.800,112.200 252.800 C 112.530 252.800,112.800 253.070,112.800 253.400 C 112.800 253.730,113.070 254.000,113.400 254.000 C 113.730 254.000,114.000 254.180,114.000 254.400 C 114.000 254.620,114.450 254.800,115.000 254.800 C 115.622 254.800,116.000 255.027,116.000 255.400 C 116.000 255.730,116.270 256.000,116.600 256.000 C 116.930 256.000,117.200 256.270,117.200 256.600 C 117.200 256.930,117.470 257.200,117.800 257.200 C 118.130 257.200,118.400 257.470,118.400 257.800 C 118.400 258.200,118.800 258.400,119.600 258.400 C 120.260 258.400,120.800 258.605,120.800 258.856 C 120.800 259.575,122.097 260.373,123.287 260.387 C 124.087 260.397,124.314 260.559,124.145 261.000 C 123.976 261.439,124.195 261.600,124.957 261.600 C 125.617 261.600,126.000 261.820,126.000 262.200 C 126.000 262.530,126.255 262.800,126.567 262.800 C 126.878 262.800,127.203 263.009,127.288 263.263 C 127.373 263.518,127.883 263.793,128.421 263.875 C 128.960 263.956,129.460 264.198,129.533 264.412 C 129.607 264.625,130.102 264.800,130.633 264.800 C 131.226 264.800,131.600 265.032,131.600 265.400 C 131.600 265.800,132.000 266.000,132.800 266.000 C 133.615 266.000,134.000 266.198,134.000 266.618 C 134.000 266.957,134.225 267.206,134.500 267.170 C 135.553 267.033,136.000 267.221,136.000 267.800 C 136.000 268.195,136.395 268.400,137.157 268.400 C 137.800 268.400,138.414 268.658,138.537 268.981 C 138.660 269.302,139.113 269.494,139.548 269.410 C 139.982 269.326,140.435 269.515,140.556 269.829 C 140.676 270.143,141.231 270.400,141.787 270.400 C 142.421 270.400,142.800 270.625,142.800 271.000 C 142.800 271.444,143.267 271.600,144.600 271.600 C 145.809 271.600,146.367 271.761,146.300 272.091 C 146.245 272.360,146.634 272.647,147.165 272.727 C 147.696 272.807,148.383 273.126,148.693 273.436 C 149.003 273.746,149.774 274.000,150.405 274.000 C 151.036 274.000,151.664 274.180,151.800 274.400 C 151.936 274.620,152.757 274.800,153.624 274.800 C 154.758 274.800,155.200 274.968,155.200 275.400 C 155.200 275.861,155.711 276.000,157.400 276.000 C 159.089 276.000,159.600 276.139,159.600 276.600 C 159.600 277.061,160.111 277.200,161.800 277.200 C 163.567 277.200,164.000 277.328,164.000 277.852 C 164.000 278.388,164.320 278.468,165.796 278.302 C 167.151 278.149,167.792 278.273,168.408 278.807 C 168.985 279.307,169.879 279.511,171.453 279.500 C 172.767 279.491,173.803 279.681,173.978 279.964 C 174.140 280.227,174.437 280.411,174.637 280.374 C 176.462 280.030,184.000 280.475,184.000 280.927 C 184.000 281.353,186.407 281.447,196.500 281.417 C 205.065 281.392,208.976 281.247,208.922 280.957 C 208.831 280.458,208.649 280.478,213.995 280.402 C 216.469 280.366,218.297 280.166,218.453 279.915 C 218.598 279.680,219.985 279.464,221.534 279.435 C 224.362 279.381,225.414 279.026,224.471 278.444 C 224.193 278.272,224.931 278.211,226.110 278.309 C 227.752 278.445,228.412 278.330,228.923 277.820 C 229.344 277.399,230.366 277.119,231.695 277.060 C 233.089 276.998,233.766 276.803,233.700 276.483 C 233.634 276.162,234.205 276.000,235.400 276.000 C 236.733 276.000,237.200 275.844,237.200 275.400 C 237.200 274.967,237.644 274.800,238.800 274.800 C 239.680 274.800,240.400 274.620,240.400 274.400 C 240.400 274.180,241.111 274.000,241.980 274.000 C 242.928 274.000,243.688 273.773,243.880 273.432 C 244.056 273.120,244.830 272.805,245.600 272.732 C 246.557 272.642,246.987 272.406,246.959 271.987 C 246.928 271.522,247.241 271.412,248.259 271.531 C 249.290 271.651,249.600 271.539,249.600 271.044 C 249.600 270.488,250.050 270.300,251.055 270.434 C 251.196 270.453,251.452 270.239,251.625 269.959 C 251.798 269.679,252.520 269.406,253.230 269.352 C 253.939 269.298,254.644 269.052,254.796 268.807 C 254.948 268.561,255.488 268.329,255.997 268.290 C 256.506 268.252,256.998 267.929,257.092 267.572 C 257.208 267.126,257.565 266.981,258.231 267.108 C 259.108 267.276,259.375 266.985,259.272 265.973 C 259.259 265.848,259.778 265.823,260.424 265.918 C 261.311 266.048,261.600 265.932,261.600 265.445 C 261.600 265.090,261.870 264.800,262.200 264.800 C 262.530 264.800,262.800 264.620,262.800 264.400 C 262.800 264.180,263.250 264.000,263.800 264.000 C 264.422 264.000,264.800 263.773,264.800 263.400 C 264.800 262.995,265.205 262.800,266.047 262.800 C 267.068 262.800,267.258 262.665,267.097 262.051 C 266.950 261.485,267.076 261.347,267.614 261.488 C 268.005 261.590,268.688 261.312,269.130 260.870 C 269.572 260.428,270.038 260.172,270.167 260.300 C 270.295 260.428,270.400 260.338,270.400 260.098 C 270.400 259.859,270.940 259.545,271.600 259.400 C 272.260 259.255,272.800 258.971,272.800 258.768 C 272.800 258.566,273.070 258.400,273.400 258.400 C 273.730 258.400,274.000 258.130,274.000 257.800 C 274.000 257.427,274.378 257.200,275.000 257.200 C 275.622 257.200,276.000 256.973,276.000 256.600 C 276.000 256.270,276.270 256.000,276.600 256.000 C 276.930 256.000,277.200 255.773,277.200 255.496 C 277.200 254.965,278.787 253.770,279.300 253.915 C 279.465 253.962,279.600 253.809,279.600 253.576 C 279.600 253.343,279.811 253.283,280.068 253.442 C 280.376 253.632,280.454 253.519,280.298 253.111 C 280.121 252.650,280.258 252.542,280.830 252.692 C 281.356 252.829,281.600 252.688,281.600 252.247 C 281.600 251.891,281.870 251.600,282.200 251.600 C 282.530 251.600,282.800 251.330,282.800 251.000 C 282.800 250.670,283.040 250.400,283.332 250.400 C 283.625 250.400,284.106 249.950,284.400 249.400 C 284.879 248.506,285.533 248.188,286.534 248.364 C 286.718 248.396,286.961 248.070,287.074 247.639 C 287.196 247.171,287.505 246.942,287.839 247.070 C 288.148 247.189,288.400 247.093,288.400 246.857 C 288.400 246.303,290.875 243.768,291.287 243.900 C 291.459 243.955,291.600 243.820,291.600 243.600 C 291.600 243.081,293.081 241.600,293.600 241.600 C 293.820 241.600,294.000 241.414,294.000 241.187 C 294.000 240.669,296.291 238.400,296.814 238.400 C 297.026 238.400,297.200 238.046,297.200 237.613 C 297.200 237.077,297.392 236.899,297.800 237.055 C 298.169 237.197,298.400 237.055,298.400 236.686 C 298.400 236.356,298.670 235.982,299.000 235.855 C 299.330 235.729,299.600 235.259,299.600 234.813 C 299.600 234.366,299.780 234.000,300.000 234.000 C 300.220 234.000,300.400 233.730,300.400 233.400 C 300.400 233.070,300.670 232.800,301.000 232.800 C 301.330 232.800,301.600 232.530,301.600 232.200 C 301.600 231.870,301.870 231.600,302.200 231.600 C 302.530 231.600,302.800 231.330,302.800 231.000 C 302.800 230.670,303.070 230.400,303.400 230.400 C 303.730 230.400,304.000 230.130,304.000 229.800 C 304.000 229.470,304.180 229.200,304.400 229.200 C 304.620 229.200,304.800 228.750,304.800 228.200 C 304.800 227.578,305.027 227.200,305.400 227.200 C 305.730 227.200,306.000 226.930,306.000 226.600 C 306.000 226.270,306.270 226.000,306.600 226.000 C 306.973 226.000,307.200 225.622,307.200 225.000 C 307.200 224.378,307.427 224.000,307.800 224.000 C 308.130 224.000,308.400 223.811,308.400 223.581 C 308.400 223.350,308.850 222.745,309.400 222.235 C 309.950 221.725,310.400 220.924,310.400 220.454 C 310.400 219.962,310.654 219.600,311.000 219.600 C 311.400 219.600,311.600 219.200,311.600 218.400 C 311.600 217.600,311.800 217.200,312.200 217.200 C 312.530 217.200,312.800 216.930,312.800 216.600 C 312.800 216.270,313.091 216.000,313.447 216.000 C 313.903 216.000,314.030 215.757,313.878 215.176 C 313.746 214.671,313.883 214.266,314.231 214.133 C 314.544 214.013,314.800 213.394,314.800 212.757 C 314.800 211.995,315.005 211.600,315.400 211.600 C 315.773 211.600,316.000 211.222,316.000 210.600 C 316.000 209.978,316.227 209.600,316.600 209.600 C 316.930 209.600,317.200 209.349,317.200 209.043 C 317.200 208.736,317.470 208.382,317.800 208.255 C 318.130 208.129,318.400 207.589,318.400 207.055 C 318.400 206.522,318.670 205.982,319.000 205.855 C 319.377 205.711,319.600 205.099,319.600 204.213 C 319.600 203.436,319.788 202.800,320.018 202.800 C 320.247 202.800,320.406 202.575,320.370 202.300 C 320.213 201.094,320.443 200.400,321.000 200.400 C 321.366 200.400,321.600 200.027,321.600 199.443 C 321.600 198.916,321.870 198.382,322.200 198.255 C 322.530 198.129,322.800 197.589,322.800 197.055 C 322.800 196.522,323.070 195.982,323.400 195.855 C 323.777 195.711,324.000 195.099,324.000 194.213 C 324.000 193.436,324.180 192.800,324.400 192.800 C 324.620 192.800,324.800 192.099,324.800 191.243 C 324.800 190.313,325.015 189.603,325.334 189.481 C 325.628 189.368,325.892 188.621,325.922 187.818 C 325.985 186.155,326.289 185.484,326.828 185.817 C 327.033 185.944,327.200 185.340,327.200 184.466 C 327.200 183.401,327.404 182.807,327.826 182.645 C 328.320 182.456,328.423 181.904,328.313 180.026 C 328.207 178.197,328.286 177.740,328.659 178.049 C 329.267 178.554,329.801 175.474,329.485 173.278 C 329.369 172.465,329.362 172.025,329.470 172.300 C 329.977 173.588,330.400 172.541,330.400 170.000 C 330.400 167.714,330.516 167.200,331.032 167.200 C 331.550 167.200,331.650 166.746,331.586 164.700 C 331.411 159.201,331.572 157.200,332.189 157.200 C 332.695 157.200,332.776 155.483,332.765 145.000 C 332.754 134.656,332.664 132.800,332.176 132.800 C 331.710 132.800,331.600 131.962,331.600 128.400 C 331.600 124.756,331.497 124.000,331.000 124.000 C 330.364 124.000,330.283 123.409,330.398 119.643 C 330.440 118.247,330.280 117.373,329.945 117.166 C 329.627 116.970,329.471 116.239,329.540 115.278 C 329.613 114.263,329.433 113.490,329.027 113.084 C 328.639 112.696,328.400 111.754,328.400 110.616 C 328.400 109.348,328.213 108.703,327.800 108.545 C 327.367 108.379,327.200 107.701,327.200 106.114 C 327.200 104.323,327.089 103.957,326.600 104.145 C 326.121 104.328,326.000 104.011,326.000 102.575 C 326.000 101.344,325.810 100.702,325.400 100.545 C 325.070 100.418,324.800 99.899,324.800 99.391 C 324.800 98.882,324.577 98.392,324.304 98.301 C 323.997 98.199,323.856 97.578,323.935 96.668 C 324.032 95.545,323.913 95.200,323.431 95.200 C 322.961 95.200,322.800 94.789,322.800 93.587 C 322.800 92.523,322.596 91.897,322.200 91.745 C 321.870 91.618,321.600 91.084,321.600 90.557 C 321.600 89.973,321.366 89.600,321.000 89.600 C 320.601 89.600,320.400 89.201,320.400 88.413 C 320.400 87.523,320.250 87.283,319.802 87.455 C 319.319 87.640,319.252 87.440,319.455 86.424 C 319.646 85.471,319.573 85.193,319.154 85.282 C 318.790 85.360,318.557 84.955,318.475 84.100 C 318.397 83.295,318.131 82.800,317.775 82.800 C 317.187 82.800,317.046 82.378,317.189 81.044 C 317.246 80.503,317.089 80.357,316.635 80.531 C 316.143 80.720,316.000 80.507,316.000 79.587 C 316.000 78.799,315.799 78.400,315.400 78.400 C 315.027 78.400,314.800 78.022,314.800 77.400 C 314.800 76.850,314.620 76.400,314.400 76.400 C 314.180 76.400,314.000 76.149,314.000 75.843 C 314.000 75.536,313.730 75.182,313.400 75.055 C 313.070 74.929,312.800 74.389,312.800 73.856 C 312.800 73.156,312.522 72.817,311.800 72.636 C 311.250 72.498,310.800 72.198,310.800 71.969 C 310.800 71.740,310.980 71.664,311.200 71.800 C 311.420 71.936,311.600 71.857,311.600 71.624 C 311.600 71.040,310.040 69.528,309.672 69.756 C 309.508 69.857,309.379 69.459,309.387 68.870 C 309.395 68.222,309.203 67.839,308.900 67.900 C 308.625 67.955,308.421 67.865,308.447 67.700 C 308.580 66.862,308.355 66.000,308.005 66.000 C 307.223 66.000,306.000 64.604,306.000 63.711 C 306.000 63.168,305.758 62.800,305.400 62.800 C 305.070 62.800,304.800 62.620,304.800 62.400 C 304.800 61.895,303.325 60.400,302.826 60.400 C 302.621 60.400,302.535 59.950,302.634 59.400 C 302.763 58.693,302.638 58.400,302.208 58.400 C 301.874 58.400,301.600 58.130,301.600 57.800 C 301.600 57.470,301.330 57.200,301.000 57.200 C 300.670 57.200,300.392 56.975,300.381 56.700 C 300.371 56.425,299.660 55.660,298.800 55.000 C 297.940 54.340,297.229 53.596,297.219 53.347 C 297.208 53.097,296.822 52.794,296.360 52.674 C 295.819 52.532,295.628 52.278,295.825 51.959 C 296.039 51.614,295.930 51.541,295.466 51.719 C 294.984 51.904,294.800 51.758,294.800 51.187 C 294.800 50.754,294.609 50.400,294.376 50.400 C 294.143 50.400,294.081 50.608,294.238 50.862 C 294.411 51.141,294.348 51.215,294.079 51.049 C 293.835 50.898,293.736 50.510,293.860 50.187 C 294.001 49.821,293.844 49.600,293.443 49.600 C 293.089 49.600,292.800 49.330,292.800 49.000 C 292.800 48.670,292.665 48.421,292.500 48.447 C 291.710 48.572,291.200 48.353,291.200 47.888 C 291.200 47.607,290.840 47.117,290.400 46.800 C 289.960 46.483,289.600 45.993,289.600 45.712 C 289.600 45.430,289.349 45.200,289.043 45.200 C 288.736 45.200,288.378 44.919,288.246 44.575 C 288.114 44.231,287.824 44.061,287.603 44.198 C 287.381 44.335,287.200 44.077,287.200 43.624 C 287.200 43.071,286.941 42.800,286.413 42.800 C 285.842 42.800,285.696 42.616,285.881 42.134 C 286.031 41.742,285.973 41.569,285.739 41.714 C 285.312 41.978,284.000 40.663,284.000 39.970 C 284.000 39.739,283.685 39.582,283.300 39.621 C 281.999 39.753,281.600 39.602,281.600 38.976 C 281.600 38.633,281.419 38.465,281.197 38.602 C 280.976 38.739,280.683 38.561,280.547 38.206 C 280.184 37.260,278.026 35.200,277.398 35.200 C 277.100 35.200,276.619 34.965,276.329 34.678 C 276.038 34.390,275.474 34.032,275.075 33.880 C 274.676 33.729,274.461 33.424,274.598 33.203 C 274.741 32.972,274.409 32.800,273.824 32.800 C 273.180 32.800,272.800 32.577,272.800 32.200 C 272.800 31.870,272.549 31.600,272.243 31.600 C 271.936 31.600,271.572 31.304,271.433 30.943 C 271.295 30.581,271.065 30.402,270.923 30.544 C 270.617 30.850,268.739 29.708,268.280 28.937 C 268.104 28.642,267.519 28.400,266.980 28.400 C 266.376 28.400,266.000 28.170,266.000 27.800 C 266.000 27.427,265.622 27.200,265.000 27.200 C 264.348 27.200,264.000 26.976,264.000 26.556 C 264.000 26.059,263.689 25.949,262.628 26.073 C 261.873 26.161,261.345 26.089,261.453 25.914 C 261.562 25.738,261.369 25.486,261.025 25.354 C 260.681 25.222,260.400 24.843,260.400 24.512 C 260.400 24.077,260.083 23.956,259.258 24.077 C 258.314 24.215,258.148 24.119,258.304 23.522 C 258.456 22.944,258.253 22.800,257.289 22.800 C 256.612 22.800,255.989 22.549,255.865 22.225 C 255.741 21.901,254.981 21.596,254.122 21.525 C 253.085 21.440,252.637 21.225,252.717 20.850 C 252.800 20.457,252.535 20.357,251.785 20.501 C 251.114 20.629,250.661 20.503,250.526 20.151 C 250.409 19.848,249.903 19.600,249.400 19.600 C 248.897 19.600,248.377 19.317,248.244 18.971 C 248.110 18.620,247.605 18.375,247.101 18.415 C 245.387 18.554,244.800 18.398,244.800 17.800 C 244.800 17.434,244.427 17.200,243.843 17.200 C 243.306 17.200,242.769 16.897,242.621 16.511 C 242.395 15.921,242.304 15.907,241.985 16.411 C 241.733 16.810,241.610 16.838,241.606 16.500 C 241.602 16.195,241.045 16.000,240.176 16.000 C 239.329 16.000,238.853 15.838,239.000 15.600 C 239.136 15.380,239.057 15.200,238.824 15.200 C 238.591 15.200,238.397 15.425,238.394 15.700 C 238.390 16.044,238.273 16.019,238.021 15.620 C 237.812 15.290,237.038 15.040,236.227 15.040 C 235.323 15.040,234.800 14.849,234.800 14.520 C 234.800 14.180,234.246 14.000,233.200 14.000 C 232.006 14.000,231.600 13.839,231.600 13.365 C 231.600 12.841,231.192 12.757,229.245 12.881 C 227.310 13.005,226.930 12.928,227.113 12.450 C 227.256 12.076,227.169 11.972,226.868 12.158 C 226.611 12.317,226.400 12.238,226.400 11.983 C 226.400 11.661,225.664 11.578,224.000 11.711 C 222.134 11.860,221.600 11.780,221.600 11.351 C 221.600 10.701,221.852 10.747,217.695 10.637 C 215.792 10.587,214.189 10.349,213.915 10.075 C 213.234 9.394,178.536 9.391,178.309 10.072 M124.000 318.902 C 124.000 319.232,123.292 319.410,121.900 319.431 C 117.582 319.495,115.952 319.698,116.127 320.151 C 116.246 320.461,115.564 320.558,113.924 320.463 C 111.240 320.309,109.450 320.634,109.807 321.212 C 110.049 321.603,108.899 321.741,106.500 321.610 C 105.553 321.558,105.200 321.710,105.200 322.169 C 105.200 322.709,103.241 323.118,102.661 322.700 C 102.585 322.645,102.191 322.870,101.785 323.200 C 101.361 323.544,101.174 323.587,101.347 323.300 C 101.512 323.025,101.476 322.800,101.266 322.800 C 101.057 322.800,100.782 323.070,100.655 323.400 C 100.505 323.792,99.882 324.000,98.855 324.000 C 97.848 324.000,97.205 324.209,97.061 324.584 C 96.903 324.996,96.420 325.115,95.419 324.987 C 94.346 324.849,94.000 324.951,94.000 325.402 C 94.000 325.836,93.548 326.000,92.357 326.000 C 91.061 326.000,90.763 326.127,90.945 326.600 C 91.128 327.079,90.811 327.200,89.375 327.200 C 88.144 327.200,87.502 327.390,87.345 327.800 C 87.218 328.130,86.684 328.400,86.157 328.400 C 85.573 328.400,85.200 328.634,85.200 329.000 C 85.200 329.403,84.797 329.600,83.976 329.600 C 83.263 329.600,82.856 329.767,83.000 330.000 C 83.144 330.232,82.748 330.400,82.056 330.400 C 80.569 330.400,79.539 330.778,79.814 331.222 C 79.928 331.408,79.636 331.767,79.163 332.020 C 78.567 332.339,78.387 332.345,78.575 332.040 C 78.729 331.790,78.572 331.600,78.211 331.600 C 77.861 331.600,77.471 331.870,77.345 332.200 C 77.218 332.530,76.757 332.800,76.320 332.800 C 75.863 332.800,75.437 333.138,75.317 333.596 C 75.203 334.033,74.929 334.280,74.710 334.144 C 74.490 334.009,74.157 334.146,73.970 334.449 C 73.782 334.752,73.218 335.000,72.715 335.000 C 72.169 335.000,71.799 335.242,71.798 335.600 C 71.797 336.011,71.467 336.162,70.750 336.078 C 69.973 335.988,69.649 336.168,69.489 336.780 C 69.343 337.338,69.066 337.524,68.629 337.356 C 68.226 337.201,67.586 337.505,66.929 338.162 C 66.349 338.742,65.466 339.319,64.966 339.444 C 64.467 339.570,63.956 339.937,63.832 340.261 C 63.707 340.586,63.424 340.739,63.203 340.602 C 62.981 340.465,62.800 340.633,62.800 340.976 C 62.800 341.333,62.458 341.600,62.000 341.600 C 61.147 341.600,59.898 342.647,59.494 343.700 C 59.340 344.100,58.955 344.261,58.461 344.132 C 57.638 343.917,56.414 344.879,55.616 346.370 C 55.320 346.923,54.777 347.200,53.986 347.200 C 53.198 347.200,52.800 347.402,52.800 347.800 C 52.800 348.130,52.569 348.400,52.286 348.400 C 52.004 348.400,51.452 348.943,51.059 349.607 C 50.667 350.271,50.178 350.710,49.973 350.583 C 49.768 350.457,49.600 350.718,49.600 351.164 C 49.600 351.720,49.412 351.903,49.000 351.745 C 48.620 351.599,48.400 351.750,48.400 352.157 C 48.400 352.572,48.054 352.800,47.424 352.800 C 46.887 352.800,46.319 353.008,46.162 353.262 C 45.991 353.537,46.051 353.615,46.311 353.455 C 46.549 353.308,46.835 353.333,46.945 353.510 C 47.055 353.688,46.799 353.860,46.377 353.892 C 45.954 353.924,45.181 354.411,44.658 354.975 C 44.136 355.539,43.504 356.000,43.254 356.000 C 43.004 356.000,42.800 356.270,42.800 356.600 C 42.800 356.930,42.530 357.200,42.200 357.200 C 41.870 357.200,41.600 357.389,41.600 357.619 C 41.600 357.850,41.150 358.455,40.600 358.965 C 40.050 359.475,39.600 360.090,39.600 360.333 C 39.600 360.576,39.330 360.671,39.000 360.545 C 38.631 360.403,38.400 360.545,38.400 360.914 C 38.400 361.244,38.130 361.618,37.800 361.745 C 37.470 361.871,37.200 362.431,37.200 362.987 C 37.200 363.621,36.975 364.000,36.600 364.000 C 36.270 364.000,36.000 364.341,36.000 364.757 C 36.000 365.454,35.011 366.214,34.300 366.064 C 34.135 366.029,34.000 366.270,34.000 366.600 C 34.000 366.930,33.730 367.200,33.400 367.200 C 33.070 367.200,32.800 367.461,32.800 367.780 C 32.800 368.099,32.503 368.526,32.140 368.730 C 31.714 368.968,31.559 369.400,31.703 369.949 C 31.825 370.417,31.775 370.800,31.592 370.800 C 31.409 370.800,31.176 370.485,31.076 370.100 C 30.940 369.580,30.881 369.635,30.846 370.313 C 30.821 370.814,30.530 371.329,30.200 371.455 C 29.870 371.582,29.600 371.936,29.600 372.243 C 29.600 372.549,29.330 372.800,29.000 372.800 C 28.670 372.800,28.400 373.070,28.400 373.400 C 28.400 373.730,28.130 374.000,27.800 374.000 C 27.462 374.000,27.200 374.358,27.200 374.819 C 27.200 375.270,26.750 376.055,26.200 376.565 C 25.610 377.112,25.200 377.934,25.200 378.569 C 25.200 379.231,25.035 379.545,24.773 379.383 C 24.538 379.238,24.251 379.485,24.134 379.932 C 24.005 380.423,23.699 380.659,23.361 380.530 C 22.954 380.373,22.800 380.656,22.800 381.557 C 22.800 382.395,22.605 382.800,22.200 382.800 C 21.836 382.800,21.600 383.172,21.600 383.744 C 21.600 384.284,21.172 385.009,20.600 385.439 C 19.956 385.923,19.600 386.583,19.600 387.295 C 19.600 388.011,19.389 388.400,19.000 388.400 C 18.634 388.400,18.400 388.773,18.400 389.357 C 18.400 389.884,18.130 390.418,17.800 390.545 C 17.451 390.679,17.200 391.277,17.200 391.975 C 17.200 392.814,17.039 393.113,16.663 392.969 C 16.277 392.821,16.147 393.110,16.200 393.997 C 16.240 394.676,16.094 395.342,15.875 395.477 C 15.634 395.626,15.604 395.517,15.800 395.200 C 16.014 394.854,15.967 394.773,15.662 394.962 C 15.408 395.119,15.200 395.687,15.200 396.224 C 15.200 396.825,14.969 397.200,14.600 397.200 C 14.200 397.200,14.000 397.600,14.000 398.400 C 14.000 399.200,13.800 399.600,13.400 399.600 C 12.967 399.600,12.800 400.044,12.800 401.200 C 12.800 402.356,12.633 402.800,12.200 402.800 C 11.797 402.800,11.600 403.203,11.600 404.024 C 11.600 404.697,11.439 405.148,11.243 405.026 C 10.769 404.734,10.302 406.661,10.611 407.634 C 10.780 408.166,10.663 408.400,10.227 408.400 C 9.762 408.400,9.600 408.814,9.600 410.000 C 9.600 411.184,9.438 411.600,8.975 411.600 C 8.619 411.600,8.380 411.902,8.421 412.300 C 8.593 413.997,8.371 415.194,7.900 415.100 C 7.563 415.033,7.400 415.553,7.400 416.701 C 7.400 418.080,7.262 418.401,6.670 418.401 C 6.044 418.400,5.956 418.693,6.051 420.473 C 6.122 421.817,5.992 422.603,5.680 422.707 C 5.368 422.811,5.200 423.836,5.200 425.633 C 5.200 427.826,5.076 428.400,4.600 428.400 C 4.114 428.400,4.000 429.043,4.000 431.787 C 4.000 434.649,3.906 435.139,3.394 434.942 C 2.870 434.741,2.793 435.452,2.826 440.221 C 2.857 444.853,2.762 445.789,2.232 446.086 C 1.661 446.406,1.601 451.499,1.607 498.720 L 1.614 551.000 2.563 551.900 L 3.513 552.800 196.959 552.800 L 390.405 552.800 390.397 496.200 C 390.391 445.952,390.265 437.787,389.533 440.004 C 389.460 440.226,389.437 438.621,389.481 436.438 C 389.544 433.377,389.430 432.357,388.981 431.985 C 388.584 431.654,388.400 430.693,388.400 428.938 C 388.400 427.029,388.247 426.316,387.800 426.145 C 387.362 425.977,387.200 425.288,387.200 423.600 C 387.200 421.912,387.038 421.223,386.600 421.055 C 386.189 420.898,386.000 420.255,386.000 419.013 C 386.000 417.668,385.845 417.200,385.400 417.200 C 384.939 417.200,384.800 416.689,384.800 415.000 C 384.800 413.790,384.620 412.800,384.400 412.800 C 384.180 412.800,384.000 412.181,384.000 411.424 C 384.000 410.012,383.428 409.200,383.066 410.098 C 382.954 410.374,382.849 409.649,382.832 408.487 C 382.809 407.000,382.622 406.307,382.200 406.145 C 381.870 406.018,381.600 405.484,381.600 404.957 C 381.600 404.373,381.366 404.000,381.000 404.000 C 380.396 404.000,380.248 403.593,380.379 402.300 C 380.418 401.915,380.259 401.600,380.025 401.600 C 379.791 401.600,379.600 401.067,379.600 400.416 C 379.600 399.650,379.212 398.856,378.500 398.166 C 377.895 397.579,377.625 397.222,377.900 397.373 C 378.227 397.552,378.400 397.362,378.400 396.824 C 378.400 396.358,378.139 396.000,377.800 396.000 C 377.464 396.000,377.200 395.643,377.200 395.187 C 377.200 394.741,376.930 394.271,376.600 394.145 C 376.258 394.013,376.000 393.417,376.000 392.757 C 376.000 391.995,375.795 391.600,375.400 391.600 C 375.060 391.600,374.800 391.241,374.800 390.771 C 374.800 389.822,373.844 388.700,373.393 389.119 C 373.227 389.274,373.297 389.006,373.547 388.524 C 374.006 387.642,373.577 386.920,372.858 387.364 C 372.670 387.481,372.597 387.149,372.697 386.627 C 372.877 385.684,371.661 384.000,370.800 384.000 C 370.580 384.000,370.400 383.526,370.400 382.946 C 370.400 382.335,369.979 381.502,369.400 380.965 C 368.850 380.455,368.400 379.670,368.400 379.219 C 368.400 378.758,368.138 378.400,367.800 378.400 C 367.470 378.400,367.200 378.130,367.200 377.800 C 367.200 377.470,366.930 377.200,366.600 377.200 C 366.267 377.200,366.000 376.844,366.000 376.400 C 366.000 375.546,364.624 373.910,364.233 374.300 C 364.105 374.428,363.978 374.143,363.950 373.667 C 363.923 373.190,363.877 372.661,363.850 372.491 C 363.767 371.977,362.002 370.220,361.975 370.625 C 361.961 370.831,361.782 370.583,361.578 370.074 C 361.374 369.565,361.025 369.261,360.803 369.398 C 360.582 369.535,360.400 369.356,360.400 369.000 C 360.400 368.644,360.220 368.464,360.000 368.600 C 359.776 368.739,359.600 368.425,359.600 367.886 C 359.600 366.535,357.926 364.634,357.293 365.267 C 356.927 365.633,356.857 365.542,356.986 364.871 C 357.096 364.301,356.954 364.000,356.577 364.000 C 356.260 364.000,356.000 363.730,356.000 363.400 C 356.000 363.070,355.730 362.800,355.400 362.800 C 355.070 362.800,354.800 362.530,354.800 362.200 C 354.800 361.870,354.620 361.600,354.400 361.600 C 354.180 361.600,354.000 361.330,354.000 361.000 C 354.000 360.670,353.730 360.400,353.400 360.400 C 353.070 360.400,352.800 360.241,352.800 360.047 C 352.800 359.852,352.422 359.594,351.960 359.474 C 351.419 359.332,351.228 359.078,351.425 358.759 C 351.639 358.414,351.530 358.341,351.066 358.519 C 350.580 358.706,350.400 358.556,350.400 357.964 C 350.400 357.518,350.220 357.264,350.000 357.400 C 349.780 357.536,349.600 357.386,349.600 357.066 C 349.600 356.747,349.330 356.382,349.000 356.255 C 348.670 356.129,348.400 355.749,348.400 355.413 C 348.400 355.076,348.130 354.800,347.800 354.800 C 347.470 354.800,347.200 354.609,347.200 354.376 C 347.200 354.143,347.008 354.072,346.773 354.217 C 346.538 354.362,346.247 354.103,346.126 353.640 C 346.006 353.178,345.658 352.800,345.353 352.800 C 345.049 352.800,344.800 352.610,344.800 352.377 C 344.800 351.268,341.816 349.230,341.465 350.100 C 341.348 350.390,341.250 350.296,341.232 349.876 C 341.214 349.478,341.020 349.264,340.800 349.400 C 340.580 349.536,340.400 349.367,340.400 349.024 C 340.400 348.681,340.220 348.400,340.000 348.400 C 339.780 348.400,339.600 348.130,339.600 347.800 C 339.600 347.470,339.349 347.200,339.043 347.200 C 338.736 347.200,338.379 346.922,338.248 346.581 C 338.118 346.241,337.783 345.992,337.505 346.029 C 336.440 346.168,336.000 345.978,336.000 345.376 C 336.000 345.033,335.852 344.844,335.671 344.956 C 335.289 345.192,334.000 343.799,334.000 343.149 C 334.000 342.906,333.646 342.799,333.214 342.912 C 332.409 343.123,330.400 341.629,330.400 340.819 C 330.400 340.589,330.016 340.400,329.546 340.400 C 329.076 340.400,328.275 339.950,327.765 339.400 C 327.244 338.838,326.392 338.400,325.819 338.400 C 325.147 338.400,324.800 338.180,324.800 337.753 C 324.800 337.292,324.558 337.170,323.956 337.327 C 323.346 337.487,323.055 337.333,322.909 336.774 C 322.798 336.348,322.477 336.000,322.196 336.000 C 321.915 336.000,321.583 335.733,321.458 335.407 C 321.333 335.080,320.982 334.909,320.679 335.025 C 320.376 335.141,319.897 334.958,319.615 334.618 C 319.333 334.278,318.674 334.000,318.151 334.000 C 317.540 334.000,317.200 333.768,317.200 333.351 C 317.200 332.792,317.106 332.778,316.523 333.251 C 316.063 333.624,315.943 333.640,316.147 333.300 C 316.348 332.965,316.176 332.800,315.624 332.800 C 315.132 332.800,314.800 332.540,314.800 332.153 C 314.800 331.685,314.533 331.558,313.831 331.692 C 313.110 331.830,312.808 331.674,312.654 331.086 C 312.506 330.517,312.215 330.355,311.623 330.510 C 311.120 330.641,310.666 330.489,310.460 330.121 C 310.274 329.789,309.535 329.470,308.819 329.414 C 308.102 329.358,307.399 329.123,307.257 328.892 C 307.114 328.661,306.458 328.411,305.799 328.336 C 305.105 328.257,304.642 327.989,304.700 327.700 C 304.767 327.367,304.267 327.200,303.200 327.200 C 302.044 327.200,301.600 327.033,301.600 326.600 C 301.600 326.169,301.160 326.000,300.043 326.000 C 299.147 326.000,298.402 325.783,298.289 325.489 C 298.169 325.176,297.452 324.996,296.447 325.025 C 295.313 325.058,294.800 324.905,294.800 324.536 C 294.800 324.177,294.271 324.000,293.200 324.000 C 292.044 324.000,291.600 323.833,291.600 323.400 C 291.600 322.939,291.089 322.800,289.400 322.800 C 287.665 322.800,287.200 322.667,287.200 322.170 C 287.200 321.666,286.795 321.562,285.160 321.649 C 283.581 321.733,283.034 321.604,282.740 321.079 C 282.444 320.550,281.791 320.400,279.780 320.400 C 278.284 320.400,277.200 320.228,277.200 319.990 C 277.200 319.764,276.255 319.565,275.100 319.548 C 269.113 319.456,268.400 319.387,268.400 318.902 C 268.400 318.507,253.526 318.404,196.200 318.404 C 138.877 318.404,124.000 318.507,124.000 318.902 "   fill-rule="evenodd"></path><path id="path1" d="M194.117 281.497 C 195.611 281.574,197.951 281.574,199.317 281.496 C 200.682 281.418,199.460 281.355,196.600 281.355 C 193.740 281.356,192.622 281.420,194.117 281.497 "   fill-rule="evenodd"></path><path id="path2" d="M194.117 281.497 C 195.611 281.574,197.951 281.574,199.317 281.496 C 200.682 281.418,199.460 281.355,196.600 281.355 C 193.740 281.356,192.622 281.420,194.117 281.497 "   fill="#a09c9c" fill-rule="evenodd"></path><path id="path3" d="M194.117 281.497 C 195.611 281.574,197.951 281.574,199.317 281.496 C 200.682 281.418,199.460 281.355,196.600 281.355 C 193.740 281.356,192.622 281.420,194.117 281.497 "   fill-rule="evenodd"></path><path id="path4" d="M194.117 281.497 C 195.611 281.574,197.951 281.574,199.317 281.496 C 200.682 281.418,199.460 281.355,196.600 281.355 C 193.740 281.356,192.622 281.420,194.117 281.497 "   fill-rule="evenodd"></path></g></svg>