<?xml version="1.0" standalone="no"?>
<!DOCTYPE svg PUBLIC "-//W3C//DTD SVG 20010904//EN"
 "http://www.w3.org/TR/2001/REC-SVG-20010904/DTD/svg10.dtd">
<svg version="1.0" xmlns="http://www.w3.org/2000/svg"
 width="614.000000pt" height="512.000000pt" viewBox="0 0 614.000000 512.000000"
 preserveAspectRatio="xMidYMid meet">

<g transform="translate(0.000000,512.000000) scale(0.100000,-0.100000)"
fill="#535353" stroke="none">
<path d="M3712 5102 c-57 -21 -114 -68 -139 -116 -13 -24 -263 -1390 -263
-1437 0 -10 190 -117 586 -330 323 -173 590 -315 593 -317 4 -1 18 57 30 130
12 73 25 141 27 150 4 15 44 17 442 21 409 3 442 5 520 25 317 83 554 321 617
620 10 44 15 132 15 256 0 217 -8 247 -83 311 -70 60 -102 65 -454 65 l-314 0
-124 114 c-210 193 -251 206 -687 206 l-297 0 -108 132 c-120 146 -161 176
-254 184 -38 3 -70 -1 -107 -14z m1172 -656 c45 -34 66 -74 66 -126 0 -53 -21
-92 -67 -127 -32 -24 -45 -28 -104 -28 -53 0 -74 5 -96 21 -89 66 -99 179 -21
251 35 33 67 43 130 40 43 -2 64 -10 92 -31z"/>
<path d="M250 3825 c-121 -34 -206 -119 -237 -239 -17 -65 -17 -65 11 -183 16
-65 42 -155 58 -199 88 -245 306 -464 566 -567 l42 -17 0 -1187 c0 -1152 1
-1189 20 -1231 44 -97 118 -159 225 -187 84 -21 436 -21 520 0 101 27 177 89
221 180 l24 50 0 613 c0 417 3 612 10 612 6 0 28 -9 49 -19 21 -11 92 -38 157
-61 447 -154 943 -141 1387 37 60 23 111 43 113 43 2 0 4 -272 4 -604 0 -653
-1 -640 55 -724 36 -54 116 -108 190 -127 84 -21 437 -21 520 0 108 29 180 89
228 193 l22 47 3 1147 3 1147 -38 24 c-21 13 -290 158 -598 323 l-560 299
-1150 5 -1150 5 -53 28 c-116 61 -154 116 -201 289 -35 128 -58 174 -112 222
-88 81 -217 112 -329 81z"/>
</g>
</svg>
