<?xml version="1.0" standalone="no"?>
<!DOCTYPE svg PUBLIC "-//W3C//DTD SVG 20010904//EN"
 "http://www.w3.org/TR/2001/REC-SVG-20010904/DTD/svg10.dtd">
<svg version="1.0" xmlns="http://www.w3.org/2000/svg"
 width="512.000000pt" height="512.000000pt" viewBox="0 0 512.000000 512.000000"
 preserveAspectRatio="xMidYMid meet">

<g transform="translate(0.000000,512.000000) scale(0.100000,-0.100000)"
fill="#ec1c24" stroke="none">
<path d="M665 4309 c-363 -52 -604 -319 -654 -724 -15 -124 -15 -1926 0 -2050
45 -369 244 -618 565 -707 76 -21 98 -22 632 -26 l552 -3 0 1760 0 1761 -517
-1 c-285 -1 -545 -5 -578 -10z"/>
<path d="M3360 2560 l0 -1761 553 3 c534 4 555 5 632 26 321 90 519 337 564
707 15 124 15 1926 0 2050 -45 369 -244 618 -565 707 -76 21 -98 22 -631 26
l-553 3 0 -1761z"/>
</g>
</svg>
