<svg id="svg" version="1.1" xmlns="http://www.w3.org/2000/svg" xmlns:xlink="http://www.w3.org/1999/xlink" width="400" height="400" viewBox="0, 0, 400,400"><g id="svgg"><path id="path0" d="M160.400 66.400 C 160.400 66.620,159.590 66.800,158.600 66.800 C 157.610 66.800,156.800 66.980,156.800 67.200 C 156.800 67.420,156.260 67.600,155.600 67.600 C 154.940 67.600,154.400 67.780,154.400 68.000 C 154.400 68.220,154.040 68.400,153.600 68.400 C 153.160 68.400,152.800 68.580,152.800 68.800 C 152.800 69.020,152.440 69.200,152.000 69.200 C 151.560 69.200,151.200 69.380,151.200 69.600 C 151.200 69.820,150.840 70.000,150.400 70.000 C 149.960 70.000,149.600 70.180,149.600 70.400 C 149.600 70.620,149.280 70.800,148.888 70.800 C 148.497 70.800,147.917 71.160,147.600 71.600 C 147.283 72.040,146.779 72.400,146.479 72.400 C 145.770 72.400,138.800 79.370,138.800 80.079 C 138.800 80.379,138.440 80.883,138.000 81.200 C 137.560 81.517,137.200 82.097,137.200 82.488 C 137.200 82.880,137.020 83.200,136.800 83.200 C 136.580 83.200,136.400 83.560,136.400 84.000 C 136.400 84.440,136.220 84.800,136.000 84.800 C 135.780 84.800,135.600 85.160,135.600 85.600 C 135.600 86.040,135.420 86.400,135.200 86.400 C 134.980 86.400,134.800 86.940,134.800 87.600 C 134.800 88.260,134.620 88.800,134.400 88.800 C 134.180 88.800,134.000 89.340,134.000 90.000 C 134.000 90.660,133.820 91.200,133.600 91.200 C 133.380 91.200,133.200 92.190,133.200 93.400 C 133.200 94.610,133.020 95.600,132.800 95.600 C 132.539 95.600,132.400 102.000,132.400 114.000 L 132.400 132.400 114.000 132.400 C 102.000 132.400,95.600 132.539,95.600 132.800 C 95.600 133.020,94.610 133.200,93.400 133.200 C 92.190 133.200,91.200 133.380,91.200 133.600 C 91.200 133.820,90.660 134.000,90.000 134.000 C 89.340 134.000,88.800 134.180,88.800 134.400 C 88.800 134.620,88.260 134.800,87.600 134.800 C 86.940 134.800,86.400 134.980,86.400 135.200 C 86.400 135.420,86.040 135.600,85.600 135.600 C 85.160 135.600,84.800 135.780,84.800 136.000 C 84.800 136.220,84.440 136.400,84.000 136.400 C 83.560 136.400,83.200 136.580,83.200 136.800 C 83.200 137.020,82.880 137.200,82.488 137.200 C 82.097 137.200,81.517 137.560,81.200 138.000 C 80.883 138.440,80.379 138.800,80.079 138.800 C 79.370 138.800,72.400 145.770,72.400 146.479 C 72.400 146.779,72.040 147.283,71.600 147.600 C 71.160 147.917,70.800 148.497,70.800 148.888 C 70.800 149.280,70.620 149.600,70.400 149.600 C 70.180 149.600,70.000 149.960,70.000 150.400 C 70.000 150.840,69.820 151.200,69.600 151.200 C 69.380 151.200,69.200 151.560,69.200 152.000 C 69.200 152.440,69.020 152.800,68.800 152.800 C 68.580 152.800,68.400 153.160,68.400 153.600 C 68.400 154.040,68.220 154.400,68.000 154.400 C 67.780 154.400,67.600 155.120,67.600 156.000 C 67.600 156.880,67.420 157.600,67.200 157.600 C 66.980 157.600,66.800 158.230,66.800 159.000 C 66.800 159.770,66.620 160.400,66.400 160.400 C 66.136 160.400,66.000 173.867,66.000 200.000 C 66.000 226.133,66.136 239.600,66.400 239.600 C 66.620 239.600,66.800 240.410,66.800 241.400 C 66.800 242.390,66.980 243.200,67.200 243.200 C 67.420 243.200,67.600 243.740,67.600 244.400 C 67.600 245.060,67.780 245.600,68.000 245.600 C 68.220 245.600,68.400 245.960,68.400 246.400 C 68.400 246.840,68.580 247.200,68.800 247.200 C 69.020 247.200,69.200 247.560,69.200 248.000 C 69.200 248.440,69.380 248.800,69.600 248.800 C 69.820 248.800,70.000 249.160,70.000 249.600 C 70.000 250.040,70.180 250.400,70.400 250.400 C 70.620 250.400,70.800 250.720,70.800 251.112 C 70.800 251.503,71.160 252.083,71.600 252.400 C 72.040 252.717,72.400 253.221,72.400 253.521 C 72.400 254.230,79.370 261.200,80.079 261.200 C 80.379 261.200,80.883 261.560,81.200 262.000 C 81.517 262.440,82.097 262.800,82.488 262.800 C 82.880 262.800,83.200 262.980,83.200 263.200 C 83.200 263.420,83.560 263.600,84.000 263.600 C 84.440 263.600,84.800 263.780,84.800 264.000 C 84.800 264.220,85.160 264.400,85.600 264.400 C 86.040 264.400,86.400 264.580,86.400 264.800 C 86.400 265.020,86.940 265.200,87.600 265.200 C 88.260 265.200,88.800 265.380,88.800 265.600 C 88.800 265.820,89.340 266.000,90.000 266.000 C 90.660 266.000,91.200 266.180,91.200 266.400 C 91.200 266.620,92.190 266.800,93.400 266.800 C 94.610 266.800,95.600 266.980,95.600 267.200 C 95.600 267.461,102.000 267.600,114.000 267.600 L 132.400 267.600 132.400 286.000 C 132.400 298.000,132.539 304.400,132.800 304.400 C 133.020 304.400,133.200 305.390,133.200 306.600 C 133.200 307.810,133.380 308.800,133.600 308.800 C 133.820 308.800,134.000 309.340,134.000 310.000 C 134.000 310.660,134.180 311.200,134.400 311.200 C 134.620 311.200,134.800 311.740,134.800 312.400 C 134.800 313.060,134.980 313.600,135.200 313.600 C 135.420 313.600,135.600 313.960,135.600 314.400 C 135.600 314.840,135.780 315.200,136.000 315.200 C 136.220 315.200,136.400 315.560,136.400 316.000 C 136.400 316.440,136.580 316.800,136.800 316.800 C 137.020 316.800,137.200 317.120,137.200 317.512 C 137.200 317.903,137.560 318.483,138.000 318.800 C 138.440 319.117,138.800 319.621,138.800 319.921 C 138.800 320.630,145.770 327.600,146.479 327.600 C 146.779 327.600,147.283 327.960,147.600 328.400 C 147.917 328.840,148.497 329.200,148.888 329.200 C 149.280 329.200,149.600 329.380,149.600 329.600 C 149.600 329.820,149.960 330.000,150.400 330.000 C 150.840 330.000,151.200 330.180,151.200 330.400 C 151.200 330.620,151.560 330.800,152.000 330.800 C 152.440 330.800,152.800 330.980,152.800 331.200 C 152.800 331.420,153.160 331.600,153.600 331.600 C 154.040 331.600,154.400 331.780,154.400 332.000 C 154.400 332.220,155.120 332.400,156.000 332.400 C 156.880 332.400,157.600 332.580,157.600 332.800 C 157.600 333.020,158.230 333.200,159.000 333.200 C 159.770 333.200,160.400 333.380,160.400 333.600 C 160.400 333.864,173.867 334.000,200.000 334.000 C 226.133 334.000,239.600 333.864,239.600 333.600 C 239.600 333.380,240.410 333.200,241.400 333.200 C 242.390 333.200,243.200 333.020,243.200 332.800 C 243.200 332.580,243.740 332.400,244.400 332.400 C 245.060 332.400,245.600 332.220,245.600 332.000 C 245.600 331.780,245.960 331.600,246.400 331.600 C 246.840 331.600,247.200 331.420,247.200 331.200 C 247.200 330.980,247.560 330.800,248.000 330.800 C 248.440 330.800,248.800 330.620,248.800 330.400 C 248.800 330.180,249.160 330.000,249.600 330.000 C 250.040 330.000,250.400 329.820,250.400 329.600 C 250.400 329.380,250.760 329.200,251.200 329.200 C 251.640 329.200,252.000 329.020,252.000 328.800 C 252.000 328.580,252.288 328.400,252.640 328.400 C 252.991 328.400,253.783 327.860,254.400 327.200 C 255.017 326.540,255.743 326.000,256.014 326.000 C 256.634 326.000,260.400 322.207,260.400 321.583 C 260.400 321.329,260.940 320.617,261.600 320.000 C 262.260 319.383,262.800 318.591,262.800 318.240 C 262.800 317.888,262.980 317.600,263.200 317.600 C 263.420 317.600,263.600 317.240,263.600 316.800 C 263.600 316.360,263.780 316.000,264.000 316.000 C 264.220 316.000,264.400 315.640,264.400 315.200 C 264.400 314.760,264.580 314.400,264.800 314.400 C 265.020 314.400,265.200 314.040,265.200 313.600 C 265.200 313.160,265.380 312.800,265.600 312.800 C 265.820 312.800,266.000 312.260,266.000 311.600 C 266.000 310.940,266.180 310.400,266.400 310.400 C 266.620 310.400,266.800 309.770,266.800 309.000 C 266.800 308.230,266.980 307.600,267.200 307.600 C 267.433 307.600,267.600 306.267,267.600 304.400 C 267.600 302.533,267.767 301.200,268.000 301.200 C 268.260 301.200,268.400 295.333,268.400 284.400 L 268.400 267.600 286.400 267.600 C 298.133 267.600,304.400 267.461,304.400 267.200 C 304.400 266.980,305.390 266.800,306.600 266.800 C 307.810 266.800,308.800 266.620,308.800 266.400 C 308.800 266.180,309.340 266.000,310.000 266.000 C 310.660 266.000,311.200 265.820,311.200 265.600 C 311.200 265.380,311.740 265.200,312.400 265.200 C 313.060 265.200,313.600 265.020,313.600 264.800 C 313.600 264.580,313.960 264.400,314.400 264.400 C 314.840 264.400,315.200 264.220,315.200 264.000 C 315.200 263.780,315.560 263.600,316.000 263.600 C 316.440 263.600,316.800 263.420,316.800 263.200 C 316.800 262.980,317.120 262.800,317.512 262.800 C 317.903 262.800,318.483 262.440,318.800 262.000 C 319.117 261.560,319.657 261.200,320.000 261.200 C 320.343 261.200,320.883 260.840,321.200 260.400 C 321.517 259.960,322.031 259.600,322.342 259.600 C 323.013 259.600,326.800 255.848,326.800 255.183 C 326.800 254.929,327.340 254.217,328.000 253.600 C 328.660 252.983,329.200 252.191,329.200 251.840 C 329.200 251.488,329.380 251.200,329.600 251.200 C 329.820 251.200,330.000 250.840,330.000 250.400 C 330.000 249.960,330.180 249.600,330.400 249.600 C 330.620 249.600,330.800 249.240,330.800 248.800 C 330.800 248.360,330.980 248.000,331.200 248.000 C 331.420 248.000,331.600 247.640,331.600 247.200 C 331.600 246.760,331.780 246.400,332.000 246.400 C 332.220 246.400,332.400 246.040,332.400 245.600 C 332.400 245.160,332.580 244.800,332.800 244.800 C 333.020 244.800,333.200 244.080,333.200 243.200 C 333.200 242.320,333.380 241.600,333.600 241.600 C 333.820 241.600,334.000 240.790,334.000 239.800 C 334.000 238.810,334.180 238.000,334.400 238.000 C 334.664 238.000,334.800 224.933,334.800 199.600 C 334.800 174.267,334.664 161.200,334.400 161.200 C 334.180 161.200,334.000 160.570,334.000 159.800 C 334.000 159.030,333.820 158.400,333.600 158.400 C 333.380 158.400,333.200 157.680,333.200 156.800 C 333.200 155.920,333.020 155.200,332.800 155.200 C 332.580 155.200,332.400 154.840,332.400 154.400 C 332.400 153.960,332.220 153.600,332.000 153.600 C 331.780 153.600,331.600 153.240,331.600 152.800 C 331.600 152.360,331.420 152.000,331.200 152.000 C 330.980 152.000,330.800 151.640,330.800 151.200 C 330.800 150.760,330.620 150.400,330.400 150.400 C 330.180 150.400,330.000 150.040,330.000 149.600 C 330.000 149.160,329.820 148.800,329.600 148.800 C 329.380 148.800,329.200 148.512,329.200 148.160 C 329.200 147.809,328.660 147.017,328.000 146.400 C 327.340 145.783,326.800 145.071,326.800 144.817 C 326.800 144.193,323.034 140.400,322.414 140.400 C 322.143 140.400,321.417 139.860,320.800 139.200 C 320.183 138.540,319.391 138.000,319.040 138.000 C 318.688 138.000,318.400 137.820,318.400 137.600 C 318.400 137.380,318.040 137.200,317.600 137.200 C 317.160 137.200,316.800 137.020,316.800 136.800 C 316.800 136.580,316.440 136.400,316.000 136.400 C 315.560 136.400,315.200 136.220,315.200 136.000 C 315.200 135.780,314.840 135.600,314.400 135.600 C 313.960 135.600,313.600 135.420,313.600 135.200 C 313.600 134.980,313.060 134.800,312.400 134.800 C 311.740 134.800,311.200 134.620,311.200 134.400 C 311.200 134.180,310.660 134.000,310.000 134.000 C 309.340 134.000,308.800 133.820,308.800 133.600 C 308.800 133.380,307.810 133.200,306.600 133.200 C 305.390 133.200,304.400 133.020,304.400 132.800 C 304.400 132.539,298.133 132.400,286.400 132.400 L 268.400 132.400 268.400 115.200 C 268.400 104.000,268.260 98.000,268.000 98.000 C 267.771 98.000,267.600 96.800,267.600 95.200 C 267.600 93.600,267.429 92.400,267.200 92.400 C 266.980 92.400,266.800 91.770,266.800 91.000 C 266.800 90.230,266.620 89.600,266.400 89.600 C 266.180 89.600,266.000 89.060,266.000 88.400 C 266.000 87.740,265.820 87.200,265.600 87.200 C 265.380 87.200,265.200 86.840,265.200 86.400 C 265.200 85.960,265.020 85.600,264.800 85.600 C 264.580 85.600,264.400 85.240,264.400 84.800 C 264.400 84.360,264.220 84.000,264.000 84.000 C 263.780 84.000,263.600 83.680,263.600 83.288 C 263.600 82.897,263.240 82.317,262.800 82.000 C 262.360 81.683,262.000 81.143,262.000 80.800 C 262.000 80.457,261.640 79.917,261.200 79.600 C 260.760 79.283,260.400 78.783,260.400 78.489 C 260.400 77.813,256.675 74.000,256.014 74.000 C 255.743 74.000,255.017 73.460,254.400 72.800 C 253.783 72.140,252.991 71.600,252.640 71.600 C 252.288 71.600,252.000 71.420,252.000 71.200 C 252.000 70.980,251.640 70.800,251.200 70.800 C 250.760 70.800,250.400 70.620,250.400 70.400 C 250.400 70.180,250.040 70.000,249.600 70.000 C 249.160 70.000,248.800 69.820,248.800 69.600 C 248.800 69.380,248.440 69.200,248.000 69.200 C 247.560 69.200,247.200 69.020,247.200 68.800 C 247.200 68.580,246.840 68.400,246.400 68.400 C 245.960 68.400,245.600 68.220,245.600 68.000 C 245.600 67.780,244.880 67.600,244.000 67.600 C 243.120 67.600,242.400 67.420,242.400 67.200 C 242.400 66.980,241.770 66.800,241.000 66.800 C 240.230 66.800,239.600 66.620,239.600 66.400 C 239.600 66.136,226.133 66.000,200.000 66.000 C 173.867 66.000,160.400 66.136,160.400 66.400 M232.400 127.000 C 232.400 144.467,232.537 153.600,232.800 153.600 C 233.020 153.600,233.200 154.320,233.200 155.200 C 233.200 156.080,233.380 156.800,233.600 156.800 C 233.820 156.800,234.000 157.160,234.000 157.600 C 234.000 158.040,234.180 158.400,234.400 158.400 C 234.620 158.400,234.800 158.583,234.800 158.806 C 234.800 160.040,241.755 166.000,243.195 166.000 C 243.638 166.000,244.000 166.180,244.000 166.400 C 244.000 166.620,244.540 166.800,245.200 166.800 C 245.860 166.800,246.400 166.980,246.400 167.200 C 246.400 167.463,255.533 167.600,273.000 167.600 L 299.600 167.600 299.600 200.000 L 299.600 232.400 273.000 232.400 C 255.533 232.400,246.400 232.537,246.400 232.800 C 246.400 233.020,245.680 233.200,244.800 233.200 C 243.920 233.200,243.200 233.336,243.200 233.502 C 243.200 233.669,242.628 234.058,241.928 234.368 C 239.430 235.474,234.000 241.519,234.000 243.195 C 234.000 243.638,233.820 244.000,233.600 244.000 C 233.380 244.000,233.200 244.540,233.200 245.200 C 233.200 245.860,233.020 246.400,232.800 246.400 C 232.537 246.400,232.400 255.533,232.400 273.000 L 232.400 299.600 200.400 299.600 L 168.400 299.600 168.400 274.200 C 168.400 257.533,168.262 248.800,168.000 248.800 C 167.780 248.800,167.600 247.900,167.600 246.800 C 167.600 245.700,167.420 244.800,167.200 244.800 C 166.980 244.800,166.800 244.260,166.800 243.600 C 166.800 242.940,166.620 242.400,166.400 242.400 C 166.180 242.400,166.000 242.170,166.000 241.888 C 166.000 241.607,165.640 241.117,165.200 240.800 C 164.760 240.483,164.400 239.988,164.400 239.701 C 164.400 238.973,160.955 235.600,160.211 235.600 C 159.875 235.600,159.600 235.420,159.600 235.200 C 159.600 234.980,159.330 234.800,159.000 234.800 C 158.670 234.800,158.400 234.620,158.400 234.400 C 158.400 234.180,158.040 234.000,157.600 234.000 C 157.160 234.000,156.800 233.820,156.800 233.600 C 156.800 233.380,156.080 233.200,155.200 233.200 C 154.320 233.200,153.600 233.020,153.600 232.800 C 153.600 232.537,144.600 232.400,127.400 232.400 L 101.200 232.400 101.200 200.000 L 101.200 167.600 127.400 167.600 C 144.600 167.600,153.600 167.463,153.600 167.200 C 153.600 166.980,154.320 166.800,155.200 166.800 C 156.080 166.800,156.800 166.620,156.800 166.400 C 156.800 166.180,157.160 166.000,157.600 166.000 C 158.040 166.000,158.400 165.820,158.400 165.600 C 158.400 165.380,158.630 165.200,158.912 165.200 C 159.193 165.200,159.683 164.840,160.000 164.400 C 160.317 163.960,160.812 163.600,161.099 163.600 C 161.827 163.600,165.200 160.155,165.200 159.411 C 165.200 159.075,165.380 158.800,165.600 158.800 C 165.820 158.800,166.000 158.530,166.000 158.200 C 166.000 157.870,166.180 157.600,166.400 157.600 C 166.620 157.600,166.800 157.240,166.800 156.800 C 166.800 156.360,166.980 156.000,167.200 156.000 C 167.422 156.000,167.600 154.933,167.600 153.600 C 167.600 152.267,167.778 151.200,168.000 151.200 C 168.262 151.200,168.400 142.467,168.400 125.800 L 168.400 100.400 200.400 100.400 L 232.400 100.400 232.400 127.000 " stroke="none" fill="#4ab3ed" fill-rule="evenodd"></path><path id="path1" d="" stroke="none" fill="#4ab3ed" fill-rule="evenodd"></path><path id="path2" d="" stroke="none" fill="#4ab3ed" fill-rule="evenodd"></path><path id="path3" d="" stroke="none" fill="#4ab3ed" fill-rule="evenodd"></path><path id="path4" d="" stroke="none" fill="#4ab3ed" fill-rule="evenodd"></path></g></svg>