<svg id="svg" version="1.1" xmlns="http://www.w3.org/2000/svg" xmlns:xlink="http://www.w3.org/1999/xlink" width="400" height="400" viewBox="0, 0, 400,400"><g id="svgg"><path id="path0" d="M191.800 32.800 C 191.658 33.029,189.596 33.200,186.976 33.200 C 184.192 33.200,182.400 33.357,182.400 33.600 C 182.400 33.829,181.200 34.000,179.600 34.000 C 178.000 34.000,176.800 34.171,176.800 34.400 C 176.800 34.620,175.810 34.800,174.600 34.800 C 173.390 34.800,172.400 34.980,172.400 35.200 C 172.400 35.420,171.680 35.600,170.800 35.600 C 169.920 35.600,169.200 35.780,169.200 36.000 C 169.200 36.220,168.300 36.400,167.200 36.400 C 166.100 36.400,165.200 36.580,165.200 36.800 C 165.200 37.020,164.660 37.200,164.000 37.200 C 163.340 37.200,162.800 37.380,162.800 37.600 C 162.800 37.820,162.080 38.000,161.200 38.000 C 160.320 38.000,159.600 38.180,159.600 38.400 C 159.600 38.620,159.150 38.800,158.600 38.800 C 158.050 38.800,157.600 38.980,157.600 39.200 C 157.600 39.420,157.060 39.600,156.400 39.600 C 155.740 39.600,155.200 39.780,155.200 40.000 C 155.200 40.220,154.660 40.400,154.000 40.400 C 153.340 40.400,152.800 40.569,152.800 40.775 C 152.800 40.982,151.988 41.273,150.995 41.422 C 150.002 41.571,149.092 41.852,148.971 42.046 C 148.851 42.241,148.403 42.400,147.976 42.400 C 147.549 42.400,147.200 42.580,147.200 42.800 C 147.200 43.020,146.660 43.200,146.000 43.200 C 145.340 43.200,144.800 43.380,144.800 43.600 C 144.800 43.820,144.440 44.000,144.000 44.000 C 143.560 44.000,143.200 44.146,143.200 44.325 C 143.200 44.504,142.570 44.898,141.800 45.200 C 141.030 45.502,140.400 45.896,140.400 46.075 C 140.400 46.254,140.040 46.400,139.600 46.400 C 139.160 46.400,138.800 46.580,138.800 46.800 C 138.800 47.020,138.440 47.200,138.000 47.200 C 137.560 47.200,137.200 47.380,137.200 47.600 C 137.200 47.820,136.840 48.000,136.400 48.000 C 135.960 48.000,135.600 48.180,135.600 48.400 C 135.600 48.620,135.280 48.800,134.888 48.800 C 134.497 48.800,133.917 49.160,133.600 49.600 C 133.283 50.040,132.703 50.400,132.312 50.400 C 131.920 50.400,131.600 50.580,131.600 50.800 C 131.600 51.020,131.280 51.200,130.888 51.200 C 130.497 51.200,129.917 51.560,129.600 52.000 C 129.283 52.440,128.703 52.800,128.312 52.800 C 127.920 52.800,127.600 52.980,127.600 53.200 C 127.600 53.420,127.280 53.600,126.888 53.600 C 126.497 53.600,125.917 53.960,125.600 54.400 C 125.283 54.840,124.833 55.200,124.600 55.200 C 124.367 55.200,123.917 55.560,123.600 56.000 C 123.283 56.440,122.785 56.800,122.494 56.800 C 122.202 56.800,121.514 57.250,120.964 57.800 C 120.414 58.350,119.684 58.800,119.342 58.800 C 119.001 58.800,118.217 59.340,117.600 60.000 C 116.983 60.660,116.270 61.200,116.014 61.200 C 115.758 61.200,114.671 62.100,113.600 63.200 C 112.529 64.300,111.415 65.205,111.126 65.212 C 110.837 65.219,110.150 65.773,109.600 66.444 C 108.437 67.863,102.611 73.684,98.034 78.000 C 96.285 79.650,94.841 81.225,94.827 81.500 C 94.812 81.774,94.080 82.741,93.200 83.648 C 92.320 84.555,91.600 85.537,91.600 85.830 C 91.600 86.124,91.150 86.814,90.600 87.364 C 90.050 87.914,89.600 88.602,89.600 88.894 C 89.600 89.185,89.240 89.683,88.800 90.000 C 88.360 90.317,88.000 90.805,88.000 91.085 C 88.000 91.364,87.640 91.818,87.200 92.093 C 86.760 92.368,86.400 92.869,86.400 93.208 C 86.400 93.546,86.040 94.083,85.600 94.400 C 85.160 94.717,84.800 95.297,84.800 95.688 C 84.800 96.080,84.620 96.400,84.400 96.400 C 84.180 96.400,84.000 96.720,84.000 97.112 C 84.000 97.503,83.640 98.083,83.200 98.400 C 82.760 98.717,82.400 99.297,82.400 99.688 C 82.400 100.080,82.220 100.400,82.000 100.400 C 81.780 100.400,81.600 100.760,81.600 101.200 C 81.600 101.640,81.420 102.000,81.200 102.000 C 80.980 102.000,80.800 102.360,80.800 102.800 C 80.800 103.240,80.620 103.600,80.400 103.600 C 80.180 103.600,80.000 103.960,80.000 104.400 C 80.000 104.840,79.820 105.200,79.600 105.200 C 79.380 105.200,79.200 105.560,79.200 106.000 C 79.200 106.440,79.020 106.800,78.800 106.800 C 78.580 106.800,78.400 107.160,78.400 107.600 C 78.400 108.040,78.220 108.400,78.000 108.400 C 77.780 108.400,77.600 108.670,77.600 109.000 C 77.600 109.330,77.420 109.600,77.200 109.600 C 76.980 109.600,76.800 110.140,76.800 110.800 C 76.800 111.460,76.620 112.000,76.400 112.000 C 76.180 112.000,76.000 112.349,76.000 112.776 C 76.000 113.203,75.841 113.651,75.646 113.771 C 75.452 113.892,75.171 114.802,75.022 115.795 C 74.873 116.788,74.582 117.600,74.375 117.600 C 74.169 117.600,74.000 118.140,74.000 118.800 C 74.000 119.460,73.820 120.000,73.600 120.000 C 73.380 120.000,73.200 120.540,73.200 121.200 C 73.200 121.860,73.020 122.400,72.800 122.400 C 72.580 122.400,72.400 123.030,72.400 123.800 C 72.400 124.570,72.220 125.200,72.000 125.200 C 71.780 125.200,71.600 125.740,71.600 126.400 C 71.600 127.060,71.420 127.600,71.200 127.600 C 70.980 127.600,70.800 128.320,70.800 129.200 C 70.800 130.080,70.620 130.800,70.400 130.800 C 70.180 130.800,70.000 131.520,70.000 132.400 C 70.000 133.280,69.820 134.000,69.600 134.000 C 69.380 134.000,69.200 134.900,69.200 136.000 C 69.200 137.100,69.020 138.000,68.800 138.000 C 68.580 138.000,68.400 138.990,68.400 140.200 C 68.400 141.410,68.220 142.400,68.000 142.400 C 67.771 142.400,67.600 143.600,67.600 145.200 C 67.600 146.800,67.429 148.000,67.200 148.000 C 66.960 148.000,66.800 149.600,66.800 152.000 C 66.800 154.400,66.640 156.000,66.400 156.000 C 66.142 156.000,66.000 160.400,66.000 168.400 C 66.000 176.400,66.142 180.800,66.400 180.800 C 66.633 180.800,66.800 182.133,66.800 184.000 C 66.800 185.867,66.967 187.200,67.200 187.200 C 67.420 187.200,67.600 188.190,67.600 189.400 C 67.600 190.610,67.780 191.600,68.000 191.600 C 68.220 191.600,68.400 192.500,68.400 193.600 C 68.400 194.700,68.580 195.600,68.800 195.600 C 69.020 195.600,69.200 196.320,69.200 197.200 C 69.200 198.080,69.380 198.800,69.600 198.800 C 69.820 198.800,70.000 199.520,70.000 200.400 C 70.000 201.280,70.180 202.000,70.400 202.000 C 70.620 202.000,70.800 202.540,70.800 203.200 C 70.800 203.860,70.980 204.400,71.200 204.400 C 71.420 204.400,71.600 205.120,71.600 206.000 C 71.600 206.880,71.780 207.600,72.000 207.600 C 72.220 207.600,72.400 208.050,72.400 208.600 C 72.400 209.150,72.580 209.600,72.800 209.600 C 73.020 209.600,73.200 210.140,73.200 210.800 C 73.200 211.460,73.380 212.000,73.600 212.000 C 73.820 212.000,74.000 212.540,74.000 213.200 C 74.000 213.860,74.174 214.400,74.386 214.400 C 74.599 214.400,74.892 215.300,75.038 216.400 C 75.184 217.500,75.460 218.400,75.652 218.400 C 75.843 218.400,76.000 218.760,76.000 219.200 C 76.000 219.640,76.180 220.000,76.400 220.000 C 76.620 220.000,76.800 220.540,76.800 221.200 C 76.800 221.860,76.980 222.400,77.200 222.400 C 77.420 222.400,77.600 222.760,77.600 223.200 C 77.600 223.640,77.780 224.000,78.000 224.000 C 78.220 224.000,78.400 224.270,78.400 224.600 C 78.400 224.930,78.580 225.200,78.800 225.200 C 79.020 225.200,79.200 225.560,79.200 226.000 C 79.200 226.440,79.380 226.800,79.600 226.800 C 79.820 226.800,80.000 227.340,80.000 228.000 C 80.000 228.660,80.180 229.200,80.400 229.200 C 80.620 229.200,80.800 229.560,80.800 230.000 C 80.800 230.440,80.980 230.800,81.200 230.800 C 81.420 230.800,81.600 231.160,81.600 231.600 C 81.600 232.040,81.780 232.400,82.000 232.400 C 82.220 232.400,82.400 232.760,82.400 233.200 C 82.400 233.640,82.580 234.000,82.800 234.000 C 83.020 234.000,83.200 234.360,83.200 234.800 C 83.200 235.240,83.380 235.600,83.600 235.600 C 83.820 235.600,84.000 235.960,84.000 236.400 C 84.000 236.840,84.180 237.200,84.400 237.200 C 84.620 237.200,84.800 237.520,84.800 237.912 C 84.800 238.303,85.160 238.883,85.600 239.200 C 86.040 239.517,86.400 240.097,86.400 240.488 C 86.400 240.880,86.580 241.200,86.800 241.200 C 87.020 241.200,87.200 241.470,87.200 241.800 C 87.200 242.130,87.380 242.400,87.600 242.400 C 87.820 242.400,88.000 242.760,88.000 243.200 C 88.000 243.640,88.180 244.000,88.400 244.000 C 88.620 244.000,88.800 244.320,88.800 244.712 C 88.800 245.103,89.160 245.683,89.600 246.000 C 90.040 246.317,90.400 246.897,90.400 247.288 C 90.400 247.680,90.580 248.000,90.800 248.000 C 91.020 248.000,91.200 248.338,91.200 248.751 C 91.200 249.164,91.470 249.726,91.800 250.000 C 92.130 250.274,92.400 250.796,92.400 251.161 C 92.400 251.525,92.760 252.083,93.200 252.400 C 93.640 252.717,94.000 253.297,94.000 253.688 C 94.000 254.080,94.180 254.400,94.400 254.400 C 94.620 254.400,94.800 254.720,94.800 255.112 C 94.800 255.503,95.160 256.083,95.600 256.400 C 96.040 256.717,96.400 257.285,96.400 257.661 C 96.400 258.038,96.760 258.460,97.200 258.600 C 97.640 258.740,98.000 259.162,98.000 259.539 C 98.000 259.915,98.360 260.483,98.800 260.800 C 99.240 261.117,99.600 261.657,99.600 262.000 C 99.600 262.343,99.960 262.883,100.400 263.200 C 100.840 263.517,101.200 264.025,101.200 264.328 C 101.200 264.631,101.740 265.383,102.400 266.000 C 103.060 266.617,103.600 267.369,103.600 267.672 C 103.600 267.975,103.960 268.483,104.400 268.800 C 104.840 269.117,105.200 269.625,105.200 269.928 C 105.200 270.231,105.740 270.983,106.400 271.600 C 107.060 272.217,107.600 272.943,107.600 273.215 C 107.600 273.486,108.050 274.125,108.600 274.635 C 109.150 275.145,109.600 275.765,109.600 276.012 C 109.600 276.260,110.320 277.154,111.200 278.000 C 112.080 278.846,112.800 279.749,112.800 280.008 C 112.800 280.267,113.340 280.983,114.000 281.600 C 114.660 282.217,115.200 282.930,115.200 283.186 C 115.200 283.442,116.100 284.529,117.200 285.600 C 118.300 286.671,119.200 287.754,119.200 288.005 C 119.200 288.540,122.292 291.600,122.833 291.600 C 123.035 291.600,123.200 291.876,123.200 292.214 C 123.200 292.813,123.608 293.336,126.300 296.194 C 127.015 296.952,127.600 297.766,127.600 298.002 C 127.600 298.238,129.220 300.037,131.200 302.000 C 133.180 303.963,134.805 305.801,134.812 306.085 C 134.819 306.368,135.377 307.050,136.054 307.600 C 136.730 308.150,138.389 309.738,139.742 311.129 C 141.094 312.520,143.865 315.353,145.900 317.424 C 147.935 319.495,149.608 321.417,149.618 321.695 C 149.629 321.973,150.356 322.830,151.235 323.600 C 152.114 324.370,153.450 325.585,154.203 326.300 C 154.957 327.015,155.804 327.605,156.087 327.612 C 156.369 327.619,157.050 328.173,157.600 328.845 C 158.571 330.030,168.966 340.488,170.974 342.300 C 171.523 342.795,172.203 343.205,172.486 343.212 C 172.769 343.219,173.450 343.770,174.000 344.438 C 175.951 346.806,181.172 352.000,181.602 352.000 C 181.842 352.000,183.281 353.260,184.800 354.800 C 186.319 356.340,187.758 357.600,187.998 357.600 C 188.685 357.600,190.797 359.481,192.400 361.520 C 192.950 362.220,193.635 362.794,193.922 362.796 C 194.209 362.798,195.504 363.880,196.800 365.200 C 199.766 368.221,200.234 368.221,203.200 365.200 C 204.496 363.880,205.791 362.795,206.078 362.788 C 206.365 362.781,207.050 362.230,207.600 361.563 C 209.484 359.277,210.437 358.400,211.035 358.400 C 211.365 358.400,213.059 356.960,214.800 355.200 C 216.541 353.440,218.161 352.000,218.400 352.000 C 218.861 352.000,224.595 346.301,225.588 344.856 C 225.912 344.385,226.412 344.000,226.700 344.000 C 226.987 344.000,227.851 343.415,228.619 342.700 C 231.444 340.069,241.431 330.028,242.400 328.845 C 242.950 328.173,243.630 327.619,243.911 327.612 C 244.193 327.605,245.003 327.058,245.711 326.395 C 246.420 325.732,247.945 324.304,249.100 323.221 C 250.255 322.138,251.200 321.058,251.200 320.821 C 251.200 320.295,261.517 309.602,263.958 307.600 C 264.628 307.050,265.181 306.368,265.188 306.085 C 265.195 305.801,266.820 303.963,268.800 302.000 C 270.780 300.037,272.400 298.238,272.400 298.002 C 272.400 297.766,272.985 296.952,273.700 296.194 C 276.392 293.336,276.800 292.813,276.800 292.214 C 276.800 291.876,276.965 291.600,277.167 291.600 C 277.708 291.600,280.800 288.540,280.800 288.005 C 280.800 287.754,281.700 286.671,282.800 285.600 C 283.900 284.529,284.800 283.442,284.800 283.186 C 284.800 282.930,285.340 282.217,286.000 281.600 C 286.660 280.983,287.200 280.267,287.200 280.008 C 287.200 279.749,287.920 278.846,288.800 278.000 C 289.680 277.154,290.400 276.260,290.400 276.012 C 290.400 275.765,290.850 275.145,291.400 274.635 C 291.950 274.125,292.400 273.486,292.400 273.215 C 292.400 272.943,292.940 272.217,293.600 271.600 C 294.260 270.983,294.800 270.231,294.800 269.928 C 294.800 269.625,295.160 269.117,295.600 268.800 C 296.040 268.483,296.400 267.975,296.400 267.672 C 296.400 267.369,296.940 266.617,297.600 266.000 C 298.260 265.383,298.800 264.631,298.800 264.328 C 298.800 264.025,299.160 263.517,299.600 263.200 C 300.040 262.883,300.400 262.343,300.400 262.000 C 300.400 261.657,300.760 261.117,301.200 260.800 C 301.640 260.483,302.000 259.915,302.000 259.539 C 302.000 259.162,302.360 258.740,302.800 258.600 C 303.240 258.460,303.600 258.038,303.600 257.661 C 303.600 257.285,303.960 256.717,304.400 256.400 C 304.840 256.083,305.200 255.503,305.200 255.112 C 305.200 254.720,305.380 254.400,305.600 254.400 C 305.820 254.400,306.000 254.080,306.000 253.688 C 306.000 253.297,306.360 252.717,306.800 252.400 C 307.240 252.083,307.600 251.580,307.600 251.283 C 307.600 250.986,307.870 250.473,308.200 250.143 C 308.530 249.813,308.800 249.196,308.800 248.771 C 308.800 248.347,308.980 248.000,309.200 248.000 C 309.420 248.000,309.600 247.640,309.600 247.200 C 309.600 246.760,309.780 246.400,310.000 246.400 C 310.220 246.400,310.400 246.080,310.400 245.688 C 310.400 245.297,310.760 244.717,311.200 244.400 C 311.640 244.083,312.000 243.503,312.000 243.112 C 312.000 242.720,312.180 242.400,312.400 242.400 C 312.620 242.400,312.800 242.130,312.800 241.800 C 312.800 241.470,312.980 241.200,313.200 241.200 C 313.420 241.200,313.600 240.840,313.600 240.400 C 313.600 239.960,313.780 239.600,314.000 239.600 C 314.220 239.600,314.400 239.280,314.400 238.888 C 314.400 238.497,314.760 237.917,315.200 237.600 C 315.640 237.283,316.000 236.703,316.000 236.312 C 316.000 235.920,316.180 235.600,316.400 235.600 C 316.620 235.600,316.800 235.240,316.800 234.800 C 316.800 234.360,316.980 234.000,317.200 234.000 C 317.420 234.000,317.600 233.640,317.600 233.200 C 317.600 232.760,317.780 232.400,318.000 232.400 C 318.220 232.400,318.400 232.040,318.400 231.600 C 318.400 231.160,318.580 230.800,318.800 230.800 C 319.020 230.800,319.200 230.440,319.200 230.000 C 319.200 229.560,319.380 229.200,319.600 229.200 C 319.820 229.200,320.000 228.660,320.000 228.000 C 320.000 227.340,320.180 226.800,320.400 226.800 C 320.620 226.800,320.800 226.440,320.800 226.000 C 320.800 225.560,320.980 225.200,321.200 225.200 C 321.420 225.200,321.600 224.930,321.600 224.600 C 321.600 224.270,321.780 224.000,322.000 224.000 C 322.220 224.000,322.400 223.640,322.400 223.200 C 322.400 222.760,322.580 222.400,322.800 222.400 C 323.020 222.400,323.200 221.860,323.200 221.200 C 323.200 220.540,323.380 220.000,323.600 220.000 C 323.820 220.000,324.000 219.640,324.000 219.200 C 324.000 218.760,324.162 218.400,324.361 218.400 C 324.559 218.400,324.847 217.320,325.000 216.000 C 325.153 214.680,325.441 213.600,325.639 213.600 C 325.838 213.600,326.000 213.240,326.000 212.800 C 326.000 212.360,326.180 212.000,326.400 212.000 C 326.620 212.000,326.800 211.460,326.800 210.800 C 326.800 210.140,326.980 209.600,327.200 209.600 C 327.420 209.600,327.600 209.150,327.600 208.600 C 327.600 208.050,327.780 207.600,328.000 207.600 C 328.220 207.600,328.400 206.880,328.400 206.000 C 328.400 205.120,328.580 204.400,328.800 204.400 C 329.020 204.400,329.200 203.860,329.200 203.200 C 329.200 202.540,329.380 202.000,329.600 202.000 C 329.820 202.000,330.000 201.280,330.000 200.400 C 330.000 199.520,330.180 198.800,330.400 198.800 C 330.620 198.800,330.800 198.080,330.800 197.200 C 330.800 196.320,330.980 195.600,331.200 195.600 C 331.420 195.600,331.600 194.700,331.600 193.600 C 331.600 192.500,331.780 191.600,332.000 191.600 C 332.220 191.600,332.400 190.610,332.400 189.400 C 332.400 188.190,332.580 187.200,332.800 187.200 C 333.033 187.200,333.200 185.867,333.200 184.000 C 333.200 182.133,333.367 180.800,333.600 180.800 C 333.858 180.800,334.000 176.400,334.000 168.400 C 334.000 160.400,333.858 156.000,333.600 156.000 C 333.360 156.000,333.200 154.400,333.200 152.000 C 333.200 149.600,333.040 148.000,332.800 148.000 C 332.571 148.000,332.400 146.800,332.400 145.200 C 332.400 143.600,332.229 142.400,332.000 142.400 C 331.780 142.400,331.600 141.410,331.600 140.200 C 331.600 138.990,331.420 138.000,331.200 138.000 C 330.980 138.000,330.800 137.100,330.800 136.000 C 330.800 134.900,330.620 134.000,330.400 134.000 C 330.180 134.000,330.000 133.280,330.000 132.400 C 330.000 131.520,329.820 130.800,329.600 130.800 C 329.380 130.800,329.200 130.080,329.200 129.200 C 329.200 128.320,329.020 127.600,328.800 127.600 C 328.580 127.600,328.400 127.060,328.400 126.400 C 328.400 125.740,328.220 125.200,328.000 125.200 C 327.780 125.200,327.600 124.570,327.600 123.800 C 327.600 123.030,327.420 122.400,327.200 122.400 C 326.980 122.400,326.800 121.860,326.800 121.200 C 326.800 120.540,326.620 120.000,326.400 120.000 C 326.180 120.000,326.000 119.460,326.000 118.800 C 326.000 118.140,325.826 117.600,325.614 117.600 C 325.401 117.600,325.108 116.700,324.962 115.600 C 324.816 114.500,324.540 113.600,324.348 113.600 C 324.157 113.600,324.000 113.240,324.000 112.800 C 324.000 112.360,323.820 112.000,323.600 112.000 C 323.380 112.000,323.200 111.460,323.200 110.800 C 323.200 110.140,323.020 109.600,322.800 109.600 C 322.580 109.600,322.400 109.330,322.400 109.000 C 322.400 108.670,322.220 108.400,322.000 108.400 C 321.780 108.400,321.600 108.040,321.600 107.600 C 321.600 107.160,321.420 106.800,321.200 106.800 C 320.980 106.800,320.800 106.440,320.800 106.000 C 320.800 105.560,320.620 105.200,320.400 105.200 C 320.180 105.200,320.000 104.840,320.000 104.400 C 320.000 103.960,319.820 103.600,319.600 103.600 C 319.380 103.600,319.200 103.240,319.200 102.800 C 319.200 102.360,319.020 102.000,318.800 102.000 C 318.580 102.000,318.400 101.640,318.400 101.200 C 318.400 100.760,318.220 100.400,318.000 100.400 C 317.780 100.400,317.600 100.080,317.600 99.688 C 317.600 99.297,317.240 98.717,316.800 98.400 C 316.360 98.083,316.000 97.503,316.000 97.112 C 316.000 96.720,315.820 96.400,315.600 96.400 C 315.380 96.400,315.200 96.080,315.200 95.688 C 315.200 95.297,314.840 94.717,314.400 94.400 C 313.960 94.083,313.600 93.546,313.600 93.208 C 313.600 92.869,313.240 92.368,312.800 92.093 C 312.360 91.818,312.000 91.364,312.000 91.085 C 312.000 90.805,311.640 90.317,311.200 90.000 C 310.760 89.683,310.400 89.185,310.400 88.894 C 310.400 88.602,309.950 87.914,309.400 87.364 C 308.850 86.814,308.400 86.084,308.400 85.742 C 308.400 85.401,307.860 84.617,307.200 84.000 C 306.540 83.383,306.000 82.674,306.000 82.424 C 306.000 81.876,298.932 74.800,298.385 74.800 C 298.173 74.800,298.000 74.440,298.000 74.000 C 298.000 73.544,297.733 73.200,297.381 73.200 C 296.805 73.200,292.688 69.212,290.400 66.437 C 289.850 65.770,289.163 65.219,288.874 65.212 C 288.585 65.205,287.471 64.300,286.400 63.200 C 285.329 62.100,284.242 61.200,283.986 61.200 C 283.730 61.200,283.044 60.690,282.460 60.067 C 281.877 59.444,280.905 58.811,280.300 58.660 C 279.695 58.508,279.200 58.208,279.200 57.992 C 279.200 57.777,278.912 57.600,278.560 57.600 C 278.209 57.600,277.417 57.060,276.800 56.400 C 276.183 55.740,275.521 55.200,275.328 55.200 C 275.135 55.200,274.717 54.840,274.400 54.400 C 274.083 53.960,273.503 53.600,273.112 53.600 C 272.720 53.600,272.400 53.420,272.400 53.200 C 272.400 52.980,272.080 52.800,271.688 52.800 C 271.297 52.800,270.717 52.440,270.400 52.000 C 270.083 51.560,269.503 51.200,269.112 51.200 C 268.720 51.200,268.400 51.020,268.400 50.800 C 268.400 50.580,268.080 50.400,267.688 50.400 C 267.297 50.400,266.717 50.040,266.400 49.600 C 266.083 49.160,265.503 48.800,265.112 48.800 C 264.720 48.800,264.400 48.620,264.400 48.400 C 264.400 48.180,264.040 48.000,263.600 48.000 C 263.160 48.000,262.800 47.820,262.800 47.600 C 262.800 47.380,262.440 47.200,262.000 47.200 C 261.560 47.200,261.200 47.020,261.200 46.800 C 261.200 46.580,260.840 46.400,260.400 46.400 C 259.960 46.400,259.600 46.254,259.600 46.075 C 259.600 45.896,258.970 45.502,258.200 45.200 C 257.430 44.898,256.800 44.504,256.800 44.325 C 256.800 44.146,256.440 44.000,256.000 44.000 C 255.560 44.000,255.200 43.820,255.200 43.600 C 255.200 43.380,254.660 43.200,254.000 43.200 C 253.340 43.200,252.800 43.020,252.800 42.800 C 252.800 42.580,252.451 42.400,252.024 42.400 C 251.597 42.400,251.149 42.241,251.029 42.046 C 250.908 41.852,249.998 41.571,249.005 41.422 C 248.012 41.273,247.200 40.982,247.200 40.775 C 247.200 40.569,246.660 40.400,246.000 40.400 C 245.340 40.400,244.800 40.220,244.800 40.000 C 244.800 39.780,244.260 39.600,243.600 39.600 C 242.940 39.600,242.400 39.420,242.400 39.200 C 242.400 38.980,241.950 38.800,241.400 38.800 C 240.850 38.800,240.400 38.620,240.400 38.400 C 240.400 38.180,239.680 38.000,238.800 38.000 C 237.920 38.000,237.200 37.820,237.200 37.600 C 237.200 37.380,236.660 37.200,236.000 37.200 C 235.340 37.200,234.800 37.020,234.800 36.800 C 234.800 36.580,233.900 36.400,232.800 36.400 C 231.700 36.400,230.800 36.220,230.800 36.000 C 230.800 35.780,230.080 35.600,229.200 35.600 C 228.320 35.600,227.600 35.420,227.600 35.200 C 227.600 34.980,226.610 34.800,225.400 34.800 C 224.190 34.800,223.200 34.620,223.200 34.400 C 223.200 34.171,222.000 34.000,220.400 34.000 C 218.800 34.000,217.600 33.829,217.600 33.600 C 217.600 33.357,215.800 33.200,213.000 33.200 C 210.200 33.200,208.400 33.043,208.400 32.800 C 208.400 32.546,205.408 32.400,200.224 32.400 C 195.204 32.400,191.952 32.554,191.800 32.800 M211.200 68.000 C 211.200 68.229,212.400 68.400,214.000 68.400 C 215.600 68.400,216.800 68.571,216.800 68.800 C 216.800 69.022,217.867 69.200,219.200 69.200 C 220.533 69.200,221.600 69.378,221.600 69.600 C 221.600 69.820,222.320 70.000,223.200 70.000 C 224.080 70.000,224.800 70.180,224.800 70.400 C 224.800 70.620,225.430 70.800,226.200 70.800 C 226.970 70.800,227.600 70.980,227.600 71.200 C 227.600 71.420,228.320 71.600,229.200 71.600 C 230.080 71.600,230.800 71.780,230.800 72.000 C 230.800 72.220,231.340 72.400,232.000 72.400 C 232.660 72.400,233.200 72.580,233.200 72.800 C 233.200 73.020,233.740 73.200,234.400 73.200 C 235.060 73.200,235.600 73.380,235.600 73.600 C 235.600 73.820,235.960 74.000,236.400 74.000 C 236.840 74.000,237.200 74.157,237.200 74.348 C 237.200 74.540,238.100 74.816,239.200 74.962 C 240.300 75.108,241.200 75.401,241.200 75.614 C 241.200 75.826,241.470 76.000,241.800 76.000 C 242.130 76.000,242.400 76.180,242.400 76.400 C 242.400 76.620,242.760 76.800,243.200 76.800 C 243.640 76.800,244.000 76.980,244.000 77.200 C 244.000 77.420,244.360 77.600,244.800 77.600 C 245.240 77.600,245.600 77.780,245.600 78.000 C 245.600 78.220,245.960 78.400,246.400 78.400 C 246.840 78.400,247.200 78.580,247.200 78.800 C 247.200 79.020,247.560 79.200,248.000 79.200 C 248.440 79.200,248.800 79.380,248.800 79.600 C 248.800 79.820,249.120 80.000,249.512 80.000 C 249.903 80.000,250.483 80.360,250.800 80.800 C 251.117 81.240,251.657 81.600,252.000 81.600 C 252.343 81.600,252.883 81.960,253.200 82.400 C 253.517 82.840,254.057 83.200,254.400 83.200 C 254.743 83.200,255.283 83.560,255.600 84.000 C 255.917 84.440,256.457 84.800,256.800 84.800 C 257.143 84.800,257.683 85.160,258.000 85.600 C 258.317 86.040,258.731 86.400,258.920 86.400 C 259.108 86.400,259.954 87.120,260.800 88.000 C 261.646 88.880,262.538 89.600,262.783 89.600 C 263.352 89.600,264.162 90.339,270.112 96.288 C 276.075 102.252,276.800 103.047,276.800 103.625 C 276.800 103.875,277.340 104.583,278.000 105.200 C 278.660 105.817,279.200 106.543,279.200 106.814 C 279.200 107.346,280.708 108.800,281.261 108.800 C 281.448 108.800,281.600 109.120,281.600 109.512 C 281.600 109.903,281.960 110.483,282.400 110.800 C 282.840 111.117,283.200 111.657,283.200 112.000 C 283.200 112.343,283.560 112.883,284.000 113.200 C 284.440 113.517,284.800 114.097,284.800 114.488 C 284.800 114.880,284.980 115.200,285.200 115.200 C 285.420 115.200,285.600 115.560,285.600 116.000 C 285.600 116.440,285.780 116.800,286.000 116.800 C 286.220 116.800,286.400 117.120,286.400 117.512 C 286.400 117.903,286.760 118.483,287.200 118.800 C 287.640 119.117,288.000 119.697,288.000 120.088 C 288.000 120.480,288.180 120.800,288.400 120.800 C 288.620 120.800,288.800 121.160,288.800 121.600 C 288.800 122.040,288.980 122.400,289.200 122.400 C 289.420 122.400,289.600 122.760,289.600 123.200 C 289.600 123.640,289.780 124.000,290.000 124.000 C 290.220 124.000,290.400 124.450,290.400 125.000 C 290.400 125.550,290.569 126.000,290.775 126.000 C 290.982 126.000,291.273 126.812,291.422 127.805 C 291.571 128.798,291.852 129.708,292.046 129.829 C 292.241 129.949,292.400 130.397,292.400 130.824 C 292.400 131.251,292.580 131.600,292.800 131.600 C 293.020 131.600,293.200 132.140,293.200 132.800 C 293.200 133.460,293.380 134.000,293.600 134.000 C 293.820 134.000,294.000 134.540,294.000 135.200 C 294.000 135.860,294.180 136.400,294.400 136.400 C 294.620 136.400,294.800 137.120,294.800 138.000 C 294.800 138.880,294.980 139.600,295.200 139.600 C 295.420 139.600,295.600 140.230,295.600 141.000 C 295.600 141.770,295.780 142.400,296.000 142.400 C 296.220 142.400,296.400 143.120,296.400 144.000 C 296.400 144.880,296.580 145.600,296.800 145.600 C 297.022 145.600,297.200 146.667,297.200 148.000 C 297.200 149.333,297.378 150.400,297.600 150.400 C 297.829 150.400,298.000 151.600,298.000 153.200 C 298.000 154.800,298.171 156.000,298.400 156.000 C 298.647 156.000,298.800 158.067,298.800 161.400 C 298.800 164.733,298.953 166.800,299.200 166.800 C 299.429 166.800,299.600 168.000,299.600 169.600 C 299.600 171.200,299.429 172.400,299.200 172.400 C 298.959 172.400,298.800 174.067,298.800 176.600 C 298.800 179.133,298.641 180.800,298.400 180.800 C 298.178 180.800,298.000 181.867,298.000 183.200 C 298.000 184.533,297.822 185.600,297.600 185.600 C 297.380 185.600,297.200 186.320,297.200 187.200 C 297.200 188.080,297.020 188.800,296.800 188.800 C 296.580 188.800,296.400 189.419,296.400 190.176 C 296.400 190.933,296.220 191.664,296.000 191.800 C 295.780 191.936,295.600 192.667,295.600 193.424 C 295.600 194.181,295.420 194.800,295.200 194.800 C 294.980 194.800,294.800 195.340,294.800 196.000 C 294.800 196.660,294.620 197.200,294.400 197.200 C 294.180 197.200,294.000 197.740,294.000 198.400 C 294.000 199.060,293.820 199.600,293.600 199.600 C 293.380 199.600,293.200 200.140,293.200 200.800 C 293.200 201.460,293.020 202.000,292.800 202.000 C 292.580 202.000,292.400 202.349,292.400 202.776 C 292.400 203.203,292.241 203.651,292.046 203.771 C 291.852 203.892,291.571 204.802,291.422 205.795 C 291.273 206.788,290.982 207.600,290.775 207.600 C 290.569 207.600,290.400 207.870,290.400 208.200 C 290.400 208.530,290.220 208.800,290.000 208.800 C 289.780 208.800,289.600 209.340,289.600 210.000 C 289.600 210.660,289.420 211.200,289.200 211.200 C 288.980 211.200,288.800 211.560,288.800 212.000 C 288.800 212.440,288.620 212.800,288.400 212.800 C 288.180 212.800,288.000 213.160,288.000 213.600 C 288.000 214.040,287.820 214.400,287.600 214.400 C 287.380 214.400,287.200 214.760,287.200 215.200 C 287.200 215.640,287.020 216.000,286.800 216.000 C 286.580 216.000,286.400 216.360,286.400 216.800 C 286.400 217.240,286.220 217.600,286.000 217.600 C 285.780 217.600,285.600 217.960,285.600 218.400 C 285.600 218.840,285.420 219.200,285.200 219.200 C 284.980 219.200,284.800 219.560,284.800 220.000 C 284.800 220.440,284.620 220.800,284.400 220.800 C 284.180 220.800,284.000 221.160,284.000 221.600 C 284.000 222.040,283.820 222.400,283.600 222.400 C 283.380 222.400,283.200 222.720,283.200 223.112 C 283.200 223.503,282.840 224.083,282.400 224.400 C 281.960 224.717,281.600 225.207,281.600 225.488 C 281.600 225.770,281.420 226.000,281.200 226.000 C 280.980 226.000,280.800 226.360,280.800 226.800 C 280.800 227.240,280.620 227.600,280.400 227.600 C 280.180 227.600,280.000 227.920,280.000 228.312 C 280.000 228.703,279.640 229.283,279.200 229.600 C 278.760 229.917,278.400 230.497,278.400 230.888 C 278.400 231.280,278.220 231.600,278.000 231.600 C 277.780 231.600,277.600 231.920,277.600 232.312 C 277.600 232.703,277.240 233.283,276.800 233.600 C 276.360 233.917,276.000 234.497,276.000 234.888 C 276.000 235.280,275.823 235.600,275.608 235.600 C 275.392 235.600,275.093 236.095,274.944 236.700 C 274.794 237.305,274.341 238.091,273.936 238.447 C 273.531 238.803,273.200 239.348,273.200 239.659 C 273.200 239.969,272.840 240.483,272.400 240.800 C 271.960 241.117,271.600 241.567,271.600 241.800 C 271.600 242.033,271.240 242.483,270.800 242.800 C 270.360 243.117,270.000 243.657,270.000 244.000 C 270.000 244.343,269.640 244.883,269.200 245.200 C 268.760 245.517,268.400 246.025,268.400 246.328 C 268.400 246.631,267.860 247.383,267.200 248.000 C 266.540 248.617,266.000 249.337,266.000 249.600 C 266.000 249.863,265.460 250.583,264.800 251.200 C 264.140 251.817,263.600 252.537,263.600 252.800 C 263.600 253.063,263.060 253.783,262.400 254.400 C 261.740 255.017,261.200 255.737,261.200 256.000 C 261.200 256.263,260.660 256.983,260.000 257.600 C 259.340 258.217,258.800 258.913,258.800 259.147 C 258.800 259.382,258.170 260.203,257.400 260.973 C 256.630 261.743,256.000 262.571,256.000 262.813 C 256.000 263.054,255.100 264.129,254.000 265.200 C 252.900 266.271,252.000 267.350,252.000 267.596 C 252.000 267.843,250.920 269.104,249.600 270.400 C 248.280 271.696,247.198 272.991,247.196 273.278 C 247.194 273.565,246.616 274.250,245.911 274.800 C 243.891 276.377,241.600 278.844,241.600 279.444 C 241.600 279.746,239.350 282.242,236.600 284.992 C 233.850 287.742,231.600 290.264,231.600 290.596 C 231.600 290.928,231.434 291.200,231.230 291.200 C 231.027 291.200,229.542 292.558,227.930 294.217 C 217.756 304.692,211.834 310.395,211.114 310.412 C 210.831 310.419,210.150 310.971,209.600 311.640 C 209.050 312.309,206.665 314.829,204.300 317.241 L 200.000 321.626 195.700 317.241 C 193.335 314.829,190.950 312.309,190.400 311.640 C 189.850 310.971,189.169 310.419,188.886 310.412 C 188.160 310.395,185.016 307.366,171.956 294.100 C 170.385 292.505,168.943 291.200,168.750 291.200 C 168.558 291.200,168.400 290.928,168.400 290.596 C 168.400 290.264,166.150 287.742,163.400 284.992 C 160.650 282.242,158.400 279.746,158.400 279.444 C 158.400 278.844,156.109 276.377,154.089 274.800 C 153.384 274.250,152.806 273.565,152.804 273.278 C 152.802 272.991,151.720 271.696,150.400 270.400 C 149.080 269.104,148.000 267.843,148.000 267.596 C 148.000 267.350,147.100 266.271,146.000 265.200 C 144.900 264.129,144.000 263.054,144.000 262.813 C 144.000 262.571,143.370 261.743,142.600 260.973 C 141.830 260.203,141.200 259.382,141.200 259.147 C 141.200 258.913,140.660 258.217,140.000 257.600 C 139.340 256.983,138.800 256.263,138.800 256.000 C 138.800 255.737,138.260 255.017,137.600 254.400 C 136.940 253.783,136.400 253.063,136.400 252.800 C 136.400 252.537,135.860 251.817,135.200 251.200 C 134.540 250.583,134.000 249.863,134.000 249.600 C 134.000 249.337,133.460 248.617,132.800 248.000 C 132.140 247.383,131.600 246.631,131.600 246.328 C 131.600 246.025,131.240 245.517,130.800 245.200 C 130.360 244.883,130.000 244.343,130.000 244.000 C 130.000 243.657,129.640 243.117,129.200 242.800 C 128.760 242.483,128.400 242.033,128.400 241.800 C 128.400 241.567,128.040 241.117,127.600 240.800 C 127.160 240.483,126.800 239.969,126.800 239.659 C 126.800 239.348,126.469 238.803,126.064 238.447 C 125.659 238.091,125.206 237.305,125.056 236.700 C 124.907 236.095,124.608 235.600,124.392 235.600 C 124.177 235.600,124.000 235.280,124.000 234.888 C 124.000 234.497,123.640 233.917,123.200 233.600 C 122.760 233.283,122.400 232.703,122.400 232.312 C 122.400 231.920,122.220 231.600,122.000 231.600 C 121.780 231.600,121.600 231.280,121.600 230.888 C 121.600 230.497,121.240 229.917,120.800 229.600 C 120.360 229.283,120.000 228.703,120.000 228.312 C 120.000 227.920,119.820 227.600,119.600 227.600 C 119.380 227.600,119.200 227.240,119.200 226.800 C 119.200 226.360,119.020 226.000,118.800 226.000 C 118.580 226.000,118.400 225.770,118.400 225.488 C 118.400 225.207,118.040 224.717,117.600 224.400 C 117.160 224.083,116.800 223.503,116.800 223.112 C 116.800 222.720,116.620 222.400,116.400 222.400 C 116.180 222.400,116.000 222.040,116.000 221.600 C 116.000 221.160,115.820 220.800,115.600 220.800 C 115.380 220.800,115.200 220.440,115.200 220.000 C 115.200 219.560,115.020 219.200,114.800 219.200 C 114.580 219.200,114.400 218.840,114.400 218.400 C 114.400 217.960,114.220 217.600,114.000 217.600 C 113.780 217.600,113.600 217.240,113.600 216.800 C 113.600 216.360,113.420 216.000,113.200 216.000 C 112.980 216.000,112.800 215.640,112.800 215.200 C 112.800 214.760,112.620 214.400,112.400 214.400 C 112.180 214.400,112.000 214.040,112.000 213.600 C 112.000 213.160,111.820 212.800,111.600 212.800 C 111.380 212.800,111.200 212.440,111.200 212.000 C 111.200 211.560,111.020 211.200,110.800 211.200 C 110.580 211.200,110.400 210.660,110.400 210.000 C 110.400 209.340,110.220 208.800,110.000 208.800 C 109.780 208.800,109.600 208.530,109.600 208.200 C 109.600 207.870,109.426 207.600,109.214 207.600 C 109.001 207.600,108.708 206.700,108.562 205.600 C 108.416 204.500,108.140 203.600,107.948 203.600 C 107.757 203.600,107.600 203.060,107.600 202.400 C 107.600 201.740,107.420 201.200,107.200 201.200 C 106.980 201.200,106.800 200.840,106.800 200.400 C 106.800 199.960,106.620 199.600,106.400 199.600 C 106.180 199.600,106.000 199.060,106.000 198.400 C 106.000 197.740,105.820 197.200,105.600 197.200 C 105.380 197.200,105.200 196.480,105.200 195.600 C 105.200 194.720,105.020 194.000,104.800 194.000 C 104.580 194.000,104.400 193.561,104.400 193.024 C 104.400 192.487,104.220 191.936,104.000 191.800 C 103.780 191.664,103.600 190.933,103.600 190.176 C 103.600 189.419,103.420 188.800,103.200 188.800 C 102.980 188.800,102.800 187.900,102.800 186.800 C 102.800 185.700,102.620 184.800,102.400 184.800 C 102.180 184.800,102.000 183.900,102.000 182.800 C 102.000 181.700,101.820 180.800,101.600 180.800 C 101.359 180.800,101.200 179.133,101.200 176.600 C 101.200 174.067,101.041 172.400,100.800 172.400 C 100.571 172.400,100.400 171.200,100.400 169.600 C 100.400 168.000,100.571 166.800,100.800 166.800 C 101.047 166.800,101.200 164.733,101.200 161.400 C 101.200 158.067,101.353 156.000,101.600 156.000 C 101.829 156.000,102.000 154.800,102.000 153.200 C 102.000 151.600,102.171 150.400,102.400 150.400 C 102.622 150.400,102.800 149.333,102.800 148.000 C 102.800 146.667,102.978 145.600,103.200 145.600 C 103.420 145.600,103.600 144.880,103.600 144.000 C 103.600 143.120,103.780 142.400,104.000 142.400 C 104.220 142.400,104.400 141.770,104.400 141.000 C 104.400 140.230,104.580 139.600,104.800 139.600 C 105.020 139.600,105.200 138.880,105.200 138.000 C 105.200 137.120,105.380 136.400,105.600 136.400 C 105.820 136.400,106.000 135.860,106.000 135.200 C 106.000 134.540,106.180 134.000,106.400 134.000 C 106.620 134.000,106.800 133.460,106.800 132.800 C 106.800 132.140,106.980 131.600,107.200 131.600 C 107.420 131.600,107.600 131.060,107.600 130.400 C 107.600 129.740,107.764 129.200,107.965 129.200 C 108.166 129.200,108.451 128.480,108.600 127.600 C 108.749 126.720,109.034 126.000,109.235 126.000 C 109.436 126.000,109.600 125.550,109.600 125.000 C 109.600 124.450,109.780 124.000,110.000 124.000 C 110.220 124.000,110.400 123.640,110.400 123.200 C 110.400 122.760,110.580 122.400,110.800 122.400 C 111.020 122.400,111.200 122.040,111.200 121.600 C 111.200 121.160,111.380 120.800,111.600 120.800 C 111.820 120.800,112.000 120.440,112.000 120.000 C 112.000 119.560,112.180 119.200,112.400 119.200 C 112.620 119.200,112.800 118.880,112.800 118.488 C 112.800 118.097,113.160 117.517,113.600 117.200 C 114.040 116.883,114.400 116.303,114.400 115.912 C 114.400 115.520,114.580 115.200,114.800 115.200 C 115.020 115.200,115.200 114.880,115.200 114.488 C 115.200 114.097,115.560 113.517,116.000 113.200 C 116.440 112.883,116.800 112.343,116.800 112.000 C 116.800 111.657,117.160 111.117,117.600 110.800 C 118.040 110.483,118.400 109.915,118.400 109.539 C 118.400 109.162,118.760 108.740,119.200 108.600 C 119.640 108.460,120.000 108.074,120.000 107.742 C 120.000 107.409,120.720 106.446,121.600 105.600 C 122.480 104.754,123.200 103.862,123.200 103.617 C 123.200 103.048,123.939 102.238,129.888 96.288 C 135.852 90.325,136.647 89.600,137.225 89.600 C 137.475 89.600,138.183 89.060,138.800 88.400 C 139.417 87.740,140.209 87.200,140.560 87.200 C 140.912 87.200,141.200 87.048,141.200 86.861 C 141.200 86.272,142.670 84.800,143.259 84.800 C 143.569 84.800,144.083 84.440,144.400 84.000 C 144.717 83.560,145.257 83.200,145.600 83.200 C 145.943 83.200,146.483 82.840,146.800 82.400 C 147.117 81.960,147.697 81.600,148.088 81.600 C 148.480 81.600,148.800 81.420,148.800 81.200 C 148.800 80.980,149.120 80.800,149.512 80.800 C 149.903 80.800,150.483 80.440,150.800 80.000 C 151.117 79.560,151.697 79.200,152.088 79.200 C 152.480 79.200,152.800 79.020,152.800 78.800 C 152.800 78.580,153.160 78.400,153.600 78.400 C 154.040 78.400,154.400 78.220,154.400 78.000 C 154.400 77.780,154.760 77.600,155.200 77.600 C 155.640 77.600,156.000 77.420,156.000 77.200 C 156.000 76.980,156.360 76.800,156.800 76.800 C 157.240 76.800,157.600 76.620,157.600 76.400 C 157.600 76.180,157.870 76.000,158.200 76.000 C 158.530 76.000,158.800 75.843,158.800 75.652 C 158.800 75.460,159.700 75.184,160.800 75.038 C 161.900 74.892,162.800 74.599,162.800 74.386 C 162.800 74.174,163.340 74.000,164.000 74.000 C 164.660 74.000,165.200 73.820,165.200 73.600 C 165.200 73.380,165.560 73.200,166.000 73.200 C 166.440 73.200,166.800 73.020,166.800 72.800 C 166.800 72.580,167.520 72.400,168.400 72.400 C 169.280 72.400,170.000 72.220,170.000 72.000 C 170.000 71.780,170.540 71.600,171.200 71.600 C 171.860 71.600,172.400 71.420,172.400 71.200 C 172.400 70.980,173.030 70.800,173.800 70.800 C 174.570 70.800,175.200 70.620,175.200 70.400 C 175.200 70.180,175.920 70.000,176.800 70.000 C 177.680 70.000,178.400 69.820,178.400 69.600 C 178.400 69.378,179.467 69.200,180.800 69.200 C 182.133 69.200,183.200 69.022,183.200 68.800 C 183.200 68.567,184.533 68.400,186.400 68.400 C 188.267 68.400,189.600 68.233,189.600 68.000 C 189.600 67.743,193.467 67.600,200.400 67.600 C 207.333 67.600,211.200 67.743,211.200 68.000 M195.600 132.800 C 195.600 133.020,194.610 133.200,193.400 133.200 C 192.190 133.200,191.200 133.380,191.200 133.600 C 191.200 133.820,190.660 134.000,190.000 134.000 C 189.340 134.000,188.800 134.180,188.800 134.400 C 188.800 134.620,188.260 134.800,187.600 134.800 C 186.940 134.800,186.400 134.980,186.400 135.200 C 186.400 135.420,186.040 135.600,185.600 135.600 C 185.160 135.600,184.800 135.780,184.800 136.000 C 184.800 136.220,184.440 136.400,184.000 136.400 C 183.560 136.400,183.200 136.580,183.200 136.800 C 183.200 137.020,182.880 137.200,182.488 137.200 C 182.097 137.200,181.517 137.560,181.200 138.000 C 180.883 138.440,180.379 138.800,180.079 138.800 C 179.370 138.800,172.400 145.770,172.400 146.479 C 172.400 146.779,172.040 147.283,171.600 147.600 C 171.160 147.917,170.800 148.497,170.800 148.888 C 170.800 149.280,170.620 149.600,170.400 149.600 C 170.180 149.600,170.000 149.960,170.000 150.400 C 170.000 150.840,169.820 151.200,169.600 151.200 C 169.380 151.200,169.200 151.560,169.200 152.000 C 169.200 152.440,169.020 152.800,168.800 152.800 C 168.580 152.800,168.400 153.160,168.400 153.600 C 168.400 154.040,168.220 154.400,168.000 154.400 C 167.780 154.400,167.600 154.940,167.600 155.600 C 167.600 156.260,167.420 156.800,167.200 156.800 C 166.980 156.800,166.800 157.610,166.800 158.600 C 166.800 159.590,166.620 160.400,166.400 160.400 C 166.150 160.400,166.000 162.800,166.000 166.800 C 166.000 170.800,166.150 173.200,166.400 173.200 C 166.620 173.200,166.800 174.010,166.800 175.000 C 166.800 175.990,166.980 176.800,167.200 176.800 C 167.420 176.800,167.600 177.340,167.600 178.000 C 167.600 178.660,167.780 179.200,168.000 179.200 C 168.220 179.200,168.400 179.560,168.400 180.000 C 168.400 180.440,168.580 180.800,168.800 180.800 C 169.020 180.800,169.200 181.160,169.200 181.600 C 169.200 182.040,169.380 182.400,169.600 182.400 C 169.820 182.400,170.000 182.760,170.000 183.200 C 170.000 183.640,170.180 184.000,170.400 184.000 C 170.620 184.000,170.800 184.288,170.800 184.640 C 170.800 184.991,171.340 185.783,172.000 186.400 C 172.660 187.017,173.200 187.733,173.200 187.992 C 173.200 188.607,177.793 193.200,178.408 193.200 C 178.667 193.200,179.383 193.740,180.000 194.400 C 180.617 195.060,181.409 195.600,181.760 195.600 C 182.112 195.600,182.400 195.780,182.400 196.000 C 182.400 196.220,182.760 196.400,183.200 196.400 C 183.640 196.400,184.000 196.580,184.000 196.800 C 184.000 197.020,184.360 197.200,184.800 197.200 C 185.240 197.200,185.600 197.380,185.600 197.600 C 185.600 197.820,185.960 198.000,186.400 198.000 C 186.840 198.000,187.200 198.180,187.200 198.400 C 187.200 198.620,187.740 198.800,188.400 198.800 C 189.060 198.800,189.600 198.980,189.600 199.200 C 189.600 199.420,190.230 199.600,191.000 199.600 C 191.770 199.600,192.400 199.780,192.400 200.000 C 192.400 200.253,195.333 200.400,200.400 200.400 C 205.467 200.400,208.400 200.253,208.400 200.000 C 208.400 199.780,208.850 199.600,209.400 199.600 C 209.950 199.600,210.400 199.420,210.400 199.200 C 210.400 198.980,210.940 198.800,211.600 198.800 C 212.260 198.800,212.800 198.620,212.800 198.400 C 212.800 198.180,213.160 198.000,213.600 198.000 C 214.040 198.000,214.400 197.820,214.400 197.600 C 214.400 197.380,214.760 197.200,215.200 197.200 C 215.640 197.200,216.000 197.020,216.000 196.800 C 216.000 196.580,216.360 196.400,216.800 196.400 C 217.240 196.400,217.600 196.220,217.600 196.000 C 217.600 195.780,217.888 195.600,218.240 195.600 C 218.591 195.600,219.383 195.060,220.000 194.400 C 220.617 193.740,221.333 193.200,221.592 193.200 C 222.249 193.200,226.800 188.586,226.800 187.920 C 226.800 187.621,227.160 187.117,227.600 186.800 C 228.040 186.483,228.400 185.943,228.400 185.600 C 228.400 185.257,228.760 184.717,229.200 184.400 C 229.640 184.083,230.000 183.503,230.000 183.112 C 230.000 182.720,230.180 182.400,230.400 182.400 C 230.620 182.400,230.800 182.040,230.800 181.600 C 230.800 181.160,230.980 180.800,231.200 180.800 C 231.420 180.800,231.600 180.440,231.600 180.000 C 231.600 179.560,231.780 179.200,232.000 179.200 C 232.220 179.200,232.400 178.480,232.400 177.600 C 232.400 176.720,232.580 176.000,232.800 176.000 C 233.020 176.000,233.200 175.370,233.200 174.600 C 233.200 173.830,233.380 173.200,233.600 173.200 C 233.850 173.200,234.000 170.800,234.000 166.800 C 234.000 162.800,233.850 160.400,233.600 160.400 C 233.380 160.400,233.200 159.590,233.200 158.600 C 233.200 157.610,233.020 156.800,232.800 156.800 C 232.580 156.800,232.400 156.260,232.400 155.600 C 232.400 154.940,232.220 154.400,232.000 154.400 C 231.780 154.400,231.600 154.040,231.600 153.600 C 231.600 153.160,231.420 152.800,231.200 152.800 C 230.980 152.800,230.800 152.440,230.800 152.000 C 230.800 151.560,230.620 151.200,230.400 151.200 C 230.180 151.200,230.000 150.840,230.000 150.400 C 230.000 149.960,229.820 149.600,229.600 149.600 C 229.380 149.600,229.200 149.280,229.200 148.888 C 229.200 148.497,228.840 147.917,228.400 147.600 C 227.960 147.283,227.600 146.779,227.600 146.479 C 227.600 145.770,220.630 138.800,219.921 138.800 C 219.621 138.800,219.117 138.440,218.800 138.000 C 218.483 137.560,217.903 137.200,217.512 137.200 C 217.120 137.200,216.800 137.020,216.800 136.800 C 216.800 136.580,216.440 136.400,216.000 136.400 C 215.560 136.400,215.200 136.220,215.200 136.000 C 215.200 135.780,214.840 135.600,214.400 135.600 C 213.960 135.600,213.600 135.420,213.600 135.200 C 213.600 134.980,213.060 134.800,212.400 134.800 C 211.740 134.800,211.200 134.620,211.200 134.400 C 211.200 134.180,210.660 134.000,210.000 134.000 C 209.340 134.000,208.800 133.820,208.800 133.600 C 208.800 133.380,207.810 133.200,206.600 133.200 C 205.390 133.200,204.400 133.020,204.400 132.800 C 204.400 132.558,202.667 132.400,200.000 132.400 C 197.333 132.400,195.600 132.558,195.600 132.800 " stroke="none" fill="#faa649" fill-rule="evenodd"></path><path id="path1" d="" stroke="none" fill="#faa649" fill-rule="evenodd"></path><path id="path2" d="" stroke="none" fill="#faa649" fill-rule="evenodd"></path><path id="path3" d="" stroke="none" fill="#faa649" fill-rule="evenodd"></path><path id="path4" d="" stroke="none" fill="#faa649" fill-rule="evenodd"></path></g></svg>