<svg id="svg" version="1.1" xmlns="http://www.w3.org/2000/svg" xmlns:xlink="http://www.w3.org/1999/xlink" width="400" height="400" viewBox="0, 0, 400,400"><g id="svgg"><path id="path0" d="M108.400 87.600 C 108.400 87.820,107.500 88.000,106.400 88.000 C 105.300 88.000,104.400 88.180,104.400 88.400 C 104.400 88.620,103.860 88.800,103.200 88.800 C 102.540 88.800,102.000 88.980,102.000 89.200 C 102.000 89.420,101.460 89.600,100.800 89.600 C 100.140 89.600,99.600 89.780,99.600 90.000 C 99.600 90.220,99.060 90.400,98.400 90.400 C 97.740 90.400,97.200 90.560,97.200 90.755 C 97.200 90.951,96.588 91.226,95.840 91.366 C 95.092 91.506,94.258 91.890,93.985 92.218 C 93.713 92.546,92.840 93.119,92.045 93.490 C 91.250 93.862,90.123 94.668,89.540 95.283 C 88.956 95.897,88.279 96.400,88.035 96.400 C 87.411 96.400,79.200 104.678,79.200 105.307 C 79.200 105.591,78.840 106.083,78.400 106.400 C 77.960 106.717,77.600 107.278,77.600 107.646 C 77.600 108.013,77.339 108.415,77.019 108.537 C 76.391 108.778,74.800 111.962,74.800 112.978 C 74.800 113.320,74.620 113.600,74.400 113.600 C 74.180 113.600,74.000 114.140,74.000 114.800 C 74.000 115.460,73.820 116.000,73.600 116.000 C 73.380 116.000,73.200 116.360,73.200 116.800 C 73.200 117.240,73.020 117.600,72.800 117.600 C 72.580 117.600,72.400 118.140,72.400 118.800 C 72.400 119.460,72.220 120.000,72.000 120.000 C 71.780 120.000,71.600 120.360,71.600 120.800 C 71.600 121.333,71.333 121.600,70.800 121.600 C 70.360 121.600,70.000 121.780,70.000 122.000 C 70.000 122.220,69.460 122.400,68.800 122.400 C 68.140 122.400,67.600 122.580,67.600 122.800 C 67.600 123.020,67.060 123.200,66.400 123.200 C 65.740 123.200,65.200 123.380,65.200 123.600 C 65.200 123.820,64.840 124.000,64.400 124.000 C 63.960 124.000,63.600 124.180,63.600 124.400 C 63.600 124.620,63.320 124.800,62.978 124.800 C 61.962 124.800,58.778 126.391,58.537 127.019 C 58.415 127.339,58.013 127.600,57.646 127.600 C 57.278 127.600,56.717 127.960,56.400 128.400 C 56.083 128.840,55.591 129.200,55.307 129.200 C 54.678 129.200,46.400 137.411,46.400 138.035 C 46.400 138.279,45.905 138.956,45.300 139.540 C 44.695 140.123,43.938 141.140,43.618 141.800 C 43.298 142.460,42.698 143.387,42.285 143.861 C 41.872 144.334,41.435 145.459,41.315 146.361 C 41.194 147.262,40.938 148.000,40.747 148.000 C 40.556 148.000,40.400 148.360,40.400 148.800 C 40.400 149.240,40.220 149.600,40.000 149.600 C 39.780 149.600,39.600 150.140,39.600 150.800 C 39.600 151.460,39.420 152.000,39.200 152.000 C 38.980 152.000,38.800 152.540,38.800 153.200 C 38.800 153.860,38.620 154.400,38.400 154.400 C 38.180 154.400,38.000 155.300,38.000 156.400 C 38.000 157.500,37.820 158.400,37.600 158.400 C 37.346 158.400,37.200 161.467,37.200 166.800 C 37.200 172.133,37.346 175.200,37.600 175.200 C 37.820 175.200,38.000 176.100,38.000 177.200 C 38.000 178.300,38.180 179.200,38.400 179.200 C 38.620 179.200,38.800 179.740,38.800 180.400 C 38.800 181.060,38.980 181.600,39.200 181.600 C 39.420 181.600,39.600 182.140,39.600 182.800 C 39.600 183.460,39.780 184.000,40.000 184.000 C 40.220 184.000,40.400 184.360,40.400 184.800 C 40.400 185.240,40.580 185.600,40.800 185.600 C 41.020 185.600,41.200 185.897,41.200 186.260 C 41.200 187.204,43.229 191.280,44.081 192.047 C 44.477 192.403,44.800 192.916,44.800 193.186 C 44.800 193.457,45.340 194.183,46.000 194.800 C 46.660 195.417,47.200 196.122,47.200 196.367 C 47.200 196.949,53.051 202.800,53.633 202.800 C 53.878 202.800,54.583 203.340,55.200 204.000 C 55.817 204.660,56.543 205.200,56.814 205.200 C 57.084 205.200,57.597 205.523,57.953 205.919 C 58.720 206.771,62.796 208.800,63.740 208.800 C 64.103 208.800,64.400 208.980,64.400 209.200 C 64.400 209.420,64.760 209.600,65.200 209.600 C 65.640 209.600,66.000 209.780,66.000 210.000 C 66.000 210.220,66.540 210.400,67.200 210.400 C 67.860 210.400,68.400 210.580,68.400 210.800 C 68.400 211.020,68.940 211.200,69.600 211.200 C 70.260 211.200,70.800 211.380,70.800 211.600 C 70.800 211.820,71.700 212.000,72.800 212.000 C 73.900 212.000,74.800 212.180,74.800 212.400 C 74.800 212.654,77.867 212.800,83.200 212.800 C 88.533 212.800,91.600 212.654,91.600 212.400 C 91.600 212.180,92.500 212.000,93.600 212.000 C 94.700 212.000,95.600 211.820,95.600 211.600 C 95.600 211.380,96.140 211.200,96.800 211.200 C 97.460 211.200,98.000 211.020,98.000 210.800 C 98.000 210.580,98.540 210.400,99.200 210.400 C 99.860 210.400,100.400 210.220,100.400 210.000 C 100.400 209.780,100.925 209.600,101.567 209.600 C 102.208 209.600,102.793 209.435,102.867 209.233 C 103.307 208.022,105.919 208.342,107.253 209.772 C 108.379 210.978,111.880 214.499,123.694 226.306 C 128.202 230.812,134.000 236.825,134.000 236.996 C 134.000 237.108,121.490 237.200,106.200 237.200 C 87.933 237.200,78.400 237.337,78.400 237.600 C 78.400 237.820,78.040 238.000,77.600 238.000 C 77.160 238.000,76.800 238.180,76.800 238.400 C 76.800 238.620,76.452 238.800,76.027 238.800 C 75.602 238.800,75.140 239.160,75.000 239.600 C 74.860 240.040,74.490 240.400,74.176 240.400 C 73.542 240.400,72.326 241.361,69.748 243.900 C 68.798 244.835,67.830 245.600,67.597 245.600 C 67.039 245.600,64.400 248.249,64.400 248.809 C 64.400 249.048,63.320 250.304,62.000 251.600 C 60.680 252.896,59.600 254.159,59.600 254.406 C 59.600 254.654,59.375 255.108,59.100 255.415 C 57.856 256.802,57.600 257.206,57.600 257.783 C 57.600 258.122,57.448 258.400,57.261 258.400 C 56.672 258.400,55.200 259.870,55.200 260.459 C 55.200 260.769,54.840 261.283,54.400 261.600 C 53.960 261.917,53.600 262.497,53.600 262.888 C 53.600 263.280,53.420 263.600,53.200 263.600 C 52.980 263.600,52.800 263.960,52.800 264.400 C 52.800 264.840,52.620 265.200,52.400 265.200 C 52.180 265.200,52.000 265.520,52.000 265.912 C 52.000 266.303,51.640 266.883,51.200 267.200 C 50.760 267.517,50.400 268.097,50.400 268.488 C 50.400 268.880,50.220 269.200,50.000 269.200 C 49.780 269.200,49.600 269.560,49.600 270.000 C 49.600 270.440,49.420 270.800,49.200 270.800 C 48.980 270.800,48.800 271.160,48.800 271.600 C 48.800 272.040,48.620 272.400,48.400 272.400 C 48.180 272.400,48.000 272.940,48.000 273.600 C 48.000 274.260,47.820 274.800,47.600 274.800 C 47.380 274.800,47.200 275.070,47.200 275.400 C 47.200 275.730,47.020 276.000,46.800 276.000 C 46.580 276.000,46.400 276.360,46.400 276.800 C 46.400 277.240,46.220 277.600,46.000 277.600 C 45.780 277.600,45.600 278.140,45.600 278.800 C 45.600 279.460,45.420 280.000,45.200 280.000 C 44.980 280.000,44.800 280.540,44.800 281.200 C 44.800 281.860,44.620 282.400,44.400 282.400 C 44.180 282.400,44.000 282.760,44.000 283.200 C 44.000 283.640,43.820 284.000,43.600 284.000 C 43.380 284.000,43.200 284.720,43.200 285.600 C 43.200 286.480,43.020 287.200,42.800 287.200 C 42.580 287.200,42.400 287.729,42.400 288.376 C 42.400 289.023,42.230 289.658,42.023 289.786 C 41.816 289.914,41.523 291.274,41.372 292.809 C 41.220 294.344,40.940 295.600,40.748 295.600 C 40.557 295.600,40.400 296.320,40.400 297.200 C 40.400 298.080,40.220 298.800,40.000 298.800 C 39.778 298.800,39.600 299.867,39.600 301.200 C 39.600 302.533,39.422 303.600,39.200 303.600 C 38.974 303.600,38.800 304.733,38.800 306.200 C 38.800 307.667,38.626 308.800,38.400 308.800 C 38.163 308.800,38.000 310.267,38.000 312.400 C 38.000 314.533,37.837 316.000,37.600 316.000 C 37.343 316.000,37.200 319.933,37.200 327.000 C 37.200 334.067,37.343 338.000,37.600 338.000 C 37.820 338.000,38.000 338.474,38.000 339.053 C 38.000 340.027,39.273 341.600,40.061 341.600 C 40.248 341.600,40.400 341.960,40.400 342.400 C 40.400 342.842,40.667 343.200,40.997 343.200 C 41.325 343.200,41.818 343.560,42.093 344.000 C 42.368 344.440,42.909 344.800,43.296 344.800 C 43.683 344.800,44.000 344.980,44.000 345.200 C 44.000 345.420,44.360 345.600,44.800 345.600 C 45.240 345.600,45.600 345.780,45.600 346.000 C 45.600 346.266,97.333 346.400,200.000 346.400 C 302.667 346.400,354.400 346.266,354.400 346.000 C 354.400 345.780,354.760 345.600,355.200 345.600 C 355.640 345.600,356.000 345.420,356.000 345.200 C 356.000 344.980,356.320 344.800,356.712 344.800 C 357.103 344.800,357.683 344.440,358.000 344.000 C 358.317 343.560,358.807 343.200,359.088 343.200 C 359.370 343.200,359.600 342.852,359.600 342.427 C 359.600 342.002,359.960 341.540,360.400 341.400 C 360.840 341.260,361.200 340.798,361.200 340.373 C 361.200 339.948,361.380 339.600,361.600 339.600 C 361.820 339.600,362.000 339.240,362.000 338.800 C 362.000 338.360,362.180 338.000,362.400 338.000 C 362.651 338.000,362.800 335.400,362.800 331.000 C 362.800 326.600,362.651 324.000,362.400 324.000 C 362.156 324.000,362.000 322.133,362.000 319.200 C 362.000 316.267,361.844 314.400,361.600 314.400 C 361.365 314.400,361.200 313.000,361.200 311.000 C 361.200 309.000,361.035 307.600,360.800 307.600 C 360.567 307.600,360.400 306.267,360.400 304.400 C 360.400 302.533,360.233 301.200,360.000 301.200 C 359.780 301.200,359.600 300.300,359.600 299.200 C 359.600 298.100,359.441 297.200,359.248 297.200 C 359.054 297.200,358.767 295.490,358.610 293.400 C 358.454 291.310,358.162 289.600,357.963 289.600 C 357.763 289.600,357.600 289.060,357.600 288.400 C 357.600 287.740,357.420 287.200,357.200 287.200 C 356.980 287.200,356.800 286.480,356.800 285.600 C 356.800 284.720,356.620 284.000,356.400 284.000 C 356.180 284.000,356.000 283.460,356.000 282.800 C 356.000 282.140,355.820 281.600,355.600 281.600 C 355.380 281.600,355.200 281.240,355.200 280.800 C 355.200 280.360,355.020 280.000,354.800 280.000 C 354.580 280.000,354.400 279.460,354.400 278.800 C 354.400 278.140,354.220 277.600,354.000 277.600 C 353.780 277.600,353.600 277.240,353.600 276.800 C 353.600 276.360,353.420 276.000,353.200 276.000 C 352.980 276.000,352.800 275.550,352.800 275.000 C 352.800 274.450,352.620 274.000,352.400 274.000 C 352.180 274.000,352.000 273.640,352.000 273.200 C 352.000 272.760,351.820 272.400,351.600 272.400 C 351.380 272.400,351.200 272.040,351.200 271.600 C 351.200 271.160,351.020 270.800,350.800 270.800 C 350.580 270.800,350.400 270.480,350.400 270.088 C 350.400 269.697,350.040 269.117,349.600 268.800 C 349.160 268.483,348.800 267.903,348.800 267.512 C 348.800 267.120,348.620 266.800,348.400 266.800 C 348.180 266.800,348.000 266.440,348.000 266.000 C 348.000 265.560,347.820 265.200,347.600 265.200 C 347.380 265.200,347.200 264.880,347.200 264.488 C 347.200 264.097,346.840 263.517,346.400 263.200 C 345.960 262.883,345.600 262.343,345.600 262.000 C 345.600 261.657,345.240 261.117,344.800 260.800 C 344.360 260.483,344.000 259.903,344.000 259.512 C 344.000 259.120,343.848 258.800,343.661 258.800 C 343.035 258.800,341.600 257.313,341.600 256.664 C 341.600 256.310,340.790 255.211,339.800 254.221 C 338.810 253.231,338.000 252.228,338.000 251.993 C 338.000 251.357,328.041 241.600,327.392 241.600 C 326.765 241.600,324.800 239.767,324.800 239.182 C 324.800 238.972,324.440 238.800,324.000 238.800 C 323.560 238.800,323.200 238.620,323.200 238.400 C 323.200 238.180,322.840 238.000,322.400 238.000 C 321.960 238.000,321.600 237.820,321.600 237.600 C 321.600 237.337,312.067 237.200,293.800 237.200 C 278.510 237.200,266.000 237.108,266.000 236.996 C 266.000 236.826,271.795 230.814,276.253 226.359 C 288.022 214.597,291.621 210.978,292.731 209.788 C 294.046 208.378,297.460 208.028,297.933 209.255 C 298.007 209.445,298.412 209.600,298.833 209.600 C 299.255 209.600,299.600 209.780,299.600 210.000 C 299.600 210.220,300.140 210.400,300.800 210.400 C 301.460 210.400,302.000 210.580,302.000 210.800 C 302.000 211.020,302.540 211.200,303.200 211.200 C 303.860 211.200,304.400 211.380,304.400 211.600 C 304.400 211.820,305.300 212.000,306.400 212.000 C 307.500 212.000,308.400 212.180,308.400 212.400 C 308.400 212.654,311.467 212.800,316.800 212.800 C 322.133 212.800,325.200 212.654,325.200 212.400 C 325.200 212.180,326.100 212.000,327.200 212.000 C 328.300 212.000,329.200 211.820,329.200 211.600 C 329.200 211.380,329.740 211.200,330.400 211.200 C 331.060 211.200,331.600 211.020,331.600 210.800 C 331.600 210.580,332.140 210.400,332.800 210.400 C 333.460 210.400,334.000 210.220,334.000 210.000 C 334.000 209.780,334.360 209.600,334.800 209.600 C 335.240 209.600,335.600 209.436,335.600 209.235 C 335.600 209.034,336.320 208.749,337.200 208.600 C 338.080 208.451,338.800 208.209,338.800 208.062 C 338.800 207.916,339.385 207.540,340.100 207.228 C 340.815 206.916,341.691 206.332,342.047 205.930 C 342.403 205.529,342.916 205.200,343.186 205.200 C 343.457 205.200,344.183 204.660,344.800 204.000 C 345.417 203.340,346.122 202.800,346.367 202.800 C 346.949 202.800,352.800 196.949,352.800 196.367 C 352.800 196.122,353.340 195.417,354.000 194.800 C 354.660 194.183,355.200 193.457,355.200 193.186 C 355.200 192.916,355.529 192.403,355.930 192.047 C 356.332 191.691,356.916 190.815,357.228 190.100 C 357.540 189.385,357.916 188.800,358.062 188.800 C 358.209 188.800,358.451 188.080,358.600 187.200 C 358.749 186.320,359.034 185.600,359.235 185.600 C 359.436 185.600,359.600 185.240,359.600 184.800 C 359.600 184.360,359.780 184.000,360.000 184.000 C 360.220 184.000,360.400 183.460,360.400 182.800 C 360.400 182.140,360.580 181.600,360.800 181.600 C 361.020 181.600,361.200 181.060,361.200 180.400 C 361.200 179.740,361.380 179.200,361.600 179.200 C 361.820 179.200,362.000 178.300,362.000 177.200 C 362.000 176.100,362.180 175.200,362.400 175.200 C 362.655 175.200,362.800 172.000,362.800 166.400 C 362.800 160.800,362.655 157.600,362.400 157.600 C 362.180 157.600,362.000 156.880,362.000 156.000 C 362.000 155.120,361.820 154.400,361.600 154.400 C 361.380 154.400,361.200 153.860,361.200 153.200 C 361.200 152.540,361.020 152.000,360.800 152.000 C 360.580 152.000,360.400 151.460,360.400 150.800 C 360.400 150.140,360.220 149.600,360.000 149.600 C 359.780 149.600,359.600 149.060,359.600 148.400 C 359.600 147.740,359.420 147.200,359.200 147.200 C 358.980 147.200,358.800 146.920,358.800 146.578 C 358.800 145.669,357.340 142.614,356.620 142.016 C 356.279 141.734,356.000 141.326,356.000 141.112 C 356.000 140.897,355.460 140.217,354.800 139.600 C 354.140 138.983,353.600 138.279,353.600 138.035 C 353.600 137.411,345.322 129.200,344.693 129.200 C 344.409 129.200,343.917 128.840,343.600 128.400 C 343.283 127.960,342.722 127.600,342.354 127.600 C 341.987 127.600,341.585 127.339,341.463 127.019 C 341.222 126.391,338.038 124.800,337.022 124.800 C 336.680 124.800,336.400 124.620,336.400 124.400 C 336.400 124.180,336.040 124.000,335.600 124.000 C 335.160 124.000,334.800 123.820,334.800 123.600 C 334.800 123.380,334.260 123.200,333.600 123.200 C 332.940 123.200,332.400 123.020,332.400 122.800 C 332.400 122.580,331.860 122.400,331.200 122.400 C 330.540 122.400,330.000 122.220,330.000 122.000 C 330.000 121.780,329.640 121.600,329.200 121.600 C 328.667 121.600,328.400 121.333,328.400 120.800 C 328.400 120.360,328.220 120.000,328.000 120.000 C 327.780 120.000,327.600 119.460,327.600 118.800 C 327.600 118.140,327.420 117.600,327.200 117.600 C 326.980 117.600,326.800 117.060,326.800 116.400 C 326.800 115.740,326.620 115.200,326.400 115.200 C 326.180 115.200,326.000 114.840,326.000 114.400 C 326.000 113.960,325.820 113.600,325.600 113.600 C 325.380 113.600,325.200 113.320,325.200 112.978 C 325.200 111.962,323.609 108.778,322.981 108.537 C 322.661 108.415,322.400 108.013,322.400 107.646 C 322.400 107.278,322.040 106.717,321.600 106.400 C 321.160 106.083,320.800 105.591,320.800 105.307 C 320.800 104.678,312.589 96.400,311.965 96.400 C 311.721 96.400,311.044 95.905,310.460 95.300 C 309.877 94.695,308.860 93.938,308.200 93.618 C 307.540 93.298,306.613 92.698,306.139 92.285 C 305.666 91.872,304.541 91.435,303.639 91.315 C 302.738 91.194,302.000 90.938,302.000 90.747 C 302.000 90.556,301.640 90.400,301.200 90.400 C 300.760 90.400,300.400 90.220,300.400 90.000 C 300.400 89.780,299.860 89.600,299.200 89.600 C 298.540 89.600,298.000 89.420,298.000 89.200 C 298.000 88.980,297.460 88.800,296.800 88.800 C 296.140 88.800,295.600 88.620,295.600 88.400 C 295.600 88.180,294.700 88.000,293.600 88.000 C 292.500 88.000,291.600 87.820,291.600 87.600 C 291.600 87.346,288.533 87.200,283.200 87.200 C 277.867 87.200,274.800 87.346,274.800 87.600 C 274.800 87.820,273.900 88.000,272.800 88.000 C 271.700 88.000,270.800 88.180,270.800 88.400 C 270.800 88.620,270.260 88.800,269.600 88.800 C 268.940 88.800,268.400 88.980,268.400 89.200 C 268.400 89.420,267.860 89.600,267.200 89.600 C 266.540 89.600,266.000 89.780,266.000 90.000 C 266.000 90.220,265.640 90.400,265.200 90.400 C 264.760 90.400,264.400 90.580,264.400 90.800 C 264.400 91.020,264.103 91.200,263.740 91.200 C 262.796 91.200,258.720 93.229,257.953 94.081 C 257.597 94.477,257.084 94.800,256.814 94.800 C 256.543 94.800,255.817 95.340,255.200 96.000 C 254.583 96.660,253.878 97.200,253.633 97.200 C 253.051 97.200,247.200 103.051,247.200 103.633 C 247.200 103.878,246.660 104.583,246.000 105.200 C 245.340 105.817,244.800 106.543,244.800 106.814 C 244.800 107.084,244.477 107.597,244.081 107.953 C 243.229 108.720,241.200 112.796,241.200 113.740 C 241.200 114.103,241.020 114.400,240.800 114.400 C 240.580 114.400,240.400 114.760,240.400 115.200 C 240.400 115.640,240.220 116.000,240.000 116.000 C 239.780 116.000,239.600 116.540,239.600 117.200 C 239.600 117.860,239.420 118.400,239.200 118.400 C 238.980 118.400,238.800 119.120,238.800 120.000 C 238.800 120.880,238.620 121.600,238.400 121.600 C 238.180 121.600,238.000 122.320,238.000 123.200 C 238.000 124.080,237.820 124.800,237.600 124.800 C 237.346 124.800,237.200 127.867,237.200 133.200 C 237.200 138.533,237.346 141.600,237.600 141.600 C 237.820 141.600,238.000 142.500,238.000 143.600 C 238.000 144.700,238.180 145.600,238.400 145.600 C 238.620 145.600,238.800 146.140,238.800 146.800 C 238.800 147.460,238.980 148.000,239.200 148.000 C 239.420 148.000,239.600 148.540,239.600 149.200 C 239.600 149.860,239.780 150.400,240.000 150.400 C 240.220 150.400,240.400 150.925,240.400 151.567 C 240.400 152.208,240.565 152.793,240.767 152.867 C 241.978 153.307,241.658 155.919,240.228 157.253 C 239.435 157.994,235.660 161.726,231.839 165.547 C 228.019 169.368,224.354 173.034,223.694 173.694 C 223.034 174.354,219.344 178.044,215.494 181.894 C 211.644 185.744,207.978 189.420,207.347 190.064 C 206.716 190.707,204.805 192.571,203.100 194.207 L 200.000 197.180 196.900 194.207 C 195.195 192.571,193.284 190.707,192.653 190.064 C 192.022 189.420,188.356 185.744,184.506 181.894 C 180.656 178.044,176.966 174.354,176.306 173.694 C 175.646 173.034,171.981 169.368,168.161 165.547 C 164.340 161.726,160.573 158.001,159.788 157.269 C 158.378 155.954,158.028 152.540,159.255 152.067 C 159.445 151.993,159.600 151.588,159.600 151.167 C 159.600 150.745,159.780 150.400,160.000 150.400 C 160.220 150.400,160.400 149.860,160.400 149.200 C 160.400 148.540,160.580 148.000,160.800 148.000 C 161.020 148.000,161.200 147.460,161.200 146.800 C 161.200 146.140,161.380 145.600,161.600 145.600 C 161.820 145.600,162.000 144.700,162.000 143.600 C 162.000 142.500,162.180 141.600,162.400 141.600 C 162.654 141.600,162.800 138.533,162.800 133.200 C 162.800 127.867,162.654 124.800,162.400 124.800 C 162.180 124.800,162.000 123.900,162.000 122.800 C 162.000 121.700,161.820 120.800,161.600 120.800 C 161.380 120.800,161.200 120.260,161.200 119.600 C 161.200 118.940,161.020 118.400,160.800 118.400 C 160.580 118.400,160.400 117.860,160.400 117.200 C 160.400 116.540,160.220 116.000,160.000 116.000 C 159.780 116.000,159.600 115.640,159.600 115.200 C 159.600 114.760,159.420 114.400,159.200 114.400 C 158.980 114.400,158.800 114.103,158.800 113.740 C 158.800 112.796,156.771 108.720,155.919 107.953 C 155.523 107.597,155.200 107.084,155.200 106.814 C 155.200 106.543,154.660 105.817,154.000 105.200 C 153.340 104.583,152.800 103.878,152.800 103.633 C 152.800 103.051,146.949 97.200,146.367 97.200 C 146.122 97.200,145.417 96.660,144.800 96.000 C 144.183 95.340,143.457 94.800,143.186 94.800 C 142.916 94.800,142.403 94.477,142.047 94.081 C 141.280 93.229,137.204 91.200,136.260 91.200 C 135.897 91.200,135.600 91.020,135.600 90.800 C 135.600 90.580,135.240 90.400,134.800 90.400 C 134.360 90.400,134.000 90.220,134.000 90.000 C 134.000 89.780,133.460 89.600,132.800 89.600 C 132.140 89.600,131.600 89.420,131.600 89.200 C 131.600 88.980,130.880 88.800,130.000 88.800 C 129.120 88.800,128.400 88.620,128.400 88.400 C 128.400 88.180,127.680 88.000,126.800 88.000 C 125.920 88.000,125.200 87.820,125.200 87.600 C 125.200 87.346,122.133 87.200,116.800 87.200 C 111.467 87.200,108.400 87.346,108.400 87.600 M117.600 113.200 C 117.600 113.422,118.667 113.600,120.000 113.600 C 121.333 113.600,122.400 113.778,122.400 114.000 C 122.400 114.220,122.760 114.400,123.200 114.400 C 123.640 114.400,124.000 114.580,124.000 114.800 C 124.000 115.020,124.410 115.200,124.912 115.200 C 125.413 115.200,126.083 115.560,126.400 116.000 C 126.717 116.440,127.210 116.800,127.496 116.800 C 128.224 116.800,133.200 121.853,133.200 122.593 C 133.200 122.927,133.380 123.200,133.600 123.200 C 133.820 123.200,134.000 123.560,134.000 124.000 C 134.000 124.440,134.180 124.800,134.400 124.800 C 134.620 124.800,134.800 125.070,134.800 125.400 C 134.800 125.730,134.980 126.000,135.200 126.000 C 135.420 126.000,135.600 126.540,135.600 127.200 C 135.600 127.860,135.780 128.400,136.000 128.400 C 136.220 128.400,136.400 129.300,136.400 130.400 C 136.400 131.500,136.580 132.400,136.800 132.400 C 137.020 132.400,137.200 132.760,137.200 133.200 C 137.200 133.640,137.020 134.000,136.800 134.000 C 136.578 134.000,136.400 135.067,136.400 136.400 C 136.400 137.733,136.222 138.800,136.000 138.800 C 135.780 138.800,135.600 139.340,135.600 140.000 C 135.600 140.660,135.420 141.200,135.200 141.200 C 134.980 141.200,134.800 141.470,134.800 141.800 C 134.800 142.130,134.620 142.400,134.400 142.400 C 134.180 142.400,134.000 142.682,134.000 143.026 C 134.000 143.370,133.100 144.529,132.000 145.600 C 130.900 146.671,130.000 147.790,130.000 148.086 C 130.000 148.381,129.640 148.883,129.200 149.200 C 128.760 149.517,128.400 150.097,128.400 150.488 C 128.400 150.880,128.220 151.200,128.000 151.200 C 127.780 151.200,127.600 151.740,127.600 152.400 C 127.600 153.060,127.420 153.600,127.200 153.600 C 126.965 153.600,126.800 155.000,126.800 157.000 C 126.800 159.000,126.965 160.400,127.200 160.400 C 127.420 160.400,127.600 160.940,127.600 161.600 C 127.600 162.260,127.780 162.800,128.000 162.800 C 128.220 162.800,128.400 163.075,128.400 163.410 C 128.400 163.746,130.965 166.538,134.100 169.616 C 141.106 176.495,139.783 175.181,148.589 184.000 C 152.653 188.070,156.544 191.964,157.236 192.653 C 157.928 193.342,161.823 197.237,165.892 201.308 C 169.961 205.379,173.651 209.069,174.091 209.509 C 174.532 209.948,176.224 211.679,177.853 213.354 L 180.813 216.400 177.854 219.448 C 174.167 223.246,173.246 224.167,169.448 227.854 L 166.400 230.813 163.354 227.853 C 161.679 226.224,159.973 224.556,159.564 224.146 C 159.154 223.736,155.488 220.070,151.416 216.000 C 147.344 211.930,143.425 208.010,142.706 207.289 C 141.988 206.568,138.070 202.653,134.000 198.589 C 125.181 189.783,126.495 191.106,119.616 184.100 C 116.538 180.965,113.746 178.400,113.410 178.400 C 113.075 178.400,112.800 178.220,112.800 178.000 C 112.800 177.780,112.260 177.600,111.600 177.600 C 110.940 177.600,110.400 177.420,110.400 177.200 C 110.400 176.965,109.000 176.800,107.000 176.800 C 105.000 176.800,103.600 176.965,103.600 177.200 C 103.600 177.420,103.060 177.600,102.400 177.600 C 101.740 177.600,101.200 177.780,101.200 178.000 C 101.200 178.220,100.880 178.400,100.488 178.400 C 100.097 178.400,99.517 178.760,99.200 179.200 C 98.883 179.640,98.379 180.000,98.080 180.000 C 97.782 180.000,96.846 180.720,96.000 181.600 C 95.154 182.480,94.218 183.200,93.920 183.200 C 93.621 183.200,93.117 183.560,92.800 184.000 C 92.483 184.440,91.993 184.800,91.712 184.800 C 91.430 184.800,91.200 184.980,91.200 185.200 C 91.200 185.420,90.660 185.600,90.000 185.600 C 89.340 185.600,88.800 185.780,88.800 186.000 C 88.800 186.222,87.733 186.400,86.400 186.400 C 85.067 186.400,84.000 186.578,84.000 186.800 C 84.000 187.020,83.640 187.200,83.200 187.200 C 82.760 187.200,82.400 187.020,82.400 186.800 C 82.400 186.578,81.333 186.400,80.000 186.400 C 78.667 186.400,77.600 186.222,77.600 186.000 C 77.600 185.780,77.240 185.600,76.800 185.600 C 76.360 185.600,76.000 185.420,76.000 185.200 C 76.000 184.980,75.590 184.800,75.088 184.800 C 74.587 184.800,73.917 184.440,73.600 184.000 C 73.283 183.560,72.790 183.200,72.504 183.200 C 71.776 183.200,66.800 178.147,66.800 177.407 C 66.800 177.073,66.620 176.800,66.400 176.800 C 66.180 176.800,66.000 176.440,66.000 176.000 C 66.000 175.560,65.820 175.200,65.600 175.200 C 65.380 175.200,65.200 174.930,65.200 174.600 C 65.200 174.270,65.020 174.000,64.800 174.000 C 64.580 174.000,64.400 173.640,64.400 173.200 C 64.400 172.760,64.220 172.400,64.000 172.400 C 63.778 172.400,63.600 171.333,63.600 170.000 C 63.600 168.667,63.422 167.600,63.200 167.600 C 62.980 167.600,62.800 167.060,62.800 166.400 C 62.800 165.740,62.980 165.200,63.200 165.200 C 63.420 165.200,63.600 164.300,63.600 163.200 C 63.600 162.100,63.780 161.200,64.000 161.200 C 64.220 161.200,64.400 160.660,64.400 160.000 C 64.400 159.340,64.580 158.800,64.800 158.800 C 65.020 158.800,65.200 158.530,65.200 158.200 C 65.200 157.870,65.380 157.600,65.600 157.600 C 65.820 157.600,66.000 157.327,66.000 156.994 C 66.000 156.205,72.605 149.600,73.394 149.600 C 73.727 149.600,74.000 149.420,74.000 149.200 C 74.000 148.980,74.270 148.800,74.600 148.800 C 74.930 148.800,75.200 148.620,75.200 148.400 C 75.200 148.180,75.560 148.000,76.000 148.000 C 76.440 148.000,76.800 147.820,76.800 147.600 C 76.800 147.380,77.520 147.200,78.400 147.200 C 79.280 147.200,80.000 147.020,80.000 146.800 C 80.000 146.563,81.467 146.400,83.600 146.400 C 85.733 146.400,87.200 146.237,87.200 146.000 C 87.200 145.780,87.740 145.600,88.400 145.600 C 89.060 145.600,89.600 145.420,89.600 145.200 C 89.600 144.980,89.960 144.800,90.400 144.800 C 90.840 144.800,91.200 144.626,91.200 144.413 C 91.200 143.910,93.910 141.200,94.413 141.200 C 94.626 141.200,94.800 140.840,94.800 140.400 C 94.800 139.960,94.980 139.600,95.200 139.600 C 95.420 139.600,95.600 139.060,95.600 138.400 C 95.600 137.740,95.780 137.200,96.000 137.200 C 96.237 137.200,96.400 135.733,96.400 133.600 C 96.400 131.467,96.563 130.000,96.800 130.000 C 97.020 130.000,97.200 129.280,97.200 128.400 C 97.200 127.520,97.380 126.800,97.600 126.800 C 97.820 126.800,98.000 126.440,98.000 126.000 C 98.000 125.560,98.180 125.200,98.400 125.200 C 98.620 125.200,98.800 124.930,98.800 124.600 C 98.800 124.270,98.980 124.000,99.200 124.000 C 99.420 124.000,99.600 123.727,99.600 123.394 C 99.600 122.656,105.377 116.800,106.105 116.800 C 106.390 116.800,106.883 116.440,107.200 116.000 C 107.517 115.560,108.007 115.200,108.288 115.200 C 108.570 115.200,108.800 115.020,108.800 114.800 C 108.800 114.580,109.340 114.400,110.000 114.400 C 110.660 114.400,111.200 114.220,111.200 114.000 C 111.200 113.778,112.267 113.600,113.600 113.600 C 114.933 113.600,116.000 113.422,116.000 113.200 C 116.000 112.980,116.360 112.800,116.800 112.800 C 117.240 112.800,117.600 112.980,117.600 113.200 M284.000 113.200 C 284.000 113.422,285.067 113.600,286.400 113.600 C 287.733 113.600,288.800 113.778,288.800 114.000 C 288.800 114.220,289.340 114.400,290.000 114.400 C 290.660 114.400,291.200 114.580,291.200 114.800 C 291.200 115.020,291.470 115.200,291.800 115.200 C 292.130 115.200,292.400 115.380,292.400 115.600 C 292.400 115.820,292.673 116.000,293.006 116.000 C 293.795 116.000,300.400 122.605,300.400 123.394 C 300.400 123.727,300.580 124.000,300.800 124.000 C 301.020 124.000,301.200 124.270,301.200 124.600 C 301.200 124.930,301.380 125.200,301.600 125.200 C 301.820 125.200,302.000 125.560,302.000 126.000 C 302.000 126.440,302.180 126.800,302.400 126.800 C 302.620 126.800,302.800 127.520,302.800 128.400 C 302.800 129.280,302.980 130.000,303.200 130.000 C 303.437 130.000,303.600 131.467,303.600 133.600 C 303.600 135.733,303.763 137.200,304.000 137.200 C 304.220 137.200,304.400 137.740,304.400 138.400 C 304.400 139.060,304.580 139.600,304.800 139.600 C 305.020 139.600,305.200 139.960,305.200 140.400 C 305.200 140.840,305.374 141.200,305.587 141.200 C 306.090 141.200,308.800 143.910,308.800 144.413 C 308.800 144.626,309.160 144.800,309.600 144.800 C 310.040 144.800,310.400 144.980,310.400 145.200 C 310.400 145.420,310.940 145.600,311.600 145.600 C 312.260 145.600,312.800 145.780,312.800 146.000 C 312.800 146.237,314.267 146.400,316.400 146.400 C 318.533 146.400,320.000 146.563,320.000 146.800 C 320.000 147.020,320.720 147.200,321.600 147.200 C 322.480 147.200,323.200 147.380,323.200 147.600 C 323.200 147.820,323.560 148.000,324.000 148.000 C 324.440 148.000,324.800 148.180,324.800 148.400 C 324.800 148.620,325.070 148.800,325.400 148.800 C 325.730 148.800,326.000 148.980,326.000 149.200 C 326.000 149.420,326.273 149.600,326.606 149.600 C 326.939 149.600,328.739 151.127,330.606 152.994 C 332.473 154.861,334.000 156.661,334.000 156.994 C 334.000 157.327,334.180 157.600,334.400 157.600 C 334.620 157.600,334.800 157.870,334.800 158.200 C 334.800 158.530,334.980 158.800,335.200 158.800 C 335.420 158.800,335.600 159.340,335.600 160.000 C 335.600 160.660,335.780 161.200,336.000 161.200 C 336.220 161.200,336.400 162.100,336.400 163.200 C 336.400 164.300,336.580 165.200,336.800 165.200 C 337.020 165.200,337.200 165.740,337.200 166.400 C 337.200 167.060,337.020 167.600,336.800 167.600 C 336.578 167.600,336.400 168.667,336.400 170.000 C 336.400 171.333,336.222 172.400,336.000 172.400 C 335.780 172.400,335.600 172.940,335.600 173.600 C 335.600 174.260,335.420 174.800,335.200 174.800 C 334.980 174.800,334.800 175.030,334.800 175.312 C 334.800 175.593,334.440 176.083,334.000 176.400 C 333.560 176.717,333.200 177.210,333.200 177.496 C 333.200 178.224,328.147 183.200,327.407 183.200 C 327.073 183.200,326.800 183.380,326.800 183.600 C 326.800 183.820,326.440 184.000,326.000 184.000 C 325.560 184.000,325.200 184.180,325.200 184.400 C 325.200 184.620,324.930 184.800,324.600 184.800 C 324.270 184.800,324.000 184.980,324.000 185.200 C 324.000 185.420,323.640 185.600,323.200 185.600 C 322.760 185.600,322.400 185.780,322.400 186.000 C 322.400 186.222,321.333 186.400,320.000 186.400 C 318.667 186.400,317.600 186.578,317.600 186.800 C 317.600 187.020,317.240 187.200,316.800 187.200 C 316.360 187.200,316.000 187.020,316.000 186.800 C 316.000 186.578,314.933 186.400,313.600 186.400 C 312.267 186.400,311.200 186.222,311.200 186.000 C 311.200 185.780,310.660 185.600,310.000 185.600 C 309.340 185.600,308.800 185.420,308.800 185.200 C 308.800 184.980,308.530 184.800,308.200 184.800 C 307.870 184.800,307.600 184.620,307.600 184.400 C 307.600 184.180,307.318 184.000,306.974 184.000 C 306.630 184.000,305.471 183.100,304.400 182.000 C 303.329 180.900,302.210 180.000,301.914 180.000 C 301.619 180.000,301.117 179.640,300.800 179.200 C 300.483 178.760,299.903 178.400,299.512 178.400 C 299.120 178.400,298.800 178.220,298.800 178.000 C 298.800 177.780,298.260 177.600,297.600 177.600 C 296.940 177.600,296.400 177.420,296.400 177.200 C 296.400 176.965,295.000 176.800,293.000 176.800 C 291.000 176.800,289.600 176.965,289.600 177.200 C 289.600 177.420,289.060 177.600,288.400 177.600 C 287.740 177.600,287.200 177.780,287.200 178.000 C 287.200 178.220,286.925 178.400,286.590 178.400 C 286.254 178.400,283.462 180.965,280.384 184.100 C 273.505 191.106,274.819 189.783,266.000 198.589 C 256.959 207.617,257.617 206.959,248.589 216.000 C 244.525 220.070,240.860 223.735,240.445 224.145 C 240.030 224.555,236.882 227.660,233.448 231.045 L 227.206 237.200 213.003 237.200 C 205.191 237.200,198.800 237.108,198.800 236.996 C 198.800 236.834,205.011 230.405,209.509 225.909 C 209.950 225.470,213.640 221.780,217.710 217.710 C 221.780 213.640,225.470 209.950,225.910 209.510 C 226.350 209.070,230.063 205.355,234.161 201.255 C 243.238 192.174,242.292 193.120,251.308 184.108 C 255.379 180.039,259.045 176.373,259.455 175.961 C 259.865 175.549,262.765 172.694,265.900 169.616 C 269.035 166.538,271.600 163.746,271.600 163.410 C 271.600 163.075,271.780 162.800,272.000 162.800 C 272.220 162.800,272.400 162.260,272.400 161.600 C 272.400 160.940,272.580 160.400,272.800 160.400 C 273.035 160.400,273.200 159.000,273.200 157.000 C 273.200 155.000,273.035 153.600,272.800 153.600 C 272.580 153.600,272.400 153.060,272.400 152.400 C 272.400 151.740,272.220 151.200,272.000 151.200 C 271.780 151.200,271.600 150.880,271.600 150.488 C 271.600 150.097,271.240 149.517,270.800 149.200 C 270.360 148.883,270.000 148.381,270.000 148.086 C 270.000 147.790,269.100 146.671,268.000 145.600 C 266.900 144.529,266.000 143.370,266.000 143.026 C 266.000 142.682,265.820 142.400,265.600 142.400 C 265.380 142.400,265.200 142.130,265.200 141.800 C 265.200 141.470,265.020 141.200,264.800 141.200 C 264.580 141.200,264.400 140.660,264.400 140.000 C 264.400 139.340,264.220 138.800,264.000 138.800 C 263.778 138.800,263.600 137.733,263.600 136.400 C 263.600 135.067,263.422 134.000,263.200 134.000 C 262.980 134.000,262.800 133.640,262.800 133.200 C 262.800 132.760,262.980 132.400,263.200 132.400 C 263.422 132.400,263.600 131.333,263.600 130.000 C 263.600 128.667,263.778 127.600,264.000 127.600 C 264.220 127.600,264.400 127.240,264.400 126.800 C 264.400 126.360,264.580 126.000,264.800 126.000 C 265.020 126.000,265.200 125.590,265.200 125.088 C 265.200 124.587,265.560 123.917,266.000 123.600 C 266.440 123.283,266.800 122.790,266.800 122.504 C 266.800 121.776,271.853 116.800,272.593 116.800 C 272.927 116.800,273.200 116.620,273.200 116.400 C 273.200 116.180,273.560 116.000,274.000 116.000 C 274.440 116.000,274.800 115.820,274.800 115.600 C 274.800 115.380,275.070 115.200,275.400 115.200 C 275.730 115.200,276.000 115.020,276.000 114.800 C 276.000 114.580,276.540 114.400,277.200 114.400 C 277.860 114.400,278.400 114.220,278.400 114.000 C 278.400 113.780,279.300 113.600,280.400 113.600 C 281.500 113.600,282.400 113.420,282.400 113.200 C 282.400 112.980,282.760 112.800,283.200 112.800 C 283.640 112.800,284.000 112.980,284.000 113.200 M315.005 266.995 C 317.312 269.303,319.200 271.391,319.200 271.635 C 319.200 271.879,319.740 272.583,320.400 273.200 C 321.060 273.817,321.600 274.447,321.600 274.600 C 321.600 274.753,322.140 275.383,322.800 276.000 C 323.460 276.617,324.000 277.409,324.000 277.760 C 324.000 278.112,324.180 278.400,324.400 278.400 C 324.620 278.400,324.800 278.747,324.800 279.171 C 324.800 279.596,325.070 280.213,325.400 280.543 C 325.730 280.873,326.000 281.426,326.000 281.771 C 326.000 282.117,326.180 282.400,326.400 282.400 C 326.620 282.400,326.800 282.760,326.800 283.200 C 326.800 283.640,326.980 284.000,327.200 284.000 C 327.420 284.000,327.600 284.360,327.600 284.800 C 327.600 285.240,327.780 285.600,328.000 285.600 C 328.220 285.600,328.400 286.140,328.400 286.800 C 328.400 287.460,328.580 288.000,328.800 288.000 C 329.020 288.000,329.200 288.360,329.200 288.800 C 329.200 289.240,329.380 289.600,329.600 289.600 C 329.820 289.600,330.000 290.050,330.000 290.600 C 330.000 291.150,330.180 291.600,330.400 291.600 C 330.620 291.600,330.800 292.140,330.800 292.800 C 330.800 293.460,330.980 294.000,331.200 294.000 C 331.420 294.000,331.600 294.540,331.600 295.200 C 331.600 295.860,331.780 296.400,332.000 296.400 C 332.220 296.400,332.400 297.300,332.400 298.400 C 332.400 299.500,332.580 300.400,332.800 300.400 C 333.020 300.400,333.200 301.300,333.200 302.400 C 333.200 303.500,333.380 304.400,333.600 304.400 C 333.820 304.400,334.000 305.390,334.000 306.600 C 334.000 307.810,334.180 308.800,334.400 308.800 C 334.637 308.800,334.800 310.267,334.800 312.400 C 334.800 314.533,334.963 316.000,335.200 316.000 C 335.420 316.000,335.600 316.900,335.600 318.000 L 335.600 320.000 199.600 320.000 L 63.600 320.000 63.600 318.400 C 63.600 317.520,63.780 316.800,64.000 316.800 C 64.233 316.800,64.400 315.467,64.400 313.600 C 64.400 311.733,64.567 310.400,64.800 310.400 C 65.020 310.400,65.200 309.410,65.200 308.200 C 65.200 306.990,65.380 306.000,65.600 306.000 C 65.820 306.000,66.000 305.280,66.000 304.400 C 66.000 303.520,66.180 302.800,66.400 302.800 C 66.620 302.800,66.800 301.900,66.800 300.800 C 66.800 299.700,66.980 298.800,67.200 298.800 C 67.420 298.800,67.600 298.260,67.600 297.600 C 67.600 296.940,67.780 296.400,68.000 296.400 C 68.220 296.400,68.400 295.860,68.400 295.200 C 68.400 294.540,68.580 294.000,68.800 294.000 C 69.020 294.000,69.200 293.460,69.200 292.800 C 69.200 292.140,69.380 291.600,69.600 291.600 C 69.820 291.600,70.000 291.150,70.000 290.600 C 70.000 290.050,70.180 289.600,70.400 289.600 C 70.620 289.600,70.800 289.060,70.800 288.400 C 70.800 287.740,70.980 287.200,71.200 287.200 C 71.420 287.200,71.600 286.840,71.600 286.400 C 71.600 285.960,71.780 285.600,72.000 285.600 C 72.220 285.600,72.400 285.240,72.400 284.800 C 72.400 284.360,72.580 284.000,72.800 284.000 C 73.020 284.000,73.200 283.640,73.200 283.200 C 73.200 282.760,73.380 282.400,73.600 282.400 C 73.820 282.400,74.000 282.040,74.000 281.600 C 74.000 281.160,74.180 280.800,74.400 280.800 C 74.620 280.800,74.800 280.453,74.800 280.029 C 74.800 279.604,75.070 278.987,75.400 278.657 C 75.730 278.327,76.000 277.774,76.000 277.429 C 76.000 277.083,76.180 276.800,76.400 276.800 C 76.620 276.800,76.800 276.440,76.800 276.000 C 76.800 275.560,76.952 275.200,77.139 275.200 C 77.688 275.200,79.200 273.748,79.200 273.222 C 79.200 272.955,79.920 272.046,80.800 271.200 C 81.680 270.354,82.400 269.465,82.400 269.224 C 82.400 268.553,87.502 263.600,88.193 263.600 C 88.527 263.600,88.800 263.420,88.800 263.200 C 88.800 262.934,126.068 262.800,199.805 262.800 L 310.809 262.800 315.005 266.995 " stroke="none" fill="#4ab3ed" fill-rule="evenodd"></path><path id="path1" d="" stroke="none" fill="#4ab3ed" fill-rule="evenodd"></path><path id="path2" d="" stroke="none" fill="#4ab3ed" fill-rule="evenodd"></path><path id="path3" d="" stroke="none" fill="#4ab3ed" fill-rule="evenodd"></path><path id="path4" d="" stroke="none" fill="#4ab3ed" fill-rule="evenodd"></path></g></svg>