<svg id="svg" version="1.1" xmlns="http://www.w3.org/2000/svg" xmlns:xlink="http://www.w3.org/1999/xlink" width="400" height="400" viewBox="0, 0, 400,400"><g id="svgg"><path id="path0" d="M191.121 32.838 C 191.037 33.089,189.014 33.246,185.892 33.243 C 182.930 33.240,180.800 33.397,180.800 33.619 C 180.800 33.829,179.450 34.000,177.800 34.000 C 176.067 34.000,174.800 34.169,174.800 34.400 C 174.800 34.622,173.733 34.800,172.400 34.800 C 171.067 34.800,170.000 34.978,170.000 35.200 C 170.000 35.420,169.021 35.600,167.824 35.600 C 166.627 35.600,165.536 35.780,165.400 36.000 C 165.264 36.220,164.544 36.400,163.800 36.400 C 163.056 36.400,162.336 36.580,162.200 36.800 C 162.064 37.020,161.348 37.200,160.610 37.200 C 159.871 37.200,159.207 37.363,159.133 37.563 C 159.060 37.763,158.370 37.984,157.600 38.054 C 156.830 38.125,156.101 38.319,155.980 38.485 C 155.859 38.652,155.095 38.836,154.281 38.894 C 153.467 38.952,152.801 39.135,152.801 39.300 C 152.800 39.465,152.260 39.600,151.600 39.600 C 150.940 39.600,150.400 39.780,150.400 40.000 C 150.400 40.220,149.860 40.400,149.200 40.400 C 148.540 40.400,148.000 40.580,148.000 40.800 C 148.000 41.020,147.595 41.203,147.100 41.206 C 145.748 41.215,143.149 42.212,143.496 42.589 C 143.663 42.770,143.395 42.818,142.900 42.697 C 142.405 42.575,142.000 42.606,142.000 42.767 C 142.000 42.928,140.605 43.492,138.900 44.021 C 137.195 44.550,135.740 45.122,135.667 45.292 C 135.593 45.461,135.008 45.600,134.367 45.600 C 133.725 45.600,133.200 45.759,133.200 45.953 C 133.200 46.148,132.822 46.406,132.360 46.526 C 131.898 46.647,131.628 46.921,131.760 47.136 C 131.901 47.364,131.653 47.434,131.160 47.305 C 130.697 47.184,130.202 47.246,130.059 47.443 C 129.655 48.000,128.077 48.800,127.382 48.800 C 127.036 48.800,126.864 48.980,127.000 49.200 C 127.136 49.420,127.002 49.600,126.703 49.600 C 125.949 49.600,124.007 50.535,124.003 50.900 C 124.001 51.065,123.640 51.200,123.200 51.200 C 122.760 51.200,122.400 51.380,122.400 51.600 C 122.400 51.820,122.040 52.000,121.600 52.000 C 121.160 52.000,120.800 52.180,120.800 52.400 C 120.800 52.620,120.459 52.800,120.043 52.800 C 119.626 52.800,119.178 53.081,119.046 53.425 C 118.914 53.769,118.619 53.936,118.392 53.795 C 118.164 53.654,117.609 53.958,117.158 54.469 C 116.708 54.981,116.453 55.175,116.593 54.900 C 116.733 54.625,116.657 54.400,116.424 54.400 C 116.191 54.400,116.000 54.681,116.000 55.024 C 116.000 55.367,115.820 55.536,115.600 55.400 C 115.380 55.264,115.200 55.343,115.200 55.576 C 115.200 55.809,114.840 56.000,114.400 56.000 C 113.960 56.000,113.600 56.180,113.600 56.400 C 113.600 56.620,113.332 56.800,113.003 56.800 C 112.675 56.800,112.182 57.160,111.907 57.600 C 111.632 58.040,111.066 58.400,110.648 58.400 C 110.230 58.400,109.688 58.660,109.444 58.978 C 109.200 59.296,108.738 59.611,108.418 59.678 C 108.098 59.745,107.429 60.191,106.931 60.669 C 106.433 61.147,105.660 61.654,105.213 61.796 C 104.766 61.938,104.400 62.222,104.400 62.427 C 104.400 62.632,104.080 62.800,103.688 62.800 C 103.297 62.800,102.717 63.160,102.400 63.600 C 102.083 64.040,101.620 64.400,101.371 64.400 C 101.122 64.400,100.354 64.940,99.663 65.600 C 98.972 66.260,98.212 66.800,97.972 66.800 C 97.733 66.800,96.846 67.520,96.000 68.400 C 95.154 69.280,94.298 70.000,94.096 70.000 C 93.894 70.000,92.912 70.900,91.914 72.000 C 90.917 73.100,89.904 74.000,89.665 74.000 C 88.631 74.000,74.000 88.602,74.000 89.634 C 74.000 90.169,70.488 93.555,70.216 93.282 C 70.097 93.164,70.000 93.417,70.000 93.845 C 70.000 94.273,69.650 94.876,69.221 95.185 C 68.793 95.493,68.534 95.893,68.645 96.073 C 68.756 96.253,68.644 96.400,68.395 96.400 C 67.798 96.400,66.800 97.416,66.800 98.025 C 66.800 98.289,66.423 98.833,65.963 99.232 C 65.503 99.631,65.246 100.152,65.393 100.389 C 65.540 100.626,65.437 100.770,65.165 100.710 C 64.893 100.649,64.538 101.050,64.375 101.600 C 64.213 102.150,64.062 102.452,64.040 102.271 C 63.970 101.699,62.800 103.114,62.800 103.771 C 62.800 104.117,62.632 104.400,62.427 104.400 C 62.222 104.400,61.938 104.766,61.796 105.213 C 61.654 105.660,61.147 106.433,60.669 106.931 C 60.191 107.429,59.745 108.098,59.678 108.418 C 59.611 108.738,59.296 109.200,58.978 109.444 C 58.660 109.688,58.400 110.101,58.400 110.361 C 58.400 110.621,58.040 111.220,57.600 111.692 C 57.160 112.164,56.800 112.787,56.800 113.075 C 56.800 113.364,56.620 113.600,56.400 113.600 C 56.180 113.600,56.000 114.061,56.000 114.624 C 56.000 115.204,55.827 115.540,55.600 115.400 C 55.380 115.264,55.200 115.484,55.200 115.888 C 55.200 116.293,54.840 116.883,54.400 117.200 C 53.960 117.517,53.600 118.097,53.600 118.488 C 53.600 118.880,53.420 119.200,53.200 119.200 C 52.980 119.200,52.800 119.560,52.800 120.000 C 52.800 120.440,52.620 120.800,52.400 120.800 C 52.180 120.800,52.000 121.160,52.000 121.600 C 52.000 122.040,51.820 122.400,51.600 122.400 C 51.380 122.400,51.200 122.760,51.200 123.200 C 51.200 123.640,51.020 124.000,50.800 124.000 C 50.580 124.000,50.400 124.360,50.400 124.800 C 50.400 125.240,50.220 125.600,50.000 125.600 C 49.780 125.600,49.600 125.971,49.600 126.424 C 49.600 126.877,49.420 127.136,49.200 127.000 C 48.980 126.864,48.800 127.028,48.800 127.364 C 48.800 127.701,48.437 128.623,47.992 129.414 C 47.548 130.205,47.290 131.021,47.418 131.229 C 47.546 131.436,47.369 131.714,47.025 131.846 C 46.681 131.978,46.400 132.516,46.400 133.043 C 46.400 133.569,46.220 134.000,46.000 134.000 C 45.780 134.000,45.600 134.360,45.600 134.800 C 45.600 135.240,45.420 135.600,45.200 135.600 C 44.980 135.600,44.800 135.924,44.800 136.320 C 44.800 136.716,44.584 137.256,44.320 137.520 C 44.056 137.784,43.968 138.000,44.125 138.000 C 44.282 138.000,44.148 138.630,43.826 139.400 C 43.504 140.170,43.334 140.800,43.449 140.800 C 43.563 140.800,43.382 141.075,43.046 141.412 C 42.709 141.748,42.536 142.288,42.660 142.612 C 42.784 142.935,42.730 143.200,42.540 143.200 C 42.141 143.200,41.200 146.003,41.200 147.194 C 41.200 147.637,41.020 148.000,40.800 148.000 C 40.580 148.000,40.400 148.540,40.400 149.200 C 40.400 149.860,40.220 150.400,40.000 150.400 C 39.780 150.400,39.600 150.940,39.600 151.600 C 39.600 152.260,39.457 152.800,39.282 152.800 C 39.107 152.800,38.918 153.470,38.863 154.288 C 38.808 155.106,38.633 155.871,38.473 155.988 C 38.313 156.105,38.125 156.830,38.054 157.600 C 37.984 158.370,37.763 159.060,37.563 159.133 C 37.363 159.207,37.200 159.882,37.200 160.633 C 37.200 161.385,37.049 162.000,36.865 162.000 C 36.681 162.000,36.498 162.855,36.458 163.900 C 36.419 164.945,36.210 165.860,35.994 165.933 C 35.777 166.007,35.600 166.952,35.600 168.033 C 35.600 169.115,35.420 170.000,35.200 170.000 C 34.978 170.000,34.800 171.067,34.800 172.400 C 34.800 173.733,34.622 174.800,34.400 174.800 C 34.169 174.800,34.000 176.067,34.000 177.800 C 34.000 179.450,33.835 180.800,33.634 180.800 C 33.433 180.800,33.250 183.095,33.227 185.900 C 33.204 188.705,33.015 191.058,32.807 191.128 C 32.283 191.307,32.277 209.600,32.802 209.600 C 33.044 209.600,33.200 211.468,33.200 214.367 C 33.200 217.260,33.361 219.187,33.609 219.270 C 33.834 219.345,34.031 220.709,34.045 222.303 C 34.060 223.896,34.236 225.200,34.436 225.200 C 34.636 225.200,34.800 226.280,34.800 227.600 C 34.800 228.933,34.978 230.000,35.200 230.000 C 35.422 230.000,35.600 231.067,35.600 232.400 C 35.600 233.733,35.778 234.800,36.000 234.800 C 36.220 234.800,36.400 235.520,36.400 236.400 C 36.400 237.280,36.580 238.000,36.800 238.000 C 37.020 238.000,37.200 238.731,37.200 239.624 C 37.200 240.604,37.358 241.149,37.600 241.000 C 37.842 240.851,38.000 241.396,38.000 242.376 C 38.000 243.269,38.180 244.000,38.400 244.000 C 38.620 244.000,38.800 244.720,38.800 245.600 C 38.800 246.480,38.980 247.200,39.200 247.200 C 39.420 247.200,39.600 247.740,39.600 248.400 C 39.600 249.060,39.780 249.600,40.000 249.600 C 40.220 249.600,40.400 250.140,40.400 250.800 C 40.400 251.460,40.580 252.000,40.800 252.000 C 41.020 252.000,41.200 252.392,41.200 252.872 C 41.200 253.984,42.076 256.514,42.586 256.878 C 42.801 257.031,42.857 257.276,42.711 257.422 C 42.565 257.568,42.795 258.340,43.223 259.138 C 43.650 259.936,44.000 260.871,44.000 261.218 C 44.000 261.564,44.250 262.189,44.556 262.607 C 44.861 263.025,45.022 263.599,44.913 263.883 C 44.804 264.167,44.914 264.400,45.157 264.400 C 45.401 264.400,45.600 264.940,45.600 265.600 C 45.600 266.260,45.780 266.800,46.000 266.800 C 46.220 266.800,46.400 267.076,46.400 267.413 C 46.400 267.749,46.650 268.121,46.956 268.238 C 47.277 268.362,47.426 268.778,47.309 269.226 C 47.198 269.652,47.308 270.000,47.553 270.000 C 47.799 270.000,48.000 270.360,48.000 270.800 C 48.000 271.240,48.253 271.600,48.563 271.600 C 48.928 271.600,49.052 271.880,48.916 272.400 C 48.768 272.965,48.904 273.200,49.377 273.200 C 49.746 273.200,49.952 273.355,49.835 273.544 C 49.582 273.952,50.468 275.992,50.900 275.997 C 51.065 275.999,51.200 276.360,51.200 276.800 C 51.200 277.240,51.380 277.600,51.600 277.600 C 51.820 277.600,52.000 277.960,52.000 278.400 C 52.000 278.840,52.180 279.200,52.400 279.200 C 52.620 279.200,52.800 279.560,52.800 280.000 C 52.800 280.440,52.980 280.800,53.200 280.800 C 53.420 280.800,53.600 281.120,53.600 281.512 C 53.600 281.903,53.960 282.483,54.400 282.800 C 54.840 283.117,55.200 283.697,55.200 284.088 C 55.200 284.480,55.380 284.800,55.600 284.800 C 55.820 284.800,56.000 285.160,56.000 285.600 C 56.000 286.040,56.158 286.400,56.351 286.400 C 56.545 286.400,56.927 286.940,57.200 287.600 C 57.473 288.260,57.855 288.800,58.049 288.800 C 58.242 288.800,58.400 289.095,58.400 289.456 C 58.400 289.817,58.660 290.312,58.978 290.556 C 59.296 290.800,59.611 291.268,59.678 291.596 C 59.745 291.924,60.304 292.680,60.920 293.275 C 61.536 293.871,62.031 294.457,62.020 294.579 C 61.947 295.394,62.050 295.616,62.400 295.400 C 62.625 295.261,62.800 295.582,62.800 296.134 C 62.800 296.673,63.056 297.213,63.370 297.333 C 63.683 297.453,64.244 298.193,64.615 298.976 C 64.987 299.759,65.551 300.400,65.869 300.400 C 66.187 300.400,66.336 300.580,66.200 300.800 C 66.064 301.020,66.143 301.200,66.376 301.200 C 66.609 301.200,66.800 301.491,66.800 301.846 C 66.800 302.477,69.451 305.200,70.066 305.200 C 70.236 305.200,70.275 305.459,70.154 305.776 C 70.029 306.102,70.294 306.577,70.767 306.872 C 71.225 307.158,71.600 307.649,71.600 307.963 C 71.600 308.277,71.709 308.424,71.842 308.291 C 72.134 307.999,74.000 309.794,74.000 310.367 C 74.000 311.384,88.609 326.000,89.626 326.000 C 90.224 326.000,93.540 329.522,93.249 329.848 C 93.112 330.002,93.213 330.006,93.474 329.856 C 93.735 329.707,94.391 330.027,94.932 330.568 C 95.473 331.109,96.024 331.442,96.158 331.309 C 96.291 331.176,96.400 331.290,96.400 331.562 C 96.400 332.189,97.395 333.200,98.011 333.200 C 98.268 333.200,98.983 333.740,99.600 334.400 C 100.217 335.060,100.969 335.600,101.272 335.600 C 101.575 335.600,102.083 335.960,102.400 336.400 C 102.717 336.840,103.257 337.200,103.600 337.200 C 103.943 337.200,104.483 337.560,104.800 338.000 C 105.117 338.440,105.657 338.800,106.000 338.800 C 106.343 338.800,106.876 339.150,107.185 339.579 C 107.493 340.007,107.886 340.270,108.058 340.164 C 108.230 340.058,108.737 340.337,109.185 340.785 C 109.633 341.233,110.188 341.600,110.417 341.600 C 110.646 341.600,111.220 341.960,111.692 342.400 C 112.164 342.840,112.787 343.200,113.075 343.200 C 113.364 343.200,113.600 343.380,113.600 343.600 C 113.600 343.820,113.735 343.979,113.900 343.953 C 114.804 343.810,115.615 344.052,115.400 344.400 C 115.264 344.620,115.484 344.800,115.888 344.800 C 116.293 344.800,116.883 345.160,117.200 345.600 C 117.517 346.040,118.097 346.400,118.488 346.400 C 118.880 346.400,119.200 346.580,119.200 346.800 C 119.200 347.020,119.560 347.200,120.000 347.200 C 120.440 347.200,120.800 347.380,120.800 347.600 C 120.800 347.820,121.160 348.000,121.600 348.000 C 122.040 348.000,122.400 348.180,122.400 348.400 C 122.400 348.620,122.634 348.800,122.920 348.800 C 123.656 348.800,125.593 349.741,125.597 350.100 C 125.599 350.265,125.971 350.400,126.424 350.400 C 126.877 350.400,127.136 350.580,127.000 350.800 C 126.864 351.020,127.123 351.200,127.576 351.200 C 128.029 351.200,128.400 351.380,128.400 351.600 C 128.400 351.820,128.634 352.000,128.920 352.000 C 129.656 352.000,131.593 352.941,131.597 353.300 C 131.599 353.465,132.140 353.600,132.800 353.600 C 133.460 353.600,134.000 353.780,134.000 354.000 C 134.000 354.220,134.360 354.400,134.800 354.400 C 135.240 354.400,135.600 354.580,135.600 354.800 C 135.600 355.020,135.960 355.200,136.400 355.200 C 136.840 355.200,137.200 355.380,137.200 355.600 C 137.200 355.820,137.633 356.000,138.162 356.000 C 138.691 356.000,139.906 356.386,140.862 356.857 C 143.943 358.376,144.336 358.510,144.973 358.266 C 145.318 358.133,145.600 358.199,145.600 358.413 C 145.600 358.626,146.140 358.800,146.800 358.800 C 147.460 358.800,148.000 358.980,148.000 359.200 C 148.000 359.420,148.540 359.600,149.200 359.600 C 149.860 359.600,150.400 359.780,150.400 360.000 C 150.400 360.220,150.940 360.400,151.600 360.400 C 152.260 360.400,152.800 360.580,152.800 360.800 C 152.800 361.020,153.520 361.200,154.400 361.200 C 155.280 361.200,156.000 361.380,156.000 361.600 C 156.000 361.820,156.720 362.000,157.600 362.000 C 158.480 362.000,159.200 362.180,159.200 362.400 C 159.200 362.620,159.830 362.800,160.600 362.800 C 161.370 362.800,162.000 362.951,162.000 363.135 C 162.000 363.319,162.855 363.502,163.900 363.542 C 164.945 363.581,165.860 363.790,165.933 364.006 C 166.007 364.223,166.952 364.400,168.033 364.400 C 169.115 364.400,170.000 364.580,170.000 364.800 C 170.000 365.026,171.141 365.200,172.624 365.200 C 174.096 365.200,175.149 365.360,175.022 365.564 C 174.896 365.768,176.065 365.939,177.696 365.954 C 179.291 365.969,180.655 366.166,180.730 366.391 C 180.814 366.642,182.867 366.800,186.033 366.800 C 189.190 366.800,191.200 366.955,191.200 367.198 C 191.200 367.449,194.427 367.591,200.000 367.583 C 205.371 367.576,208.800 367.421,208.800 367.185 C 208.800 366.959,210.830 366.800,213.720 366.800 C 216.542 366.800,218.815 366.625,219.049 366.391 C 219.275 366.165,220.751 365.969,222.329 365.954 C 223.908 365.939,225.200 365.764,225.200 365.564 C 225.200 365.364,226.265 365.200,227.567 365.200 C 229.007 365.200,229.994 365.018,230.088 364.736 C 230.185 364.444,231.087 364.299,232.521 364.346 C 233.860 364.390,234.800 364.251,234.800 364.010 C 234.800 363.785,235.520 363.600,236.400 363.600 C 237.280 363.600,238.000 363.420,238.000 363.200 C 238.000 362.980,238.731 362.800,239.624 362.800 C 240.604 362.800,241.149 362.642,241.000 362.400 C 240.851 362.159,241.385 362.000,242.343 362.000 C 243.218 362.000,243.995 361.816,244.070 361.591 C 244.144 361.367,244.879 361.158,245.703 361.127 C 246.526 361.096,247.200 360.920,247.200 360.735 C 247.200 360.551,247.740 360.400,248.400 360.400 C 249.060 360.400,249.600 360.220,249.600 360.000 C 249.600 359.780,250.140 359.600,250.800 359.600 C 251.460 359.600,252.000 359.420,252.000 359.200 C 252.000 358.980,252.540 358.800,253.200 358.800 C 253.860 358.800,254.400 358.608,254.400 358.373 C 254.400 358.133,254.739 358.054,255.175 358.192 C 255.601 358.327,256.321 358.249,256.775 358.019 C 257.229 357.789,257.958 357.420,258.395 357.200 C 258.832 356.980,259.462 356.800,259.795 356.800 C 260.128 356.800,260.400 356.620,260.400 356.400 C 260.400 356.180,260.753 356.000,261.184 356.000 C 261.616 356.000,262.195 355.757,262.472 355.461 C 262.750 355.164,263.297 355.005,263.688 355.107 C 264.080 355.210,264.400 355.092,264.400 354.847 C 264.400 354.601,264.940 354.400,265.600 354.400 C 266.260 354.400,266.800 354.254,266.800 354.075 C 266.800 353.896,267.439 353.499,268.219 353.192 C 269.000 352.886,269.823 352.413,270.048 352.142 C 270.274 351.870,270.692 351.737,270.978 351.847 C 271.263 351.956,271.603 351.769,271.733 351.430 C 271.870 351.074,272.229 350.913,272.585 351.050 C 272.923 351.179,273.200 351.086,273.200 350.843 C 273.200 350.599,273.560 350.400,274.000 350.400 C 274.440 350.400,274.800 350.220,274.800 350.000 C 274.800 349.780,275.070 349.600,275.400 349.600 C 275.730 349.600,276.000 349.420,276.000 349.200 C 276.000 348.980,276.360 348.800,276.800 348.800 C 277.240 348.800,277.600 348.620,277.600 348.400 C 277.600 348.180,277.960 348.000,278.400 348.000 C 278.840 348.000,279.200 347.820,279.200 347.600 C 279.200 347.380,279.539 347.200,279.953 347.200 C 280.389 347.200,280.802 346.835,280.933 346.334 C 281.110 345.658,281.278 345.567,281.702 345.919 C 282.120 346.265,282.376 346.188,282.811 345.585 C 283.122 345.153,283.697 344.800,284.088 344.800 C 284.480 344.800,284.800 344.620,284.800 344.400 C 284.800 344.180,285.160 344.000,285.600 344.000 C 286.040 344.000,286.400 343.820,286.400 343.600 C 286.400 343.380,286.720 343.200,287.112 343.200 C 287.503 343.200,288.083 342.840,288.400 342.400 C 288.717 341.960,289.278 341.600,289.646 341.600 C 290.013 341.600,290.418 341.330,290.545 341.000 C 290.671 340.670,291.074 340.400,291.441 340.400 C 291.807 340.400,292.397 340.084,292.753 339.697 C 293.109 339.311,293.895 338.740,294.500 338.430 C 295.105 338.119,295.600 337.631,295.600 337.345 C 295.600 337.038,295.856 336.923,296.226 337.065 C 296.607 337.212,297.084 336.973,297.448 336.453 C 297.777 335.984,298.323 335.600,298.662 335.600 C 299.001 335.600,299.783 335.060,300.400 334.400 C 301.017 333.740,301.809 333.200,302.160 333.200 C 302.512 333.200,302.800 332.930,302.800 332.600 C 302.800 332.270,302.972 332.000,303.182 332.000 C 303.392 332.000,304.014 331.550,304.564 331.000 C 305.114 330.450,305.698 330.000,305.861 330.000 C 306.025 330.000,307.004 329.100,308.037 328.000 C 309.070 326.900,310.127 326.000,310.386 326.000 C 310.645 326.000,311.127 325.730,311.457 325.400 C 311.787 325.070,311.930 324.800,311.775 324.800 C 311.619 324.800,311.950 324.440,312.509 324.000 C 313.069 323.560,313.627 323.200,313.750 323.200 C 314.114 323.200,323.200 314.006,323.200 313.638 C 323.200 313.453,323.830 312.764,324.600 312.106 C 325.370 311.448,326.000 310.686,326.000 310.412 C 326.000 310.139,326.900 309.070,328.000 308.037 C 329.100 307.004,330.000 306.025,330.000 305.861 C 330.000 305.698,330.450 305.114,331.000 304.564 C 331.550 304.014,332.000 303.392,332.000 303.182 C 332.000 302.972,332.270 302.800,332.600 302.800 C 332.930 302.800,333.200 302.512,333.200 302.160 C 333.200 301.809,333.740 301.017,334.400 300.400 C 335.060 299.783,335.600 299.057,335.600 298.786 C 335.600 298.516,335.981 297.963,336.447 297.559 C 336.937 297.135,337.196 296.565,337.060 296.212 C 336.923 295.856,337.043 295.600,337.345 295.600 C 337.631 295.600,338.119 295.105,338.430 294.500 C 338.740 293.895,339.311 293.109,339.697 292.753 C 340.084 292.397,340.400 291.807,340.400 291.441 C 340.400 291.074,340.670 290.671,341.000 290.545 C 341.330 290.418,341.600 289.974,341.600 289.557 C 341.600 289.141,341.780 288.800,342.000 288.800 C 342.220 288.800,342.400 288.480,342.400 288.088 C 342.400 287.697,342.760 287.117,343.200 286.800 C 343.640 286.483,344.000 285.903,344.000 285.512 C 344.000 285.120,344.180 284.800,344.400 284.800 C 344.620 284.800,344.800 284.480,344.800 284.088 C 344.800 283.697,345.160 283.117,345.600 282.800 C 346.040 282.483,346.400 281.903,346.400 281.512 C 346.400 281.120,346.580 280.800,346.800 280.800 C 347.020 280.800,347.200 280.440,347.200 280.000 C 347.200 279.560,347.380 279.200,347.600 279.200 C 347.820 279.200,348.000 278.840,348.000 278.400 C 348.000 277.960,348.180 277.600,348.400 277.600 C 348.620 277.600,348.800 277.240,348.800 276.800 C 348.800 276.360,348.980 276.000,349.200 276.000 C 349.420 276.000,349.600 275.730,349.600 275.400 C 349.600 275.070,349.780 274.800,350.000 274.800 C 350.220 274.800,350.400 274.440,350.400 274.000 C 350.400 273.560,350.599 273.200,350.843 273.200 C 351.086 273.200,351.179 272.923,351.050 272.585 C 350.915 272.235,351.069 271.872,351.407 271.742 C 351.733 271.617,352.000 271.174,352.000 270.757 C 352.000 270.341,352.180 270.000,352.400 270.000 C 352.620 270.000,352.800 269.539,352.800 268.976 C 352.800 268.396,352.973 268.060,353.200 268.200 C 353.433 268.344,353.600 267.937,353.600 267.224 C 353.600 266.551,353.780 266.000,354.000 266.000 C 354.220 266.000,354.400 265.640,354.400 265.200 C 354.400 264.760,354.580 264.400,354.800 264.400 C 355.020 264.400,355.200 264.040,355.200 263.600 C 355.200 263.160,355.380 262.800,355.600 262.800 C 355.820 262.800,356.000 262.260,356.000 261.600 C 356.000 260.940,356.201 260.400,356.447 260.400 C 356.696 260.400,356.801 260.047,356.684 259.600 C 356.548 259.080,356.672 258.800,357.037 258.800 C 357.367 258.800,357.600 258.396,357.600 257.824 C 357.600 257.287,357.767 256.744,357.972 256.617 C 358.177 256.491,358.467 255.400,358.618 254.194 C 358.769 252.987,359.051 252.000,359.246 252.000 C 359.441 252.000,359.600 251.460,359.600 250.800 C 359.600 250.140,359.780 249.600,360.000 249.600 C 360.220 249.600,360.400 249.060,360.400 248.400 C 360.400 247.740,360.580 247.200,360.800 247.200 C 361.020 247.200,361.200 246.480,361.200 245.600 C 361.200 244.720,361.380 244.000,361.600 244.000 C 361.820 244.000,362.000 243.269,362.000 242.376 C 362.000 241.396,362.158 240.851,362.400 241.000 C 362.642 241.149,362.800 240.604,362.800 239.624 C 362.800 238.731,362.980 238.000,363.200 238.000 C 363.420 238.000,363.600 237.100,363.600 236.000 C 363.600 234.900,363.780 234.000,364.000 234.000 C 364.220 234.000,364.400 233.100,364.400 232.000 C 364.400 230.900,364.580 230.000,364.800 230.000 C 365.026 230.000,365.200 228.859,365.200 227.376 C 365.200 225.729,365.349 224.845,365.600 225.000 C 365.853 225.156,366.000 224.145,366.000 222.247 C 366.000 220.597,366.184 219.133,366.410 218.994 C 366.657 218.841,366.800 216.820,366.771 213.883 C 366.740 210.677,366.872 208.976,367.162 208.879 C 367.734 208.689,367.779 191.327,367.208 191.133 C 366.982 191.057,366.797 188.838,366.773 185.900 C 366.750 183.095,366.567 180.800,366.366 180.800 C 366.165 180.800,366.000 179.450,366.000 177.800 C 366.000 176.067,365.831 174.800,365.600 174.800 C 365.378 174.800,365.200 173.733,365.200 172.400 C 365.200 171.067,365.022 170.000,364.800 170.000 C 364.578 170.000,364.400 168.933,364.400 167.600 C 364.400 166.267,364.222 165.200,364.000 165.200 C 363.780 165.200,363.600 164.570,363.600 163.800 C 363.600 163.030,363.420 162.400,363.200 162.400 C 362.980 162.400,362.800 161.691,362.800 160.824 C 362.800 159.957,362.620 159.136,362.400 159.000 C 362.180 158.864,362.000 158.133,362.000 157.376 C 362.000 156.619,361.820 156.000,361.600 156.000 C 361.380 156.000,361.200 155.280,361.200 154.400 C 361.200 153.520,361.020 152.800,360.800 152.800 C 360.580 152.800,360.400 152.260,360.400 151.600 C 360.400 150.940,360.220 150.400,360.000 150.400 C 359.780 150.400,359.600 149.860,359.600 149.200 C 359.600 148.540,359.420 148.000,359.200 148.000 C 358.980 148.000,358.800 147.471,358.800 146.824 C 358.800 146.177,358.637 145.546,358.438 145.423 C 358.238 145.300,358.164 144.860,358.272 144.445 C 358.381 144.030,358.274 143.569,358.035 143.422 C 357.796 143.274,357.600 142.784,357.600 142.334 C 357.600 141.799,357.407 141.588,357.045 141.727 C 356.656 141.877,356.551 141.710,356.692 141.168 C 356.804 140.743,356.718 140.172,356.502 139.898 C 356.287 139.624,355.990 138.898,355.843 138.284 C 355.697 137.670,355.428 137.259,355.246 137.372 C 355.064 137.484,355.001 137.131,355.104 136.588 C 355.214 136.014,355.106 135.600,354.847 135.600 C 354.601 135.600,354.400 135.079,354.400 134.443 C 354.400 133.762,354.142 133.187,353.775 133.046 C 353.431 132.914,353.254 132.637,353.381 132.430 C 353.509 132.224,353.430 131.942,353.207 131.804 C 352.983 131.666,352.800 131.223,352.800 130.819 C 352.800 130.416,352.533 129.983,352.207 129.858 C 351.869 129.728,351.715 129.365,351.850 129.015 C 351.979 128.677,351.886 128.400,351.643 128.400 C 351.399 128.400,351.200 128.029,351.200 127.576 C 351.200 127.123,351.020 126.864,350.800 127.000 C 350.580 127.136,350.400 127.002,350.400 126.703 C 350.400 125.949,349.465 124.007,349.100 124.003 C 348.935 124.001,348.800 123.640,348.800 123.200 C 348.800 122.760,348.620 122.400,348.400 122.400 C 348.180 122.400,348.000 122.040,348.000 121.600 C 348.000 121.160,347.820 120.800,347.600 120.800 C 347.380 120.800,347.200 120.459,347.200 120.043 C 347.200 119.626,346.919 119.178,346.575 119.046 C 346.231 118.914,346.067 118.615,346.211 118.382 C 346.356 118.148,346.097 117.631,345.637 117.232 C 345.177 116.833,344.800 116.289,344.800 116.025 C 344.800 115.760,344.528 115.271,344.196 114.939 C 343.864 114.607,343.695 114.170,343.820 113.968 C 343.945 113.765,343.857 113.600,343.624 113.600 C 343.391 113.600,343.200 113.364,343.200 113.075 C 343.200 112.787,342.840 112.164,342.400 111.692 C 341.960 111.220,341.600 110.646,341.600 110.417 C 341.600 110.188,341.233 109.633,340.785 109.185 C 340.337 108.737,340.058 108.230,340.164 108.058 C 340.270 107.886,340.007 107.493,339.579 107.185 C 339.150 106.876,338.800 106.343,338.800 106.000 C 338.800 105.657,338.440 105.117,338.000 104.800 C 337.560 104.483,337.200 103.980,337.200 103.683 C 337.200 103.044,336.233 102.000,335.641 102.000 C 335.412 102.000,335.326 101.738,335.449 101.418 C 335.677 100.822,333.965 98.800,333.231 98.800 C 333.008 98.800,332.925 98.540,333.047 98.221 C 333.284 97.604,330.657 94.677,330.240 95.093 C 330.108 95.225,330.000 94.959,330.000 94.502 C 330.000 94.000,329.209 92.995,328.000 91.961 C 326.900 91.020,326.000 90.019,326.000 89.736 C 326.000 88.733,318.336 80.813,317.322 80.768 C 316.910 80.750,316.813 80.651,317.096 80.536 C 317.398 80.414,316.783 79.606,315.523 78.468 C 314.386 77.441,312.892 76.043,312.203 75.362 C 311.515 74.682,310.467 74.003,309.876 73.855 C 309.284 73.706,308.800 73.318,308.800 72.992 C 308.800 72.667,308.609 72.400,308.376 72.400 C 308.143 72.400,308.064 72.220,308.200 72.000 C 308.336 71.780,308.179 71.600,307.851 71.600 C 307.522 71.600,307.140 71.240,307.000 70.800 C 306.860 70.360,306.447 70.000,306.082 70.000 C 305.716 70.000,304.746 69.265,303.924 68.367 C 303.103 67.468,302.243 66.850,302.013 66.992 C 301.783 67.134,301.487 66.970,301.355 66.628 C 301.224 66.285,300.955 66.104,300.758 66.226 C 300.561 66.348,300.400 66.197,300.400 65.891 C 300.400 65.585,299.905 65.081,299.300 64.770 C 298.695 64.460,297.909 63.889,297.553 63.503 C 297.197 63.116,296.634 62.800,296.302 62.800 C 295.970 62.800,295.470 62.526,295.192 62.190 C 294.914 61.855,294.598 61.669,294.490 61.776 C 294.383 61.884,293.822 61.483,293.244 60.886 C 292.665 60.289,291.924 59.745,291.596 59.678 C 291.268 59.611,290.800 59.296,290.556 58.978 C 290.312 58.660,289.899 58.400,289.640 58.400 C 289.124 58.400,286.682 56.783,286.467 56.300 C 286.393 56.135,285.988 56.000,285.567 56.000 C 285.145 56.000,284.800 55.820,284.800 55.600 C 284.800 55.380,284.480 55.200,284.088 55.200 C 283.697 55.200,283.117 54.840,282.800 54.400 C 282.483 53.960,281.903 53.600,281.512 53.600 C 281.120 53.600,280.800 53.420,280.800 53.200 C 280.800 52.980,280.440 52.800,280.000 52.800 C 279.560 52.800,279.200 52.620,279.200 52.400 C 279.200 52.180,278.840 52.000,278.400 52.000 C 277.960 52.000,277.600 51.820,277.600 51.600 C 277.600 51.380,277.240 51.200,276.800 51.200 C 276.360 51.200,276.000 51.020,276.000 50.800 C 276.000 50.580,275.730 50.400,275.400 50.400 C 275.070 50.400,274.800 50.220,274.800 50.000 C 274.800 49.780,274.440 49.600,274.000 49.600 C 273.560 49.600,273.200 49.420,273.200 49.200 C 273.200 48.980,272.840 48.800,272.400 48.800 C 271.960 48.800,271.600 48.620,271.600 48.400 C 271.600 48.180,271.251 48.000,270.824 48.000 C 270.397 48.000,269.934 47.817,269.796 47.593 C 269.658 47.370,269.388 47.284,269.197 47.402 C 269.006 47.520,268.682 47.318,268.477 46.952 C 268.225 46.502,267.771 46.351,267.072 46.484 C 266.423 46.608,265.963 46.481,265.833 46.141 C 265.718 45.843,265.349 45.600,265.013 45.600 C 264.676 45.600,264.400 45.420,264.400 45.200 C 264.400 44.980,264.051 44.800,263.624 44.800 C 263.197 44.800,262.736 44.620,262.600 44.400 C 262.464 44.180,261.913 44.000,261.376 44.000 C 260.839 44.000,260.400 43.801,260.400 43.557 C 260.400 43.314,260.117 43.223,259.770 43.356 C 259.424 43.489,258.879 43.336,258.559 43.016 C 258.239 42.696,257.712 42.536,257.388 42.660 C 257.065 42.784,256.800 42.730,256.800 42.540 C 256.800 42.141,253.997 41.200,252.806 41.200 C 252.363 41.200,252.000 41.020,252.000 40.800 C 252.000 40.580,251.460 40.400,250.800 40.400 C 250.140 40.400,249.600 40.220,249.600 40.000 C 249.600 39.780,249.060 39.600,248.400 39.600 C 247.740 39.600,247.200 39.420,247.200 39.200 C 247.200 38.980,246.480 38.800,245.600 38.800 C 244.720 38.800,244.000 38.620,244.000 38.400 C 244.000 38.180,243.269 38.000,242.376 38.000 C 241.396 38.000,240.851 37.842,241.000 37.600 C 241.149 37.358,240.604 37.200,239.624 37.200 C 238.731 37.200,238.000 37.020,238.000 36.800 C 238.000 36.580,237.100 36.400,236.000 36.400 C 234.900 36.400,234.000 36.220,234.000 36.000 C 234.000 35.780,233.100 35.600,232.000 35.600 C 230.900 35.600,230.000 35.420,230.000 35.200 C 230.000 34.978,228.933 34.800,227.600 34.800 C 226.280 34.800,225.200 34.654,225.200 34.476 C 225.200 34.298,223.895 34.118,222.300 34.076 C 220.705 34.034,219.340 33.820,219.267 33.600 C 219.187 33.361,217.057 33.200,213.967 33.200 C 210.810 33.200,208.800 33.045,208.800 32.802 C 208.800 32.250,191.305 32.286,191.121 32.838 M212.804 68.030 C 212.916 68.198,214.523 68.346,216.374 68.358 C 218.226 68.370,219.844 68.547,219.970 68.751 C 220.097 68.955,221.173 69.130,222.363 69.139 C 223.552 69.148,224.652 69.361,224.808 69.612 C 224.967 69.870,225.808 70.017,226.740 69.950 C 227.658 69.884,228.606 70.046,228.875 70.315 C 229.142 70.582,230.044 70.800,230.880 70.800 C 231.716 70.800,232.400 70.980,232.400 71.200 C 232.400 71.420,233.032 71.600,233.805 71.600 C 234.578 71.600,235.523 71.758,235.905 71.951 C 236.971 72.489,239.377 73.200,240.134 73.200 C 240.506 73.200,241.123 73.358,241.505 73.552 C 242.785 74.199,246.190 75.204,247.100 75.202 C 247.595 75.201,248.000 75.380,248.000 75.600 C 248.000 75.820,248.360 76.000,248.800 76.000 C 249.240 76.000,249.600 76.180,249.600 76.400 C 249.600 76.620,250.140 76.800,250.800 76.800 C 251.460 76.800,252.000 76.980,252.000 77.200 C 252.000 77.420,252.450 77.600,253.000 77.600 C 253.550 77.600,254.000 77.780,254.000 78.000 C 254.000 78.220,254.270 78.400,254.600 78.400 C 254.930 78.400,255.200 78.580,255.200 78.800 C 255.200 79.020,255.560 79.200,256.000 79.200 C 256.440 79.200,256.800 79.380,256.800 79.600 C 256.800 79.820,257.160 80.000,257.600 80.000 C 258.040 80.000,258.400 80.180,258.400 80.400 C 258.400 80.620,258.760 80.800,259.200 80.800 C 259.640 80.800,260.000 80.946,260.000 81.125 C 260.000 81.304,260.630 81.698,261.400 82.000 C 262.170 82.302,262.800 82.696,262.800 82.875 C 262.800 83.054,263.160 83.200,263.600 83.200 C 264.040 83.200,264.400 83.380,264.400 83.600 C 264.400 83.820,264.760 84.000,265.200 84.000 C 265.640 84.000,266.000 84.180,266.000 84.400 C 266.000 84.620,266.320 84.800,266.712 84.800 C 267.103 84.800,267.683 85.160,268.000 85.600 C 268.317 86.040,268.857 86.400,269.200 86.400 C 269.543 86.400,270.083 86.760,270.400 87.200 C 270.717 87.640,271.297 88.000,271.688 88.000 C 272.080 88.000,272.400 88.150,272.400 88.332 C 272.400 88.515,272.895 88.919,273.500 89.230 C 274.105 89.540,274.891 90.111,275.247 90.497 C 275.603 90.884,276.090 91.200,276.329 91.200 C 276.568 91.200,277.214 91.650,277.764 92.200 C 278.314 92.750,278.970 93.200,279.221 93.200 C 279.473 93.200,280.183 93.740,280.800 94.400 C 281.417 95.060,282.129 95.600,282.383 95.600 C 282.637 95.600,283.921 96.697,285.237 98.037 C 286.741 99.570,287.846 100.391,288.214 100.250 C 288.536 100.126,288.800 100.195,288.800 100.404 C 288.800 100.960,295.196 107.418,295.630 107.300 C 295.834 107.245,295.955 107.360,295.900 107.555 C 295.845 107.751,296.700 108.768,297.800 109.817 C 298.900 110.866,299.752 111.885,299.693 112.082 C 299.557 112.539,303.503 116.400,304.107 116.400 C 304.443 116.400,304.443 116.517,304.105 116.855 C 303.765 117.195,304.073 117.717,305.325 118.920 C 306.246 119.805,307.000 120.674,307.000 120.852 C 307.000 121.029,307.306 121.531,307.680 121.968 C 308.054 122.405,308.644 123.311,308.990 123.981 C 309.337 124.652,309.775 125.200,309.964 125.200 C 310.152 125.200,310.406 125.578,310.526 126.040 C 310.666 126.575,310.924 126.771,311.235 126.578 C 311.536 126.392,311.621 126.443,311.455 126.711 C 311.308 126.949,311.370 127.258,311.593 127.396 C 311.817 127.534,312.000 127.919,312.000 128.252 C 312.000 128.939,312.940 130.000,313.548 130.000 C 313.772 130.000,313.885 130.360,313.800 130.800 C 313.715 131.240,313.816 131.600,314.023 131.600 C 314.230 131.600,314.400 131.920,314.400 132.312 C 314.400 132.703,314.760 133.283,315.200 133.600 C 315.640 133.917,316.000 134.497,316.000 134.888 C 316.000 135.280,316.180 135.600,316.400 135.600 C 316.620 135.600,316.800 135.960,316.800 136.400 C 316.800 136.840,316.935 137.201,317.100 137.201 C 317.265 137.202,317.850 138.192,318.400 139.400 C 318.950 140.608,319.535 141.598,319.700 141.599 C 319.865 141.599,320.000 141.971,320.000 142.424 C 320.000 142.877,320.180 143.136,320.400 143.000 C 320.620 142.864,320.800 143.113,320.800 143.553 C 320.800 143.993,320.980 144.464,321.200 144.600 C 321.420 144.736,321.600 145.197,321.600 145.624 C 321.600 146.051,321.780 146.400,322.000 146.400 C 322.220 146.400,322.400 146.940,322.400 147.600 C 322.400 148.260,322.580 148.800,322.800 148.800 C 323.020 148.800,323.200 149.083,323.200 149.429 C 323.200 149.774,323.459 150.316,323.776 150.633 C 324.093 150.950,324.283 151.567,324.199 152.005 C 324.115 152.442,324.193 152.800,324.373 152.800 C 324.657 152.800,324.880 153.470,325.424 155.960 C 325.492 156.268,325.700 156.628,325.887 156.760 C 326.074 156.892,326.209 157.270,326.188 157.600 C 326.167 157.930,326.371 158.470,326.641 158.800 C 326.912 159.130,327.141 159.850,327.151 160.400 C 327.184 162.183,327.678 164.400,328.044 164.400 C 328.240 164.400,328.400 165.120,328.400 166.000 C 328.400 167.076,328.577 167.600,328.940 167.600 C 329.338 167.600,329.434 168.062,329.305 169.355 C 329.203 170.376,329.311 171.222,329.565 171.378 C 329.804 171.526,330.000 172.432,330.000 173.390 C 330.000 174.373,330.206 175.202,330.472 175.291 C 330.775 175.392,330.910 176.259,330.851 177.724 C 330.795 179.107,330.924 180.000,331.179 180.000 C 331.442 180.000,331.600 181.339,331.600 183.567 C 331.600 185.700,331.769 187.190,332.020 187.273 C 332.515 187.438,332.568 212.033,332.074 212.381 C 331.904 212.502,331.710 214.040,331.645 215.800 C 331.579 217.560,331.360 219.201,331.157 219.447 C 330.955 219.693,330.822 220.763,330.863 221.825 C 330.907 223.002,330.753 223.816,330.468 223.911 C 330.185 224.005,329.998 224.964,329.994 226.333 C 329.989 228.021,329.882 228.447,329.572 228.000 C 329.264 227.556,329.200 227.842,329.326 229.100 C 329.451 230.355,329.352 230.800,328.948 230.800 C 328.575 230.800,328.400 231.313,328.400 232.400 C 328.400 233.280,328.243 234.000,328.051 234.000 C 327.859 234.000,327.600 234.855,327.475 235.900 C 327.154 238.588,327.033 239.037,326.435 239.758 C 326.144 240.109,325.997 240.745,326.109 241.172 C 326.227 241.623,326.077 242.038,325.752 242.163 C 325.444 242.281,325.218 242.518,325.250 242.689 C 325.378 243.385,324.674 245.600,324.325 245.600 C 324.119 245.600,324.000 245.915,324.061 246.300 C 324.188 247.099,323.158 249.600,322.702 249.600 C 322.536 249.600,322.400 250.140,322.400 250.800 C 322.400 251.460,322.220 252.000,322.000 252.000 C 321.780 252.000,321.600 252.234,321.600 252.520 C 321.600 253.256,320.659 255.193,320.300 255.197 C 320.135 255.199,320.000 255.560,320.000 256.000 C 320.000 256.440,319.808 256.800,319.573 256.800 C 319.328 256.800,319.254 257.141,319.400 257.600 C 319.580 258.168,319.472 258.400,319.027 258.400 C 318.667 258.400,318.400 258.740,318.400 259.200 C 318.400 259.640,318.220 260.000,318.000 260.000 C 317.780 260.000,317.600 260.270,317.600 260.600 C 317.600 260.930,317.420 261.200,317.200 261.200 C 316.980 261.200,316.800 261.434,316.800 261.720 C 316.800 262.456,315.859 264.393,315.500 264.397 C 315.335 264.399,315.200 264.758,315.200 265.197 C 315.200 265.635,314.840 266.218,314.400 266.493 C 313.960 266.768,313.600 267.309,313.600 267.696 C 313.600 268.083,313.420 268.400,313.200 268.400 C 312.980 268.400,312.800 268.861,312.800 269.424 C 312.800 269.987,312.633 270.344,312.429 270.218 C 312.225 270.092,311.935 270.396,311.784 270.894 C 311.634 271.392,311.126 272.160,310.655 272.600 C 310.185 273.040,309.741 273.670,309.668 274.000 C 309.596 274.330,309.281 274.884,308.968 275.231 C 308.656 275.579,308.400 276.166,308.400 276.537 C 308.400 276.908,307.815 277.568,307.100 278.004 C 306.385 278.440,306.036 278.798,306.324 278.799 C 306.981 278.800,306.588 279.471,305.629 279.985 C 305.047 280.296,304.578 280.065,303.277 278.827 C 302.383 277.977,301.521 277.398,301.362 277.541 C 301.202 277.683,301.181 277.607,301.315 277.371 C 301.585 276.897,300.206 275.527,299.834 275.900 C 299.705 276.028,299.600 275.823,299.600 275.443 C 299.600 275.063,299.420 274.864,299.200 275.000 C 298.980 275.136,298.800 275.053,298.800 274.815 C 298.800 274.135,294.426 269.937,293.995 270.203 C 293.779 270.337,293.714 270.169,293.847 269.821 C 294.007 269.404,293.853 269.200,293.376 269.200 C 292.986 269.200,292.778 269.089,292.914 268.952 C 293.284 268.582,292.164 267.605,291.329 267.568 C 290.928 267.551,290.820 267.448,291.089 267.339 C 291.640 267.116,289.670 264.924,289.085 265.110 C 288.896 265.170,288.838 265.062,288.958 264.868 C 289.294 264.324,287.334 262.670,286.768 263.020 C 286.475 263.201,286.379 263.158,286.530 262.913 C 286.845 262.404,285.429 260.704,285.026 261.107 C 284.865 261.268,284.793 261.213,284.867 260.985 C 285.069 260.355,282.902 258.317,282.661 258.911 C 282.552 259.180,282.449 258.995,282.432 258.500 C 282.414 258.005,282.550 257.600,282.732 257.600 C 282.915 257.600,283.319 257.105,283.630 256.500 C 283.940 255.895,284.511 255.109,284.897 254.753 C 285.284 254.397,285.600 253.852,285.600 253.541 C 285.600 253.231,285.960 252.717,286.400 252.400 C 286.840 252.083,287.200 251.503,287.200 251.112 C 287.200 250.720,287.380 250.400,287.600 250.400 C 287.820 250.400,288.000 250.040,288.000 249.600 C 288.000 249.160,288.180 248.800,288.400 248.800 C 288.620 248.800,288.800 248.440,288.800 248.000 C 288.800 247.560,288.980 247.200,289.200 247.200 C 289.420 247.200,289.600 246.840,289.600 246.400 C 289.600 245.960,289.780 245.600,290.000 245.600 C 290.220 245.600,290.400 245.240,290.400 244.800 C 290.400 244.360,290.592 244.000,290.827 244.000 C 291.072 244.000,291.146 243.659,291.000 243.200 C 290.854 242.741,290.928 242.400,291.173 242.400 C 291.408 242.400,291.600 242.130,291.600 241.800 C 291.600 241.470,291.780 241.200,292.000 241.200 C 292.220 241.200,292.400 240.840,292.400 240.400 C 292.400 239.960,292.580 239.600,292.800 239.600 C 293.020 239.600,293.200 239.060,293.200 238.400 C 293.200 237.740,293.380 237.200,293.600 237.200 C 293.820 237.200,294.000 236.851,294.000 236.424 C 294.000 235.997,294.180 235.536,294.400 235.400 C 294.620 235.264,294.800 234.713,294.800 234.176 C 294.800 233.639,294.980 233.200,295.200 233.200 C 295.420 233.200,295.600 232.660,295.600 232.000 C 295.600 231.340,295.780 230.800,296.000 230.800 C 296.220 230.800,296.400 230.080,296.400 229.200 C 296.400 228.320,296.580 227.600,296.800 227.600 C 297.020 227.600,297.200 227.060,297.200 226.400 C 297.200 225.740,297.362 225.200,297.560 225.200 C 297.758 225.200,297.920 224.531,297.920 223.713 C 297.920 222.896,298.138 222.154,298.405 222.065 C 298.765 221.945,298.750 221.814,298.345 221.558 C 297.946 221.305,297.934 221.211,298.300 221.206 C 298.604 221.202,298.800 220.650,298.800 219.800 C 298.800 219.030,298.986 218.400,299.213 218.400 C 299.441 218.400,299.596 217.815,299.558 217.100 C 299.416 214.421,299.609 212.359,299.981 212.588 C 300.220 212.736,300.372 207.877,300.389 199.612 C 300.407 190.885,300.277 186.400,300.008 186.400 C 299.780 186.400,299.600 185.428,299.600 184.200 C 299.600 182.710,299.439 181.998,299.100 181.994 C 298.766 181.990,298.799 181.857,299.200 181.594 C 299.684 181.276,299.699 181.135,299.276 180.861 C 298.987 180.675,298.741 179.773,298.729 178.856 C 298.716 177.939,298.547 177.091,298.353 176.971 C 298.159 176.851,298.000 176.148,298.000 175.410 C 298.000 174.671,297.781 173.994,297.513 173.904 C 297.223 173.808,297.067 173.149,297.126 172.271 C 297.180 171.462,297.039 170.800,296.813 170.800 C 296.586 170.800,296.400 170.260,296.400 169.600 C 296.400 168.940,296.220 168.400,296.000 168.400 C 295.780 168.400,295.600 167.860,295.600 167.200 C 295.600 166.540,295.420 166.000,295.200 166.000 C 294.980 166.000,294.800 165.586,294.800 165.080 C 294.800 164.574,294.621 163.981,294.402 163.762 C 294.184 163.544,293.964 162.878,293.915 162.282 C 293.866 161.687,293.685 161.200,293.513 161.200 C 293.341 161.200,293.200 160.930,293.200 160.600 C 293.200 160.270,293.020 160.000,292.800 160.000 C 292.580 160.000,292.400 159.640,292.400 159.200 C 292.400 158.760,292.220 158.400,292.000 158.400 C 291.780 158.400,291.600 157.948,291.600 157.395 C 291.600 156.842,291.420 156.077,291.200 155.695 C 290.980 155.313,290.621 154.494,290.401 153.876 C 290.181 153.258,289.823 152.862,289.605 152.997 C 289.378 153.137,289.311 152.977,289.447 152.621 C 289.604 152.212,289.457 152.000,289.016 152.000 C 288.528 152.000,288.415 151.783,288.600 151.200 C 288.746 150.741,288.672 150.400,288.427 150.400 C 288.192 150.400,288.000 150.040,288.000 149.600 C 288.000 149.160,287.841 148.800,287.647 148.800 C 287.452 148.800,287.194 148.422,287.074 147.960 C 286.953 147.498,286.664 147.237,286.432 147.381 C 286.175 147.539,286.103 147.398,286.247 147.021 C 286.378 146.679,286.286 146.400,286.043 146.400 C 285.799 146.400,285.600 146.130,285.600 145.800 C 285.600 145.470,285.420 145.200,285.200 145.200 C 284.980 145.200,284.800 144.919,284.800 144.576 C 284.800 144.233,284.620 144.064,284.400 144.200 C 284.180 144.336,283.998 144.122,283.996 143.724 C 283.994 143.326,283.454 142.575,282.796 142.055 C 282.138 141.535,281.600 140.842,281.600 140.515 C 281.600 140.188,281.060 139.417,280.400 138.800 C 279.740 138.183,279.200 137.475,279.200 137.226 C 279.200 136.619,276.545 133.989,276.240 134.293 C 276.108 134.425,276.000 134.253,276.000 133.909 C 276.000 133.566,275.738 133.185,275.418 133.062 C 275.098 132.939,274.486 132.155,274.057 131.319 C 273.242 129.730,271.475 127.970,270.559 127.835 C 270.264 127.792,269.883 127.602,269.712 127.414 C 269.540 127.226,269.625 127.201,269.900 127.359 C 270.175 127.518,270.400 127.463,270.400 127.238 C 270.400 127.012,270.044 126.638,269.609 126.405 C 268.941 126.047,268.852 126.091,269.039 126.691 C 269.228 127.295,269.189 127.287,268.776 126.638 C 267.989 125.401,263.254 120.800,262.768 120.800 C 262.522 120.800,261.817 120.260,261.200 119.600 C 260.583 118.940,259.803 118.400,259.466 118.400 C 259.130 118.400,258.749 118.069,258.620 117.664 C 258.492 117.259,257.895 116.675,257.293 116.367 C 256.692 116.058,255.890 115.467,255.510 115.053 C 255.101 114.607,254.504 114.384,254.040 114.505 C 253.475 114.653,253.322 114.549,253.484 114.125 C 253.620 113.771,253.490 113.571,253.154 113.617 C 252.206 113.750,251.455 113.611,251.714 113.352 C 252.069 112.997,250.974 112.000,250.229 112.000 C 249.883 112.000,249.600 111.820,249.600 111.600 C 249.600 111.380,249.240 111.200,248.800 111.200 C 248.360 111.200,248.000 111.001,248.000 110.757 C 248.000 110.514,247.743 110.413,247.429 110.533 C 247.115 110.654,246.652 110.504,246.400 110.200 C 246.148 109.896,245.685 109.746,245.371 109.867 C 245.016 110.003,244.800 109.832,244.800 109.416 C 244.800 108.928,244.583 108.815,244.000 109.000 C 243.541 109.146,243.200 109.072,243.200 108.827 C 243.200 108.592,242.840 108.400,242.400 108.400 C 241.960 108.400,241.600 108.220,241.600 108.000 C 241.600 107.780,241.229 107.600,240.776 107.600 C 240.323 107.600,240.064 107.420,240.200 107.200 C 240.341 106.972,239.996 106.800,239.400 106.800 C 238.669 106.800,238.443 106.649,238.653 106.300 C 238.857 105.960,238.737 105.976,238.277 106.349 C 237.836 106.707,237.600 106.742,237.600 106.449 C 237.600 106.202,237.330 106.000,237.000 106.000 C 236.670 106.000,236.400 105.820,236.400 105.600 C 236.400 105.380,235.860 105.200,235.200 105.200 C 234.540 105.200,234.000 105.020,234.000 104.800 C 234.000 104.580,233.359 104.400,232.576 104.400 C 231.729 104.400,231.253 104.238,231.400 104.000 C 231.544 103.767,231.137 103.600,230.424 103.600 C 229.751 103.600,229.200 103.420,229.200 103.200 C 229.200 102.980,228.480 102.800,227.600 102.800 C 226.720 102.800,226.000 102.620,226.000 102.400 C 226.000 102.180,225.370 102.000,224.600 102.000 C 223.830 102.000,223.200 101.820,223.200 101.600 C 223.200 101.380,222.300 101.200,221.200 101.200 C 220.100 101.200,219.200 101.048,219.200 100.861 C 219.200 100.675,217.989 100.506,216.508 100.486 C 214.995 100.466,213.755 100.264,213.675 100.025 C 213.579 99.736,209.244 99.600,200.143 99.600 C 191.318 99.600,186.837 99.736,187.000 100.000 C 187.157 100.254,186.082 100.400,184.057 100.400 C 181.974 100.400,180.812 100.563,180.710 100.869 C 180.619 101.144,179.853 101.310,178.855 101.271 C 177.920 101.234,177.245 101.349,177.354 101.525 C 177.463 101.702,176.798 101.890,175.876 101.943 C 174.954 101.997,174.140 102.211,174.067 102.420 C 173.993 102.629,173.183 102.803,172.267 102.806 C 171.043 102.811,170.760 102.915,171.200 103.200 C 171.640 103.485,171.357 103.589,170.133 103.594 C 169.217 103.597,168.407 103.778,168.333 103.997 C 168.260 104.215,167.705 104.434,167.100 104.484 C 166.495 104.534,166.000 104.715,166.000 104.887 C 166.000 105.059,165.460 105.200,164.800 105.200 C 164.140 105.200,163.600 105.380,163.600 105.600 C 163.600 105.820,163.240 106.000,162.800 106.000 C 162.360 106.000,162.000 106.180,162.000 106.400 C 162.000 106.620,161.550 106.800,161.000 106.800 C 160.450 106.800,160.000 106.980,160.000 107.200 C 160.000 107.420,159.640 107.600,159.200 107.600 C 158.760 107.600,158.400 107.780,158.400 108.000 C 158.400 108.220,157.948 108.400,157.395 108.400 C 156.842 108.400,156.077 108.571,155.695 108.781 C 155.313 108.990,154.331 109.458,153.513 109.820 C 152.695 110.182,152.065 110.686,152.113 110.939 C 152.163 111.204,151.817 111.347,151.300 111.275 C 150.805 111.206,150.400 111.341,150.400 111.575 C 150.400 111.809,150.029 112.000,149.576 112.000 C 149.123 112.000,148.864 112.180,149.000 112.400 C 149.136 112.620,148.911 112.800,148.499 112.800 C 148.088 112.800,147.364 113.160,146.892 113.600 C 146.420 114.040,145.886 114.400,145.705 114.400 C 145.524 114.400,145.117 114.760,144.800 115.200 C 144.483 115.640,143.975 116.000,143.672 116.000 C 143.369 116.000,142.617 116.540,142.000 117.200 C 141.383 117.860,140.695 118.400,140.470 118.400 C 140.246 118.400,139.328 119.149,138.431 120.064 C 137.534 120.979,136.800 121.512,136.800 121.248 C 136.800 120.893,136.655 120.902,136.242 121.284 C 135.935 121.568,135.766 121.935,135.866 122.100 C 135.965 122.265,135.842 122.400,135.592 122.400 C 135.342 122.400,134.468 123.096,133.651 123.947 C 132.833 124.798,131.592 125.790,130.894 126.151 C 129.755 126.740,128.950 127.661,128.839 128.500 C 128.818 128.665,128.665 128.818,128.500 128.839 C 127.788 128.933,126.787 129.677,126.400 130.400 C 126.048 131.058,126.094 131.147,126.691 130.961 C 127.330 130.761,127.335 130.782,126.738 131.168 C 125.545 131.941,122.400 135.160,122.400 135.609 C 122.400 135.850,122.265 135.965,122.100 135.866 C 121.935 135.766,121.568 135.935,121.284 136.242 C 120.987 136.563,120.945 136.800,121.184 136.800 C 121.412 136.800,120.879 137.542,120.000 138.448 C 119.120 139.355,118.400 140.465,118.400 140.915 C 118.400 141.365,118.295 141.628,118.166 141.499 C 117.860 141.194,116.000 142.812,116.000 143.384 C 116.000 143.626,115.640 144.083,115.200 144.400 C 114.760 144.717,114.400 145.297,114.400 145.688 C 114.400 146.080,114.220 146.400,114.000 146.400 C 113.780 146.400,113.600 146.760,113.600 147.200 C 113.600 147.640,113.420 148.000,113.200 148.000 C 112.980 148.000,112.800 148.281,112.800 148.624 C 112.800 148.967,112.620 149.136,112.400 149.000 C 112.180 148.864,112.000 149.123,112.000 149.576 C 112.000 150.029,111.836 150.400,111.635 150.400 C 111.435 150.400,111.321 150.860,111.383 151.423 C 111.463 152.157,111.339 152.385,110.942 152.233 C 110.537 152.078,110.436 152.287,110.568 153.010 C 110.684 153.655,110.563 154.000,110.218 154.000 C 109.927 154.000,109.714 154.315,109.744 154.700 C 109.775 155.089,109.564 155.351,109.270 155.290 C 108.906 155.214,108.820 155.434,108.997 155.990 C 109.145 156.458,109.074 156.800,108.827 156.800 C 108.592 156.800,108.400 157.160,108.400 157.600 C 108.400 158.040,108.220 158.400,108.000 158.400 C 107.780 158.400,107.600 158.771,107.600 159.224 C 107.600 159.677,107.420 159.936,107.200 159.800 C 106.967 159.656,106.800 160.063,106.800 160.776 C 106.800 161.449,106.620 162.000,106.400 162.000 C 106.180 162.000,106.000 162.360,106.000 162.800 C 106.000 163.240,105.820 163.600,105.600 163.600 C 105.380 163.600,105.200 164.140,105.200 164.800 C 105.200 165.460,105.065 166.000,104.900 166.000 C 104.735 166.000,104.572 166.490,104.537 167.088 C 104.502 167.686,104.277 168.241,104.037 168.321 C 103.797 168.401,103.600 168.992,103.600 169.633 C 103.600 170.275,103.420 170.800,103.200 170.800 C 102.980 170.800,102.800 171.520,102.800 172.400 C 102.800 173.280,102.620 174.000,102.400 174.000 C 102.180 174.000,102.000 174.630,102.000 175.400 C 102.000 176.170,101.820 176.800,101.600 176.800 C 101.380 176.800,101.200 177.700,101.200 178.800 C 101.200 179.900,101.020 180.800,100.800 180.800 C 100.566 180.800,100.400 182.141,100.400 184.024 C 100.400 186.110,100.256 187.158,99.993 186.995 C 99.719 186.826,99.594 191.145,99.611 200.145 C 99.627 208.852,99.779 213.593,100.043 213.681 C 100.267 213.756,100.450 215.028,100.450 216.508 C 100.450 217.989,100.619 219.200,100.825 219.200 C 101.031 219.200,101.200 219.999,101.200 220.976 C 101.200 221.953,101.380 222.864,101.600 223.000 C 101.820 223.136,102.000 223.867,102.000 224.624 C 102.000 225.381,102.180 226.000,102.400 226.000 C 102.620 226.000,102.800 226.720,102.800 227.600 C 102.800 228.480,102.980 229.200,103.200 229.200 C 103.420 229.200,103.600 229.751,103.600 230.424 C 103.600 231.137,103.767 231.544,104.000 231.400 C 104.237 231.253,104.400 231.718,104.400 232.543 C 104.400 233.308,104.578 233.993,104.797 234.067 C 105.015 234.140,105.234 234.695,105.284 235.300 C 105.334 235.905,105.515 236.400,105.687 236.400 C 105.859 236.400,106.000 236.672,106.000 237.005 C 106.000 237.338,106.168 237.923,106.374 238.305 C 106.579 238.687,106.983 239.585,107.271 240.300 C 107.560 241.015,107.931 241.600,108.098 241.600 C 108.264 241.600,108.400 242.052,108.400 242.605 C 108.400 243.158,108.580 243.923,108.800 244.305 C 109.020 244.687,109.379 245.506,109.599 246.124 C 109.819 246.742,110.177 247.138,110.395 247.003 C 110.622 246.863,110.689 247.023,110.553 247.379 C 110.422 247.721,110.514 248.000,110.757 248.000 C 111.001 248.000,111.200 248.360,111.200 248.800 C 111.200 249.240,111.380 249.600,111.600 249.600 C 111.820 249.600,112.000 249.960,112.000 250.400 C 112.000 250.840,112.180 251.200,112.400 251.200 C 112.620 251.200,112.800 251.436,112.800 251.725 C 112.800 252.013,113.160 252.636,113.600 253.108 C 114.040 253.580,114.400 254.153,114.400 254.380 C 114.400 254.607,114.760 255.018,115.200 255.293 C 115.640 255.568,116.000 256.109,116.000 256.496 C 116.000 256.883,116.180 257.200,116.400 257.200 C 116.620 257.200,116.800 257.458,116.800 257.773 C 116.800 258.088,117.160 258.460,117.600 258.600 C 118.040 258.740,118.400 259.130,118.400 259.466 C 118.400 259.803,118.940 260.583,119.600 261.200 C 120.260 261.817,120.800 262.536,120.800 262.799 C 120.800 263.063,121.857 264.295,123.150 265.539 C 124.442 266.783,125.797 268.385,126.160 269.100 C 126.523 269.815,127.007 270.400,127.234 270.400 C 127.461 270.400,127.518 270.175,127.359 269.900 C 127.201 269.625,127.226 269.540,127.414 269.712 C 127.602 269.883,127.792 270.264,127.835 270.559 C 127.957 271.388,129.673 273.210,130.965 273.882 C 131.606 274.216,133.171 275.548,134.443 276.844 C 135.715 278.140,136.963 279.200,137.217 279.200 C 137.471 279.200,138.183 279.740,138.800 280.400 C 139.417 281.060,140.164 281.602,140.460 281.604 C 140.757 281.606,141.425 282.146,141.945 282.804 C 142.465 283.462,143.100 284.000,143.357 284.000 C 143.613 284.000,144.083 284.360,144.400 284.800 C 144.717 285.240,145.297 285.600,145.688 285.600 C 146.080 285.600,146.400 285.799,146.400 286.043 C 146.400 286.286,146.654 286.388,146.964 286.269 C 147.279 286.148,147.850 286.482,148.259 287.026 C 148.661 287.562,149.307 288.000,149.695 288.000 C 150.083 288.000,150.400 288.180,150.400 288.400 C 150.400 288.620,150.760 288.800,151.200 288.800 C 151.640 288.800,152.000 288.999,152.000 289.243 C 152.000 289.486,152.265 289.584,152.588 289.460 C 152.912 289.336,153.439 289.496,153.760 289.817 C 154.081 290.138,154.536 290.400,154.771 290.400 C 155.007 290.400,155.200 290.601,155.200 290.847 C 155.200 291.096,155.553 291.201,156.000 291.084 C 156.440 290.969,156.800 291.038,156.800 291.237 C 156.800 291.437,157.160 291.600,157.600 291.600 C 158.040 291.600,158.400 291.780,158.400 292.000 C 158.400 292.220,158.771 292.400,159.224 292.400 C 159.677 292.400,159.936 292.580,159.800 292.800 C 159.664 293.020,159.923 293.200,160.376 293.200 C 160.829 293.200,161.200 293.370,161.200 293.577 C 161.200 293.784,161.558 293.885,161.995 293.801 C 162.433 293.717,163.050 293.907,163.367 294.224 C 163.684 294.541,164.406 294.800,164.971 294.800 C 165.537 294.800,166.000 294.980,166.000 295.200 C 166.000 295.420,166.540 295.600,167.200 295.600 C 167.860 295.600,168.400 295.780,168.400 296.000 C 168.400 296.220,168.940 296.400,169.600 296.400 C 170.260 296.400,170.800 296.580,170.800 296.800 C 170.800 297.020,171.520 297.200,172.400 297.200 C 173.280 297.200,174.000 297.380,174.000 297.600 C 174.000 297.820,174.630 298.000,175.400 298.000 C 176.170 298.000,176.800 298.180,176.800 298.400 C 176.800 298.620,177.700 298.800,178.800 298.800 C 179.900 298.800,180.800 298.960,180.800 299.156 C 180.800 299.352,182.015 299.531,183.499 299.553 C 184.983 299.575,186.258 299.775,186.332 299.997 C 186.516 300.549,212.800 300.552,212.800 300.000 C 212.800 299.772,213.989 299.600,215.567 299.600 C 217.323 299.600,218.390 299.429,218.489 299.132 C 218.584 298.849,219.387 298.693,220.523 298.735 C 221.565 298.775,222.400 298.627,222.400 298.403 C 222.400 298.181,223.030 298.000,223.800 298.000 C 224.570 298.000,225.200 297.820,225.200 297.600 C 225.200 297.380,225.819 297.200,226.576 297.200 C 227.333 297.200,228.064 297.020,228.200 296.800 C 228.336 296.580,228.977 296.400,229.624 296.400 C 230.271 296.400,230.800 296.220,230.800 296.000 C 230.800 295.780,231.340 295.600,232.000 295.600 C 232.660 295.600,233.200 295.420,233.200 295.200 C 233.200 294.980,233.740 294.800,234.400 294.800 C 235.060 294.800,235.600 294.653,235.600 294.472 C 235.600 294.292,236.500 293.900,237.600 293.600 C 238.700 293.300,239.600 292.908,239.600 292.728 C 239.600 292.547,240.050 292.400,240.600 292.400 C 241.150 292.400,241.600 292.220,241.600 292.000 C 241.600 291.780,241.863 291.600,242.184 291.600 C 242.927 291.600,250.155 288.002,250.333 287.544 C 250.407 287.355,250.812 287.200,251.233 287.200 C 251.655 287.200,252.000 287.020,252.000 286.800 C 252.000 286.580,252.236 286.400,252.525 286.400 C 252.813 286.400,253.436 286.040,253.908 285.600 C 254.380 285.160,255.032 284.800,255.356 284.800 C 255.681 284.800,256.060 284.440,256.200 284.000 C 256.742 282.292,258.117 283.396,268.977 294.252 C 280.067 305.340,280.489 305.865,278.874 306.595 C 278.393 306.812,278.000 307.127,278.000 307.295 C 278.000 307.463,277.730 307.600,277.400 307.600 C 277.070 307.600,276.800 307.780,276.800 308.000 C 276.800 308.220,276.612 308.400,276.383 308.400 C 275.991 308.400,275.538 308.713,274.215 309.900 C 273.908 310.175,273.485 310.400,273.275 310.400 C 273.064 310.400,272.607 310.835,272.259 311.366 C 271.819 312.038,271.379 312.267,270.813 312.119 C 270.258 311.974,270.000 312.100,270.000 312.516 C 270.000 312.944,269.742 313.058,269.133 312.898 C 268.453 312.721,268.319 312.811,268.512 313.315 C 268.686 313.767,268.586 313.893,268.180 313.737 C 267.861 313.614,267.600 313.714,267.600 313.957 C 267.600 314.201,267.240 314.400,266.800 314.400 C 266.360 314.400,266.000 314.580,266.000 314.800 C 266.000 315.020,265.655 315.200,265.233 315.200 C 264.812 315.200,264.407 315.367,264.333 315.570 C 264.260 315.774,263.930 315.999,263.600 316.070 C 263.270 316.142,262.709 316.515,262.353 316.900 C 261.997 317.285,261.412 317.600,261.053 317.600 C 260.694 317.600,260.400 317.780,260.400 318.000 C 260.400 318.220,260.207 318.400,259.971 318.400 C 259.736 318.400,259.271 318.672,258.939 319.004 C 258.607 319.336,258.170 319.505,257.968 319.380 C 257.765 319.255,257.600 319.343,257.600 319.576 C 257.600 319.809,257.240 320.000,256.800 320.000 C 256.360 320.000,256.000 320.180,256.000 320.400 C 256.000 320.620,255.500 320.800,254.888 320.800 C 254.240 320.800,253.539 321.130,253.206 321.591 C 252.787 322.173,252.554 322.252,252.324 321.891 C 252.079 321.506,252.011 321.508,252.006 321.900 C 252.003 322.175,251.655 322.400,251.233 322.400 C 250.812 322.400,250.407 322.578,250.333 322.797 C 250.260 323.015,249.705 323.234,249.100 323.284 C 248.495 323.334,248.000 323.515,248.000 323.687 C 248.000 323.859,247.640 324.000,247.200 324.000 C 246.760 324.000,246.400 324.137,246.400 324.304 C 246.400 324.471,246.021 324.844,245.558 325.133 C 245.095 325.422,244.836 325.466,244.982 325.230 C 245.272 324.759,244.304 324.629,243.855 325.078 C 243.575 325.358,243.157 325.479,241.068 325.882 C 240.446 326.002,239.848 326.330,239.741 326.611 C 239.619 326.928,239.101 327.052,238.372 326.937 C 237.728 326.835,237.200 326.906,237.200 327.093 C 237.200 327.281,236.075 327.666,234.700 327.947 C 233.325 328.229,231.787 328.626,231.281 328.830 C 230.776 329.033,229.831 329.200,229.181 329.200 C 228.532 329.200,228.000 329.380,228.000 329.600 C 228.000 329.820,227.115 330.000,226.033 330.000 C 224.823 330.000,224.003 330.191,223.901 330.496 C 223.790 330.830,222.994 330.960,221.468 330.892 C 220.140 330.833,219.200 330.959,219.200 331.196 C 219.200 331.436,217.824 331.600,215.800 331.600 C 213.800 331.600,212.400 331.765,212.400 332.000 C 212.400 332.258,207.933 332.400,199.800 332.400 C 192.256 332.400,187.200 332.250,187.200 332.026 C 187.200 331.821,185.639 331.647,183.732 331.640 C 181.824 331.633,180.159 331.462,180.032 331.260 C 179.904 331.058,178.918 330.921,177.839 330.957 C 176.700 330.994,175.665 330.807,175.368 330.511 C 175.087 330.230,174.135 330.000,173.252 330.000 C 172.369 330.000,171.536 329.820,171.400 329.600 C 171.264 329.380,170.364 329.200,169.400 329.200 C 168.436 329.200,167.536 329.020,167.400 328.800 C 167.264 328.580,166.533 328.400,165.776 328.400 C 165.019 328.400,164.400 328.243,164.400 328.052 C 164.400 327.726,160.622 326.981,159.850 327.155 C 159.657 327.198,159.207 326.980,158.850 326.670 C 158.492 326.361,157.660 325.965,157.000 325.791 C 156.340 325.617,155.530 325.403,155.200 325.316 C 154.870 325.228,154.060 325.075,153.400 324.975 C 152.740 324.875,152.140 324.615,152.067 324.397 C 151.993 324.178,151.588 324.000,151.167 324.000 C 150.745 324.000,150.400 323.820,150.400 323.600 C 150.400 323.380,149.860 323.200,149.200 323.200 C 148.540 323.200,148.000 323.020,148.000 322.800 C 148.000 322.580,147.640 322.400,147.200 322.400 C 146.760 322.400,146.400 322.220,146.400 322.000 C 146.400 321.780,146.040 321.600,145.600 321.600 C 145.160 321.600,144.800 321.420,144.800 321.200 C 144.800 320.980,144.440 320.800,144.000 320.800 C 143.560 320.800,143.200 320.620,143.200 320.400 C 143.200 320.180,142.840 320.000,142.400 320.000 C 141.960 320.000,141.600 319.864,141.600 319.698 C 141.600 319.233,139.272 318.309,138.814 318.591 C 138.577 318.738,138.508 318.585,138.647 318.221 C 138.816 317.781,138.640 317.600,138.043 317.600 C 137.579 317.600,137.200 317.420,137.200 317.200 C 137.200 316.980,136.739 316.800,136.176 316.800 C 135.596 316.800,135.260 316.627,135.400 316.400 C 135.536 316.180,135.277 316.000,134.824 316.000 C 134.371 316.000,134.000 315.820,134.000 315.600 C 134.000 315.380,133.680 315.200,133.288 315.200 C 132.897 315.200,132.324 314.850,132.015 314.421 C 131.707 313.993,131.330 313.719,131.179 313.813 C 131.027 313.907,130.492 313.627,129.990 313.192 C 129.488 312.756,128.933 312.400,128.757 312.400 C 128.581 312.400,127.986 311.950,127.436 311.400 C 126.886 310.850,126.158 310.400,125.818 310.400 C 125.478 310.400,125.200 310.224,125.200 310.008 C 125.200 309.793,124.471 309.244,123.581 308.790 C 122.690 308.336,121.861 307.702,121.738 307.382 C 121.615 307.062,121.174 306.800,120.757 306.800 C 120.341 306.800,120.000 306.609,120.000 306.376 C 120.000 306.143,119.820 306.064,119.600 306.200 C 119.380 306.336,119.200 306.244,119.200 305.995 C 119.200 305.412,118.189 304.400,117.606 304.400 C 117.359 304.400,116.093 303.317,114.795 301.994 C 113.496 300.671,112.280 299.636,112.093 299.694 C 111.905 299.752,110.839 298.864,109.722 297.721 C 108.606 296.577,107.553 295.767,107.382 295.921 C 107.211 296.074,107.186 296.000,107.326 295.755 C 107.616 295.246,104.809 292.531,104.201 292.733 C 103.980 292.807,103.923 292.744,104.073 292.593 C 104.397 292.270,101.825 289.600,101.190 289.600 C 100.949 289.600,100.864 289.420,101.000 289.200 C 101.136 288.980,101.057 288.800,100.824 288.800 C 100.591 288.800,100.400 288.525,100.400 288.189 C 100.400 287.474,96.990 283.943,96.639 284.295 C 96.412 284.521,96.242 283.773,96.361 283.076 C 96.391 282.898,95.647 282.011,94.708 281.106 C 93.769 280.200,93.040 279.325,93.089 279.161 C 93.139 278.998,92.737 278.444,92.196 277.932 C 91.656 277.419,91.211 276.762,91.207 276.471 C 91.199 275.833,90.223 274.800,89.629 274.800 C 89.393 274.800,89.236 274.665,89.279 274.500 C 89.423 273.954,88.753 272.400,88.373 272.400 C 88.168 272.400,88.000 272.040,88.000 271.600 C 88.000 271.160,87.809 270.800,87.576 270.800 C 87.343 270.800,87.281 271.008,87.438 271.262 C 87.611 271.541,87.548 271.615,87.279 271.449 C 87.035 271.298,86.936 270.910,87.060 270.587 C 87.197 270.230,87.048 270.000,86.680 270.000 C 86.272 270.000,86.143 269.740,86.284 269.200 C 86.401 268.753,86.296 268.400,86.047 268.400 C 85.801 268.400,85.600 268.080,85.600 267.688 C 85.600 267.297,85.240 266.717,84.800 266.400 C 84.360 266.083,84.000 265.503,84.000 265.112 C 84.000 264.720,83.820 264.400,83.600 264.400 C 83.380 264.400,83.200 264.040,83.200 263.600 C 83.200 263.160,83.020 262.800,82.800 262.800 C 82.580 262.800,82.400 262.530,82.400 262.200 C 82.400 261.870,82.220 261.600,82.000 261.600 C 81.780 261.600,81.600 261.366,81.600 261.080 C 81.600 260.344,80.659 258.407,80.300 258.403 C 80.135 258.401,80.000 258.040,80.000 257.600 C 80.000 257.160,79.854 256.800,79.675 256.800 C 79.496 256.800,79.102 256.170,78.800 255.400 C 78.498 254.630,78.104 254.000,77.925 254.000 C 77.746 254.000,77.600 253.370,77.600 252.600 C 77.600 251.830,77.420 251.200,77.200 251.200 C 76.980 251.200,76.800 250.840,76.800 250.400 C 76.800 249.960,76.620 249.600,76.400 249.600 C 76.180 249.600,76.000 249.060,76.000 248.400 C 76.000 247.740,75.836 247.200,75.635 247.200 C 75.434 247.200,75.142 246.442,74.986 245.515 C 74.829 244.589,74.543 243.509,74.351 243.115 C 74.158 242.722,73.820 242.042,73.600 241.605 C 73.380 241.168,73.200 240.506,73.200 240.134 C 73.200 239.372,72.511 237.080,71.853 235.656 C 71.614 235.137,71.474 234.172,71.544 233.511 C 71.626 232.723,71.520 232.402,71.235 232.578 C 70.946 232.757,70.800 232.242,70.800 231.047 C 70.800 230.057,70.620 229.136,70.400 229.000 C 70.180 228.864,70.000 227.863,70.000 226.776 C 70.000 225.689,69.820 224.800,69.600 224.800 C 69.378 224.800,69.200 223.733,69.200 222.400 C 69.200 221.067,69.022 220.000,68.800 220.000 C 68.565 220.000,68.400 218.627,68.400 216.680 C 68.400 214.854,68.216 213.176,67.992 212.952 C 67.471 212.431,67.403 187.574,67.921 187.237 C 68.122 187.107,68.325 185.473,68.371 183.606 C 68.418 181.740,68.606 180.120,68.789 180.006 C 68.972 179.893,69.130 178.827,69.139 177.637 C 69.148 176.448,69.357 175.350,69.604 175.198 C 69.866 175.036,69.983 174.231,69.886 173.260 C 69.795 172.347,69.884 171.600,70.084 171.600 C 70.284 171.600,70.336 171.420,70.200 171.200 C 70.064 170.980,70.138 170.800,70.364 170.800 C 70.590 170.800,70.751 170.154,70.722 169.364 C 70.692 168.563,70.898 167.787,71.189 167.607 C 71.502 167.414,71.628 166.860,71.506 166.220 C 71.384 165.582,71.534 164.924,71.880 164.577 C 72.197 164.260,72.424 163.595,72.384 163.100 C 72.245 161.375,72.390 160.747,72.863 161.039 C 73.181 161.235,73.255 161.052,73.099 160.456 C 72.969 159.959,73.114 159.344,73.436 159.022 C 73.746 158.711,74.000 158.096,74.000 157.655 C 74.000 157.213,74.201 156.345,74.447 155.726 C 74.693 155.107,74.965 154.060,75.051 153.400 C 75.137 152.740,75.385 152.140,75.603 152.067 C 75.822 151.993,76.000 151.588,76.000 151.167 C 76.000 150.745,76.180 150.400,76.400 150.400 C 76.620 150.400,76.800 149.860,76.800 149.200 C 76.800 148.540,76.980 148.000,77.200 148.000 C 77.420 148.000,77.600 147.640,77.600 147.200 C 77.600 146.760,77.780 146.400,78.000 146.400 C 78.220 146.400,78.400 146.040,78.400 145.600 C 78.400 145.160,78.580 144.800,78.800 144.800 C 79.020 144.800,79.200 144.440,79.200 144.000 C 79.200 143.560,79.380 143.200,79.600 143.200 C 79.820 143.200,80.000 142.840,80.000 142.400 C 80.000 141.960,80.180 141.600,80.400 141.600 C 80.620 141.600,80.800 141.240,80.800 140.800 C 80.800 140.360,80.980 140.000,81.200 140.000 C 81.420 140.000,81.600 139.730,81.600 139.400 C 81.600 139.070,81.780 138.800,82.000 138.800 C 82.220 138.800,82.400 138.566,82.400 138.280 C 82.400 137.544,83.341 135.607,83.700 135.603 C 83.865 135.601,84.000 135.240,84.000 134.800 C 84.000 134.360,84.180 134.000,84.400 134.000 C 84.620 134.000,84.800 133.680,84.800 133.288 C 84.800 132.897,85.150 132.324,85.579 132.015 C 86.007 131.707,86.281 131.331,86.187 131.179 C 86.094 131.028,86.464 130.386,87.011 129.752 C 87.557 129.118,87.919 128.375,87.815 128.100 C 87.710 127.825,87.812 127.600,88.041 127.600 C 88.664 127.600,89.684 126.459,89.429 126.047 C 89.307 125.849,89.655 125.394,90.203 125.035 C 90.752 124.675,91.200 124.124,91.200 123.809 C 91.200 123.494,91.650 122.786,92.200 122.236 C 92.750 121.686,93.200 121.030,93.200 120.779 C 93.200 120.527,93.740 119.817,94.400 119.200 C 95.060 118.583,95.600 117.870,95.600 117.614 C 95.600 117.358,96.500 116.271,97.600 115.200 C 98.700 114.129,99.600 113.050,99.600 112.802 C 99.600 112.555,99.811 112.483,100.068 112.642 C 100.370 112.829,100.456 112.723,100.311 112.345 C 100.171 111.979,100.757 111.166,101.871 110.180 C 105.002 107.408,105.991 106.308,105.730 105.887 C 105.591 105.661,105.650 105.584,105.862 105.715 C 106.250 105.954,107.066 105.235,109.965 102.100 C 110.830 101.165,111.832 100.400,112.192 100.400 C 112.552 100.400,112.736 100.220,112.600 100.000 C 112.464 99.780,112.558 99.600,112.808 99.600 C 113.058 99.600,113.954 98.880,114.800 98.000 C 115.646 97.120,116.546 96.400,116.800 96.400 C 117.391 96.400,120.398 93.287,120.406 92.667 C 120.410 92.377,120.546 92.412,120.766 92.758 C 121.051 93.208,121.326 93.111,122.178 92.258 C 122.760 91.676,123.497 91.200,123.815 91.200 C 124.133 91.200,124.618 90.840,124.893 90.400 C 125.168 89.960,125.720 89.600,126.120 89.600 C 126.520 89.600,126.736 89.420,126.600 89.200 C 126.464 88.980,126.633 88.800,126.976 88.800 C 127.319 88.800,127.600 88.536,127.600 88.213 C 127.600 87.863,127.835 87.715,128.182 87.849 C 128.507 87.973,129.226 87.610,129.808 87.028 C 130.382 86.454,131.020 86.089,131.226 86.216 C 131.432 86.343,131.600 86.257,131.600 86.024 C 131.600 85.791,131.920 85.600,132.312 85.600 C 132.703 85.600,133.283 85.240,133.600 84.800 C 133.917 84.360,134.497 84.000,134.888 84.000 C 135.280 84.000,135.600 83.854,135.600 83.675 C 135.600 83.496,136.230 83.102,137.000 82.800 C 137.770 82.498,138.400 82.104,138.400 81.925 C 138.400 81.746,138.634 81.600,138.920 81.600 C 139.656 81.600,141.593 80.659,141.597 80.300 C 141.599 80.135,141.878 80.000,142.217 80.000 C 142.556 80.000,143.220 79.640,143.692 79.200 C 144.164 78.760,144.967 78.400,145.475 78.400 C 145.984 78.400,146.400 78.220,146.400 78.000 C 146.400 77.780,146.985 77.597,147.700 77.594 C 148.686 77.589,148.855 77.494,148.400 77.200 C 147.945 76.906,148.114 76.811,149.100 76.806 C 149.815 76.803,150.400 76.620,150.400 76.400 C 150.400 76.180,150.940 76.000,151.600 76.000 C 152.260 76.000,152.800 75.831,152.800 75.625 C 152.800 75.418,153.612 75.127,154.605 74.978 C 155.598 74.829,156.508 74.548,156.629 74.354 C 156.749 74.159,157.287 74.000,157.824 74.000 C 158.361 74.000,158.800 73.820,158.800 73.600 C 158.800 73.380,159.235 73.200,159.767 73.200 C 161.300 73.200,162.181 72.766,161.534 72.329 C 161.200 72.105,161.559 72.067,162.487 72.227 C 163.541 72.409,164.145 72.312,164.564 71.893 C 164.922 71.535,165.574 71.382,166.220 71.506 C 166.860 71.628,167.414 71.502,167.607 71.189 C 167.787 70.898,168.563 70.692,169.364 70.722 C 170.154 70.751,170.800 70.590,170.800 70.364 C 170.800 70.138,170.968 70.056,171.172 70.183 C 171.377 70.309,171.643 70.253,171.764 70.058 C 171.885 69.863,172.707 69.787,173.592 69.889 C 174.602 70.006,175.200 69.912,175.200 69.637 C 175.200 69.370,176.121 69.200,177.567 69.200 C 178.868 69.200,179.993 69.029,180.067 68.821 C 180.140 68.612,181.775 68.408,183.700 68.366 C 185.625 68.325,187.200 68.139,187.200 67.952 C 187.200 67.243,212.331 67.320,212.804 68.030 M206.800 134.436 C 206.800 134.638,207.892 134.779,209.227 134.749 C 210.576 134.719,211.855 134.895,212.107 135.147 C 212.356 135.396,213.334 135.600,214.280 135.600 C 215.226 135.600,216.000 135.780,216.000 136.000 C 216.000 136.220,216.540 136.400,217.200 136.400 C 217.860 136.400,218.400 136.593,218.400 136.829 C 218.400 137.064,218.805 137.224,219.300 137.184 C 221.059 137.042,222.044 137.206,221.800 137.600 C 221.664 137.820,221.913 138.000,222.353 138.000 C 222.793 138.000,223.274 138.196,223.422 138.435 C 223.569 138.674,224.018 138.784,224.419 138.679 C 224.838 138.570,225.246 138.743,225.378 139.086 C 225.504 139.414,225.870 139.582,226.193 139.458 C 226.515 139.334,226.919 139.460,227.089 139.738 C 227.464 140.348,230.068 141.600,230.960 141.600 C 231.312 141.600,231.600 141.780,231.600 142.000 C 231.600 142.220,231.920 142.400,232.312 142.400 C 232.703 142.400,233.283 142.760,233.600 143.200 C 233.917 143.640,234.617 144.000,235.155 144.000 C 235.693 144.000,236.022 144.111,235.886 144.248 C 235.572 144.562,236.589 145.600,237.211 145.600 C 237.468 145.600,238.183 146.140,238.800 146.800 C 239.417 147.460,240.169 148.000,240.472 148.000 C 240.775 148.000,241.288 148.377,241.612 148.837 C 242.759 150.470,243.485 151.182,243.741 150.926 C 243.883 150.783,244.000 150.859,244.000 151.094 C 244.000 151.617,249.549 157.286,250.974 158.220 C 251.538 158.589,252.000 159.140,252.000 159.443 C 252.000 159.745,252.540 160.509,253.200 161.140 C 253.860 161.771,254.400 162.542,254.400 162.855 C 254.400 163.168,254.760 163.683,255.200 164.000 C 255.640 164.317,256.000 164.857,256.000 165.200 C 256.000 165.543,256.360 166.083,256.800 166.400 C 257.240 166.717,257.600 167.297,257.600 167.688 C 257.600 168.080,257.780 168.400,258.000 168.400 C 258.220 168.400,258.400 168.665,258.400 168.988 C 258.400 169.311,258.758 170.212,259.195 170.991 C 259.632 171.769,260.021 172.540,260.058 172.703 C 260.361 174.008,260.528 174.368,260.763 174.223 C 260.912 174.131,261.077 174.628,261.130 175.328 C 261.182 176.027,261.400 176.660,261.613 176.733 C 261.826 176.807,262.000 177.392,262.000 178.033 C 262.000 178.675,262.180 179.200,262.400 179.200 C 262.620 179.200,262.800 179.725,262.800 180.367 C 262.800 181.008,262.974 181.593,263.187 181.667 C 263.400 181.740,263.617 182.430,263.668 183.200 C 263.720 183.970,263.933 184.718,264.143 184.862 C 264.352 185.006,264.507 185.722,264.486 186.453 C 264.465 187.184,264.630 187.895,264.852 188.032 C 265.074 188.170,265.252 189.574,265.247 191.153 C 265.242 192.872,265.391 193.929,265.619 193.788 C 265.854 193.643,266.000 195.936,266.000 199.776 C 266.000 203.659,265.850 206.000,265.600 206.000 C 265.371 206.000,265.200 207.200,265.200 208.800 C 265.200 210.340,265.038 211.600,264.841 211.600 C 264.644 211.600,264.513 212.251,264.550 213.048 C 264.588 213.844,264.395 214.789,264.122 215.148 C 263.849 215.506,263.620 216.385,263.613 217.100 C 263.606 217.815,263.420 218.400,263.200 218.400 C 262.980 218.400,262.800 218.940,262.800 219.600 C 262.800 220.260,262.620 220.800,262.400 220.800 C 262.180 220.800,262.000 221.340,262.000 222.000 C 262.000 222.660,261.820 223.200,261.600 223.200 C 261.380 223.200,261.200 223.545,261.200 223.967 C 261.200 224.388,261.058 224.793,260.884 224.867 C 260.553 225.006,258.400 229.396,258.400 229.931 C 258.400 230.811,257.325 232.330,256.733 232.285 C 256.360 232.257,256.127 232.118,256.214 231.977 C 256.451 231.594,251.690 227.248,251.358 227.545 C 251.201 227.685,251.181 227.607,251.315 227.371 C 251.585 226.897,250.206 225.527,249.834 225.900 C 249.705 226.028,249.600 225.823,249.600 225.443 C 249.600 225.063,249.420 224.864,249.200 225.000 C 248.980 225.136,248.800 225.053,248.800 224.815 C 248.800 224.135,244.426 219.937,243.995 220.203 C 243.779 220.337,243.714 220.169,243.847 219.821 C 244.007 219.404,243.853 219.200,243.376 219.200 C 242.986 219.200,242.778 219.089,242.914 218.952 C 243.284 218.582,242.164 217.605,241.329 217.568 C 240.928 217.551,240.820 217.448,241.089 217.339 C 241.640 217.116,239.670 214.924,239.085 215.110 C 238.896 215.170,238.838 215.062,238.958 214.868 C 239.294 214.324,237.334 212.670,236.768 213.020 C 236.475 213.201,236.379 213.158,236.530 212.913 C 236.853 212.391,235.428 210.715,234.995 211.107 C 234.817 211.268,234.787 211.198,234.928 210.950 C 235.069 210.703,234.738 210.165,234.192 209.755 C 233.233 209.035,232.672 206.427,233.600 207.000 C 234.260 207.408,234.130 193.805,233.468 193.257 C 233.145 192.988,233.009 192.319,233.122 191.551 C 233.251 190.674,233.168 190.372,232.854 190.567 C 232.548 190.756,232.400 190.383,232.400 189.424 C 232.400 188.641,232.220 188.000,232.000 188.000 C 231.780 188.000,231.600 187.460,231.600 186.800 C 231.600 186.140,231.420 185.600,231.200 185.600 C 230.980 185.600,230.800 185.240,230.800 184.800 C 230.800 184.360,230.620 184.000,230.400 184.000 C 230.180 184.000,230.000 183.680,230.000 183.288 C 230.000 182.897,229.640 182.317,229.200 182.000 C 228.760 181.683,228.400 181.207,228.400 180.943 C 228.400 180.679,227.576 179.639,226.568 178.632 C 225.561 177.624,224.872 176.800,225.038 176.800 C 225.204 176.800,224.917 176.350,224.400 175.800 C 223.883 175.250,223.102 174.800,222.664 174.800 C 222.225 174.800,221.964 174.702,222.084 174.583 C 222.394 174.273,219.717 171.600,219.095 171.600 C 218.810 171.600,218.322 171.247,218.011 170.815 C 217.557 170.185,217.323 170.123,216.823 170.502 C 216.480 170.761,216.326 170.823,216.481 170.639 C 216.848 170.203,215.836 169.200,215.029 169.200 C 214.683 169.200,214.400 169.020,214.400 168.800 C 214.400 168.580,213.860 168.400,213.200 168.400 C 212.540 168.400,212.000 168.220,212.000 168.000 C 212.000 167.780,211.460 167.600,210.800 167.600 C 210.140 167.600,209.600 167.432,209.600 167.227 C 209.600 167.021,209.066 166.869,208.414 166.887 C 207.761 166.906,206.996 166.734,206.714 166.506 C 206.089 166.001,194.058 166.057,193.242 166.569 C 192.936 166.761,192.171 166.904,191.542 166.886 C 190.914 166.868,190.400 167.021,190.400 167.227 C 190.400 167.432,189.875 167.600,189.233 167.600 C 188.592 167.600,188.007 167.778,187.933 167.997 C 187.860 168.215,187.305 168.434,186.700 168.484 C 186.092 168.534,185.600 168.814,185.600 169.111 C 185.600 169.406,185.420 169.536,185.200 169.400 C 184.980 169.264,184.786 169.388,184.768 169.676 C 184.745 170.064,184.685 170.073,184.539 169.712 C 184.336 169.212,184.203 169.280,182.634 170.681 C 182.338 170.945,181.984 171.050,181.848 170.914 C 181.711 170.778,181.600 170.865,181.600 171.106 C 181.600 171.348,181.229 171.664,180.776 171.808 C 180.323 171.951,179.157 172.864,178.186 173.835 C 177.215 174.806,176.236 175.600,176.011 175.600 C 175.785 175.600,175.600 175.798,175.600 176.040 C 175.600 176.281,174.700 177.361,173.600 178.438 C 172.500 179.515,171.600 180.656,171.600 180.974 C 171.600 181.293,171.417 181.666,171.193 181.804 C 170.970 181.942,170.882 182.208,170.997 182.396 C 171.113 182.583,170.756 183.091,170.204 183.526 C 169.652 183.960,169.200 184.604,169.200 184.958 C 169.200 185.311,169.020 185.600,168.800 185.600 C 168.580 185.600,168.400 186.140,168.400 186.800 C 168.400 187.460,168.220 188.000,168.000 188.000 C 167.780 188.000,167.600 188.540,167.600 189.200 C 167.600 189.860,167.432 190.400,167.227 190.400 C 167.021 190.400,166.869 190.934,166.887 191.586 C 166.906 192.239,166.705 193.032,166.442 193.349 C 165.828 194.089,165.878 205.960,166.498 206.714 C 166.731 206.996,166.906 207.761,166.887 208.414 C 166.869 209.066,167.021 209.600,167.227 209.600 C 167.432 209.600,167.600 210.140,167.600 210.800 C 167.600 211.460,167.780 212.000,168.000 212.000 C 168.220 212.000,168.400 212.349,168.400 212.776 C 168.400 213.203,168.580 213.664,168.800 213.800 C 169.020 213.936,169.200 214.472,169.200 214.990 C 169.200 215.509,169.366 215.993,169.570 216.067 C 169.773 216.140,169.998 216.470,170.070 216.800 C 170.141 217.130,170.515 217.691,170.900 218.047 C 171.285 218.403,171.600 218.901,171.600 219.153 C 171.600 220.002,180.330 228.400,181.212 228.400 C 181.672 228.400,181.936 228.580,181.800 228.800 C 181.664 229.020,181.884 229.200,182.288 229.200 C 182.693 229.200,183.283 229.560,183.600 230.000 C 183.917 230.440,184.497 230.800,184.888 230.800 C 185.280 230.800,185.600 230.980,185.600 231.200 C 185.600 231.420,186.140 231.600,186.800 231.600 C 187.460 231.600,188.000 231.780,188.000 232.000 C 188.000 232.220,188.641 232.400,189.424 232.400 C 190.271 232.400,190.747 232.562,190.600 232.800 C 190.453 233.038,190.921 233.200,191.753 233.200 C 192.523 233.200,193.258 233.370,193.386 233.578 C 193.685 234.062,206.325 234.046,206.624 233.561 C 207.192 232.641,208.697 233.959,219.945 245.231 C 231.587 256.898,232.821 258.400,230.757 258.400 C 230.341 258.400,230.000 258.574,230.000 258.787 C 230.000 259.001,229.732 259.072,229.403 258.946 C 229.058 258.813,228.699 258.997,228.552 259.381 C 228.412 259.747,228.056 259.953,227.761 259.840 C 227.467 259.727,227.119 259.807,226.989 260.017 C 226.859 260.228,226.313 260.400,225.776 260.400 C 225.239 260.400,224.800 260.551,224.800 260.736 C 224.800 261.218,222.933 262.000,221.781 262.000 C 221.242 262.000,220.800 262.180,220.800 262.400 C 220.800 262.620,220.260 262.800,219.600 262.800 C 218.940 262.800,218.400 262.980,218.400 263.200 C 218.400 263.420,217.661 263.600,216.757 263.600 C 215.583 263.600,215.171 263.747,215.312 264.114 C 215.455 264.489,215.139 264.585,214.149 264.470 C 213.401 264.383,212.515 264.539,212.180 264.817 C 211.812 265.122,210.513 265.308,208.893 265.286 C 207.421 265.267,206.122 265.398,206.008 265.578 C 205.779 265.939,200.549 266.209,196.276 266.081 C 194.673 266.033,193.650 265.843,193.788 265.619 C 193.929 265.391,192.860 265.242,191.121 265.247 C 189.406 265.253,188.160 265.081,188.076 264.828 C 187.998 264.593,187.048 264.400,185.967 264.400 C 184.885 264.400,184.000 264.220,184.000 264.000 C 184.000 263.780,183.460 263.600,182.800 263.600 C 182.140 263.600,181.600 263.420,181.600 263.200 C 181.600 262.980,180.880 262.800,180.000 262.800 C 179.120 262.800,178.400 262.620,178.400 262.400 C 178.400 262.180,178.055 262.000,177.633 262.000 C 177.212 262.000,176.807 261.826,176.733 261.613 C 176.660 261.400,176.027 261.182,175.328 261.130 C 174.628 261.077,174.120 260.930,174.199 260.802 C 174.278 260.674,173.770 260.329,173.071 260.035 C 172.372 259.741,171.277 259.253,170.639 258.950 C 170.000 258.648,169.134 258.400,168.715 258.400 C 168.296 258.400,168.064 258.220,168.200 258.000 C 168.336 257.780,168.143 257.600,167.771 257.600 C 167.398 257.600,166.767 257.223,166.368 256.763 C 165.969 256.303,165.476 256.030,165.272 256.156 C 165.068 256.282,164.565 255.938,164.155 255.392 C 163.746 254.847,163.165 254.400,162.866 254.400 C 162.566 254.400,161.817 253.860,161.200 253.200 C 160.583 252.540,159.791 252.000,159.440 252.000 C 159.088 252.000,158.800 251.842,158.800 251.650 C 158.800 251.154,151.656 244.000,151.161 244.000 C 150.937 244.000,150.864 243.820,151.000 243.600 C 151.136 243.380,151.091 243.200,150.901 243.200 C 150.266 243.200,148.000 241.093,148.000 240.502 C 148.000 240.183,147.460 239.417,146.800 238.800 C 146.140 238.183,145.600 237.431,145.600 237.128 C 145.600 236.825,145.240 236.317,144.800 236.000 C 144.360 235.683,144.000 235.143,144.000 234.800 C 144.000 234.457,143.640 233.917,143.200 233.600 C 142.760 233.283,142.400 232.703,142.400 232.312 C 142.400 231.920,142.220 231.600,142.000 231.600 C 141.780 231.600,141.600 231.320,141.600 230.978 C 141.600 229.978,140.001 226.752,139.621 226.987 C 139.431 227.105,139.376 226.813,139.500 226.338 C 139.655 225.747,139.580 225.565,139.263 225.761 C 138.799 226.048,138.709 225.784,138.697 224.100 C 138.693 223.605,138.535 223.200,138.345 223.200 C 138.155 223.200,138.000 222.660,138.000 222.000 C 138.000 221.340,137.820 220.800,137.600 220.800 C 137.380 220.800,137.200 220.260,137.200 219.600 C 137.200 218.940,137.020 218.400,136.800 218.400 C 136.580 218.400,136.400 217.680,136.400 216.800 C 136.400 215.920,136.220 215.200,136.000 215.200 C 135.780 215.200,135.600 214.495,135.600 213.633 C 135.600 212.772,135.396 211.999,135.147 211.916 C 134.859 211.820,134.715 210.756,134.753 209.010 C 134.788 207.417,134.632 206.143,134.384 205.990 C 133.811 205.636,133.836 193.548,134.411 193.193 C 134.639 193.053,134.790 191.881,134.748 190.590 C 134.700 189.102,134.841 188.186,135.136 188.088 C 135.404 187.999,135.600 187.104,135.600 185.967 C 135.600 184.885,135.780 184.000,136.000 184.000 C 136.220 184.000,136.400 183.460,136.400 182.800 C 136.400 182.140,136.580 181.600,136.800 181.600 C 137.020 181.600,137.200 180.880,137.200 180.000 C 137.200 179.120,137.380 178.400,137.600 178.400 C 137.820 178.400,138.000 178.040,138.000 177.600 C 138.000 177.160,138.201 176.800,138.447 176.800 C 138.707 176.800,138.814 176.384,138.702 175.800 C 138.597 175.250,138.650 174.800,138.820 174.800 C 139.336 174.800,141.171 170.801,140.661 170.788 C 140.407 170.781,140.515 170.592,140.900 170.368 C 141.285 170.144,141.600 169.609,141.600 169.180 C 141.600 168.751,141.780 168.400,142.000 168.400 C 142.220 168.400,142.400 168.080,142.400 167.688 C 142.400 167.297,142.760 166.717,143.200 166.400 C 143.640 166.083,144.000 165.503,144.000 165.112 C 144.000 164.720,144.150 164.400,144.332 164.400 C 144.515 164.400,144.920 163.905,145.232 163.300 C 145.545 162.695,146.295 161.723,146.900 161.140 C 147.505 160.556,148.000 159.791,148.000 159.440 C 148.000 159.088,148.174 158.800,148.386 158.800 C 149.122 158.800,156.845 150.797,156.558 150.332 C 156.380 150.045,156.455 149.987,156.759 150.175 C 157.229 150.465,158.800 149.052,158.800 148.339 C 158.800 148.152,159.117 148.000,159.505 148.000 C 159.893 148.000,160.552 147.545,160.970 146.988 C 161.388 146.431,162.331 145.691,163.065 145.342 C 163.799 144.994,164.400 144.549,164.400 144.354 C 164.400 144.159,164.720 144.000,165.112 144.000 C 165.503 144.000,166.083 143.640,166.400 143.200 C 166.717 142.760,167.297 142.400,167.688 142.400 C 168.080 142.400,168.400 142.220,168.400 142.000 C 168.400 141.780,168.751 141.600,169.180 141.600 C 169.609 141.600,170.144 141.285,170.368 140.900 C 170.592 140.515,170.781 140.407,170.788 140.661 C 170.801 141.171,174.800 139.336,174.800 138.820 C 174.800 138.650,175.295 138.605,175.900 138.720 C 176.864 138.903,176.936 138.851,176.480 138.300 C 176.019 137.741,176.142 137.695,177.580 137.888 C 178.647 138.031,179.200 137.951,179.200 137.653 C 179.200 137.404,179.725 137.200,180.367 137.200 C 181.008 137.200,181.595 137.016,181.670 136.791 C 181.744 136.567,182.479 136.358,183.303 136.327 C 184.126 136.296,184.800 136.120,184.800 135.935 C 184.800 135.751,185.520 135.600,186.400 135.600 C 187.280 135.600,188.000 135.420,188.000 135.200 C 188.000 134.973,189.173 134.800,190.720 134.800 C 192.216 134.800,193.613 134.627,193.824 134.416 C 194.570 133.670,206.800 133.689,206.800 134.436 " stroke="none"    ></path><path id="path1" d="M128.227 128.370 C 127.565 129.101,127.565 129.134,128.232 129.036 C 128.618 128.980,128.978 128.633,129.031 128.267 C 129.156 127.420,129.078 127.430,128.227 128.370 M198.900 166.287 C 199.505 166.378,200.495 166.378,201.100 166.287 C 201.705 166.195,201.210 166.120,200.000 166.120 C 198.790 166.120,198.295 166.195,198.900 166.287 M199.300 266.276 C 199.685 266.376,200.315 266.376,200.700 266.276 C 201.085 266.175,200.770 266.093,200.000 266.093 C 199.230 266.093,198.915 266.175,199.300 266.276 " stroke="none"   ></path><path id="path2" d="M128.227 128.370 C 127.565 129.101,127.565 129.134,128.232 129.036 C 128.618 128.980,128.978 128.633,129.031 128.267 C 129.156 127.420,129.078 127.430,128.227 128.370 M198.900 166.287 C 199.505 166.378,200.495 166.378,201.100 166.287 C 201.705 166.195,201.210 166.120,200.000 166.120 C 198.790 166.120,198.295 166.195,198.900 166.287 M199.300 266.276 C 199.685 266.376,200.315 266.376,200.700 266.276 C 201.085 266.175,200.770 266.093,200.000 266.093 C 199.230 266.093,198.915 266.175,199.300 266.276 " stroke="none"    ></path><path id="path3" d="M128.227 128.370 C 127.565 129.101,127.565 129.134,128.232 129.036 C 128.618 128.980,128.978 128.633,129.031 128.267 C 129.156 127.420,129.078 127.430,128.227 128.370 M198.900 166.287 C 199.505 166.378,200.495 166.378,201.100 166.287 C 201.705 166.195,201.210 166.120,200.000 166.120 C 198.790 166.120,198.295 166.195,198.900 166.287 M199.300 266.276 C 199.685 266.376,200.315 266.376,200.700 266.276 C 201.085 266.175,200.770 266.093,200.000 266.093 C 199.230 266.093,198.915 266.175,199.300 266.276 " stroke="none"  ></path><path id="path4" d="M128.227 128.370 C 127.565 129.101,127.565 129.134,128.232 129.036 C 128.618 128.980,128.978 128.633,129.031 128.267 C 129.156 127.420,129.078 127.430,128.227 128.370 M198.900 166.287 C 199.505 166.378,200.495 166.378,201.100 166.287 C 201.705 166.195,201.210 166.120,200.000 166.120 C 198.790 166.120,198.295 166.195,198.900 166.287 M199.300 266.276 C 199.685 266.376,200.315 266.376,200.700 266.276 C 201.085 266.175,200.770 266.093,200.000 266.093 C 199.230 266.093,198.915 266.175,199.300 266.276 " stroke="none" fill="#a09c9c" fill-rule="evenodd"></path></g></svg>