<svg id="svg" version="1.1" xmlns="http://www.w3.org/2000/svg" xmlns:xlink="http://www.w3.org/1999/xlink" width="400" height="400" viewBox="0, 0, 400,400"><g id="svgg"><path id="path0" d="M112.800 32.800 C 112.800 33.020,112.080 33.200,111.200 33.200 C 110.320 33.200,109.600 33.380,109.600 33.600 C 109.600 33.820,109.330 34.000,109.000 34.000 C 108.670 34.000,108.400 34.180,108.400 34.400 C 108.400 34.620,108.127 34.800,107.793 34.800 C 107.001 34.800,102.000 39.801,102.000 40.593 C 102.000 40.927,101.820 41.200,101.600 41.200 C 101.380 41.200,101.200 41.470,101.200 41.800 C 101.200 42.130,101.020 42.400,100.800 42.400 C 100.580 42.400,100.400 42.760,100.400 43.200 C 100.400 43.640,100.220 44.000,100.000 44.000 C 99.743 44.000,99.600 47.933,99.600 55.000 L 99.600 66.000 88.200 66.000 C 80.867 66.000,76.800 66.143,76.800 66.400 C 76.800 66.620,75.990 66.800,75.000 66.800 C 74.010 66.800,73.200 66.980,73.200 67.200 C 73.200 67.420,72.660 67.600,72.000 67.600 C 71.340 67.600,70.800 67.780,70.800 68.000 C 70.800 68.220,70.440 68.400,70.000 68.400 C 69.560 68.400,69.200 68.580,69.200 68.800 C 69.200 69.020,68.840 69.200,68.400 69.200 C 67.960 69.200,67.600 69.380,67.600 69.600 C 67.600 69.820,67.240 70.000,66.800 70.000 C 66.360 70.000,66.000 70.180,66.000 70.400 C 66.000 70.620,65.712 70.800,65.360 70.800 C 65.009 70.800,64.217 71.340,63.600 72.000 C 62.983 72.660,62.267 73.200,62.008 73.200 C 61.748 73.200,60.470 74.266,59.168 75.568 C 57.866 76.870,56.800 78.148,56.800 78.408 C 56.800 78.667,56.260 79.383,55.600 80.000 C 54.940 80.617,54.400 81.409,54.400 81.760 C 54.400 82.112,54.220 82.400,54.000 82.400 C 53.780 82.400,53.600 82.760,53.600 83.200 C 53.600 83.640,53.420 84.000,53.200 84.000 C 52.980 84.000,52.800 84.360,52.800 84.800 C 52.800 85.240,52.620 85.600,52.400 85.600 C 52.180 85.600,52.000 85.960,52.000 86.400 C 52.000 86.840,51.820 87.200,51.600 87.200 C 51.380 87.200,51.200 87.740,51.200 88.400 C 51.200 89.060,51.020 89.600,50.800 89.600 C 50.580 89.600,50.400 90.230,50.400 91.000 C 50.400 91.770,50.220 92.400,50.000 92.400 C 49.734 92.400,49.600 134.133,49.600 216.800 C 49.600 299.467,49.734 341.200,50.000 341.200 C 50.220 341.200,50.400 341.830,50.400 342.600 C 50.400 343.370,50.580 344.000,50.800 344.000 C 51.020 344.000,51.200 344.540,51.200 345.200 C 51.200 345.860,51.380 346.400,51.600 346.400 C 51.820 346.400,52.000 346.760,52.000 347.200 C 52.000 347.640,52.180 348.000,52.400 348.000 C 52.620 348.000,52.800 348.360,52.800 348.800 C 52.800 349.240,52.980 349.600,53.200 349.600 C 53.420 349.600,53.600 349.920,53.600 350.312 C 53.600 350.703,53.960 351.283,54.400 351.600 C 54.840 351.917,55.200 352.421,55.200 352.720 C 55.200 353.018,55.900 353.936,56.757 354.758 C 57.613 355.581,58.380 356.600,58.461 357.024 C 58.543 357.447,59.148 358.051,59.805 358.365 C 60.462 358.679,61.477 359.445,62.060 360.068 C 62.644 360.691,63.369 361.200,63.672 361.200 C 63.975 361.200,64.483 361.560,64.800 362.000 C 65.117 362.440,65.697 362.800,66.088 362.800 C 66.480 362.800,66.800 362.980,66.800 363.200 C 66.800 363.420,67.160 363.600,67.600 363.600 C 68.040 363.600,68.400 363.780,68.400 364.000 C 68.400 364.220,68.760 364.400,69.200 364.400 C 69.640 364.400,70.000 364.580,70.000 364.800 C 70.000 365.020,70.360 365.200,70.800 365.200 C 71.240 365.200,71.600 365.380,71.600 365.600 C 71.600 365.820,72.320 366.000,73.200 366.000 C 74.080 366.000,74.800 366.180,74.800 366.400 C 74.800 366.620,75.610 366.800,76.600 366.800 C 77.590 366.800,78.400 366.980,78.400 367.200 C 78.400 367.466,119.200 367.600,200.000 367.600 C 280.800 367.600,321.600 367.466,321.600 367.200 C 321.600 366.980,322.410 366.800,323.400 366.800 C 324.390 366.800,325.200 366.620,325.200 366.400 C 325.200 366.180,325.920 366.000,326.800 366.000 C 327.680 366.000,328.400 365.820,328.400 365.600 C 328.400 365.380,328.760 365.200,329.200 365.200 C 329.640 365.200,330.000 365.020,330.000 364.800 C 330.000 364.580,330.360 364.400,330.800 364.400 C 331.240 364.400,331.600 364.220,331.600 364.000 C 331.600 363.780,331.960 363.600,332.400 363.600 C 332.840 363.600,333.200 363.420,333.200 363.200 C 333.200 362.980,333.560 362.800,334.000 362.800 C 334.440 362.800,334.800 362.620,334.800 362.400 C 334.800 362.180,335.084 362.000,335.431 362.000 C 335.779 362.000,336.725 361.311,337.534 360.468 C 338.344 359.626,339.542 358.680,340.198 358.365 C 340.854 358.051,341.457 357.447,341.539 357.024 C 341.620 356.600,342.387 355.581,343.243 354.758 C 344.100 353.936,344.800 353.018,344.800 352.720 C 344.800 352.421,345.160 351.917,345.600 351.600 C 346.040 351.283,346.400 350.703,346.400 350.312 C 346.400 349.920,346.580 349.600,346.800 349.600 C 347.020 349.600,347.200 349.240,347.200 348.800 C 347.200 348.360,347.380 348.000,347.600 348.000 C 347.820 348.000,348.000 347.640,348.000 347.200 C 348.000 346.760,348.180 346.400,348.400 346.400 C 348.620 346.400,348.800 345.860,348.800 345.200 C 348.800 344.540,348.980 344.000,349.200 344.000 C 349.420 344.000,349.600 343.370,349.600 342.600 C 349.600 341.830,349.780 341.200,350.000 341.200 C 350.555 341.200,350.555 92.143,350.000 91.800 C 349.780 91.664,349.600 91.113,349.600 90.576 C 349.600 90.039,349.420 89.600,349.200 89.600 C 348.980 89.600,348.800 89.060,348.800 88.400 C 348.800 87.740,348.620 87.200,348.400 87.200 C 348.180 87.200,348.000 86.840,348.000 86.400 C 348.000 85.960,347.820 85.600,347.600 85.600 C 347.380 85.600,347.200 85.240,347.200 84.800 C 347.200 84.360,347.020 84.000,346.800 84.000 C 346.580 84.000,346.400 83.640,346.400 83.200 C 346.400 82.760,346.220 82.400,346.000 82.400 C 345.780 82.400,345.600 82.112,345.600 81.760 C 345.600 81.409,345.060 80.617,344.400 80.000 C 343.740 79.383,343.200 78.667,343.200 78.408 C 343.200 77.751,338.586 73.200,337.920 73.200 C 337.621 73.200,337.117 72.840,336.800 72.400 C 336.483 71.960,335.943 71.600,335.600 71.600 C 335.257 71.600,334.717 71.240,334.400 70.800 C 334.083 70.360,333.503 70.000,333.112 70.000 C 332.720 70.000,332.400 69.820,332.400 69.600 C 332.400 69.380,332.040 69.200,331.600 69.200 C 331.160 69.200,330.800 69.020,330.800 68.800 C 330.800 68.580,330.440 68.400,330.000 68.400 C 329.560 68.400,329.200 68.220,329.200 68.000 C 329.200 67.780,328.480 67.600,327.600 67.600 C 326.720 67.600,326.000 67.420,326.000 67.200 C 326.000 66.980,325.370 66.800,324.600 66.800 C 323.830 66.800,323.200 66.620,323.200 66.400 C 323.200 66.143,319.133 66.000,311.800 66.000 L 300.400 66.000 300.400 55.000 C 300.400 47.933,300.257 44.000,300.000 44.000 C 299.780 44.000,299.600 43.552,299.600 43.003 C 299.600 42.440,299.252 41.790,298.800 41.507 C 298.360 41.232,298.000 40.778,298.000 40.496 C 298.000 39.774,292.942 34.800,292.207 34.800 C 291.873 34.800,291.600 34.620,291.600 34.400 C 291.600 34.180,291.330 34.000,291.000 34.000 C 290.670 34.000,290.400 33.820,290.400 33.600 C 290.400 33.380,289.680 33.200,288.800 33.200 C 287.920 33.200,287.200 33.020,287.200 32.800 C 287.200 32.563,285.733 32.400,283.600 32.400 C 281.467 32.400,280.000 32.563,280.000 32.800 C 280.000 33.020,279.280 33.200,278.400 33.200 C 277.520 33.200,276.800 33.380,276.800 33.600 C 276.800 33.820,276.390 34.000,275.888 34.000 C 275.387 34.000,274.717 34.360,274.400 34.800 C 274.083 35.240,273.588 35.600,273.301 35.600 C 272.622 35.600,269.200 39.022,269.200 39.701 C 269.200 39.988,268.840 40.483,268.400 40.800 C 267.960 41.117,267.600 41.607,267.600 41.888 C 267.600 42.170,267.420 42.400,267.200 42.400 C 266.980 42.400,266.800 42.940,266.800 43.600 C 266.800 44.260,266.620 44.800,266.400 44.800 C 266.143 44.800,266.000 48.600,266.000 55.400 L 266.000 66.000 200.000 66.000 L 134.000 66.000 134.000 55.400 C 134.000 48.600,133.857 44.800,133.600 44.800 C 133.380 44.800,133.200 44.260,133.200 43.600 C 133.200 42.940,133.020 42.400,132.800 42.400 C 132.580 42.400,132.400 42.130,132.400 41.800 C 132.400 41.470,132.220 41.200,132.000 41.200 C 131.780 41.200,131.600 40.926,131.600 40.591 C 131.600 39.799,127.401 35.600,126.609 35.600 C 126.274 35.600,126.000 35.420,126.000 35.200 C 126.000 34.980,125.730 34.800,125.400 34.800 C 125.070 34.800,124.800 34.620,124.800 34.400 C 124.800 34.180,124.440 34.000,124.000 34.000 C 123.560 34.000,123.200 33.820,123.200 33.600 C 123.200 33.380,122.480 33.200,121.600 33.200 C 120.720 33.200,120.000 33.020,120.000 32.800 C 120.000 32.563,118.533 32.400,116.400 32.400 C 114.267 32.400,112.800 32.563,112.800 32.800 M316.000 116.400 L 316.000 132.400 200.000 132.400 L 84.000 132.400 84.000 116.400 L 84.000 100.400 200.000 100.400 L 316.000 100.400 316.000 116.400 M316.000 250.000 L 316.000 332.400 200.000 332.400 L 84.000 332.400 84.000 250.000 L 84.000 167.600 200.000 167.600 L 316.000 167.600 316.000 250.000 M127.600 200.000 C 127.600 200.220,127.060 200.400,126.400 200.400 C 125.740 200.400,125.200 200.580,125.200 200.800 C 125.200 201.020,124.970 201.200,124.688 201.200 C 124.407 201.200,123.917 201.560,123.600 202.000 C 123.283 202.440,122.785 202.800,122.494 202.800 C 121.807 202.800,120.000 204.607,120.000 205.294 C 120.000 205.585,119.640 206.083,119.200 206.400 C 118.760 206.717,118.400 207.297,118.400 207.688 C 118.400 208.080,118.220 208.400,118.000 208.400 C 117.780 208.400,117.600 208.670,117.600 209.000 C 117.600 209.330,117.420 209.600,117.200 209.600 C 116.980 209.600,116.800 210.140,116.800 210.800 C 116.800 211.460,116.620 212.000,116.400 212.000 C 116.156 212.000,116.000 213.867,116.000 216.800 C 116.000 219.733,116.156 221.600,116.400 221.600 C 116.620 221.600,116.800 222.140,116.800 222.800 C 116.800 223.460,116.980 224.000,117.200 224.000 C 117.420 224.000,117.600 224.270,117.600 224.600 C 117.600 224.930,117.780 225.200,118.000 225.200 C 118.220 225.200,118.400 225.473,118.400 225.807 C 118.400 226.599,123.401 231.600,124.193 231.600 C 124.527 231.600,124.800 231.780,124.800 232.000 C 124.800 232.220,125.070 232.400,125.400 232.400 C 125.730 232.400,126.000 232.580,126.000 232.800 C 126.000 233.020,126.540 233.200,127.200 233.200 C 127.860 233.200,128.400 233.380,128.400 233.600 C 128.400 233.865,152.533 234.000,200.000 234.000 C 247.467 234.000,271.600 233.865,271.600 233.600 C 271.600 233.380,272.140 233.200,272.800 233.200 C 273.460 233.200,274.000 233.020,274.000 232.800 C 274.000 232.580,274.270 232.400,274.600 232.400 C 274.930 232.400,275.200 232.220,275.200 232.000 C 275.200 231.780,275.473 231.600,275.807 231.600 C 276.599 231.600,281.600 226.599,281.600 225.807 C 281.600 225.473,281.780 225.200,282.000 225.200 C 282.220 225.200,282.400 224.930,282.400 224.600 C 282.400 224.270,282.580 224.000,282.800 224.000 C 283.020 224.000,283.200 223.460,283.200 222.800 C 283.200 222.140,283.380 221.600,283.600 221.600 C 283.844 221.600,284.000 219.733,284.000 216.800 C 284.000 213.867,283.844 212.000,283.600 212.000 C 283.380 212.000,283.200 211.460,283.200 210.800 C 283.200 210.140,283.020 209.600,282.800 209.600 C 282.580 209.600,282.400 209.222,282.400 208.760 C 282.400 208.299,281.860 207.417,281.200 206.800 C 280.540 206.183,280.000 205.473,280.000 205.221 C 280.000 204.591,278.156 202.800,277.506 202.800 C 277.215 202.800,276.717 202.440,276.400 202.000 C 276.083 201.560,275.593 201.200,275.312 201.200 C 275.030 201.200,274.800 201.020,274.800 200.800 C 274.800 200.580,274.260 200.400,273.600 200.400 C 272.940 200.400,272.400 200.220,272.400 200.000 C 272.400 199.735,248.000 199.600,200.000 199.600 C 152.000 199.600,127.600 199.735,127.600 200.000 M128.400 266.400 C 128.400 266.620,127.860 266.800,127.200 266.800 C 126.540 266.800,126.000 266.980,126.000 267.200 C 126.000 267.420,125.730 267.600,125.400 267.600 C 125.070 267.600,124.800 267.780,124.800 268.000 C 124.800 268.220,124.527 268.400,124.193 268.400 C 123.401 268.400,118.400 273.401,118.400 274.193 C 118.400 274.527,118.220 274.800,118.000 274.800 C 117.780 274.800,117.600 275.070,117.600 275.400 C 117.600 275.730,117.420 276.000,117.200 276.000 C 116.980 276.000,116.800 276.540,116.800 277.200 C 116.800 277.860,116.620 278.400,116.400 278.400 C 116.156 278.400,116.000 280.267,116.000 283.200 C 116.000 286.133,116.156 288.000,116.400 288.000 C 116.620 288.000,116.800 288.540,116.800 289.200 C 116.800 289.860,116.980 290.400,117.200 290.400 C 117.420 290.400,117.600 290.778,117.600 291.240 C 117.600 291.701,118.140 292.583,118.800 293.200 C 119.460 293.817,120.000 294.527,120.000 294.779 C 120.000 295.409,121.844 297.200,122.494 297.200 C 122.785 297.200,123.283 297.560,123.600 298.000 C 123.917 298.440,124.407 298.800,124.688 298.800 C 124.970 298.800,125.200 298.980,125.200 299.200 C 125.200 299.420,125.740 299.600,126.400 299.600 C 127.060 299.600,127.600 299.780,127.600 300.000 C 127.600 300.264,143.667 300.400,175.000 300.400 C 206.333 300.400,222.400 300.264,222.400 300.000 C 222.400 299.780,222.940 299.600,223.600 299.600 C 224.260 299.600,224.800 299.420,224.800 299.200 C 224.800 298.980,225.030 298.800,225.312 298.800 C 225.593 298.800,226.083 298.440,226.400 298.000 C 226.717 297.560,227.215 297.200,227.506 297.200 C 228.193 297.200,230.000 295.393,230.000 294.706 C 230.000 294.415,230.360 293.917,230.800 293.600 C 231.240 293.283,231.600 292.703,231.600 292.312 C 231.600 291.920,231.780 291.600,232.000 291.600 C 232.220 291.600,232.400 291.330,232.400 291.000 C 232.400 290.670,232.580 290.400,232.800 290.400 C 233.020 290.400,233.200 289.860,233.200 289.200 C 233.200 288.540,233.380 288.000,233.600 288.000 C 233.844 288.000,234.000 286.133,234.000 283.200 C 234.000 280.267,233.844 278.400,233.600 278.400 C 233.380 278.400,233.200 277.860,233.200 277.200 C 233.200 276.540,233.020 276.000,232.800 276.000 C 232.580 276.000,232.400 275.730,232.400 275.400 C 232.400 275.070,232.220 274.800,232.000 274.800 C 231.780 274.800,231.600 274.527,231.600 274.193 C 231.600 273.401,226.599 268.400,225.807 268.400 C 225.473 268.400,225.200 268.220,225.200 268.000 C 225.200 267.780,224.930 267.600,224.600 267.600 C 224.270 267.600,224.000 267.420,224.000 267.200 C 224.000 266.980,223.460 266.800,222.800 266.800 C 222.140 266.800,221.600 266.620,221.600 266.400 C 221.600 266.136,205.800 266.000,175.000 266.000 C 144.200 266.000,128.400 266.136,128.400 266.400 " stroke="none" fill="#4ab3ed" fill-rule="evenodd"></path><path id="path1" d="" stroke="none" fill="#4ab3ed" fill-rule="evenodd"></path><path id="path2" d="" stroke="none" fill="#4ab3ed" fill-rule="evenodd"></path><path id="path3" d="" stroke="none" fill="#4ab3ed" fill-rule="evenodd"></path><path id="path4" d="" stroke="none" fill="#4ab3ed" fill-rule="evenodd"></path></g></svg>