<svg id="svg" version="1.1" xmlns="http://www.w3.org/2000/svg" xmlns:xlink="http://www.w3.org/1999/xlink" width="400" height="400" viewBox="0, 0, 400,400"><g id="svgg"><path id="path0" d="M190.400 32.800 C 190.400 33.044,188.533 33.200,185.600 33.200 C 182.667 33.200,180.800 33.356,180.800 33.600 C 180.800 33.831,179.533 34.000,177.800 34.000 C 176.067 34.000,174.800 34.169,174.800 34.400 C 174.800 34.622,173.733 34.800,172.400 34.800 C 171.067 34.800,170.000 34.978,170.000 35.200 C 170.000 35.422,168.933 35.600,167.600 35.600 C 166.267 35.600,165.200 35.778,165.200 36.000 C 165.200 36.220,164.480 36.400,163.600 36.400 C 162.720 36.400,162.000 36.580,162.000 36.800 C 162.000 37.020,161.280 37.200,160.400 37.200 C 159.520 37.200,158.800 37.380,158.800 37.600 C 158.800 37.820,158.170 38.000,157.400 38.000 C 156.630 38.000,156.000 38.180,156.000 38.400 C 156.000 38.620,155.280 38.800,154.400 38.800 C 153.520 38.800,152.800 38.980,152.800 39.200 C 152.800 39.420,152.260 39.600,151.600 39.600 C 150.940 39.600,150.400 39.780,150.400 40.000 C 150.400 40.220,149.860 40.400,149.200 40.400 C 148.540 40.400,148.000 40.559,148.000 40.754 C 148.000 40.949,147.013 41.231,145.806 41.382 C 144.600 41.533,143.509 41.823,143.383 42.028 C 143.256 42.233,142.713 42.400,142.176 42.400 C 141.639 42.400,141.200 42.580,141.200 42.800 C 141.200 43.020,140.840 43.200,140.400 43.200 C 139.960 43.200,139.600 43.380,139.600 43.600 C 139.600 43.820,139.060 44.000,138.400 44.000 C 137.740 44.000,137.200 44.180,137.200 44.400 C 137.200 44.620,136.840 44.800,136.400 44.800 C 135.960 44.800,135.600 44.980,135.600 45.200 C 135.600 45.420,135.060 45.600,134.400 45.600 C 133.740 45.600,133.200 45.780,133.200 46.000 C 133.200 46.220,132.840 46.400,132.400 46.400 C 131.960 46.400,131.600 46.580,131.600 46.800 C 131.600 47.020,131.240 47.200,130.800 47.200 C 130.360 47.200,130.000 47.380,130.000 47.600 C 130.000 47.820,129.640 48.000,129.200 48.000 C 128.760 48.000,128.400 48.180,128.400 48.400 C 128.400 48.620,128.040 48.800,127.600 48.800 C 127.160 48.800,126.800 48.980,126.800 49.200 C 126.800 49.420,126.440 49.600,126.000 49.600 C 125.560 49.600,125.200 49.780,125.200 50.000 C 125.200 50.220,124.930 50.400,124.600 50.400 C 124.270 50.400,124.000 50.580,124.000 50.800 C 124.000 51.020,123.640 51.200,123.200 51.200 C 122.760 51.200,122.400 51.380,122.400 51.600 C 122.400 51.820,122.040 52.000,121.600 52.000 C 121.160 52.000,120.800 52.180,120.800 52.400 C 120.800 52.620,120.440 52.800,120.000 52.800 C 119.560 52.800,119.200 52.980,119.200 53.200 C 119.200 53.420,118.840 53.600,118.400 53.600 C 117.960 53.600,117.600 53.780,117.600 54.000 C 117.600 54.220,117.280 54.400,116.888 54.400 C 116.497 54.400,115.917 54.760,115.600 55.200 C 115.283 55.640,114.703 56.000,114.312 56.000 C 113.920 56.000,113.600 56.180,113.600 56.400 C 113.600 56.620,113.280 56.800,112.888 56.800 C 112.497 56.800,111.917 57.160,111.600 57.600 C 111.283 58.040,110.725 58.400,110.361 58.400 C 109.996 58.400,109.474 58.670,109.200 59.000 C 108.926 59.330,108.494 59.600,108.239 59.600 C 107.985 59.600,107.517 59.960,107.200 60.400 C 106.883 60.840,106.343 61.200,106.000 61.200 C 105.657 61.200,105.117 61.560,104.800 62.000 C 104.483 62.440,103.943 62.800,103.600 62.800 C 103.257 62.800,102.717 63.160,102.400 63.600 C 102.083 64.040,101.575 64.400,101.272 64.400 C 100.969 64.400,100.217 64.940,99.600 65.600 C 98.983 66.260,98.267 66.800,98.008 66.800 C 97.749 66.800,96.846 67.520,96.000 68.400 C 95.154 69.280,94.224 70.002,93.931 70.004 C 93.639 70.006,93.010 70.501,92.534 71.104 C 90.807 73.291,90.097 74.000,89.636 74.000 C 88.526 74.000,74.004 88.562,73.996 89.683 C 73.994 89.967,73.499 90.590,72.896 91.066 C 70.697 92.803,70.000 93.504,70.000 93.978 C 70.000 94.245,69.280 95.154,68.400 96.000 C 67.520 96.846,66.800 97.749,66.800 98.008 C 66.800 98.267,66.260 98.983,65.600 99.600 C 64.940 100.217,64.400 100.969,64.400 101.272 C 64.400 101.575,64.040 102.083,63.600 102.400 C 63.160 102.717,62.800 103.257,62.800 103.600 C 62.800 103.943,62.440 104.483,62.000 104.800 C 61.560 105.117,61.200 105.657,61.200 106.000 C 61.200 106.343,60.840 106.883,60.400 107.200 C 59.960 107.517,59.600 107.985,59.600 108.239 C 59.600 108.494,59.330 108.926,59.000 109.200 C 58.670 109.474,58.400 109.996,58.400 110.361 C 58.400 110.725,58.040 111.283,57.600 111.600 C 57.160 111.917,56.800 112.497,56.800 112.888 C 56.800 113.280,56.620 113.600,56.400 113.600 C 56.180 113.600,56.000 113.960,56.000 114.400 C 56.000 114.840,55.820 115.200,55.600 115.200 C 55.380 115.200,55.200 115.520,55.200 115.912 C 55.200 116.303,54.840 116.883,54.400 117.200 C 53.960 117.517,53.600 118.097,53.600 118.488 C 53.600 118.880,53.420 119.200,53.200 119.200 C 52.980 119.200,52.800 119.560,52.800 120.000 C 52.800 120.440,52.620 120.800,52.400 120.800 C 52.180 120.800,52.000 121.160,52.000 121.600 C 52.000 122.040,51.820 122.400,51.600 122.400 C 51.380 122.400,51.200 122.760,51.200 123.200 C 51.200 123.640,51.020 124.000,50.800 124.000 C 50.580 124.000,50.400 124.270,50.400 124.600 C 50.400 124.930,50.220 125.200,50.000 125.200 C 49.780 125.200,49.600 125.560,49.600 126.000 C 49.600 126.440,49.420 126.800,49.200 126.800 C 48.980 126.800,48.800 127.160,48.800 127.600 C 48.800 128.040,48.620 128.400,48.400 128.400 C 48.180 128.400,48.000 128.760,48.000 129.200 C 48.000 129.640,47.820 130.000,47.600 130.000 C 47.380 130.000,47.200 130.360,47.200 130.800 C 47.200 131.240,47.020 131.600,46.800 131.600 C 46.580 131.600,46.400 132.140,46.400 132.800 C 46.400 133.460,46.220 134.000,46.000 134.000 C 45.780 134.000,45.600 134.360,45.600 134.800 C 45.600 135.240,45.420 135.600,45.200 135.600 C 44.980 135.600,44.800 135.960,44.800 136.400 C 44.800 136.840,44.620 137.200,44.400 137.200 C 44.180 137.200,44.000 137.740,44.000 138.400 C 44.000 139.060,43.820 139.600,43.600 139.600 C 43.380 139.600,43.200 139.960,43.200 140.400 C 43.200 140.840,43.020 141.200,42.800 141.200 C 42.580 141.200,42.400 141.639,42.400 142.176 C 42.400 142.713,42.233 143.256,42.028 143.383 C 41.823 143.509,41.533 144.600,41.382 145.806 C 41.231 147.013,40.949 148.000,40.754 148.000 C 40.559 148.000,40.400 148.540,40.400 149.200 C 40.400 149.860,40.220 150.400,40.000 150.400 C 39.780 150.400,39.600 150.940,39.600 151.600 C 39.600 152.260,39.420 152.800,39.200 152.800 C 38.980 152.800,38.800 153.520,38.800 154.400 C 38.800 155.280,38.620 156.000,38.400 156.000 C 38.180 156.000,38.000 156.630,38.000 157.400 C 38.000 158.170,37.820 158.800,37.600 158.800 C 37.380 158.800,37.200 159.520,37.200 160.400 C 37.200 161.280,37.020 162.000,36.800 162.000 C 36.580 162.000,36.400 162.900,36.400 164.000 C 36.400 165.100,36.220 166.000,36.000 166.000 C 35.780 166.000,35.600 166.900,35.600 168.000 C 35.600 169.100,35.420 170.000,35.200 170.000 C 34.978 170.000,34.800 171.067,34.800 172.400 C 34.800 173.733,34.622 174.800,34.400 174.800 C 34.169 174.800,34.000 176.067,34.000 177.800 C 34.000 179.533,33.831 180.800,33.600 180.800 C 33.354 180.800,33.200 182.800,33.200 186.000 C 33.200 189.200,33.046 191.200,32.800 191.200 C 32.545 191.200,32.400 194.533,32.400 200.400 C 32.400 206.267,32.545 209.600,32.800 209.600 C 33.044 209.600,33.200 211.467,33.200 214.400 C 33.200 217.333,33.356 219.200,33.600 219.200 C 33.831 219.200,34.000 220.467,34.000 222.200 C 34.000 223.933,34.169 225.200,34.400 225.200 C 34.622 225.200,34.800 226.267,34.800 227.600 C 34.800 228.933,34.978 230.000,35.200 230.000 C 35.422 230.000,35.600 231.067,35.600 232.400 C 35.600 233.733,35.778 234.800,36.000 234.800 C 36.220 234.800,36.400 235.520,36.400 236.400 C 36.400 237.280,36.580 238.000,36.800 238.000 C 37.020 238.000,37.200 238.720,37.200 239.600 C 37.200 240.480,37.380 241.200,37.600 241.200 C 37.820 241.200,38.000 241.830,38.000 242.600 C 38.000 243.370,38.180 244.000,38.400 244.000 C 38.620 244.000,38.800 244.720,38.800 245.600 C 38.800 246.480,38.980 247.200,39.200 247.200 C 39.420 247.200,39.600 247.740,39.600 248.400 C 39.600 249.060,39.780 249.600,40.000 249.600 C 40.220 249.600,40.400 250.140,40.400 250.800 C 40.400 251.460,40.559 252.000,40.754 252.000 C 40.949 252.000,41.231 252.987,41.382 254.194 C 41.533 255.400,41.823 256.491,42.028 256.617 C 42.233 256.744,42.400 257.287,42.400 257.824 C 42.400 258.361,42.580 258.800,42.800 258.800 C 43.020 258.800,43.200 259.160,43.200 259.600 C 43.200 260.040,43.380 260.400,43.600 260.400 C 43.820 260.400,44.000 260.940,44.000 261.600 C 44.000 262.260,44.180 262.800,44.400 262.800 C 44.620 262.800,44.800 263.160,44.800 263.600 C 44.800 264.040,44.980 264.400,45.200 264.400 C 45.420 264.400,45.600 264.940,45.600 265.600 C 45.600 266.260,45.780 266.800,46.000 266.800 C 46.220 266.800,46.400 267.160,46.400 267.600 C 46.400 268.040,46.580 268.400,46.800 268.400 C 47.020 268.400,47.200 268.760,47.200 269.200 C 47.200 269.640,47.380 270.000,47.600 270.000 C 47.820 270.000,48.000 270.360,48.000 270.800 C 48.000 271.240,48.180 271.600,48.400 271.600 C 48.620 271.600,48.800 271.960,48.800 272.400 C 48.800 272.840,48.980 273.200,49.200 273.200 C 49.420 273.200,49.600 273.560,49.600 274.000 C 49.600 274.440,49.780 274.800,50.000 274.800 C 50.220 274.800,50.400 275.070,50.400 275.400 C 50.400 275.730,50.580 276.000,50.800 276.000 C 51.020 276.000,51.200 276.360,51.200 276.800 C 51.200 277.240,51.380 277.600,51.600 277.600 C 51.820 277.600,52.000 277.960,52.000 278.400 C 52.000 278.840,52.180 279.200,52.400 279.200 C 52.620 279.200,52.800 279.560,52.800 280.000 C 52.800 280.440,52.980 280.800,53.200 280.800 C 53.420 280.800,53.600 281.120,53.600 281.512 C 53.600 281.903,53.960 282.483,54.400 282.800 C 54.840 283.117,55.200 283.697,55.200 284.088 C 55.200 284.480,55.380 284.800,55.600 284.800 C 55.820 284.800,56.000 285.160,56.000 285.600 C 56.000 286.040,56.180 286.400,56.400 286.400 C 56.620 286.400,56.800 286.720,56.800 287.112 C 56.800 287.503,57.160 288.083,57.600 288.400 C 58.040 288.717,58.400 289.275,58.400 289.639 C 58.400 290.004,58.670 290.526,59.000 290.800 C 59.330 291.074,59.600 291.506,59.600 291.761 C 59.600 292.015,59.960 292.483,60.400 292.800 C 60.840 293.117,61.200 293.657,61.200 294.000 C 61.200 294.343,61.560 294.883,62.000 295.200 C 62.440 295.517,62.800 296.057,62.800 296.400 C 62.800 296.743,63.160 297.283,63.600 297.600 C 64.040 297.917,64.400 298.425,64.400 298.728 C 64.400 299.031,64.940 299.783,65.600 300.400 C 66.260 301.017,66.800 301.733,66.800 301.992 C 66.800 302.251,67.520 303.154,68.400 304.000 C 69.280 304.846,70.000 305.749,70.000 306.008 C 70.000 306.486,71.618 308.117,73.156 309.188 C 73.620 309.512,74.000 310.014,74.000 310.305 C 74.000 311.466,88.516 325.995,89.683 326.004 C 89.967 326.006,90.590 326.501,91.066 327.104 C 92.803 329.303,93.504 330.000,93.978 330.000 C 94.245 330.000,95.154 330.720,96.000 331.600 C 96.846 332.480,97.749 333.200,98.008 333.200 C 98.267 333.200,98.983 333.740,99.600 334.400 C 100.217 335.060,100.969 335.600,101.272 335.600 C 101.575 335.600,102.083 335.960,102.400 336.400 C 102.717 336.840,103.257 337.200,103.600 337.200 C 103.943 337.200,104.483 337.560,104.800 338.000 C 105.117 338.440,105.657 338.800,106.000 338.800 C 106.343 338.800,106.883 339.160,107.200 339.600 C 107.517 340.040,107.985 340.400,108.239 340.400 C 108.494 340.400,108.926 340.670,109.200 341.000 C 109.474 341.330,109.996 341.600,110.361 341.600 C 110.725 341.600,111.283 341.960,111.600 342.400 C 111.917 342.840,112.497 343.200,112.888 343.200 C 113.280 343.200,113.600 343.380,113.600 343.600 C 113.600 343.820,113.960 344.000,114.400 344.000 C 114.840 344.000,115.200 344.180,115.200 344.400 C 115.200 344.620,115.520 344.800,115.912 344.800 C 116.303 344.800,116.883 345.160,117.200 345.600 C 117.517 346.040,118.097 346.400,118.488 346.400 C 118.880 346.400,119.200 346.580,119.200 346.800 C 119.200 347.020,119.560 347.200,120.000 347.200 C 120.440 347.200,120.800 347.380,120.800 347.600 C 120.800 347.820,121.160 348.000,121.600 348.000 C 122.040 348.000,122.400 348.180,122.400 348.400 C 122.400 348.620,122.760 348.800,123.200 348.800 C 123.640 348.800,124.000 348.980,124.000 349.200 C 124.000 349.420,124.270 349.600,124.600 349.600 C 124.930 349.600,125.200 349.780,125.200 350.000 C 125.200 350.220,125.560 350.400,126.000 350.400 C 126.440 350.400,126.800 350.580,126.800 350.800 C 126.800 351.020,127.160 351.200,127.600 351.200 C 128.040 351.200,128.400 351.380,128.400 351.600 C 128.400 351.820,128.760 352.000,129.200 352.000 C 129.640 352.000,130.000 352.180,130.000 352.400 C 130.000 352.620,130.360 352.800,130.800 352.800 C 131.240 352.800,131.600 352.980,131.600 353.200 C 131.600 353.420,132.140 353.600,132.800 353.600 C 133.460 353.600,134.000 353.780,134.000 354.000 C 134.000 354.220,134.360 354.400,134.800 354.400 C 135.240 354.400,135.600 354.580,135.600 354.800 C 135.600 355.020,135.960 355.200,136.400 355.200 C 136.840 355.200,137.200 355.380,137.200 355.600 C 137.200 355.820,137.740 356.000,138.400 356.000 C 139.060 356.000,139.600 356.180,139.600 356.400 C 139.600 356.620,139.960 356.800,140.400 356.800 C 140.840 356.800,141.200 356.980,141.200 357.200 C 141.200 357.420,141.639 357.600,142.176 357.600 C 142.713 357.600,143.256 357.767,143.383 357.972 C 143.509 358.177,144.600 358.467,145.806 358.618 C 147.013 358.769,148.000 359.051,148.000 359.246 C 148.000 359.441,148.540 359.600,149.200 359.600 C 149.860 359.600,150.400 359.780,150.400 360.000 C 150.400 360.220,150.940 360.400,151.600 360.400 C 152.260 360.400,152.800 360.580,152.800 360.800 C 152.800 361.020,153.520 361.200,154.400 361.200 C 155.280 361.200,156.000 361.380,156.000 361.600 C 156.000 361.820,156.630 362.000,157.400 362.000 C 158.170 362.000,158.800 362.180,158.800 362.400 C 158.800 362.620,159.520 362.800,160.400 362.800 C 161.280 362.800,162.000 362.980,162.000 363.200 C 162.000 363.420,162.900 363.600,164.000 363.600 C 165.100 363.600,166.000 363.780,166.000 364.000 C 166.000 364.220,166.900 364.400,168.000 364.400 C 169.100 364.400,170.000 364.580,170.000 364.800 C 170.000 365.022,171.067 365.200,172.400 365.200 C 173.733 365.200,174.800 365.378,174.800 365.600 C 174.800 365.831,176.067 366.000,177.800 366.000 C 179.533 366.000,180.800 366.169,180.800 366.400 C 180.800 366.646,182.800 366.800,186.000 366.800 C 189.200 366.800,191.200 366.954,191.200 367.200 C 191.200 367.455,194.400 367.600,200.000 367.600 C 205.600 367.600,208.800 367.455,208.800 367.200 C 208.800 366.954,210.800 366.800,214.000 366.800 C 217.200 366.800,219.200 366.646,219.200 366.400 C 219.200 366.169,220.467 366.000,222.200 366.000 C 223.933 366.000,225.200 365.831,225.200 365.600 C 225.200 365.378,226.267 365.200,227.600 365.200 C 228.933 365.200,230.000 365.022,230.000 364.800 C 230.000 364.578,231.067 364.400,232.400 364.400 C 233.733 364.400,234.800 364.222,234.800 364.000 C 234.800 363.780,235.520 363.600,236.400 363.600 C 237.280 363.600,238.000 363.420,238.000 363.200 C 238.000 362.980,238.720 362.800,239.600 362.800 C 240.480 362.800,241.200 362.620,241.200 362.400 C 241.200 362.180,241.830 362.000,242.600 362.000 C 243.370 362.000,244.000 361.820,244.000 361.600 C 244.000 361.380,244.720 361.200,245.600 361.200 C 246.480 361.200,247.200 361.020,247.200 360.800 C 247.200 360.580,247.740 360.400,248.400 360.400 C 249.060 360.400,249.600 360.220,249.600 360.000 C 249.600 359.780,250.140 359.600,250.800 359.600 C 251.460 359.600,252.000 359.441,252.000 359.246 C 252.000 359.051,252.987 358.769,254.194 358.618 C 255.400 358.467,256.491 358.177,256.617 357.972 C 256.744 357.767,257.287 357.600,257.824 357.600 C 258.361 357.600,258.800 357.420,258.800 357.200 C 258.800 356.980,259.160 356.800,259.600 356.800 C 260.040 356.800,260.400 356.620,260.400 356.400 C 260.400 356.180,260.940 356.000,261.600 356.000 C 262.260 356.000,262.800 355.820,262.800 355.600 C 262.800 355.380,263.160 355.200,263.600 355.200 C 264.040 355.200,264.400 355.020,264.400 354.800 C 264.400 354.580,264.940 354.400,265.600 354.400 C 266.260 354.400,266.800 354.220,266.800 354.000 C 266.800 353.780,267.160 353.600,267.600 353.600 C 268.040 353.600,268.400 353.420,268.400 353.200 C 268.400 352.980,268.760 352.800,269.200 352.800 C 269.640 352.800,270.000 352.620,270.000 352.400 C 270.000 352.180,270.360 352.000,270.800 352.000 C 271.240 352.000,271.600 351.820,271.600 351.600 C 271.600 351.380,271.960 351.200,272.400 351.200 C 272.840 351.200,273.200 351.020,273.200 350.800 C 273.200 350.580,273.560 350.400,274.000 350.400 C 274.440 350.400,274.800 350.220,274.800 350.000 C 274.800 349.780,275.070 349.600,275.400 349.600 C 275.730 349.600,276.000 349.420,276.000 349.200 C 276.000 348.980,276.360 348.800,276.800 348.800 C 277.240 348.800,277.600 348.620,277.600 348.400 C 277.600 348.180,277.960 348.000,278.400 348.000 C 278.840 348.000,279.200 347.820,279.200 347.600 C 279.200 347.380,279.560 347.200,280.000 347.200 C 280.440 347.200,280.800 347.020,280.800 346.800 C 280.800 346.580,281.120 346.400,281.512 346.400 C 281.903 346.400,282.483 346.040,282.800 345.600 C 283.117 345.160,283.697 344.800,284.088 344.800 C 284.480 344.800,284.800 344.620,284.800 344.400 C 284.800 344.180,285.160 344.000,285.600 344.000 C 286.040 344.000,286.400 343.820,286.400 343.600 C 286.400 343.380,286.720 343.200,287.112 343.200 C 287.503 343.200,288.083 342.840,288.400 342.400 C 288.717 341.960,289.275 341.600,289.639 341.600 C 290.004 341.600,290.526 341.330,290.800 341.000 C 291.074 340.670,291.506 340.400,291.761 340.400 C 292.015 340.400,292.483 340.040,292.800 339.600 C 293.117 339.160,293.657 338.800,294.000 338.800 C 294.343 338.800,294.883 338.440,295.200 338.000 C 295.517 337.560,296.057 337.200,296.400 337.200 C 296.743 337.200,297.283 336.840,297.600 336.400 C 297.917 335.960,298.425 335.600,298.728 335.600 C 299.031 335.600,299.783 335.060,300.400 334.400 C 301.017 333.740,301.733 333.200,301.992 333.200 C 302.251 333.200,303.154 332.480,304.000 331.600 C 304.846 330.720,305.749 330.000,306.008 330.000 C 306.486 330.000,308.117 328.382,309.188 326.844 C 309.512 326.380,310.014 326.000,310.305 326.000 C 311.344 326.000,325.194 312.339,325.212 311.297 C 325.219 310.914,325.765 310.150,326.426 309.600 C 329.030 307.434,330.000 306.459,330.000 306.008 C 330.000 305.749,330.720 304.846,331.600 304.000 C 332.480 303.154,333.200 302.251,333.200 301.992 C 333.200 301.733,333.740 301.017,334.400 300.400 C 335.060 299.783,335.600 299.031,335.600 298.728 C 335.600 298.425,335.960 297.917,336.400 297.600 C 336.840 297.283,337.200 296.743,337.200 296.400 C 337.200 296.057,337.560 295.517,338.000 295.200 C 338.440 294.883,338.800 294.343,338.800 294.000 C 338.800 293.657,339.160 293.117,339.600 292.800 C 340.040 292.483,340.400 292.015,340.400 291.761 C 340.400 291.506,340.670 291.074,341.000 290.800 C 341.330 290.526,341.600 289.964,341.600 289.551 C 341.600 289.138,341.780 288.800,342.000 288.800 C 342.220 288.800,342.400 288.480,342.400 288.088 C 342.400 287.697,342.760 287.117,343.200 286.800 C 343.640 286.483,344.000 285.903,344.000 285.512 C 344.000 285.120,344.180 284.800,344.400 284.800 C 344.620 284.800,344.800 284.480,344.800 284.088 C 344.800 283.697,345.160 283.117,345.600 282.800 C 346.040 282.483,346.400 281.903,346.400 281.512 C 346.400 281.120,346.580 280.800,346.800 280.800 C 347.020 280.800,347.200 280.440,347.200 280.000 C 347.200 279.560,347.380 279.200,347.600 279.200 C 347.820 279.200,348.000 278.840,348.000 278.400 C 348.000 277.960,348.180 277.600,348.400 277.600 C 348.620 277.600,348.800 277.240,348.800 276.800 C 348.800 276.360,348.980 276.000,349.200 276.000 C 349.420 276.000,349.600 275.730,349.600 275.400 C 349.600 275.070,349.780 274.800,350.000 274.800 C 350.220 274.800,350.400 274.440,350.400 274.000 C 350.400 273.560,350.580 273.200,350.800 273.200 C 351.020 273.200,351.200 272.840,351.200 272.400 C 351.200 271.960,351.380 271.600,351.600 271.600 C 351.820 271.600,352.000 271.240,352.000 270.800 C 352.000 270.360,352.180 270.000,352.400 270.000 C 352.620 270.000,352.800 269.640,352.800 269.200 C 352.800 268.760,352.980 268.400,353.200 268.400 C 353.420 268.400,353.600 267.860,353.600 267.200 C 353.600 266.540,353.780 266.000,354.000 266.000 C 354.220 266.000,354.400 265.640,354.400 265.200 C 354.400 264.760,354.580 264.400,354.800 264.400 C 355.020 264.400,355.200 264.040,355.200 263.600 C 355.200 263.160,355.380 262.800,355.600 262.800 C 355.820 262.800,356.000 262.260,356.000 261.600 C 356.000 260.940,356.180 260.400,356.400 260.400 C 356.620 260.400,356.800 260.040,356.800 259.600 C 356.800 259.160,356.980 258.800,357.200 258.800 C 357.420 258.800,357.600 258.361,357.600 257.824 C 357.600 257.287,357.767 256.744,357.972 256.617 C 358.177 256.491,358.467 255.400,358.618 254.194 C 358.769 252.987,359.051 252.000,359.246 252.000 C 359.441 252.000,359.600 251.460,359.600 250.800 C 359.600 250.140,359.780 249.600,360.000 249.600 C 360.220 249.600,360.400 249.060,360.400 248.400 C 360.400 247.740,360.580 247.200,360.800 247.200 C 361.020 247.200,361.200 246.480,361.200 245.600 C 361.200 244.720,361.380 244.000,361.600 244.000 C 361.820 244.000,362.000 243.370,362.000 242.600 C 362.000 241.830,362.180 241.200,362.400 241.200 C 362.620 241.200,362.800 240.480,362.800 239.600 C 362.800 238.720,362.980 238.000,363.200 238.000 C 363.420 238.000,363.600 237.100,363.600 236.000 C 363.600 234.900,363.780 234.000,364.000 234.000 C 364.220 234.000,364.400 233.100,364.400 232.000 C 364.400 230.900,364.580 230.000,364.800 230.000 C 365.022 230.000,365.200 228.933,365.200 227.600 C 365.200 226.267,365.378 225.200,365.600 225.200 C 365.831 225.200,366.000 223.933,366.000 222.200 C 366.000 220.467,366.169 219.200,366.400 219.200 C 366.646 219.200,366.800 217.200,366.800 214.000 C 366.800 210.800,366.954 208.800,367.200 208.800 C 367.455 208.800,367.600 205.600,367.600 200.000 C 367.600 194.400,367.455 191.200,367.200 191.200 C 366.954 191.200,366.800 189.200,366.800 186.000 C 366.800 182.800,366.646 180.800,366.400 180.800 C 366.169 180.800,366.000 179.533,366.000 177.800 C 366.000 176.067,365.831 174.800,365.600 174.800 C 365.378 174.800,365.200 173.733,365.200 172.400 C 365.200 171.067,365.022 170.000,364.800 170.000 C 364.578 170.000,364.400 168.933,364.400 167.600 C 364.400 166.267,364.222 165.200,364.000 165.200 C 363.780 165.200,363.600 164.480,363.600 163.600 C 363.600 162.720,363.420 162.000,363.200 162.000 C 362.980 162.000,362.800 161.280,362.800 160.400 C 362.800 159.520,362.620 158.800,362.400 158.800 C 362.180 158.800,362.000 158.170,362.000 157.400 C 362.000 156.630,361.820 156.000,361.600 156.000 C 361.380 156.000,361.200 155.280,361.200 154.400 C 361.200 153.520,361.020 152.800,360.800 152.800 C 360.580 152.800,360.400 152.260,360.400 151.600 C 360.400 150.940,360.220 150.400,360.000 150.400 C 359.780 150.400,359.600 149.860,359.600 149.200 C 359.600 148.540,359.441 148.000,359.246 148.000 C 359.051 148.000,358.769 147.013,358.618 145.806 C 358.467 144.600,358.177 143.509,357.972 143.383 C 357.767 143.256,357.600 142.713,357.600 142.176 C 357.600 141.639,357.420 141.200,357.200 141.200 C 356.980 141.200,356.800 140.840,356.800 140.400 C 356.800 139.960,356.620 139.600,356.400 139.600 C 356.180 139.600,356.000 139.060,356.000 138.400 C 356.000 137.740,355.820 137.200,355.600 137.200 C 355.380 137.200,355.200 136.840,355.200 136.400 C 355.200 135.960,355.020 135.600,354.800 135.600 C 354.580 135.600,354.400 135.060,354.400 134.400 C 354.400 133.740,354.220 133.200,354.000 133.200 C 353.780 133.200,353.600 132.840,353.600 132.400 C 353.600 131.960,353.420 131.600,353.200 131.600 C 352.980 131.600,352.800 131.240,352.800 130.800 C 352.800 130.360,352.620 130.000,352.400 130.000 C 352.180 130.000,352.000 129.640,352.000 129.200 C 352.000 128.760,351.820 128.400,351.600 128.400 C 351.380 128.400,351.200 128.040,351.200 127.600 C 351.200 127.160,351.020 126.800,350.800 126.800 C 350.580 126.800,350.400 126.440,350.400 126.000 C 350.400 125.560,350.220 125.200,350.000 125.200 C 349.780 125.200,349.600 124.930,349.600 124.600 C 349.600 124.270,349.420 124.000,349.200 124.000 C 348.980 124.000,348.800 123.640,348.800 123.200 C 348.800 122.760,348.620 122.400,348.400 122.400 C 348.180 122.400,348.000 122.040,348.000 121.600 C 348.000 121.160,347.820 120.800,347.600 120.800 C 347.380 120.800,347.200 120.440,347.200 120.000 C 347.200 119.560,347.020 119.200,346.800 119.200 C 346.580 119.200,346.400 118.880,346.400 118.488 C 346.400 118.097,346.040 117.517,345.600 117.200 C 345.160 116.883,344.800 116.303,344.800 115.912 C 344.800 115.520,344.620 115.200,344.400 115.200 C 344.180 115.200,344.000 114.840,344.000 114.400 C 344.000 113.960,343.820 113.600,343.600 113.600 C 343.380 113.600,343.200 113.280,343.200 112.888 C 343.200 112.497,342.840 111.917,342.400 111.600 C 341.960 111.283,341.600 110.725,341.600 110.361 C 341.600 109.996,341.330 109.474,341.000 109.200 C 340.670 108.926,340.400 108.494,340.400 108.239 C 340.400 107.985,340.040 107.517,339.600 107.200 C 339.160 106.883,338.800 106.343,338.800 106.000 C 338.800 105.657,338.440 105.117,338.000 104.800 C 337.560 104.483,337.200 103.943,337.200 103.600 C 337.200 103.257,336.840 102.717,336.400 102.400 C 335.960 102.083,335.600 101.575,335.600 101.272 C 335.600 100.969,335.060 100.217,334.400 99.600 C 333.740 98.983,333.200 98.267,333.200 98.008 C 333.200 97.749,332.480 96.846,331.600 96.000 C 330.720 95.154,329.998 94.224,329.996 93.931 C 329.994 93.639,329.499 93.010,328.896 92.534 C 326.709 90.807,326.000 90.097,326.000 89.636 C 326.000 88.514,311.432 74.000,310.305 74.000 C 310.014 74.000,309.512 73.620,309.188 73.156 C 308.117 71.618,306.486 70.000,306.008 70.000 C 305.749 70.000,304.846 69.280,304.000 68.400 C 303.154 67.520,302.251 66.800,301.992 66.800 C 301.733 66.800,301.017 66.260,300.400 65.600 C 299.783 64.940,299.031 64.400,298.728 64.400 C 298.425 64.400,297.917 64.040,297.600 63.600 C 297.283 63.160,296.743 62.800,296.400 62.800 C 296.057 62.800,295.517 62.440,295.200 62.000 C 294.883 61.560,294.343 61.200,294.000 61.200 C 293.657 61.200,293.117 60.840,292.800 60.400 C 292.483 59.960,292.015 59.600,291.761 59.600 C 291.506 59.600,291.074 59.330,290.800 59.000 C 290.526 58.670,290.004 58.400,289.639 58.400 C 289.275 58.400,288.717 58.040,288.400 57.600 C 288.083 57.160,287.503 56.800,287.112 56.800 C 286.720 56.800,286.400 56.620,286.400 56.400 C 286.400 56.180,286.040 56.000,285.600 56.000 C 285.160 56.000,284.800 55.820,284.800 55.600 C 284.800 55.380,284.480 55.200,284.088 55.200 C 283.697 55.200,283.117 54.840,282.800 54.400 C 282.483 53.960,281.903 53.600,281.512 53.600 C 281.120 53.600,280.800 53.420,280.800 53.200 C 280.800 52.980,280.440 52.800,280.000 52.800 C 279.560 52.800,279.200 52.620,279.200 52.400 C 279.200 52.180,278.840 52.000,278.400 52.000 C 277.960 52.000,277.600 51.820,277.600 51.600 C 277.600 51.380,277.240 51.200,276.800 51.200 C 276.360 51.200,276.000 51.020,276.000 50.800 C 276.000 50.580,275.730 50.400,275.400 50.400 C 275.070 50.400,274.800 50.220,274.800 50.000 C 274.800 49.780,274.440 49.600,274.000 49.600 C 273.560 49.600,273.200 49.420,273.200 49.200 C 273.200 48.980,272.840 48.800,272.400 48.800 C 271.960 48.800,271.600 48.620,271.600 48.400 C 271.600 48.180,271.240 48.000,270.800 48.000 C 270.360 48.000,270.000 47.820,270.000 47.600 C 270.000 47.380,269.640 47.200,269.200 47.200 C 268.760 47.200,268.400 47.020,268.400 46.800 C 268.400 46.580,267.860 46.400,267.200 46.400 C 266.540 46.400,266.000 46.220,266.000 46.000 C 266.000 45.780,265.640 45.600,265.200 45.600 C 264.760 45.600,264.400 45.420,264.400 45.200 C 264.400 44.980,264.040 44.800,263.600 44.800 C 263.160 44.800,262.800 44.620,262.800 44.400 C 262.800 44.180,262.260 44.000,261.600 44.000 C 260.940 44.000,260.400 43.820,260.400 43.600 C 260.400 43.380,260.040 43.200,259.600 43.200 C 259.160 43.200,258.800 43.020,258.800 42.800 C 258.800 42.580,258.361 42.400,257.824 42.400 C 257.287 42.400,256.744 42.233,256.617 42.028 C 256.491 41.823,255.400 41.533,254.194 41.382 C 252.987 41.231,252.000 40.949,252.000 40.754 C 252.000 40.559,251.460 40.400,250.800 40.400 C 250.140 40.400,249.600 40.220,249.600 40.000 C 249.600 39.780,249.060 39.600,248.400 39.600 C 247.740 39.600,247.200 39.420,247.200 39.200 C 247.200 38.980,246.480 38.800,245.600 38.800 C 244.720 38.800,244.000 38.620,244.000 38.400 C 244.000 38.180,243.370 38.000,242.600 38.000 C 241.830 38.000,241.200 37.820,241.200 37.600 C 241.200 37.380,240.480 37.200,239.600 37.200 C 238.720 37.200,238.000 37.020,238.000 36.800 C 238.000 36.580,237.100 36.400,236.000 36.400 C 234.900 36.400,234.000 36.220,234.000 36.000 C 234.000 35.780,233.100 35.600,232.000 35.600 C 230.900 35.600,230.000 35.420,230.000 35.200 C 230.000 34.978,228.933 34.800,227.600 34.800 C 226.267 34.800,225.200 34.622,225.200 34.400 C 225.200 34.169,223.933 34.000,222.200 34.000 C 220.467 34.000,219.200 33.831,219.200 33.600 C 219.200 33.354,217.200 33.200,214.000 33.200 C 210.800 33.200,208.800 33.046,208.800 32.800 C 208.800 32.545,205.467 32.400,199.600 32.400 C 193.733 32.400,190.400 32.545,190.400 32.800 M212.800 68.000 C 212.800 68.237,214.267 68.400,216.400 68.400 C 218.533 68.400,220.000 68.563,220.000 68.800 C 220.000 69.022,221.067 69.200,222.400 69.200 C 223.733 69.200,224.800 69.378,224.800 69.600 C 224.800 69.820,225.610 70.000,226.600 70.000 C 227.590 70.000,228.400 70.180,228.400 70.400 C 228.400 70.620,229.300 70.800,230.400 70.800 C 231.500 70.800,232.400 70.980,232.400 71.200 C 232.400 71.420,233.120 71.600,234.000 71.600 C 234.880 71.600,235.600 71.780,235.600 72.000 C 235.600 72.220,236.320 72.400,237.200 72.400 C 238.080 72.400,238.800 72.580,238.800 72.800 C 238.800 73.020,239.340 73.200,240.000 73.200 C 240.660 73.200,241.200 73.380,241.200 73.600 C 241.200 73.820,241.639 74.000,242.176 74.000 C 242.713 74.000,243.256 74.167,243.383 74.372 C 243.509 74.577,244.600 74.867,245.806 75.018 C 247.013 75.169,248.000 75.451,248.000 75.646 C 248.000 75.841,248.360 76.000,248.800 76.000 C 249.240 76.000,249.600 76.180,249.600 76.400 C 249.600 76.620,250.140 76.800,250.800 76.800 C 251.460 76.800,252.000 76.980,252.000 77.200 C 252.000 77.420,252.360 77.600,252.800 77.600 C 253.240 77.600,253.600 77.780,253.600 78.000 C 253.600 78.220,253.960 78.400,254.400 78.400 C 254.840 78.400,255.200 78.580,255.200 78.800 C 255.200 79.020,255.560 79.200,256.000 79.200 C 256.440 79.200,256.800 79.380,256.800 79.600 C 256.800 79.820,257.160 80.000,257.600 80.000 C 258.040 80.000,258.400 80.180,258.400 80.400 C 258.400 80.620,258.670 80.800,259.000 80.800 C 259.330 80.800,259.600 80.980,259.600 81.200 C 259.600 81.420,259.960 81.600,260.400 81.600 C 260.840 81.600,261.200 81.780,261.200 82.000 C 261.200 82.220,261.560 82.400,262.000 82.400 C 262.440 82.400,262.800 82.580,262.800 82.800 C 262.800 83.020,263.160 83.200,263.600 83.200 C 264.040 83.200,264.400 83.380,264.400 83.600 C 264.400 83.820,264.760 84.000,265.200 84.000 C 265.640 84.000,266.000 84.180,266.000 84.400 C 266.000 84.620,266.320 84.800,266.712 84.800 C 267.103 84.800,267.683 85.160,268.000 85.600 C 268.317 86.040,268.857 86.400,269.200 86.400 C 269.543 86.400,270.083 86.760,270.400 87.200 C 270.717 87.640,271.257 88.000,271.600 88.000 C 271.943 88.000,272.483 88.360,272.800 88.800 C 273.117 89.240,273.654 89.600,273.992 89.600 C 274.331 89.600,274.832 89.960,275.107 90.400 C 275.382 90.840,275.867 91.200,276.185 91.200 C 276.503 91.200,277.214 91.650,277.764 92.200 C 278.314 92.750,278.970 93.200,279.221 93.200 C 279.473 93.200,280.183 93.740,280.800 94.400 C 281.417 95.060,282.129 95.600,282.383 95.600 C 282.637 95.600,283.904 96.680,285.200 98.000 C 286.496 99.320,287.791 100.406,288.078 100.413 C 288.365 100.420,289.410 101.342,290.400 102.461 C 292.685 105.044,294.956 107.315,297.539 109.600 C 298.658 110.590,299.580 111.637,299.587 111.926 C 299.594 112.215,300.500 113.329,301.600 114.400 C 302.700 115.471,303.600 116.554,303.600 116.805 C 303.600 117.057,304.320 117.954,305.200 118.800 C 306.080 119.646,306.800 120.540,306.800 120.787 C 306.800 121.034,307.250 121.686,307.800 122.236 C 308.350 122.786,308.800 123.497,308.800 123.815 C 308.800 124.133,309.160 124.618,309.600 124.893 C 310.040 125.168,310.400 125.669,310.400 126.008 C 310.400 126.346,310.760 126.883,311.200 127.200 C 311.640 127.517,312.000 128.057,312.000 128.400 C 312.000 128.743,312.360 129.283,312.800 129.600 C 313.240 129.917,313.600 130.497,313.600 130.888 C 313.600 131.280,313.780 131.600,314.000 131.600 C 314.220 131.600,314.400 131.920,314.400 132.312 C 314.400 132.703,314.760 133.283,315.200 133.600 C 315.640 133.917,316.000 134.497,316.000 134.888 C 316.000 135.280,316.180 135.600,316.400 135.600 C 316.620 135.600,316.800 135.960,316.800 136.400 C 316.800 136.840,316.980 137.200,317.200 137.200 C 317.420 137.200,317.600 137.560,317.600 138.000 C 317.600 138.440,317.780 138.800,318.000 138.800 C 318.220 138.800,318.400 139.160,318.400 139.600 C 318.400 140.040,318.580 140.400,318.800 140.400 C 319.020 140.400,319.200 140.670,319.200 141.000 C 319.200 141.330,319.380 141.600,319.600 141.600 C 319.820 141.600,320.000 141.960,320.000 142.400 C 320.000 142.840,320.180 143.200,320.400 143.200 C 320.620 143.200,320.800 143.560,320.800 144.000 C 320.800 144.440,320.980 144.800,321.200 144.800 C 321.420 144.800,321.600 145.160,321.600 145.600 C 321.600 146.040,321.780 146.400,322.000 146.400 C 322.220 146.400,322.400 146.940,322.400 147.600 C 322.400 148.260,322.580 148.800,322.800 148.800 C 323.020 148.800,323.200 149.160,323.200 149.600 C 323.200 150.040,323.380 150.400,323.600 150.400 C 323.820 150.400,324.000 150.940,324.000 151.600 C 324.000 152.260,324.169 152.800,324.375 152.800 C 324.582 152.800,324.873 153.612,325.022 154.605 C 325.171 155.598,325.452 156.508,325.646 156.629 C 325.841 156.749,326.000 157.287,326.000 157.824 C 326.000 158.361,326.180 158.800,326.400 158.800 C 326.620 158.800,326.800 159.520,326.800 160.400 C 326.800 161.280,326.980 162.000,327.200 162.000 C 327.420 162.000,327.600 162.540,327.600 163.200 C 327.600 163.860,327.780 164.400,328.000 164.400 C 328.220 164.400,328.400 165.120,328.400 166.000 C 328.400 166.880,328.580 167.600,328.800 167.600 C 329.020 167.600,329.200 168.500,329.200 169.600 C 329.200 170.700,329.380 171.600,329.600 171.600 C 329.820 171.600,330.000 172.410,330.000 173.400 C 330.000 174.390,330.180 175.200,330.400 175.200 C 330.622 175.200,330.800 176.267,330.800 177.600 C 330.800 178.933,330.978 180.000,331.200 180.000 C 331.437 180.000,331.600 181.467,331.600 183.600 C 331.600 185.733,331.763 187.200,332.000 187.200 C 332.258 187.200,332.400 191.600,332.400 199.600 C 332.400 207.600,332.258 212.000,332.000 212.000 C 331.763 212.000,331.600 213.467,331.600 215.600 C 331.600 217.733,331.437 219.200,331.200 219.200 C 330.978 219.200,330.800 220.267,330.800 221.600 C 330.800 222.933,330.622 224.000,330.400 224.000 C 330.180 224.000,330.000 224.810,330.000 225.800 C 330.000 226.790,329.820 227.600,329.600 227.600 C 329.380 227.600,329.200 228.320,329.200 229.200 C 329.200 230.080,329.020 230.800,328.800 230.800 C 328.580 230.800,328.400 231.520,328.400 232.400 C 328.400 233.280,328.220 234.000,328.000 234.000 C 327.780 234.000,327.600 234.720,327.600 235.600 C 327.600 236.480,327.420 237.200,327.200 237.200 C 326.980 237.200,326.800 237.740,326.800 238.400 C 326.800 239.060,326.620 239.600,326.400 239.600 C 326.180 239.600,326.000 240.039,326.000 240.576 C 326.000 241.113,325.841 241.651,325.646 241.771 C 325.452 241.892,325.171 242.802,325.022 243.795 C 324.873 244.788,324.582 245.600,324.375 245.600 C 324.169 245.600,324.000 246.140,324.000 246.800 C 324.000 247.460,323.820 248.000,323.600 248.000 C 323.380 248.000,323.200 248.360,323.200 248.800 C 323.200 249.240,323.020 249.600,322.800 249.600 C 322.580 249.600,322.400 250.140,322.400 250.800 C 322.400 251.460,322.220 252.000,322.000 252.000 C 321.780 252.000,321.600 252.360,321.600 252.800 C 321.600 253.240,321.420 253.600,321.200 253.600 C 320.980 253.600,320.800 253.960,320.800 254.400 C 320.800 254.840,320.620 255.200,320.400 255.200 C 320.180 255.200,320.000 255.560,320.000 256.000 C 320.000 256.440,319.820 256.800,319.600 256.800 C 319.380 256.800,319.200 257.160,319.200 257.600 C 319.200 258.040,319.020 258.400,318.800 258.400 C 318.580 258.400,318.400 258.670,318.400 259.000 C 318.400 259.330,318.220 259.600,318.000 259.600 C 317.780 259.600,317.600 259.960,317.600 260.400 C 317.600 260.840,317.420 261.200,317.200 261.200 C 316.980 261.200,316.800 261.560,316.800 262.000 C 316.800 262.440,316.620 262.800,316.400 262.800 C 316.180 262.800,316.000 263.160,316.000 263.600 C 316.000 264.040,315.820 264.400,315.600 264.400 C 315.380 264.400,315.200 264.720,315.200 265.112 C 315.200 265.503,314.840 266.083,314.400 266.400 C 313.960 266.717,313.600 267.297,313.600 267.688 C 313.600 268.080,313.420 268.400,313.200 268.400 C 312.980 268.400,312.800 268.720,312.800 269.112 C 312.800 269.503,312.440 270.083,312.000 270.400 C 311.560 270.717,311.200 271.257,311.200 271.600 C 311.200 271.943,310.840 272.483,310.400 272.800 C 309.960 273.117,309.600 273.678,309.600 274.046 C 309.600 274.413,309.330 274.818,309.000 274.945 C 308.670 275.071,308.400 275.468,308.400 275.827 C 308.400 276.186,307.860 276.983,307.200 277.600 C 306.540 278.217,306.000 279.009,306.000 279.360 C 306.000 281.366,303.057 278.730,287.343 262.647 C 285.112 260.364,283.042 258.408,282.743 258.302 C 282.340 258.158,282.432 257.901,283.100 257.307 C 283.595 256.867,284.000 256.252,284.000 255.941 C 284.000 255.631,284.360 255.117,284.800 254.800 C 285.240 254.483,285.600 253.943,285.600 253.600 C 285.600 253.257,285.960 252.717,286.400 252.400 C 286.840 252.083,287.200 251.503,287.200 251.112 C 287.200 250.720,287.380 250.400,287.600 250.400 C 287.820 250.400,288.000 250.040,288.000 249.600 C 288.000 249.160,288.180 248.800,288.400 248.800 C 288.620 248.800,288.800 248.440,288.800 248.000 C 288.800 247.560,288.980 247.200,289.200 247.200 C 289.420 247.200,289.600 246.840,289.600 246.400 C 289.600 245.960,289.780 245.600,290.000 245.600 C 290.220 245.600,290.400 245.240,290.400 244.800 C 290.400 244.360,290.560 244.000,290.755 244.000 C 290.951 244.000,291.229 243.370,291.374 242.600 C 291.518 241.830,291.808 241.200,292.018 241.200 C 292.228 241.200,292.400 240.840,292.400 240.400 C 292.400 239.960,292.580 239.600,292.800 239.600 C 293.020 239.600,293.200 239.060,293.200 238.400 C 293.200 237.740,293.380 237.200,293.600 237.200 C 293.820 237.200,294.000 236.840,294.000 236.400 C 294.000 235.960,294.180 235.600,294.400 235.600 C 294.620 235.600,294.800 235.060,294.800 234.400 C 294.800 233.740,294.980 233.200,295.200 233.200 C 295.420 233.200,295.600 232.660,295.600 232.000 C 295.600 231.340,295.780 230.800,296.000 230.800 C 296.220 230.800,296.400 230.080,296.400 229.200 C 296.400 228.320,296.580 227.600,296.800 227.600 C 297.020 227.600,297.200 227.060,297.200 226.400 C 297.200 225.740,297.380 225.200,297.600 225.200 C 297.820 225.200,298.000 224.570,298.000 223.800 C 298.000 223.030,298.180 222.400,298.400 222.400 C 298.620 222.400,298.800 221.500,298.800 220.400 C 298.800 219.300,298.980 218.400,299.200 218.400 C 299.429 218.400,299.600 217.200,299.600 215.600 C 299.600 214.000,299.771 212.800,300.000 212.800 C 300.259 212.800,300.400 208.133,300.400 199.600 C 300.400 191.067,300.259 186.400,300.000 186.400 C 299.771 186.400,299.600 185.200,299.600 183.600 C 299.600 182.000,299.429 180.800,299.200 180.800 C 298.980 180.800,298.800 179.900,298.800 178.800 C 298.800 177.700,298.620 176.800,298.400 176.800 C 298.180 176.800,298.000 176.170,298.000 175.400 C 298.000 174.630,297.820 174.000,297.600 174.000 C 297.380 174.000,297.200 173.280,297.200 172.400 C 297.200 171.520,297.020 170.800,296.800 170.800 C 296.580 170.800,296.400 170.260,296.400 169.600 C 296.400 168.940,296.220 168.400,296.000 168.400 C 295.780 168.400,295.600 167.860,295.600 167.200 C 295.600 166.540,295.420 166.000,295.200 166.000 C 294.980 166.000,294.800 165.460,294.800 164.800 C 294.800 164.140,294.620 163.600,294.400 163.600 C 294.180 163.600,294.000 163.060,294.000 162.400 C 294.000 161.740,293.820 161.200,293.600 161.200 C 293.380 161.200,293.200 160.840,293.200 160.400 C 293.200 159.960,293.020 159.600,292.800 159.600 C 292.580 159.600,292.400 159.330,292.400 159.000 C 292.400 158.670,292.243 158.400,292.052 158.400 C 291.860 158.400,291.584 157.500,291.438 156.400 C 291.292 155.300,290.999 154.400,290.786 154.400 C 290.574 154.400,290.400 154.080,290.400 153.688 C 290.400 153.297,290.040 152.717,289.600 152.400 C 289.160 152.083,288.800 151.503,288.800 151.112 C 288.800 150.720,288.620 150.400,288.400 150.400 C 288.180 150.400,288.000 150.040,288.000 149.600 C 288.000 149.160,287.820 148.800,287.600 148.800 C 287.380 148.800,287.200 148.480,287.200 148.088 C 287.200 147.697,286.840 147.117,286.400 146.800 C 285.960 146.483,285.600 145.943,285.600 145.600 C 285.600 145.257,285.240 144.717,284.800 144.400 C 284.360 144.083,283.999 143.548,283.999 143.212 C 283.998 142.875,283.459 142.240,282.800 141.800 C 282.141 141.360,281.602 140.757,281.601 140.460 C 281.601 140.164,281.060 139.417,280.400 138.800 C 279.740 138.183,279.200 137.477,279.200 137.231 C 279.200 136.984,278.255 135.807,277.100 134.615 C 274.431 131.861,274.000 131.332,274.000 130.808 C 274.000 130.254,269.746 126.000,269.192 126.000 C 268.668 126.000,268.139 125.569,265.385 122.900 C 264.193 121.745,263.016 120.800,262.769 120.800 C 262.523 120.800,261.817 120.260,261.200 119.600 C 260.583 118.940,259.791 118.400,259.440 118.400 C 259.088 118.400,258.800 118.248,258.800 118.061 C 258.800 117.472,257.330 116.000,256.741 116.000 C 256.431 116.000,255.917 115.640,255.600 115.200 C 255.283 114.760,254.703 114.400,254.312 114.400 C 253.920 114.400,253.600 114.220,253.600 114.000 C 253.600 113.780,253.280 113.600,252.888 113.600 C 252.497 113.600,251.917 113.240,251.600 112.800 C 251.283 112.360,250.703 112.000,250.312 112.000 C 249.920 112.000,249.600 111.820,249.600 111.600 C 249.600 111.380,249.240 111.200,248.800 111.200 C 248.360 111.200,248.000 111.020,248.000 110.800 C 248.000 110.580,247.640 110.400,247.200 110.400 C 246.760 110.400,246.400 110.220,246.400 110.000 C 246.400 109.780,246.040 109.600,245.600 109.600 C 245.160 109.600,244.800 109.436,244.800 109.235 C 244.800 109.034,244.080 108.749,243.200 108.600 C 242.320 108.451,241.600 108.166,241.600 107.965 C 241.600 107.764,241.330 107.600,241.000 107.600 C 240.670 107.600,240.400 107.420,240.400 107.200 C 240.400 106.980,240.040 106.800,239.600 106.800 C 239.160 106.800,238.800 106.620,238.800 106.400 C 238.800 106.180,238.260 106.000,237.600 106.000 C 236.940 106.000,236.400 105.820,236.400 105.600 C 236.400 105.380,235.860 105.200,235.200 105.200 C 234.540 105.200,234.000 105.020,234.000 104.800 C 234.000 104.580,233.460 104.400,232.800 104.400 C 232.140 104.400,231.600 104.220,231.600 104.000 C 231.600 103.780,231.060 103.600,230.400 103.600 C 229.740 103.600,229.200 103.420,229.200 103.200 C 229.200 102.980,228.480 102.800,227.600 102.800 C 226.720 102.800,226.000 102.620,226.000 102.400 C 226.000 102.180,225.370 102.000,224.600 102.000 C 223.830 102.000,223.200 101.820,223.200 101.600 C 223.200 101.380,222.300 101.200,221.200 101.200 C 220.100 101.200,219.200 101.020,219.200 100.800 C 219.200 100.571,218.000 100.400,216.400 100.400 C 214.800 100.400,213.600 100.229,213.600 100.000 C 213.600 99.741,208.800 99.600,200.000 99.600 C 191.200 99.600,186.400 99.741,186.400 100.000 C 186.400 100.229,185.200 100.400,183.600 100.400 C 182.000 100.400,180.800 100.571,180.800 100.800 C 180.800 101.020,179.900 101.200,178.800 101.200 C 177.700 101.200,176.800 101.380,176.800 101.600 C 176.800 101.820,176.170 102.000,175.400 102.000 C 174.630 102.000,174.000 102.180,174.000 102.400 C 174.000 102.620,173.280 102.800,172.400 102.800 C 171.520 102.800,170.800 102.980,170.800 103.200 C 170.800 103.420,170.260 103.600,169.600 103.600 C 168.940 103.600,168.400 103.780,168.400 104.000 C 168.400 104.220,167.860 104.400,167.200 104.400 C 166.540 104.400,166.000 104.580,166.000 104.800 C 166.000 105.020,165.460 105.200,164.800 105.200 C 164.140 105.200,163.600 105.380,163.600 105.600 C 163.600 105.820,163.060 106.000,162.400 106.000 C 161.740 106.000,161.200 106.180,161.200 106.400 C 161.200 106.620,160.840 106.800,160.400 106.800 C 159.960 106.800,159.600 106.980,159.600 107.200 C 159.600 107.420,159.330 107.600,159.000 107.600 C 158.670 107.600,158.400 107.757,158.400 107.948 C 158.400 108.140,157.500 108.416,156.400 108.562 C 155.300 108.708,154.400 109.001,154.400 109.214 C 154.400 109.426,154.080 109.600,153.688 109.600 C 153.297 109.600,152.717 109.960,152.400 110.400 C 152.083 110.840,151.503 111.200,151.112 111.200 C 150.720 111.200,150.400 111.380,150.400 111.600 C 150.400 111.820,150.040 112.000,149.600 112.000 C 149.160 112.000,148.800 112.180,148.800 112.400 C 148.800 112.620,148.480 112.800,148.088 112.800 C 147.697 112.800,147.117 113.160,146.800 113.600 C 146.483 114.040,145.943 114.400,145.600 114.400 C 145.257 114.400,144.717 114.760,144.400 115.200 C 144.083 115.640,143.548 116.001,143.212 116.001 C 142.875 116.002,142.240 116.541,141.800 117.200 C 141.360 117.859,140.757 118.398,140.460 118.399 C 140.164 118.399,139.417 118.940,138.800 119.600 C 138.183 120.260,137.477 120.800,137.231 120.800 C 136.984 120.800,135.807 121.745,134.615 122.900 C 131.861 125.569,131.332 126.000,130.808 126.000 C 130.254 126.000,126.000 130.254,126.000 130.808 C 126.000 131.332,125.569 131.861,122.900 134.615 C 121.745 135.807,120.800 136.984,120.800 137.231 C 120.800 137.477,120.260 138.183,119.600 138.800 C 118.940 139.417,118.399 140.164,118.399 140.460 C 118.398 140.757,117.859 141.360,117.200 141.800 C 116.541 142.240,116.002 142.875,116.001 143.212 C 116.001 143.548,115.640 144.083,115.200 144.400 C 114.760 144.717,114.400 145.297,114.400 145.688 C 114.400 146.080,114.220 146.400,114.000 146.400 C 113.780 146.400,113.600 146.720,113.600 147.112 C 113.600 147.503,113.240 148.083,112.800 148.400 C 112.360 148.717,112.000 149.297,112.000 149.688 C 112.000 150.080,111.820 150.400,111.600 150.400 C 111.380 150.400,111.200 150.760,111.200 151.200 C 111.200 151.640,111.020 152.000,110.800 152.000 C 110.580 152.000,110.400 152.360,110.400 152.800 C 110.400 153.240,110.220 153.600,110.000 153.600 C 109.780 153.600,109.600 153.960,109.600 154.400 C 109.600 154.840,109.436 155.200,109.235 155.200 C 109.034 155.200,108.749 155.920,108.600 156.800 C 108.451 157.680,108.166 158.400,107.965 158.400 C 107.764 158.400,107.600 158.670,107.600 159.000 C 107.600 159.330,107.420 159.600,107.200 159.600 C 106.980 159.600,106.800 159.960,106.800 160.400 C 106.800 160.840,106.620 161.200,106.400 161.200 C 106.180 161.200,106.000 161.740,106.000 162.400 C 106.000 163.060,105.820 163.600,105.600 163.600 C 105.380 163.600,105.200 164.140,105.200 164.800 C 105.200 165.460,105.020 166.000,104.800 166.000 C 104.580 166.000,104.400 166.540,104.400 167.200 C 104.400 167.860,104.220 168.400,104.000 168.400 C 103.780 168.400,103.600 168.940,103.600 169.600 C 103.600 170.260,103.420 170.800,103.200 170.800 C 102.980 170.800,102.800 171.520,102.800 172.400 C 102.800 173.280,102.620 174.000,102.400 174.000 C 102.180 174.000,102.000 174.630,102.000 175.400 C 102.000 176.170,101.820 176.800,101.600 176.800 C 101.380 176.800,101.200 177.700,101.200 178.800 C 101.200 179.900,101.020 180.800,100.800 180.800 C 100.571 180.800,100.400 182.000,100.400 183.600 C 100.400 185.200,100.229 186.400,100.000 186.400 C 99.741 186.400,99.600 191.200,99.600 200.000 C 99.600 208.800,99.741 213.600,100.000 213.600 C 100.229 213.600,100.400 214.800,100.400 216.400 C 100.400 218.000,100.571 219.200,100.800 219.200 C 101.020 219.200,101.200 220.100,101.200 221.200 C 101.200 222.300,101.380 223.200,101.600 223.200 C 101.820 223.200,102.000 223.830,102.000 224.600 C 102.000 225.370,102.180 226.000,102.400 226.000 C 102.620 226.000,102.800 226.720,102.800 227.600 C 102.800 228.480,102.980 229.200,103.200 229.200 C 103.420 229.200,103.600 229.740,103.600 230.400 C 103.600 231.060,103.780 231.600,104.000 231.600 C 104.220 231.600,104.400 232.140,104.400 232.800 C 104.400 233.460,104.580 234.000,104.800 234.000 C 105.020 234.000,105.200 234.540,105.200 235.200 C 105.200 235.860,105.380 236.400,105.600 236.400 C 105.820 236.400,106.000 236.940,106.000 237.600 C 106.000 238.260,106.180 238.800,106.400 238.800 C 106.620 238.800,106.800 239.160,106.800 239.600 C 106.800 240.040,106.980 240.400,107.200 240.400 C 107.420 240.400,107.600 240.670,107.600 241.000 C 107.600 241.330,107.757 241.600,107.948 241.600 C 108.140 241.600,108.416 242.500,108.562 243.600 C 108.708 244.700,109.001 245.600,109.214 245.600 C 109.426 245.600,109.600 245.920,109.600 246.312 C 109.600 246.703,109.960 247.283,110.400 247.600 C 110.840 247.917,111.200 248.497,111.200 248.888 C 111.200 249.280,111.380 249.600,111.600 249.600 C 111.820 249.600,112.000 249.960,112.000 250.400 C 112.000 250.840,112.180 251.200,112.400 251.200 C 112.620 251.200,112.800 251.520,112.800 251.912 C 112.800 252.303,113.160 252.883,113.600 253.200 C 114.040 253.517,114.400 254.057,114.400 254.400 C 114.400 254.743,114.760 255.283,115.200 255.600 C 115.640 255.917,116.000 256.431,116.000 256.741 C 116.000 257.330,117.472 258.800,118.061 258.800 C 118.248 258.800,118.400 259.088,118.400 259.440 C 118.400 259.791,118.940 260.583,119.600 261.200 C 120.260 261.817,120.800 262.523,120.800 262.769 C 120.800 263.016,121.745 264.193,122.900 265.385 C 125.569 268.139,126.000 268.668,126.000 269.192 C 126.000 269.746,130.254 274.000,130.808 274.000 C 131.332 274.000,131.861 274.431,134.615 277.100 C 135.807 278.255,136.984 279.200,137.231 279.200 C 137.477 279.200,138.183 279.740,138.800 280.400 C 139.417 281.060,140.164 281.601,140.460 281.601 C 140.757 281.602,141.360 282.141,141.800 282.800 C 142.240 283.459,142.875 283.998,143.212 283.999 C 143.548 283.999,144.083 284.360,144.400 284.800 C 144.717 285.240,145.297 285.600,145.688 285.600 C 146.080 285.600,146.400 285.780,146.400 286.000 C 146.400 286.220,146.720 286.400,147.112 286.400 C 147.503 286.400,148.083 286.760,148.400 287.200 C 148.717 287.640,149.297 288.000,149.688 288.000 C 150.080 288.000,150.400 288.180,150.400 288.400 C 150.400 288.620,150.760 288.800,151.200 288.800 C 151.640 288.800,152.000 288.980,152.000 289.200 C 152.000 289.420,152.360 289.600,152.800 289.600 C 153.240 289.600,153.600 289.780,153.600 290.000 C 153.600 290.220,153.960 290.400,154.400 290.400 C 154.840 290.400,155.200 290.564,155.200 290.765 C 155.200 290.966,155.920 291.251,156.800 291.400 C 157.680 291.549,158.400 291.834,158.400 292.035 C 158.400 292.236,158.670 292.400,159.000 292.400 C 159.330 292.400,159.600 292.580,159.600 292.800 C 159.600 293.020,159.960 293.200,160.400 293.200 C 160.840 293.200,161.200 293.380,161.200 293.600 C 161.200 293.820,161.740 294.000,162.400 294.000 C 163.060 294.000,163.600 294.180,163.600 294.400 C 163.600 294.620,164.140 294.800,164.800 294.800 C 165.460 294.800,166.000 294.980,166.000 295.200 C 166.000 295.420,166.540 295.600,167.200 295.600 C 167.860 295.600,168.400 295.780,168.400 296.000 C 168.400 296.220,168.940 296.400,169.600 296.400 C 170.260 296.400,170.800 296.580,170.800 296.800 C 170.800 297.020,171.520 297.200,172.400 297.200 C 173.280 297.200,174.000 297.380,174.000 297.600 C 174.000 297.820,174.630 298.000,175.400 298.000 C 176.170 298.000,176.800 298.180,176.800 298.400 C 176.800 298.620,177.700 298.800,178.800 298.800 C 179.900 298.800,180.800 298.980,180.800 299.200 C 180.800 299.429,182.000 299.600,183.600 299.600 C 185.200 299.600,186.400 299.771,186.400 300.000 C 186.400 300.259,191.067 300.400,199.600 300.400 C 208.133 300.400,212.800 300.259,212.800 300.000 C 212.800 299.771,214.000 299.600,215.600 299.600 C 217.200 299.600,218.400 299.429,218.400 299.200 C 218.400 298.980,219.300 298.800,220.400 298.800 C 221.500 298.800,222.400 298.620,222.400 298.400 C 222.400 298.180,223.030 298.000,223.800 298.000 C 224.570 298.000,225.200 297.820,225.200 297.600 C 225.200 297.380,225.920 297.200,226.800 297.200 C 227.680 297.200,228.400 297.020,228.400 296.800 C 228.400 296.580,228.940 296.400,229.600 296.400 C 230.260 296.400,230.800 296.220,230.800 296.000 C 230.800 295.780,231.340 295.600,232.000 295.600 C 232.660 295.600,233.200 295.420,233.200 295.200 C 233.200 294.980,233.740 294.800,234.400 294.800 C 235.060 294.800,235.600 294.620,235.600 294.400 C 235.600 294.180,236.140 294.000,236.800 294.000 C 237.460 294.000,238.000 293.820,238.000 293.600 C 238.000 293.380,238.360 293.200,238.800 293.200 C 239.240 293.200,239.600 293.020,239.600 292.800 C 239.600 292.580,240.050 292.400,240.600 292.400 C 241.150 292.400,241.600 292.236,241.600 292.035 C 241.600 291.834,242.320 291.549,243.200 291.400 C 244.080 291.251,244.800 290.966,244.800 290.765 C 244.800 290.564,245.160 290.400,245.600 290.400 C 246.040 290.400,246.400 290.220,246.400 290.000 C 246.400 289.780,246.760 289.600,247.200 289.600 C 247.640 289.600,248.000 289.420,248.000 289.200 C 248.000 288.980,248.320 288.800,248.712 288.800 C 249.103 288.800,249.683 288.440,250.000 288.000 C 250.317 287.560,250.897 287.200,251.288 287.200 C 251.680 287.200,252.000 287.020,252.000 286.800 C 252.000 286.580,252.320 286.400,252.712 286.400 C 253.103 286.400,253.683 286.040,254.000 285.600 C 254.317 285.160,254.857 284.800,255.200 284.800 C 255.543 284.800,256.083 284.440,256.400 284.000 C 257.111 283.013,258.260 282.961,258.599 283.900 C 258.738 284.285,260.464 286.130,262.433 288.000 C 266.282 291.655,273.437 298.774,277.518 303.009 C 280.043 305.630,280.290 306.800,278.317 306.800 C 278.020 306.800,277.517 307.160,277.200 307.600 C 276.883 308.040,276.328 308.400,275.968 308.400 C 275.607 308.400,274.974 308.850,274.561 309.400 C 274.148 309.950,273.533 310.400,273.193 310.400 C 272.854 310.400,272.317 310.760,272.000 311.200 C 271.683 311.640,271.103 312.000,270.712 312.000 C 270.320 312.000,270.000 312.180,270.000 312.400 C 270.000 312.620,269.680 312.800,269.288 312.800 C 268.897 312.800,268.317 313.160,268.000 313.600 C 267.683 314.040,267.103 314.400,266.712 314.400 C 266.320 314.400,266.000 314.580,266.000 314.800 C 266.000 315.020,265.640 315.200,265.200 315.200 C 264.760 315.200,264.400 315.380,264.400 315.600 C 264.400 315.820,264.080 316.000,263.688 316.000 C 263.297 316.000,262.717 316.360,262.400 316.800 C 262.083 317.240,261.503 317.600,261.112 317.600 C 260.720 317.600,260.400 317.780,260.400 318.000 C 260.400 318.220,260.040 318.400,259.600 318.400 C 259.160 318.400,258.800 318.580,258.800 318.800 C 258.800 319.020,258.530 319.200,258.200 319.200 C 257.870 319.200,257.600 319.380,257.600 319.600 C 257.600 319.820,257.240 320.000,256.800 320.000 C 256.360 320.000,256.000 320.180,256.000 320.400 C 256.000 320.620,255.460 320.800,254.800 320.800 C 254.140 320.800,253.600 320.980,253.600 321.200 C 253.600 321.420,253.240 321.600,252.800 321.600 C 252.360 321.600,252.000 321.780,252.000 322.000 C 252.000 322.220,251.640 322.400,251.200 322.400 C 250.760 322.400,250.400 322.580,250.400 322.800 C 250.400 323.020,249.860 323.200,249.200 323.200 C 248.540 323.200,248.000 323.380,248.000 323.600 C 248.000 323.820,247.640 324.000,247.200 324.000 C 246.760 324.000,246.400 324.159,246.400 324.354 C 246.400 324.549,245.413 324.831,244.206 324.982 C 243.000 325.133,241.909 325.423,241.783 325.628 C 241.656 325.833,241.113 326.000,240.576 326.000 C 240.039 326.000,239.600 326.180,239.600 326.400 C 239.600 326.620,239.060 326.800,238.400 326.800 C 237.740 326.800,237.200 326.980,237.200 327.200 C 237.200 327.420,236.480 327.600,235.600 327.600 C 234.720 327.600,234.000 327.780,234.000 328.000 C 234.000 328.220,233.280 328.400,232.400 328.400 C 231.520 328.400,230.800 328.580,230.800 328.800 C 230.800 329.020,230.080 329.200,229.200 329.200 C 228.320 329.200,227.600 329.380,227.600 329.600 C 227.600 329.820,226.790 330.000,225.800 330.000 C 224.810 330.000,224.000 330.180,224.000 330.400 C 224.000 330.622,222.933 330.800,221.600 330.800 C 220.267 330.800,219.200 330.978,219.200 331.200 C 219.200 331.437,217.733 331.600,215.600 331.600 C 213.467 331.600,212.000 331.763,212.000 332.000 C 212.000 332.258,207.600 332.400,199.600 332.400 C 191.600 332.400,187.200 332.258,187.200 332.000 C 187.200 331.763,185.733 331.600,183.600 331.600 C 181.467 331.600,180.000 331.437,180.000 331.200 C 180.000 330.978,178.933 330.800,177.600 330.800 C 176.267 330.800,175.200 330.622,175.200 330.400 C 175.200 330.180,174.390 330.000,173.400 330.000 C 172.410 330.000,171.600 329.820,171.600 329.600 C 171.600 329.380,170.700 329.200,169.600 329.200 C 168.500 329.200,167.600 329.020,167.600 328.800 C 167.600 328.580,166.880 328.400,166.000 328.400 C 165.120 328.400,164.400 328.220,164.400 328.000 C 164.400 327.780,163.860 327.600,163.200 327.600 C 162.540 327.600,162.000 327.420,162.000 327.200 C 162.000 326.980,161.280 326.800,160.400 326.800 C 159.520 326.800,158.800 326.620,158.800 326.400 C 158.800 326.180,158.361 326.000,157.824 326.000 C 157.287 326.000,156.744 325.833,156.617 325.628 C 156.491 325.423,155.400 325.133,154.194 324.982 C 152.987 324.831,152.000 324.549,152.000 324.354 C 152.000 324.159,151.640 324.000,151.200 324.000 C 150.760 324.000,150.400 323.820,150.400 323.600 C 150.400 323.380,149.860 323.200,149.200 323.200 C 148.540 323.200,148.000 323.020,148.000 322.800 C 148.000 322.580,147.640 322.400,147.200 322.400 C 146.760 322.400,146.400 322.220,146.400 322.000 C 146.400 321.780,146.040 321.600,145.600 321.600 C 145.160 321.600,144.800 321.420,144.800 321.200 C 144.800 320.980,144.440 320.800,144.000 320.800 C 143.560 320.800,143.200 320.620,143.200 320.400 C 143.200 320.180,142.840 320.000,142.400 320.000 C 141.960 320.000,141.600 319.820,141.600 319.600 C 141.600 319.380,141.330 319.200,141.000 319.200 C 140.670 319.200,140.400 319.020,140.400 318.800 C 140.400 318.580,140.040 318.400,139.600 318.400 C 139.160 318.400,138.800 318.220,138.800 318.000 C 138.800 317.780,138.440 317.600,138.000 317.600 C 137.560 317.600,137.200 317.420,137.200 317.200 C 137.200 316.980,136.840 316.800,136.400 316.800 C 135.960 316.800,135.600 316.620,135.600 316.400 C 135.600 316.180,135.240 316.000,134.800 316.000 C 134.360 316.000,134.000 315.820,134.000 315.600 C 134.000 315.380,133.680 315.200,133.288 315.200 C 132.897 315.200,132.317 314.840,132.000 314.400 C 131.683 313.960,131.143 313.600,130.800 313.600 C 130.457 313.600,129.917 313.240,129.600 312.800 C 129.283 312.360,128.743 312.000,128.400 312.000 C 128.057 312.000,127.517 311.640,127.200 311.200 C 126.883 310.760,126.346 310.400,126.008 310.400 C 125.669 310.400,125.168 310.040,124.893 309.600 C 124.618 309.160,124.133 308.800,123.815 308.800 C 123.497 308.800,122.786 308.350,122.236 307.800 C 121.686 307.250,121.030 306.800,120.779 306.800 C 120.527 306.800,119.817 306.260,119.200 305.600 C 118.583 304.940,117.871 304.400,117.617 304.400 C 117.363 304.400,116.096 303.320,114.800 302.000 C 113.504 300.680,112.209 299.594,111.922 299.587 C 111.635 299.580,110.590 298.658,109.600 297.539 C 107.315 294.956,105.044 292.685,102.461 290.400 C 101.342 289.410,100.420 288.363,100.413 288.074 C 100.406 287.785,99.500 286.671,98.400 285.600 C 97.300 284.529,96.400 283.446,96.400 283.195 C 96.400 282.943,95.680 282.046,94.800 281.200 C 93.920 280.354,93.200 279.460,93.200 279.213 C 93.200 278.966,92.750 278.314,92.200 277.764 C 91.650 277.214,91.200 276.503,91.200 276.185 C 91.200 275.867,90.840 275.382,90.400 275.107 C 89.960 274.832,89.600 274.331,89.600 273.992 C 89.600 273.654,89.240 273.117,88.800 272.800 C 88.360 272.483,88.000 271.943,88.000 271.600 C 88.000 271.257,87.640 270.717,87.200 270.400 C 86.760 270.083,86.400 269.503,86.400 269.112 C 86.400 268.720,86.220 268.400,86.000 268.400 C 85.780 268.400,85.600 268.080,85.600 267.688 C 85.600 267.297,85.240 266.717,84.800 266.400 C 84.360 266.083,84.000 265.503,84.000 265.112 C 84.000 264.720,83.820 264.400,83.600 264.400 C 83.380 264.400,83.200 264.040,83.200 263.600 C 83.200 263.160,83.020 262.800,82.800 262.800 C 82.580 262.800,82.400 262.440,82.400 262.000 C 82.400 261.560,82.220 261.200,82.000 261.200 C 81.780 261.200,81.600 260.840,81.600 260.400 C 81.600 259.960,81.420 259.600,81.200 259.600 C 80.980 259.600,80.800 259.330,80.800 259.000 C 80.800 258.670,80.620 258.400,80.400 258.400 C 80.180 258.400,80.000 258.040,80.000 257.600 C 80.000 257.160,79.820 256.800,79.600 256.800 C 79.380 256.800,79.200 256.440,79.200 256.000 C 79.200 255.560,79.020 255.200,78.800 255.200 C 78.580 255.200,78.400 254.840,78.400 254.400 C 78.400 253.960,78.220 253.600,78.000 253.600 C 77.780 253.600,77.600 253.060,77.600 252.400 C 77.600 251.740,77.420 251.200,77.200 251.200 C 76.980 251.200,76.800 250.840,76.800 250.400 C 76.800 249.960,76.620 249.600,76.400 249.600 C 76.180 249.600,76.000 249.060,76.000 248.400 C 76.000 247.740,75.831 247.200,75.625 247.200 C 75.418 247.200,75.127 246.388,74.978 245.395 C 74.829 244.402,74.548 243.492,74.354 243.371 C 74.159 243.251,74.000 242.713,74.000 242.176 C 74.000 241.639,73.820 241.200,73.600 241.200 C 73.380 241.200,73.200 240.480,73.200 239.600 C 73.200 238.720,73.020 238.000,72.800 238.000 C 72.580 238.000,72.400 237.460,72.400 236.800 C 72.400 236.140,72.220 235.600,72.000 235.600 C 71.780 235.600,71.600 234.880,71.600 234.000 C 71.600 233.120,71.420 232.400,71.200 232.400 C 70.980 232.400,70.800 231.500,70.800 230.400 C 70.800 229.300,70.620 228.400,70.400 228.400 C 70.180 228.400,70.000 227.590,70.000 226.600 C 70.000 225.610,69.820 224.800,69.600 224.800 C 69.378 224.800,69.200 223.733,69.200 222.400 C 69.200 221.067,69.022 220.000,68.800 220.000 C 68.563 220.000,68.400 218.533,68.400 216.400 C 68.400 214.267,68.237 212.800,68.000 212.800 C 67.742 212.800,67.600 208.267,67.600 200.000 C 67.600 191.733,67.742 187.200,68.000 187.200 C 68.237 187.200,68.400 185.733,68.400 183.600 C 68.400 181.467,68.563 180.000,68.800 180.000 C 69.022 180.000,69.200 178.933,69.200 177.600 C 69.200 176.267,69.378 175.200,69.600 175.200 C 69.820 175.200,70.000 174.390,70.000 173.400 C 70.000 172.410,70.180 171.600,70.400 171.600 C 70.620 171.600,70.800 170.700,70.800 169.600 C 70.800 168.500,70.980 167.600,71.200 167.600 C 71.420 167.600,71.600 166.880,71.600 166.000 C 71.600 165.120,71.780 164.400,72.000 164.400 C 72.220 164.400,72.400 163.680,72.400 162.800 C 72.400 161.920,72.580 161.200,72.800 161.200 C 73.020 161.200,73.200 160.660,73.200 160.000 C 73.200 159.340,73.380 158.800,73.600 158.800 C 73.820 158.800,74.000 158.361,74.000 157.824 C 74.000 157.287,74.167 156.744,74.372 156.617 C 74.577 156.491,74.867 155.400,75.018 154.194 C 75.169 152.987,75.451 152.000,75.646 152.000 C 75.841 152.000,76.000 151.640,76.000 151.200 C 76.000 150.760,76.180 150.400,76.400 150.400 C 76.620 150.400,76.800 149.860,76.800 149.200 C 76.800 148.540,76.980 148.000,77.200 148.000 C 77.420 148.000,77.600 147.640,77.600 147.200 C 77.600 146.760,77.780 146.400,78.000 146.400 C 78.220 146.400,78.400 146.040,78.400 145.600 C 78.400 145.160,78.580 144.800,78.800 144.800 C 79.020 144.800,79.200 144.440,79.200 144.000 C 79.200 143.560,79.380 143.200,79.600 143.200 C 79.820 143.200,80.000 142.840,80.000 142.400 C 80.000 141.960,80.180 141.600,80.400 141.600 C 80.620 141.600,80.800 141.330,80.800 141.000 C 80.800 140.670,80.980 140.400,81.200 140.400 C 81.420 140.400,81.600 140.040,81.600 139.600 C 81.600 139.160,81.780 138.800,82.000 138.800 C 82.220 138.800,82.400 138.440,82.400 138.000 C 82.400 137.560,82.580 137.200,82.800 137.200 C 83.020 137.200,83.200 136.840,83.200 136.400 C 83.200 135.960,83.380 135.600,83.600 135.600 C 83.820 135.600,84.000 135.240,84.000 134.800 C 84.000 134.360,84.180 134.000,84.400 134.000 C 84.620 134.000,84.800 133.680,84.800 133.288 C 84.800 132.897,85.160 132.317,85.600 132.000 C 86.040 131.683,86.400 131.143,86.400 130.800 C 86.400 130.457,86.760 129.917,87.200 129.600 C 87.640 129.283,88.000 128.743,88.000 128.400 C 88.000 128.057,88.360 127.517,88.800 127.200 C 89.240 126.883,89.600 126.346,89.600 126.008 C 89.600 125.669,89.960 125.168,90.400 124.893 C 90.840 124.618,91.200 124.133,91.200 123.815 C 91.200 123.497,91.650 122.786,92.200 122.236 C 92.750 121.686,93.200 121.030,93.200 120.779 C 93.200 120.527,93.740 119.817,94.400 119.200 C 95.060 118.583,95.600 117.871,95.600 117.617 C 95.600 117.363,96.680 116.096,98.000 114.800 C 99.320 113.504,100.408 112.209,100.418 111.922 C 100.429 111.635,101.157 110.770,102.038 110.000 C 104.095 108.202,108.202 104.095,110.000 102.038 C 110.770 101.157,111.637 100.429,111.926 100.418 C 112.215 100.408,113.329 99.500,114.400 98.400 C 115.471 97.300,116.554 96.400,116.805 96.400 C 117.057 96.400,117.954 95.680,118.800 94.800 C 119.646 93.920,120.540 93.200,120.787 93.200 C 121.034 93.200,121.686 92.750,122.236 92.200 C 122.786 91.650,123.497 91.200,123.815 91.200 C 124.133 91.200,124.618 90.840,124.893 90.400 C 125.168 89.960,125.669 89.600,126.008 89.600 C 126.346 89.600,126.883 89.240,127.200 88.800 C 127.517 88.360,128.057 88.000,128.400 88.000 C 128.743 88.000,129.283 87.640,129.600 87.200 C 129.917 86.760,130.497 86.400,130.888 86.400 C 131.280 86.400,131.600 86.220,131.600 86.000 C 131.600 85.780,131.920 85.600,132.312 85.600 C 132.703 85.600,133.283 85.240,133.600 84.800 C 133.917 84.360,134.497 84.000,134.888 84.000 C 135.280 84.000,135.600 83.820,135.600 83.600 C 135.600 83.380,135.960 83.200,136.400 83.200 C 136.840 83.200,137.200 83.020,137.200 82.800 C 137.200 82.580,137.560 82.400,138.000 82.400 C 138.440 82.400,138.800 82.220,138.800 82.000 C 138.800 81.780,139.160 81.600,139.600 81.600 C 140.040 81.600,140.400 81.420,140.400 81.200 C 140.400 80.980,140.670 80.800,141.000 80.800 C 141.330 80.800,141.600 80.620,141.600 80.400 C 141.600 80.180,141.960 80.000,142.400 80.000 C 142.840 80.000,143.200 79.820,143.200 79.600 C 143.200 79.380,143.560 79.200,144.000 79.200 C 144.440 79.200,144.800 79.020,144.800 78.800 C 144.800 78.580,145.160 78.400,145.600 78.400 C 146.040 78.400,146.400 78.220,146.400 78.000 C 146.400 77.780,146.940 77.600,147.600 77.600 C 148.260 77.600,148.800 77.420,148.800 77.200 C 148.800 76.980,149.160 76.800,149.600 76.800 C 150.040 76.800,150.400 76.620,150.400 76.400 C 150.400 76.180,150.940 76.000,151.600 76.000 C 152.260 76.000,152.800 75.831,152.800 75.625 C 152.800 75.418,153.612 75.127,154.605 74.978 C 155.598 74.829,156.508 74.548,156.629 74.354 C 156.749 74.159,157.287 74.000,157.824 74.000 C 158.361 74.000,158.800 73.820,158.800 73.600 C 158.800 73.380,159.520 73.200,160.400 73.200 C 161.280 73.200,162.000 73.020,162.000 72.800 C 162.000 72.580,162.540 72.400,163.200 72.400 C 163.860 72.400,164.400 72.220,164.400 72.000 C 164.400 71.780,165.120 71.600,166.000 71.600 C 166.880 71.600,167.600 71.420,167.600 71.200 C 167.600 70.980,168.500 70.800,169.600 70.800 C 170.700 70.800,171.600 70.620,171.600 70.400 C 171.600 70.180,172.410 70.000,173.400 70.000 C 174.390 70.000,175.200 69.820,175.200 69.600 C 175.200 69.378,176.267 69.200,177.600 69.200 C 178.933 69.200,180.000 69.022,180.000 68.800 C 180.000 68.563,181.467 68.400,183.600 68.400 C 185.733 68.400,187.200 68.237,187.200 68.000 C 187.200 67.742,191.733 67.600,200.000 67.600 C 208.267 67.600,212.800 67.742,212.800 68.000 M206.800 134.400 C 206.800 134.626,207.933 134.800,209.400 134.800 C 210.867 134.800,212.000 134.974,212.000 135.200 C 212.000 135.420,212.900 135.600,214.000 135.600 C 215.100 135.600,216.000 135.780,216.000 136.000 C 216.000 136.220,216.540 136.400,217.200 136.400 C 217.860 136.400,218.400 136.580,218.400 136.800 C 218.400 137.020,219.120 137.200,220.000 137.200 C 220.880 137.200,221.600 137.380,221.600 137.600 C 221.600 137.820,221.960 138.000,222.400 138.000 C 222.840 138.000,223.200 138.180,223.200 138.400 C 223.200 138.620,223.524 138.800,223.920 138.800 C 224.814 138.800,226.793 139.694,226.797 140.100 C 226.799 140.265,227.160 140.400,227.600 140.400 C 228.040 140.400,228.400 140.564,228.400 140.765 C 228.400 140.966,229.120 141.251,230.000 141.400 C 230.880 141.549,231.600 141.834,231.600 142.035 C 231.600 142.236,231.920 142.400,232.312 142.400 C 232.703 142.400,233.283 142.760,233.600 143.200 C 233.917 143.640,234.457 144.000,234.800 144.000 C 235.143 144.000,235.683 144.360,236.000 144.800 C 236.317 145.240,236.825 145.600,237.128 145.600 C 237.431 145.600,238.183 146.140,238.800 146.800 C 239.417 147.460,240.209 148.000,240.560 148.000 C 240.912 148.000,241.200 148.166,241.200 148.368 C 241.200 148.876,251.086 158.800,251.592 158.800 C 251.816 158.800,252.000 159.088,252.000 159.440 C 252.000 159.791,252.540 160.583,253.200 161.200 C 253.860 161.817,254.400 162.569,254.400 162.872 C 254.400 163.175,254.760 163.683,255.200 164.000 C 255.640 164.317,256.000 164.857,256.000 165.200 C 256.000 165.543,256.360 166.083,256.800 166.400 C 257.240 166.717,257.600 167.297,257.600 167.688 C 257.600 168.080,257.764 168.400,257.965 168.400 C 258.166 168.400,258.451 169.120,258.600 170.000 C 258.749 170.880,259.034 171.600,259.235 171.600 C 259.436 171.600,259.600 171.960,259.600 172.400 C 259.600 172.840,259.735 173.201,259.900 173.203 C 260.306 173.207,261.200 175.186,261.200 176.080 C 261.200 176.476,261.380 176.800,261.600 176.800 C 261.820 176.800,262.000 177.340,262.000 178.000 C 262.000 178.660,262.180 179.200,262.400 179.200 C 262.620 179.200,262.800 179.740,262.800 180.400 C 262.800 181.060,262.980 181.600,263.200 181.600 C 263.420 181.600,263.600 182.320,263.600 183.200 C 263.600 184.080,263.780 184.800,264.000 184.800 C 264.220 184.800,264.400 185.520,264.400 186.400 C 264.400 187.280,264.580 188.000,264.800 188.000 C 265.031 188.000,265.200 189.267,265.200 191.000 C 265.200 192.733,265.369 194.000,265.600 194.000 C 265.849 194.000,266.000 196.267,266.000 200.000 C 266.000 203.733,265.849 206.000,265.600 206.000 C 265.374 206.000,265.200 207.133,265.200 208.600 C 265.200 210.067,265.026 211.200,264.800 211.200 C 264.580 211.200,264.400 212.100,264.400 213.200 C 264.400 214.300,264.220 215.200,264.000 215.200 C 263.780 215.200,263.600 215.920,263.600 216.800 C 263.600 217.680,263.420 218.400,263.200 218.400 C 262.980 218.400,262.800 218.940,262.800 219.600 C 262.800 220.260,262.620 220.800,262.400 220.800 C 262.180 220.800,262.000 221.340,262.000 222.000 C 262.000 222.660,261.820 223.200,261.600 223.200 C 261.380 223.200,261.200 223.545,261.200 223.967 C 261.200 224.388,261.058 224.793,260.885 224.867 C 260.428 225.061,258.400 229.363,258.400 230.140 C 258.400 230.503,258.220 230.800,258.000 230.800 C 257.780 230.800,257.600 231.160,257.600 231.600 C 257.600 232.777,257.522 232.724,253.395 228.700 C 237.919 213.615,232.277 207.600,233.600 207.600 C 233.852 207.600,234.000 204.933,234.000 200.400 C 234.000 195.867,233.852 193.200,233.600 193.200 C 233.380 193.200,233.200 192.570,233.200 191.800 C 233.200 191.030,233.020 190.400,232.800 190.400 C 232.580 190.400,232.400 189.860,232.400 189.200 C 232.400 188.540,232.220 188.000,232.000 188.000 C 231.780 188.000,231.600 187.460,231.600 186.800 C 231.600 186.140,231.420 185.600,231.200 185.600 C 230.980 185.600,230.800 185.240,230.800 184.800 C 230.800 184.360,230.620 184.000,230.400 184.000 C 230.180 184.000,230.000 183.680,230.000 183.288 C 230.000 182.897,229.640 182.317,229.200 182.000 C 228.760 181.683,228.400 181.179,228.400 180.880 C 228.400 180.582,227.680 179.646,226.800 178.800 C 225.920 177.954,225.200 177.038,225.200 176.763 C 225.200 176.058,223.986 174.800,223.307 174.800 C 222.993 174.800,222.046 174.080,221.200 173.200 C 220.354 172.320,219.418 171.600,219.120 171.600 C 218.821 171.600,218.317 171.240,218.000 170.800 C 217.683 170.360,217.103 170.000,216.712 170.000 C 216.320 170.000,216.000 169.820,216.000 169.600 C 216.000 169.380,215.640 169.200,215.200 169.200 C 214.760 169.200,214.400 169.020,214.400 168.800 C 214.400 168.580,213.860 168.400,213.200 168.400 C 212.540 168.400,212.000 168.220,212.000 168.000 C 212.000 167.780,211.460 167.600,210.800 167.600 C 210.140 167.600,209.600 167.420,209.600 167.200 C 209.600 166.980,208.970 166.800,208.200 166.800 C 207.430 166.800,206.800 166.620,206.800 166.400 C 206.800 166.149,204.267 166.000,200.000 166.000 C 195.733 166.000,193.200 166.149,193.200 166.400 C 193.200 166.620,192.570 166.800,191.800 166.800 C 191.030 166.800,190.400 166.980,190.400 167.200 C 190.400 167.420,189.860 167.600,189.200 167.600 C 188.540 167.600,188.000 167.780,188.000 168.000 C 188.000 168.220,187.460 168.400,186.800 168.400 C 186.140 168.400,185.600 168.580,185.600 168.800 C 185.600 169.020,185.240 169.200,184.800 169.200 C 184.360 169.200,184.000 169.380,184.000 169.600 C 184.000 169.820,183.680 170.000,183.288 170.000 C 182.897 170.000,182.317 170.360,182.000 170.800 C 181.683 171.240,181.179 171.600,180.880 171.600 C 180.582 171.600,179.647 172.319,178.803 173.197 C 177.959 174.075,176.803 174.971,176.234 175.187 C 175.665 175.403,175.200 175.850,175.200 176.180 C 175.200 176.509,174.390 177.589,173.400 178.579 C 172.410 179.569,171.600 180.654,171.600 180.989 C 171.600 181.325,171.420 181.600,171.200 181.600 C 170.980 181.600,170.800 181.920,170.800 182.312 C 170.800 182.703,170.440 183.283,170.000 183.600 C 169.560 183.917,169.200 184.497,169.200 184.888 C 169.200 185.280,169.020 185.600,168.800 185.600 C 168.580 185.600,168.400 186.140,168.400 186.800 C 168.400 187.460,168.220 188.000,168.000 188.000 C 167.780 188.000,167.600 188.540,167.600 189.200 C 167.600 189.860,167.420 190.400,167.200 190.400 C 166.980 190.400,166.800 191.030,166.800 191.800 C 166.800 192.570,166.620 193.200,166.400 193.200 C 166.149 193.200,166.000 195.733,166.000 200.000 C 166.000 204.267,166.149 206.800,166.400 206.800 C 166.620 206.800,166.800 207.430,166.800 208.200 C 166.800 208.970,166.980 209.600,167.200 209.600 C 167.420 209.600,167.600 210.140,167.600 210.800 C 167.600 211.460,167.780 212.000,168.000 212.000 C 168.220 212.000,168.400 212.540,168.400 213.200 C 168.400 213.860,168.580 214.400,168.800 214.400 C 169.020 214.400,169.200 214.760,169.200 215.200 C 169.200 215.640,169.380 216.000,169.600 216.000 C 169.820 216.000,170.000 216.320,170.000 216.712 C 170.000 217.103,170.360 217.683,170.800 218.000 C 171.240 218.317,171.600 218.819,171.600 219.115 C 171.600 219.871,180.210 228.400,180.973 228.400 C 181.318 228.400,181.600 228.580,181.600 228.800 C 181.600 229.020,181.920 229.200,182.312 229.200 C 182.703 229.200,183.283 229.560,183.600 230.000 C 183.917 230.440,184.497 230.800,184.888 230.800 C 185.280 230.800,185.600 230.980,185.600 231.200 C 185.600 231.420,186.140 231.600,186.800 231.600 C 187.460 231.600,188.000 231.780,188.000 232.000 C 188.000 232.220,188.540 232.400,189.200 232.400 C 189.860 232.400,190.400 232.580,190.400 232.800 C 190.400 233.020,191.030 233.200,191.800 233.200 C 192.570 233.200,193.200 233.380,193.200 233.600 C 193.200 233.851,195.733 234.000,200.000 234.000 C 204.267 234.000,206.800 233.851,206.800 233.600 C 206.800 232.910,208.334 233.165,208.599 233.900 C 208.738 234.285,210.464 236.130,212.433 238.000 C 221.359 246.475,231.600 257.033,231.600 257.759 C 231.600 258.113,230.992 258.432,230.000 258.600 C 229.120 258.749,228.400 259.034,228.400 259.235 C 228.400 259.436,228.040 259.600,227.600 259.600 C 227.160 259.600,226.800 259.780,226.800 260.000 C 226.800 260.220,226.350 260.400,225.800 260.400 C 225.250 260.400,224.800 260.580,224.800 260.800 C 224.800 261.020,224.440 261.200,224.000 261.200 C 223.560 261.200,223.200 261.380,223.200 261.600 C 223.200 261.820,222.660 262.000,222.000 262.000 C 221.340 262.000,220.800 262.180,220.800 262.400 C 220.800 262.620,220.260 262.800,219.600 262.800 C 218.940 262.800,218.400 262.980,218.400 263.200 C 218.400 263.420,217.680 263.600,216.800 263.600 C 215.920 263.600,215.200 263.780,215.200 264.000 C 215.200 264.220,214.480 264.400,213.600 264.400 C 212.720 264.400,212.000 264.580,212.000 264.800 C 212.000 265.031,210.733 265.200,209.000 265.200 C 207.267 265.200,206.000 265.369,206.000 265.600 C 206.000 265.849,203.733 266.000,200.000 266.000 C 196.267 266.000,194.000 265.849,194.000 265.600 C 194.000 265.369,192.733 265.200,191.000 265.200 C 189.267 265.200,188.000 265.031,188.000 264.800 C 188.000 264.580,187.100 264.400,186.000 264.400 C 184.900 264.400,184.000 264.220,184.000 264.000 C 184.000 263.780,183.460 263.600,182.800 263.600 C 182.140 263.600,181.600 263.420,181.600 263.200 C 181.600 262.980,180.880 262.800,180.000 262.800 C 179.120 262.800,178.400 262.620,178.400 262.400 C 178.400 262.180,178.040 262.000,177.600 262.000 C 177.160 262.000,176.800 261.820,176.800 261.600 C 176.800 261.380,176.476 261.200,176.080 261.200 C 175.186 261.200,173.207 260.306,173.203 259.900 C 173.201 259.735,172.840 259.600,172.400 259.600 C 171.960 259.600,171.600 259.436,171.600 259.235 C 171.600 259.034,170.880 258.749,170.000 258.600 C 169.120 258.451,168.400 258.166,168.400 257.965 C 168.400 257.764,168.080 257.600,167.688 257.600 C 167.297 257.600,166.717 257.240,166.400 256.800 C 166.083 256.360,165.543 256.000,165.200 256.000 C 164.857 256.000,164.317 255.640,164.000 255.200 C 163.683 254.760,163.175 254.400,162.872 254.400 C 162.569 254.400,161.817 253.860,161.200 253.200 C 160.583 252.540,159.791 252.000,159.440 252.000 C 159.088 252.000,158.800 251.816,158.800 251.592 C 158.800 251.086,148.876 241.200,148.368 241.200 C 148.166 241.200,148.000 240.912,148.000 240.560 C 148.000 240.209,147.460 239.417,146.800 238.800 C 146.140 238.183,145.600 237.431,145.600 237.128 C 145.600 236.825,145.240 236.317,144.800 236.000 C 144.360 235.683,144.000 235.143,144.000 234.800 C 144.000 234.457,143.640 233.917,143.200 233.600 C 142.760 233.283,142.400 232.703,142.400 232.312 C 142.400 231.920,142.236 231.600,142.035 231.600 C 141.834 231.600,141.549 230.880,141.400 230.000 C 141.251 229.120,140.966 228.400,140.765 228.400 C 140.564 228.400,140.400 228.040,140.400 227.600 C 140.400 227.160,140.265 226.799,140.100 226.797 C 139.694 226.793,138.800 224.814,138.800 223.920 C 138.800 223.524,138.620 223.200,138.400 223.200 C 138.180 223.200,138.000 222.660,138.000 222.000 C 138.000 221.340,137.820 220.800,137.600 220.800 C 137.380 220.800,137.200 220.260,137.200 219.600 C 137.200 218.940,137.020 218.400,136.800 218.400 C 136.580 218.400,136.400 217.680,136.400 216.800 C 136.400 215.920,136.220 215.200,136.000 215.200 C 135.780 215.200,135.600 214.480,135.600 213.600 C 135.600 212.720,135.420 212.000,135.200 212.000 C 134.969 212.000,134.800 210.733,134.800 209.000 C 134.800 207.267,134.631 206.000,134.400 206.000 C 134.150 206.000,134.000 203.600,134.000 199.600 C 134.000 195.600,134.150 193.200,134.400 193.200 C 134.626 193.200,134.800 192.067,134.800 190.600 C 134.800 189.133,134.974 188.000,135.200 188.000 C 135.420 188.000,135.600 187.100,135.600 186.000 C 135.600 184.900,135.780 184.000,136.000 184.000 C 136.220 184.000,136.400 183.460,136.400 182.800 C 136.400 182.140,136.580 181.600,136.800 181.600 C 137.020 181.600,137.200 180.880,137.200 180.000 C 137.200 179.120,137.380 178.400,137.600 178.400 C 137.820 178.400,138.000 178.040,138.000 177.600 C 138.000 177.160,138.180 176.800,138.400 176.800 C 138.620 176.800,138.800 176.350,138.800 175.800 C 138.800 175.250,138.980 174.800,139.200 174.800 C 139.420 174.800,139.600 174.440,139.600 174.000 C 139.600 173.560,139.780 173.200,140.000 173.200 C 140.220 173.200,140.400 172.840,140.400 172.400 C 140.400 171.960,140.564 171.600,140.765 171.600 C 140.966 171.600,141.251 170.880,141.400 170.000 C 141.549 169.120,141.834 168.400,142.035 168.400 C 142.236 168.400,142.400 168.080,142.400 167.688 C 142.400 167.297,142.760 166.717,143.200 166.400 C 143.640 166.083,144.000 165.543,144.000 165.200 C 144.000 164.857,144.360 164.317,144.800 164.000 C 145.240 163.683,145.600 163.175,145.600 162.872 C 145.600 162.569,146.140 161.817,146.800 161.200 C 147.460 160.583,148.000 159.791,148.000 159.440 C 148.000 159.088,148.178 158.800,148.396 158.800 C 148.614 158.800,151.044 156.548,153.796 153.796 C 156.548 151.044,158.800 148.614,158.800 148.396 C 158.800 148.178,159.088 148.000,159.440 148.000 C 159.791 148.000,160.583 147.460,161.200 146.800 C 161.817 146.140,162.569 145.600,162.872 145.600 C 163.175 145.600,163.683 145.240,164.000 144.800 C 164.317 144.360,164.857 144.000,165.200 144.000 C 165.543 144.000,166.083 143.640,166.400 143.200 C 166.717 142.760,167.297 142.400,167.688 142.400 C 168.080 142.400,168.400 142.236,168.400 142.035 C 168.400 141.834,169.120 141.549,170.000 141.400 C 170.880 141.251,171.600 140.966,171.600 140.765 C 171.600 140.564,171.960 140.400,172.400 140.400 C 172.840 140.400,173.200 140.220,173.200 140.000 C 173.200 139.780,173.560 139.600,174.000 139.600 C 174.440 139.600,174.800 139.420,174.800 139.200 C 174.800 138.980,175.250 138.800,175.800 138.800 C 176.350 138.800,176.800 138.620,176.800 138.400 C 176.800 138.180,177.340 138.000,178.000 138.000 C 178.660 138.000,179.200 137.820,179.200 137.600 C 179.200 137.380,179.740 137.200,180.400 137.200 C 181.060 137.200,181.600 137.020,181.600 136.800 C 181.600 136.580,182.320 136.400,183.200 136.400 C 184.080 136.400,184.800 136.220,184.800 136.000 C 184.800 135.780,185.520 135.600,186.400 135.600 C 187.280 135.600,188.000 135.420,188.000 135.200 C 188.000 134.969,189.267 134.800,191.000 134.800 C 192.733 134.800,194.000 134.631,194.000 134.400 C 194.000 134.150,196.400 134.000,200.400 134.000 C 204.400 134.000,206.800 134.150,206.800 134.400 " stroke="none" fill="#faa649" fill-rule="evenodd"></path><path id="path1" d="" stroke="none" fill="#faa649" fill-rule="evenodd"></path><path id="path2" d="" stroke="none" fill="#faa649" fill-rule="evenodd"></path><path id="path3" d="" stroke="none" fill="#faa649" fill-rule="evenodd"></path><path id="path4" d="" stroke="none" fill="#faa649" fill-rule="evenodd"></path></g></svg>